# SSTK version 0.8.0
# 42
mtllib original-42.mtl
o _3035_B1/_3035_B/mesh31/mesh31-geometry#mesh31-geometry
v -0.050359 -0.176912 0.404041
v -0.050359 -0.141928 0.359176
v -0.050359 -0.176912 0.359176
v -0.050359 -0.141928 0.404041
v -0.034142 -0.176912 0.359176
v -0.047637 -0.176912 0.401319
v -0.047637 -0.141928 0.401319
v -0.034142 -0.141928 0.359176
v -0.036864 -0.176912 0.401319
v -0.042251 -0.176912 0.399876
v -0.042251 -0.141928 0.399876
v -0.036864 -0.141928 0.401319
v -0.034142 -0.141928 0.404041
v -0.034142 -0.176912 0.404041
vn -1 0 0
vn 0 0 -1
vn 0 -1 0
vn 0 1 0
vn 1 0 0
vn 0 0 1
usemtl material_0_0
f 1//1 2//1 3//1
f 2//1 1//1 4//1
f 2//2 5//2 3//2
f 3//3 6//3 1//3
f 7//4 2//4 4//4
f 5//2 2//2 8//2
f 5//3 9//3 3//3
f 3//3 10//3 6//3
f 11//4 2//4 7//4
f 12//4 8//4 2//4
f 13//5 5//5 8//5
f 9//3 5//3 14//3
f 3//3 9//3 10//3
f 12//4 2//4 11//4
f 8//4 12//4 13//4
f 5//5 13//5 14//5
usemtl material_1_0
f 3//5 2//5 1//5
f 4//5 1//5 2//5
f 3//6 5//6 2//6
f 1//4 6//4 3//4
f 4//3 2//3 7//3
f 8//6 2//6 5//6
f 3//4 9//4 5//4
f 6//4 10//4 3//4
f 7//3 2//3 11//3
f 2//3 8//3 12//3
f 8//1 5//1 13//1
f 14//4 5//4 9//4
f 10//4 9//4 3//4
f 11//3 2//3 12//3
f 13//3 12//3 8//3
f 14//1 13//1 5//1
