# SSTK version 0.8.0
# 31
mtllib original-31.mtl
o LB_31_CR1/LB_31_CR/mesh20/mesh20-geometry#mesh20-geometry
v 0.591669 -0.626075 0.249444
v -0.618922 -0.626894 0.249695
v -0.618922 -0.626075 0.249444
v 0.591669 -0.626894 0.249695
v 0.591669 -0.535291 0.249444
v -0.618922 -0.627587 0.250073
v -0.618922 -0.535291 0.249444
v 0.591669 -0.627587 0.250073
v 0.591669 -0.535295 0.254671
v -0.618922 -0.628721 0.251142
v -0.618922 -0.535295 0.254671
v 0.591669 -0.628721 0.251142
v -0.618922 -0.474579 0.254671
v 0.591669 -0.629036 0.251835
v 0.591670 -0.474579 0.254671
v -0.618922 -0.629036 0.251835
v 0.591669 -0.629226 0.252591
v -0.618922 -0.629226 0.252591
v 0.591669 -0.629236 0.267516
v -0.618922 -0.629236 0.267516
v 0.591669 -0.627602 0.271674
v -0.618922 -0.627602 0.271674
v 0.591669 -0.624707 0.274950
v -0.618922 -0.624707 0.274950
v 0.591669 -0.622882 0.276148
v -0.618922 -0.622882 0.276148
v -0.618922 -0.620867 0.276968
v 0.591669 -0.620867 0.276968
v 0.591669 -0.618663 0.277411
v -0.618922 -0.618663 0.277411
v 0.591669 -0.618665 0.280307
v -0.618922 -0.618665 0.280307
v 0.591669 -0.618477 0.280748
v -0.618922 -0.618477 0.280748
v 0.591669 -0.618351 0.280937
v -0.618922 -0.618351 0.280937
v 0.591669 -0.618036 0.281253
v -0.618922 -0.618036 0.281253
v -0.618922 -0.617785 0.281379
v 0.591669 -0.617785 0.281379
v -0.618922 -0.617281 0.281442
v 0.591669 -0.617281 0.281442
v -0.618922 -0.543615 0.281442
v 0.591669 -0.543615 0.281442
v -0.618922 -0.543614 0.278785
v 0.591669 -0.543614 0.278785
v -0.618922 -0.541787 0.278283
v 0.591669 -0.541787 0.278283
v 0.591669 -0.540086 0.277402
v -0.618922 -0.540086 0.277402
v -0.618922 -0.537376 0.274759
v 0.591669 -0.537376 0.274759
v -0.618922 -0.536189 0.273122
v 0.591669 -0.536189 0.273122
v -0.618922 -0.535306 0.271360
v 0.591669 -0.535306 0.271360
v -0.618922 -0.535302 0.264505
v 0.591669 -0.535302 0.264505
v -0.618922 -0.512544 0.265141
v 0.591669 -0.512544 0.265141
v -0.618922 -0.501338 0.269809
v 0.591669 -0.501338 0.269809
v 0.591669 -0.486217 0.272212
v -0.618922 -0.486217 0.272212
v -0.618922 -0.484455 0.272843
v 0.591669 -0.484455 0.272843
v -0.618922 -0.483699 0.273348
v 0.591669 -0.483699 0.273348
v 0.591669 -0.483070 0.273978
v -0.618922 -0.483070 0.273978
v 0.591669 -0.482504 0.274797
v -0.618922 -0.482504 0.274797
v 0.591669 -0.481749 0.276498
v -0.618922 -0.481749 0.276498
v 0.591669 -0.481751 0.279332
v -0.618922 -0.481751 0.279332
v 0.591669 -0.481059 0.280718
v -0.618922 -0.481059 0.280718
v -0.618922 -0.480619 0.281033
v 0.591669 -0.480619 0.281033
v -0.618922 -0.479675 0.281474
v 0.591669 -0.479675 0.281474
v -0.618922 -0.474579 0.281474
v 0.591670 -0.474579 0.281474
vt 0.338311 0.666689
vt 0.338711 0.075523
vt 0.338311 0.075523
vt 0.338711 0.666689
vt 0.293979 0.666689
vt 0.33905 0.075523
vt 0.293979 0.075523
vt 0.33905 0.666689
vt 0.293981 0.666689
vt 0.339604 0.075523
vt 0.293981 0.075523
vt 0.339604 0.666689
vt 0.264332 0.075523
vt 0.339758 0.666689
vt 0.264332 0.666689
vt 0.339758 0.075523
vt 0.33985 0.666689
vt 0.33985 0.075523
vt 0.339855 0.666689
vt 0.339855 0.075523
vt 0.339057 0.666689
vt 0.339057 0.075523
vt 0.337644 0.666689
vt 0.337644 0.075523
vt 0.336752 0.666689
vt 0.336752 0.075523
vt 0.335768 0.075523
vt 0.335768 0.666689
vt 0.334692 0.666689
vt 0.334692 0.075523
vt 0.334693 0.666689
vt 0.334693 0.075523
vt 0.334601 0.666689
vt 0.334601 0.075523
vt 0.33454 0.666689
vt 0.33454 0.075523
vt 0.334386 0.666689
vt 0.334386 0.075523
vt 0.334263 0.075523
vt 0.334263 0.666689
vt 0.334017 0.075523
vt 0.334017 0.666689
vt 0.298044 0.075523
vt 0.298044 0.666689
vt 0.298043 0.075523
vt 0.298043 0.666689
vt 0.297151 0.075523
vt 0.297151 0.666689
vt 0.296321 0.666689
vt 0.296321 0.075523
vt 0.294997 0.075523
vt 0.294997 0.666689
vt 0.294418 0.075523
vt 0.294418 0.666689
vt 0.293987 0.075523
vt 0.293987 0.666689
vt 0.293984 0.075523
vt 0.293984 0.666689
vt 0.282871 0.075523
vt 0.282871 0.666689
vt 0.277399 0.075523
vt 0.277399 0.666689
vt 0.270015 0.666689
vt 0.270015 0.075523
vt 0.269154 0.075523
vt 0.269154 0.666689
vt 0.268785 0.075523
vt 0.268785 0.666689
vt 0.268478 0.666689
vt 0.268478 0.075523
vt 0.268202 0.666689
vt 0.268202 0.075523
vt 0.267833 0.666689
vt 0.267833 0.075523
vt 0.267834 0.666689
vt 0.267834 0.075523
vt 0.267496 0.666689
vt 0.267496 0.075523
vt 0.267281 0.075523
vt 0.267281 0.666689
vt 0.26682 0.075523
vt 0.26682 0.666689
vn 0 -0.14835800221586298 -0.9889337203162394
vn 0 -0.38779820692722916 -0.9217442978961279
vn 0 0 -1
vn 0 -0.5870530469295822 -0.8095484667953451
vn 0 0.9999997591984623 0.0006939762368894148
vn 0 -0.8133133538738644 -0.5818259090230051
vn 0 -0.9439207555054012 -0.3301720874424615
vn 0 -0.99242304332 -0.12286782771527155
vn 0 -0.9825783298556123 0.18584893246439513
vn 0 -0.8530200324305031 0.5218781699518228
vn 0 -0.654850852371657 0.7557581366734429
vn 0 -0.46501423924472496 0.8853032007734127
vn 0 -0.28819602629055185 0.9575714335914242
vn 0 -0.19680252042412882 0.9804431487621862
vn 0 -0.9797183624844547 0.20037946554170363
vn 0 -0.9999997591984623 -0.0006939762368894148
vn 0 -0.8796172201569933 0.4756821901262267
vn 0 -0.7737925489867886 0.6334390982032356
vn 0 -0.5852862284248569 0.8108267575852477
vn 0 -0.2904569804736313 0.9568880511816106
vn 0 -0.06248611409697297 0.9980458333889581
vn 0 0 1
vn 0 0.9999997500925883 0.0007069757853214671
vn 0 0.2652683639547581 0.9641746185648976
vn 0 0.3644837313462242 0.9312097559540136
vn 0 0.5853530547901955 0.8107785155316997
vn 0 0.756617949583019 0.6538572308759673
vn 0 0.8546520281313881 0.5192012238149146
vn 0 0.9730911142538625 0.23042066608743256
vn 0 -0.027921952315005574 0.9996101062809032
vn 0 -0.20974378447063274 0.9777563831936547
vn 0 -0.2726757048608541 0.9621060024647161
vn 0 -0.24806995339295324 0.9687421216317673
vn 0 -0.44951312627895523 0.8932737258550261
vn 0 -0.6345380537719681 0.7728916213255793
vn 0 -0.768206574590662 0.6402020452604641
vn 0 -0.8721698383155783 0.48920320229182707
vn 0 -0.9783607555641898 0.2069063362293868
vn 0 -0.9734098026636545 0.2290706355653316
vn 0 -0.7607121187939594 0.649089417815454
vn 0 -0.5047970884246095 0.8632380317838396
vn 0 -0.4235256475496696 0.9058841128243905
vn 0 0.14835800221586298 0.9889337203162394
vn 0 0.38779820692722916 0.9217442978961279
vn 0 0.5870530469295822 0.8095484667953451
vn 0 0.8133133538738644 0.5818259090230051
vn 0 0.9439207555054012 0.3301720874424615
vn 0 0.99242304332 0.12286782771527155
vn 0 0.9825783298556123 -0.18584893246439513
vn 0 0.8530200324305031 -0.5218781699518228
vn 0 0.654850852371657 -0.7557581366734429
vn 0 0.46501423924472496 -0.8853032007734127
vn 0 0.28819602629055185 -0.9575714335914242
vn 0 0.19680252042412882 -0.9804431487621862
vn 0 0.9797183624844547 -0.20037946554170363
vn 0 0.8796172201569933 -0.4756821901262267
vn 0 0.7737925489867886 -0.6334390982032356
vn 0 0.5852862284248569 -0.8108267575852477
vn 0 0.2904569804736313 -0.9568880511816106
vn 0 0.06248611409697297 -0.9980458333889581
vn 0 -0.9999997500925883 -0.0007069757853214671
vn 0 -0.2652683639547581 -0.9641746185648976
vn 0 -0.3644837313462242 -0.9312097559540136
vn 0 -0.5853530547901955 -0.8107785155316997
vn 0 -0.756617949583019 -0.6538572308759673
vn 0 -0.8546520281313881 -0.5192012238149146
vn 0 -0.9730911142538625 -0.23042066608743256
vn 0 0.027921952315005574 -0.9996101062809032
vn 0 0.20974378447063274 -0.9777563831936547
vn 0 0.2726757048608541 -0.9621060024647161
vn 0 0.24806995339295324 -0.9687421216317673
vn 0 0.44951312627895523 -0.8932737258550261
vn 0 0.6345380537719681 -0.7728916213255793
vn 0 0.768206574590662 -0.6402020452604641
vn 0 0.8721698383155783 -0.48920320229182707
vn 0 0.9783607555641898 -0.2069063362293868
vn 0 0.9734098026636545 -0.2290706355653316
vn 0 0.7607121187939594 -0.649089417815454
vn 0 0.5047970884246095 -0.8632380317838396
vn 0 0.4235256475496696 -0.9058841128243905
usemtl material_0_0
f 1/1/1 2/2/2 3/3/1
f 2/2/2 1/1/1 4/4/2
f 3/3/1 5/5/3 1/1/1
f 4/4/2 6/6/4 2/2/2
f 5/5/3 3/3/1 7/7/3
f 6/6/4 4/4/2 8/8/4
f 7/7/5 9/9/5 5/5/5
f 8/8/4 10/10/6 6/6/4
f 9/9/5 7/7/5 11/11/5
f 10/10/6 8/8/4 12/12/6
f 13/13/3 9/9/3 11/11/3
f 14/14/7 10/10/6 12/12/6
f 9/9/3 13/13/3 15/15/3
f 10/10/6 14/14/7 16/16/7
f 17/17/8 16/16/7 14/14/7
f 16/16/7 17/17/8 18/18/8
f 19/19/9 18/18/8 17/17/8
f 18/18/8 19/19/9 20/20/9
f 21/21/10 20/20/9 19/19/9
f 20/20/9 21/21/10 22/22/10
f 23/23/11 22/22/10 21/21/10
f 22/22/10 23/23/11 24/24/11
f 25/25/12 24/24/11 23/23/11
f 24/24/11 25/25/12 26/26/12
f 25/25/12 27/27/13 26/26/12
f 27/27/13 25/25/12 28/28/13
f 29/29/14 27/27/13 28/28/13
f 27/27/13 29/29/14 30/30/14
f 31/31/15 30/30/16 29/29/16
f 30/30/16 31/31/15 32/32/15
f 33/33/17 32/32/15 31/31/15
f 32/32/15 33/33/17 34/34/17
f 35/35/18 34/34/17 33/33/17
f 34/34/17 35/35/18 36/36/18
f 37/37/19 36/36/18 35/35/18
f 36/36/18 37/37/19 38/38/19
f 37/37/19 39/39/20 38/38/19
f 39/39/20 37/37/19 40/40/20
f 40/40/20 41/41/21 39/39/20
f 41/41/21 40/40/20 42/42/21
f 42/42/21 43/43/22 41/41/21
f 43/43/22 42/42/21 44/44/22
f 44/44/23 45/45/23 43/43/23
f 45/45/23 44/44/23 46/46/23
f 46/46/24 47/47/25 45/45/24
f 47/47/25 46/46/24 48/48/25
f 49/49/26 47/47/25 48/48/25
f 47/47/25 49/49/26 50/50/26
f 49/49/26 51/51/27 50/50/26
f 51/51/27 49/49/26 52/52/27
f 52/52/27 53/53/28 51/51/27
f 53/53/28 52/52/27 54/54/28
f 54/54/28 55/55/29 53/53/28
f 55/55/29 54/54/28 56/56/29
f 56/56/29 57/57/5 55/55/29
f 57/57/5 56/56/29 58/58/5
f 58/58/30 59/59/31 57/57/30
f 59/59/31 58/58/30 60/60/31
f 60/60/31 61/61/32 59/59/31
f 61/61/32 60/60/31 62/62/32
f 63/63/33 61/61/32 62/62/32
f 61/61/32 63/63/33 64/64/33
f 63/63/33 65/65/34 64/64/33
f 65/65/34 63/63/33 66/66/34
f 66/66/34 67/67/35 65/65/34
f 67/67/35 66/66/34 68/68/35
f 69/69/36 67/67/35 68/68/35
f 67/67/35 69/69/36 70/70/36
f 71/71/37 70/70/36 69/69/36
f 70/70/36 71/71/37 72/72/37
f 73/73/38 72/72/37 71/71/37
f 72/72/37 73/73/38 74/74/38
f 75/75/39 74/74/38 73/73/38
f 74/74/38 75/75/39 76/76/39
f 77/77/40 76/76/39 75/75/39
f 76/76/39 77/77/40 78/78/40
f 77/77/40 79/79/41 78/78/40
f 79/79/41 77/77/40 80/80/41
f 80/80/41 81/81/42 79/79/41
f 81/81/42 80/80/41 82/82/42
f 82/82/22 83/13/22 81/81/22
f 83/13/22 82/82/22 84/15/22
usemtl material_1_0
f 3//43 2//44 1//43
f 4//44 1//43 2//44
f 1//43 5//22 3//43
f 2//44 6//45 4//44
f 7//22 3//43 5//22
f 8//45 4//44 6//45
f 5//16 9//16 7//16
f 6//45 10//46 8//45
f 11//16 7//16 9//16
f 12//46 8//45 10//46
f 11//22 9//22 13//22
f 12//46 10//46 14//47
f 15//22 13//22 9//22
f 16//47 14//47 10//46
f 14//47 16//47 17//48
f 18//48 17//48 16//47
f 17//48 18//48 19//49
f 20//49 19//49 18//48
f 19//49 20//49 21//50
f 22//50 21//50 20//49
f 21//50 22//50 23//51
f 24//51 23//51 22//50
f 23//51 24//51 25//52
f 26//52 25//52 24//51
f 26//52 27//53 25//52
f 28//53 25//52 27//53
f 28//53 27//53 29//54
f 30//54 29//54 27//53
f 29//5 30//5 31//55
f 32//55 31//55 30//5
f 31//55 32//55 33//56
f 34//56 33//56 32//55
f 33//56 34//56 35//57
f 36//57 35//57 34//56
f 35//57 36//57 37//58
f 38//58 37//58 36//57
f 38//58 39//59 37//58
f 40//59 37//58 39//59
f 39//59 41//60 40//59
f 42//60 40//59 41//60
f 41//60 43//3 42//60
f 44//3 42//60 43//3
f 43//61 45//61 44//61
f 46//61 44//61 45//61
f 45//62 47//63 46//62
f 48//63 46//62 47//63
f 48//63 47//63 49//64
f 50//64 49//64 47//63
f 50//64 51//65 49//64
f 52//65 49//64 51//65
f 51//65 53//66 52//65
f 54//66 52//65 53//66
f 53//66 55//67 54//66
f 56//67 54//66 55//67
f 55//67 57//16 56//67
f 58//16 56//67 57//16
f 57//68 59//69 58//68
f 60//69 58//68 59//69
f 59//69 61//70 60//69
f 62//70 60//69 61//70
f 62//70 61//70 63//71
f 64//71 63//71 61//70
f 64//71 65//72 63//71
f 66//72 63//71 65//72
f 65//72 67//73 66//72
f 68//73 66//72 67//73
f 68//73 67//73 69//74
f 70//74 69//74 67//73
f 69//74 70//74 71//75
f 72//75 71//75 70//74
f 71//75 72//75 73//76
f 74//76 73//76 72//75
f 73//76 74//76 75//77
f 76//77 75//77 74//76
f 75//77 76//77 77//78
f 78//78 77//78 76//77
f 78//78 79//79 77//78
f 80//79 77//78 79//79
f 79//79 81//80 80//79
f 82//80 80//79 81//80
f 81//3 83//3 82//3
f 84//3 82//3 83//3
