# SSTK version 0.8.0
# 24
mtllib original-24.mtl
o LT_21_T1/LT_21_T/mesh17/mesh17-geometry#mesh17-geometry
v 0.317456 0.746469 0.535484
v -0.355016 0.746469 0.569970
v 0.317456 0.746469 0.569970
v -0.355016 0.746469 0.535484
v 0.317456 0.648239 0.569970
v -0.355016 0.608526 0.535484
v -0.355016 0.648239 0.569970
v 0.317456 0.645557 0.564409
v 0.317456 0.608526 0.535484
v -0.355016 0.645557 0.564409
v 0.317456 0.646898 0.569611
v 0.317456 0.608526 0.558439
v -0.355016 0.608526 0.558439
v -0.355016 0.646898 0.569611
v 0.317456 0.645917 0.568629
v -0.355016 0.645917 0.568629
v 0.317456 0.645557 0.567289
v -0.355016 0.645557 0.567289
vt -2.25342 -0.090857
vt -2.038577 -0.090857
vt -2.25342 -0.04635
vt -2.038577 -0.028357
vt -2.038577 -0.04635
vt -2.25342 -0.045135
vt -2.25342 -0.028357
vt -2.038577 -0.045135
vt -2.25342 -0.045742
vt -2.038577 -0.045742
vt -2.25342 -0.045298
vt -2.038577 -0.045298
vn 0 1 0
vn 0 0 1
vn 0 -0.13052598533534132 0.9914448886106773
vn 1 0 0
vn 0 0 -1
vn -1 0 0
vn 0 -0.500000174843842 0.8660253028382761
vn 0 -0.761299904837518 0.648399918950015
vn 0 -1 0
vn 0 -0.15915493836399958 0.9872536176658718
vn 0 -0.8660253028382763 0.5000001748438415
vn 0 -0.9914448886106773 0.13052598533534088
vn 0 0.13052598533534132 -0.9914448886106773
vn 0 0.500000174843842 -0.8660253028382761
vn 0 0.761299904837518 -0.648399918950015
vn 0 0.15915493836399958 -0.9872536176658718
vn 0 0.8660253028382763 -0.5000001748438415
vn 0 0.9914448886106773 -0.13052598533534088
usemtl material_0_0
f 1/1/1 2/2/1 3/1/1
f 2/2/1 1/1/1 4/2/1
f 2/2/2 5/3/3 3/1/2
f 5/3/4 1/1/4 3/1/4
f 1/1/5 6/4/5 4/2/5
f 6/4/6 2/2/6 4/2/6
f 5/3/3 2/2/2 7/5/3
f 1/1/4 5/3/4 8/6/4
f 6/4/5 1/1/5 9/7/5
f 2/2/6 6/4/6 10/8/6
f 2/2/6 10/8/6 7/5/6
f 7/5/3 11/9/7 5/3/3
f 8/6/4 5/3/4 11/9/4
f 1/1/4 8/6/4 9/7/4
f 12/7/8 6/4/9 9/7/9
f 10/8/6 6/4/6 13/4/6
f 7/5/6 10/8/6 14/10/6
f 11/9/7 7/5/3 14/10/7
f 8/6/4 11/9/4 15/11/4
f 9/7/4 8/6/4 12/7/4
f 6/4/9 12/7/8 13/4/8
f 12/7/8 10/8/10 13/4/8
f 14/10/6 10/8/6 16/12/6
f 16/12/11 11/9/7 14/10/7
f 11/9/7 16/12/11 15/11/11
f 8/6/4 15/11/4 17/6/4
f 10/8/10 12/7/8 8/6/10
f 18/8/6 16/12/6 10/8/6
f 18/8/12 15/11/11 16/12/11
f 15/11/11 18/8/12 17/6/12
f 17/6/12 10/8/9 8/6/9
f 10/8/9 17/6/12 18/8/12
usemtl material_1_0
f 3//9 2//9 1//9
f 4//9 1//9 2//9
f 3//5 5//13 2//5
f 3//6 1//6 5//6
f 4//2 6//2 1//2
f 4//4 2//4 6//4
f 7//13 2//5 5//13
f 8//6 5//6 1//6
f 9//2 1//2 6//2
f 10//4 6//4 2//4
f 7//4 10//4 2//4
f 5//13 11//14 7//13
f 11//6 5//6 8//6
f 9//6 8//6 1//6
f 9//1 6//1 12//15
f 13//4 6//4 10//4
f 14//4 10//4 7//4
f 14//14 7//13 11//14
f 15//6 11//6 8//6
f 12//6 8//6 9//6
f 13//15 12//15 6//1
f 13//15 10//16 12//15
f 16//4 10//4 14//4
f 14//14 11//14 16//17
f 15//17 16//17 11//14
f 17//6 15//6 8//6
f 8//16 12//15 10//16
f 10//4 16//4 18//4
f 16//17 15//17 18//18
f 17//18 18//18 15//17
f 8//1 10//1 17//18
f 18//18 17//18 10//1
