# SSTK version 0.8.0
# 94
mtllib original-94.mtl
o DF_11_BC1/DF_11_BC/mesh41/mesh41-geometry#mesh41-geometry
v 0.290458 0.491177 0.517767
v -0.314768 0.493116 0.515827
v -0.314768 0.491177 0.517767
v 0.290458 0.493116 0.515827
v -0.314768 0.425657 0.517767
v -0.314768 0.493116 0.507248
v 0.290458 0.425657 0.517767
v 0.290458 0.493116 0.507248
v -0.314768 0.423589 0.517213
v 0.290458 0.500252 0.507248
v 0.290458 0.423589 0.517213
v -0.314768 0.500252 0.507248
v 0.290458 0.422076 0.515700
v -0.314768 0.422076 0.515700
v 0.290458 0.421522 0.513632
v -0.314768 0.421522 0.513632
v 0.290458 0.421522 0.511306
v -0.314768 0.421522 0.511306
v -0.314768 0.416012 0.511306
v 0.290458 0.416012 0.511306
v 0.290458 0.416012 0.513632
v -0.314768 0.416012 0.513632
v 0.290458 0.415458 0.515700
v -0.314768 0.415458 0.515700
v 0.290458 0.413945 0.517213
v -0.314768 0.413945 0.517213
v -0.314768 0.411877 0.517767
v 0.290458 0.411877 0.517767
v -0.314768 0.400849 0.517767
v 0.290458 0.400849 0.517767
v -0.314768 0.398781 0.517213
v 0.290458 0.398781 0.517213
v 0.290458 0.397268 0.515700
v -0.314768 0.397268 0.515700
v 0.290458 0.396714 0.513632
v -0.314768 0.396714 0.513632
v 0.290458 0.396714 0.488582
v -0.314768 0.396714 0.488582
v 0.290458 0.397268 0.486514
v -0.314768 0.397268 0.486514
v -0.314768 0.398781 0.485001
v 0.290458 0.398781 0.485001
v -0.314768 0.400849 0.484447
v 0.290458 0.400849 0.484447
v -0.314768 0.493116 0.484447
v 0.290458 0.493116 0.484447
v 0.290458 0.493116 0.486414
v -0.314768 0.493116 0.486414
v -0.314768 0.500252 0.486414
v 0.290458 0.500252 0.486414
vt 0.098828 0.160836
vt 0.099737 0.413399
vt 0.098828 0.413399
vt 0.099737 0.160836
vt 0.068103 0.413399
vt 0.068103 0.160836
vt 0.067134 0.413399
vt 0.103084 0.160836
vt 0.067133 0.160836
vt 0.103084 0.413399
vt 0.066424 0.160836
vt 0.066424 0.413399
vt 0.066164 0.160836
vt 0.066164 0.413399
vt 0.06358 0.413399
vt 0.06358 0.160836
vt 0.06332 0.160836
vt 0.063321 0.413399
vt 0.062611 0.160836
vt 0.062611 0.413399
vt 0.061641 0.413399
vt 0.061641 0.160836
vt 0.05647 0.413399
vt 0.05647 0.160836
vt 0.0555 0.413399
vt 0.0555 0.160836
vt 0.05479 0.160836
vt 0.05479 0.413399
vt 0.054531 0.160836
vt 0.054531 0.413399
vn 0 0.3826911406663822 0.9238763395906745
vn 0 0.9238826680189908 0.38267586249215063
vn 0 -0.13052598533534132 0.9914448886106773
vn 0 1 0
vn 0 -0.500000174843842 0.8660253028382761
vn 0 0 1
vn 0 -0.8660253028382763 0.5000001748438415
vn 0 -0.9914448886106773 0.13052598533534088
vn 0 -1 0
vn 0 0.9914450180195132 0.13052500237229214
vn 0 0.8660277848787248 0.49999587580104
vn 0 0.5000090898813919 0.8660201556753644
vn 0 0.130532012520631 0.9914440950993221
vn 0 -0.13052696829800559 0.9914447592009005
vn 0 -0.5000040408640822 0.8660230707779033
vn 0 -0.866030449911163 0.4999912597502767
vn 0 -0.9914456820850615 0.13051995814773773
vn 0 -0.9914448886106773 -0.13052598533534132
vn 0 -0.8660253028382761 -0.500000174843842
vn 0 -0.5000001748438415 -0.8660253028382763
vn 0 -0.13052598533534088 -0.9914448886106773
vn 0 0 -1
vn 0 -0.3826911406663822 -0.9238763395906745
vn 0 -0.9238826680189908 -0.38267586249215063
vn 0 0.13052598533534132 -0.9914448886106773
vn 0 0.500000174843842 -0.8660253028382761
vn 0 0.8660253028382763 -0.5000001748438415
vn 0 0.9914448886106773 -0.13052598533534088
vn 0 -0.9914450180195132 -0.13052500237229214
vn 0 -0.8660277848787248 -0.49999587580104
vn 0 -0.5000090898813919 -0.8660201556753644
vn 0 -0.130532012520631 -0.9914440950993221
vn 0 0.13052696829800559 -0.9914447592009005
vn 0 0.5000040408640822 -0.8660230707779033
vn 0 0.866030449911163 -0.4999912597502767
vn 0 0.9914456820850615 -0.13051995814773773
vn 0 0.9914448886106773 0.13052598533534132
vn 0 0.8660253028382761 0.500000174843842
vn 0 0.5000001748438415 0.8660253028382763
vn 0 0.13052598533534088 0.9914448886106773
usemtl material_0_0
f 1/1/1 2/2/2 3/3/1
f 2/2/2 1/1/1 4/4/2
f 5/5/3 1/1/1 3/3/1
f 4/4/2 6/2/4 2/2/2
f 1/1/1 5/5/3 7/6/3
f 6/2/4 4/4/2 8/4/4
f 9/7/5 7/6/3 5/5/3
f 10/8/6 6/2/6 8/4/6
f 7/6/3 9/7/5 11/9/5
f 6/2/6 10/8/6 12/10/6
f 9/7/5 13/11/7 11/9/5
f 13/11/7 9/7/5 14/12/7
f 14/12/7 15/13/8 13/11/7
f 15/13/8 14/12/7 16/14/8
f 16/14/8 17/13/9 15/13/8
f 17/13/9 16/14/8 18/14/9
f 19/15/6 17/13/6 18/14/6
f 17/13/6 19/15/6 20/16/6
f 19/15/4 21/16/10 20/16/4
f 21/16/10 19/15/4 22/15/10
f 22/15/10 23/17/11 21/16/10
f 23/17/11 22/15/10 24/18/11
f 24/18/11 25/19/12 23/17/11
f 25/19/12 24/18/11 26/20/12
f 27/21/13 25/19/12 26/20/12
f 25/19/12 27/21/13 28/22/13
f 29/23/14 28/22/13 27/21/13
f 28/22/13 29/23/14 30/24/14
f 31/25/15 30/24/14 29/23/14
f 30/24/14 31/25/15 32/26/15
f 31/25/15 33/27/16 32/26/15
f 33/27/16 31/25/15 34/28/16
f 34/28/16 35/29/17 33/27/16
f 35/29/17 34/28/16 36/30/17
f 36/30/17 37/29/18 35/29/17
f 37/29/18 36/30/17 38/30/18
f 38/30/18 39/27/19 37/29/18
f 39/27/19 38/30/18 40/28/19
f 41/25/20 39/27/19 40/28/19
f 39/27/19 41/25/20 42/26/20
f 43/23/21 42/26/20 41/25/20
f 42/26/20 43/23/21 44/24/21
f 45/2/22 44/24/21 43/23/21
f 44/24/21 45/2/22 46/4/22
f 45/2/4 47/4/4 46/4/4
f 47/4/4 45/2/4 48/2/4
f 49/10/22 47/4/22 48/2/22
f 47/4/22 49/10/22 50/8/22
usemtl material_1_0
f 3//23 2//24 1//23
f 4//24 1//23 2//24
f 3//23 1//23 5//25
f 2//24 6//9 4//24
f 7//25 5//25 1//23
f 8//9 4//24 6//9
f 5//25 7//25 9//26
f 8//22 6//22 10//22
f 11//26 9//26 7//25
f 12//22 10//22 6//22
f 11//26 13//27 9//26
f 14//27 9//26 13//27
f 13//27 15//28 14//27
f 16//28 14//27 15//28
f 15//28 17//4 16//28
f 18//4 16//28 17//4
f 18//22 17//22 19//22
f 20//22 19//22 17//22
f 20//9 21//29 19//9
f 22//29 19//9 21//29
f 21//29 23//30 22//29
f 24//30 22//29 23//30
f 23//30 25//31 24//30
f 26//31 24//30 25//31
f 26//31 25//31 27//32
f 28//32 27//32 25//31
f 27//32 28//32 29//33
f 30//33 29//33 28//32
f 29//33 30//33 31//34
f 32//34 31//34 30//33
f 32//34 33//35 31//34
f 34//35 31//34 33//35
f 33//35 35//36 34//35
f 36//36 34//35 35//36
f 35//36 37//37 36//36
f 38//37 36//36 37//37
f 37//37 39//38 38//37
f 40//38 38//37 39//38
f 40//38 39//38 41//39
f 42//39 41//39 39//38
f 41//39 42//39 43//40
f 44//40 43//40 42//39
f 43//40 44//40 45//6
f 46//6 45//6 44//40
f 46//9 47//9 45//9
f 48//9 45//9 47//9
f 48//6 47//6 49//6
f 50//6 49//6 47//6
