# SSTK version 0.8.0
# 62
mtllib original-62.mtl
o DF_21_BR2/DF_21_BR/mesh23/mesh23-geometry#mesh23-geometry
v 0.426697 0.095265 0.513632
v 0.427251 -0.073235 0.515700
v 0.427251 0.095265 0.515700
v 0.426697 -0.072681 0.513632
v 0.428764 -0.074748 0.517213
v 0.426697 0.095265 0.511306
v 0.252004 -0.072681 0.513632
v 0.428764 0.095265 0.517213
v 0.252004 -0.073235 0.515700
v 0.426697 -0.072681 0.511306
v 0.252004 -0.072681 0.511306
v 0.430832 0.095265 0.517767
v 0.252004 -0.074748 0.517213
v 0.421187 -0.067171 0.511306
v 0.430832 -0.076816 0.517767
v 0.421187 0.095265 0.511306
v 0.252004 -0.067171 0.511306
v 0.441860 0.095265 0.517767
v 0.252004 -0.076816 0.517767
v 0.421187 -0.067171 0.513632
v 0.252004 -0.067171 0.513632
v 0.441860 -0.087844 0.517767
v 0.421187 0.095265 0.513632
v 0.443928 0.095265 0.517213
v 0.252004 -0.087844 0.517767
v 0.420633 -0.066617 0.515700
v 0.252004 -0.066617 0.515700
v 0.443928 -0.089912 0.517213
v 0.420633 0.095265 0.515700
v 0.445441 0.095265 0.515700
v 0.252004 -0.089912 0.517213
v 0.419120 -0.065104 0.517213
v 0.252004 -0.065104 0.517213
v 0.445441 -0.091425 0.515700
v 0.419120 0.095265 0.517213
v 0.445995 0.095265 0.513632
v 0.252004 -0.091425 0.515700
v 0.417052 -0.063036 0.517767
v 0.252004 -0.063036 0.517767
v 0.445995 -0.091979 0.513632
v 0.417052 0.095265 0.517767
v 0.445995 0.095265 0.488582
v 0.252004 -0.091979 0.513632
v 0.315696 0.038320 0.517767
v 0.252004 0.038320 0.517767
v 0.445995 -0.091979 0.488582
v 0.315696 0.095265 0.517767
v 0.445441 0.095265 0.486514
v 0.252004 -0.091979 0.488582
v 0.313756 0.095265 0.515827
v 0.252004 0.040260 0.515827
v 0.445441 -0.091425 0.486514
v 0.313756 0.040260 0.515827
v 0.443928 0.095265 0.485001
v 0.252004 -0.091425 0.486514
v 0.313756 0.095265 0.507248
v 0.252004 0.040260 0.507248
v 0.443928 -0.089912 0.485001
v 0.313756 0.040260 0.507248
v 0.441860 -0.087844 0.484447
v 0.252004 -0.089912 0.485001
v 0.291716 0.062300 0.507632
v 0.252004 0.062300 0.507632
v 0.441860 0.095265 0.484447
v 0.252004 -0.087844 0.484447
v 0.291716 0.095265 0.507632
v 0.313756 0.040260 0.484447
v 0.252004 0.040260 0.484447
v 0.291716 0.062300 0.510153
v 0.252004 0.062300 0.510153
v 0.313756 0.095265 0.484447
v 0.291716 0.095265 0.510153
v 0.313756 0.040260 0.486414
v 0.291347 0.062669 0.511530
v 0.252004 0.062669 0.511530
v 0.313756 0.095265 0.486414
v 0.252004 0.040260 0.486414
v 0.291347 0.095265 0.511530
v 0.252004 0.095265 0.486414
v 0.290339 0.063677 0.512539
v 0.252004 0.063677 0.512539
v 0.290339 0.095265 0.512539
v 0.288961 0.065055 0.512908
v 0.252004 0.065055 0.512908
v 0.288961 0.095265 0.512908
v 0.252004 0.095265 0.512908
vt 0.389388 0.087806
vt 0.389648 0.00879
vt 0.389648 0.087806
vt 0.389388 0.00905
vt 0.390357 0.00808
vt 0.06358 0.696687
vt 0.063321 0.614507
vt 0.06358 0.614767
vt 0.390357 0.087806
vt 0.063321 0.696687
vt 0.062611 0.613798
vt 0.391327 0.087806
vt 0.062611 0.696687
vt 0.386804 0.011633
vt 0.391327 0.007111
vt 0.061641 0.612828
vt 0.386804 0.087806
vt 0.066164 0.696687
vt 0.066164 0.617351
vt 0.396499 0.087806
vt 0.061641 0.696687
vt 0.396499 0.001939
vt 0.05647 0.607656
vt 0.397468 0.087806
vt 0.05647 0.696687
vt 0.386544 0.011893
vt 0.066424 0.696687
vt 0.397468 0.000969
vt 0.0555 0.606687
vt 0.386544 0.087806
vt 0.066424 0.617611
vt 0.398178 0.087806
vt 0.0555 0.696687
vt 0.385835 0.012603
vt 0.067134 0.696687
vt 0.398178 0.00026
vt 0.054791 0.605977
vt 0.385835 0.087806
vt 0.067134 0.61832
vt 0.398438 0.087806
vt 0.054791 0.696687
vt 0.384865 0.013572
vt 0.068103 0.696687
vt 0.398438 0
vt 0.054531 0.605717
vt 0.384865 0.087806
vt 0.068103 0.61929
vt 0.054531 0.696687
vt 0.337335 0.061102
vt 0.115633 0.696687
vt 0.337335 0.087806
vt 0.115633 0.66682
vt 0.336426 0.087806
vt 0.116543 0.696687
vt 0.336426 0.062012
vt 0.116543 0.667729
vt 0.326091 0.072347
vt 0.307468 0.072347
vt 0.307468 0.062012
vt 0.326091 0.087806
vt 0.116543 0.755281
vt 0.116543 0.726323
vt 0.325917 0.07252
vt 0.307468 0.07252
vt 0.325917 0.087806
vt 0.307468 0.087806
vt 0.325445 0.072993
vt 0.307468 0.072993
vt 0.325445 0.087806
vt 0.324799 0.073639
vt 0.307468 0.073639
vt 0.324799 0.087806
vn -0.9914450180195132 0 0.13052500237229192
vn -0.8660277848787249 0 0.4999958758010398
vn -0.5000090898813921 0 0.8660201556753643
vn -1 0 0
vn 0 0.9914450180195132 0.13052500237229214
vn 0 0.8660277848787248 0.49999587580104
vn 0 0.5000090898813919 0.8660201556753644
vn 0 1 0
vn -0.13053201252063124 0 0.9914440950993221
vn 0 0 1
vn 0 0.130532012520631 0.9914440950993221
vn 0.13052696829800536 0 0.9914447592009005
vn 1 0 0
vn 0.9914448886106773 0 0.1305259853353411
vn 0 -1 0
vn 0 -0.9914448886106773 0.13052598533534088
vn 0 -0.13052696829800559 0.9914447592009005
vn 0.500004040864082 0 0.8660230707779034
vn 0.8660253028382762 0 0.5000001748438417
vn 0 -0.8660253028382763 0.5000001748438415
vn 0 -0.5000040408640822 0.8660230707779033
vn 0.8660304499111627 0 0.49999125975027675
vn 0.5000001748438417 0 0.8660253028382762
vn 0 -0.500000174843842 0.8660253028382761
vn 0 -0.866030449911163 0.4999912597502767
vn 0.9914456820850615 0 0.13051995814773795
vn 0.1305259853353411 0 0.9914448886106773
vn 0 -0.13052598533534132 0.9914448886106773
vn 0 -0.9914456820850615 0.13051995814773773
vn 0.9914448886106773 0 -0.1305259853353411
vn -0.38269114066638243 0 0.9238763395906744
vn 0 0.3826911406663822 0.9238763395906745
vn 0 -0.9914448886106773 -0.13052598533534132
vn 0.8660253028382762 0 -0.5000001748438417
vn -0.9238826680189909 0 0.3826758624921504
vn 0 0.9238826680189908 0.38267586249215063
vn 0 -0.8660253028382761 -0.500000174843842
vn 0.5000001748438417 0 -0.8660253028382762
vn 0 -0.5000001748438415 -0.8660253028382763
vn 0.1305259853353411 0 -0.9914448886106773
vn 0.01745199480447211 0 0.9998477023413839
vn 0 -0.01745199480447233 0.9998477023413839
vn 0 -0.13052598533534088 -0.9914448886106773
vn 0 0 -1
vn 0.9914423785382255 0 0.13054504984282755
vn 0 -0.9914423785382255 0.13054504984282733
vn 0.8660102941075379 0 0.5000261698149164
vn 0 -0.866010294107538 0.5000261698149162
vn 0.49998696068652676 0 0.8660329319046992
vn 0 -0.49998696068652704 0.8660329319046993
vn 0.08759602388564325 -0.08759602388564347 0.9922972705791605
vn 0 -0.13052205348083523 0.9914454062403769
vn 0.130522053480835 0 0.9914454062403769
vn 0.8660277848787249 0 -0.4999958758010398
vn 0.9914450180195132 0 -0.13052500237229192
vn 0.5000090898813921 0 -0.8660201556753643
vn 0 -0.9914450180195132 -0.13052500237229214
vn 0 -0.8660277848787248 -0.49999587580104
vn 0 -0.5000090898813919 -0.8660201556753644
vn 0.13053201252063124 0 -0.9914440950993221
vn 0 -0.130532012520631 -0.9914440950993221
vn -0.13052696829800536 0 -0.9914447592009005
vn -0.9914448886106773 0 -0.1305259853353411
vn 0 0.9914448886106773 -0.13052598533534088
vn 0 0.13052696829800559 -0.9914447592009005
vn -0.500004040864082 0 -0.8660230707779034
vn -0.8660253028382762 0 -0.5000001748438417
vn 0 0.8660253028382763 -0.5000001748438415
vn 0 0.5000040408640822 -0.8660230707779033
vn -0.8660304499111627 0 -0.49999125975027675
vn -0.5000001748438417 0 -0.8660253028382762
vn 0 0.500000174843842 -0.8660253028382761
vn 0 0.866030449911163 -0.4999912597502767
vn -0.9914456820850615 0 -0.13051995814773795
vn -0.1305259853353411 0 -0.9914448886106773
vn 0 0.13052598533534132 -0.9914448886106773
vn 0 0.9914456820850615 -0.13051995814773773
vn -0.9914448886106773 0 0.1305259853353411
vn 0.38269114066638243 0 -0.9238763395906744
vn 0 -0.3826911406663822 -0.9238763395906745
vn 0 0.9914448886106773 0.13052598533534132
vn -0.8660253028382762 0 0.5000001748438417
vn 0.9238826680189909 0 -0.3826758624921504
vn 0 -0.9238826680189908 -0.38267586249215063
vn 0 0.8660253028382761 0.500000174843842
vn -0.5000001748438417 0 0.8660253028382762
vn 0 0.5000001748438415 0.8660253028382763
vn -0.1305259853353411 0 0.9914448886106773
vn -0.01745199480447211 0 -0.9998477023413839
vn 0 0.01745199480447233 -0.9998477023413839
vn 0 0.13052598533534088 0.9914448886106773
vn -0.9914423785382255 0 -0.13054504984282755
vn 0 0.9914423785382255 -0.13054504984282733
vn -0.8660102941075379 0 -0.5000261698149164
vn 0 0.866010294107538 -0.5000261698149162
vn -0.49998696068652676 0 -0.8660329319046992
vn 0 0.49998696068652704 -0.8660329319046993
vn -0.08759602388564325 0.08759602388564347 -0.9922972705791605
vn 0 0.13052205348083523 -0.9914454062403769
vn -0.130522053480835 0 -0.9914454062403769
usemtl material_0_0
f 1/1/1 2/2/2 3/3/2
f 2/2/2 1/1/1 4/4/1
f 5/5/3 3/3/2 2/2/2
f 6/1/4 4/4/1 1/1/1
f 7/6/5 2/7/6 4/8/5
f 3/3/2 5/5/3 8/9/3
f 9/10/6 5/11/7 2/7/6
f 4/4/1 6/1/4 10/4/4
f 2/7/6 7/6/5 9/10/6
f 4/8/5 11/6/8 7/6/5
f 5/5/3 12/12/9 8/9/3
f 5/11/7 9/10/6 13/13/7
f 6/1/10 14/14/10 10/4/10
f 11/6/8 4/8/5 10/8/8
f 12/12/9 5/5/3 15/15/9
f 13/13/7 15/16/11 5/11/7
f 14/14/10 6/1/10 16/17/10
f 17/18/10 10/8/10 14/19/10
f 10/8/10 17/18/10 11/6/10
f 15/15/9 18/20/12 12/12/9
f 15/16/11 13/13/7 19/21/11
f 16/17/13 20/14/14 14/14/13
f 14/19/15 21/18/16 17/18/15
f 18/20/12 15/15/9 22/22/12
f 19/21/11 22/23/17 15/16/11
f 20/14/14 16/17/13 23/17/14
f 21/18/16 14/19/15 20/19/16
f 22/22/12 24/24/18 18/20/12
f 22/23/17 19/21/11 25/25/17
f 23/17/14 26/26/19 20/14/14
f 20/19/16 27/27/20 21/18/16
f 24/24/18 22/22/12 28/28/18
f 25/25/17 28/29/21 22/23/17
f 26/26/19 23/17/14 29/30/19
f 27/27/20 20/19/16 26/31/20
f 28/28/18 30/32/22 24/24/18
f 28/29/21 25/25/17 31/33/21
f 29/30/19 32/34/23 26/26/19
f 26/31/20 33/35/24 27/27/20
f 30/32/22 28/28/18 34/36/22
f 31/33/21 34/37/25 28/29/21
f 32/34/23 29/30/19 35/38/23
f 33/35/24 26/31/20 32/39/24
f 34/36/22 36/40/26 30/32/22
f 34/37/25 31/33/21 37/41/25
f 35/38/23 38/42/27 32/34/23
f 32/39/24 39/43/28 33/35/24
f 36/40/26 34/36/22 40/44/26
f 37/41/25 40/45/29 34/37/25
f 38/42/27 35/38/23 41/46/27
f 39/43/28 32/39/24 38/47/28
f 40/44/26 42/40/30 36/40/26
f 40/45/29 37/41/25 43/48/29
f 41/46/27 44/49/31 38/42/27
f 38/47/28 45/50/32 39/43/28
f 42/40/30 40/44/26 46/44/30
f 43/48/29 46/45/33 40/45/29
f 44/49/31 41/46/27 47/51/31
f 45/50/32 38/47/28 44/52/32
f 46/44/30 48/32/34 42/40/30
f 46/45/33 43/48/29 49/48/33
f 50/53/35 44/49/31 47/51/31
f 44/52/32 51/54/36 45/50/32
f 48/32/34 46/44/30 52/36/34
f 49/48/33 52/37/37 46/45/33
f 44/49/31 50/53/35 53/55/35
f 51/54/36 44/52/32 53/56/36
f 52/36/34 54/24/38 48/32/34
f 52/37/37 49/48/33 55/41/37
f 56/53/4 53/55/35 50/53/35
f 53/56/36 57/54/8 51/54/36
f 54/24/38 52/36/34 58/28/38
f 55/41/37 58/29/39 52/37/37
f 53/55/35 56/53/4 59/55/4
f 57/54/8 53/56/36 59/56/8
f 60/22/40 54/24/38 58/28/38
f 58/29/39 55/41/37 61/33/39
f 56/53/41 62/57/41 59/55/41
f 59/55/42 63/58/42 57/59/42
f 54/24/38 60/22/40 64/20/40
f 58/29/39 65/25/43 60/23/43
f 65/25/43 58/29/39 61/33/39
f 62/57/41 56/53/41 66/60/41
f 63/58/42 59/55/42 62/57/42
f 67/55/44 64/20/40 60/22/40
f 68/54/44 60/23/43 65/25/43
f 66/60/13 69/57/45 62/57/13
f 62/57/15 70/58/46 63/58/15
f 64/20/40 67/55/44 71/53/44
f 60/23/43 68/54/44 67/56/44
f 69/57/45 66/60/13 72/60/45
f 70/58/46 62/57/15 69/57/46
f 73/55/4 71/53/4 67/55/4
f 68/61/8 73/62/8 67/62/8
f 72/60/45 74/63/47 69/57/45
f 69/57/46 75/64/48 70/58/46
f 71/53/4 73/55/4 76/53/4
f 73/62/8 68/61/8 77/61/8
f 74/63/47 72/60/45 78/65/47
f 75/64/48 69/57/46 74/63/48
f 73/55/44 79/66/44 76/53/44
f 79/66/44 73/55/44 77/59/44
f 78/65/47 80/67/49 74/63/47
f 74/63/48 81/68/50 75/64/48
f 80/67/49 78/65/47 82/69/49
f 81/68/50 74/63/48 80/67/50
f 82/69/49 83/70/51 80/67/49
f 80/67/50 84/71/52 81/68/50
f 83/70/51 82/69/49 85/72/53
f 84/71/52 80/67/50 83/70/51
f 86/66/10 83/70/51 85/72/53
f 83/70/51 86/66/10 84/71/52
usemtl material_1_0
f 3//54 2//54 1//55
f 4//55 1//55 2//54
f 2//54 3//54 5//56
f 1//55 4//55 6//13
f 4//57 2//58 7//57
f 8//56 5//56 3//54
f 2//58 5//59 9//58
f 10//13 6//13 4//55
f 9//58 7//57 2//58
f 7//57 11//15 4//57
f 8//56 12//60 5//56
f 13//59 9//58 5//59
f 10//44 14//44 6//44
f 10//15 4//57 11//15
f 15//60 5//56 12//60
f 5//59 15//61 13//59
f 16//44 6//44 14//44
f 14//44 10//44 17//44
f 11//44 17//44 10//44
f 12//60 18//62 15//60
f 19//61 13//59 15//61
f 14//4 20//63 16//4
f 17//8 21//64 14//8
f 22//62 15//60 18//62
f 15//61 22//65 19//61
f 23//63 16//4 20//63
f 20//64 14//8 21//64
f 18//62 24//66 22//62
f 25//65 19//61 22//65
f 20//63 26//67 23//63
f 21//64 27//68 20//64
f 28//66 22//62 24//66
f 22//65 28//69 25//65
f 29//67 23//63 26//67
f 26//68 20//64 27//68
f 24//66 30//70 28//66
f 31//69 25//65 28//69
f 26//67 32//71 29//67
f 27//68 33//72 26//68
f 34//70 28//66 30//70
f 28//69 34//73 31//69
f 35//71 29//67 32//71
f 32//72 26//68 33//72
f 30//70 36//74 34//70
f 37//73 31//69 34//73
f 32//71 38//75 35//71
f 33//72 39//76 32//72
f 40//74 34//70 36//74
f 34//73 40//77 37//73
f 41//75 35//71 38//75
f 38//76 32//72 39//76
f 36//74 42//78 40//74
f 43//77 37//73 40//77
f 38//75 44//79 41//75
f 39//76 45//80 38//76
f 46//78 40//74 42//78
f 40//77 46//81 43//77
f 47//79 41//75 44//79
f 44//80 38//76 45//80
f 42//78 48//82 46//78
f 49//81 43//77 46//81
f 47//79 44//79 50//83
f 45//80 51//84 44//80
f 52//82 46//78 48//82
f 46//81 52//85 49//81
f 53//83 50//83 44//79
f 53//84 44//80 51//84
f 48//82 54//86 52//82
f 55//85 49//81 52//85
f 50//83 53//83 56//13
f 51//84 57//15 53//84
f 58//86 52//82 54//86
f 52//85 58//87 55//85
f 59//13 56//13 53//83
f 59//15 53//84 57//15
f 58//86 54//86 60//88
f 61//87 55//85 58//87
f 59//89 62//89 56//89
f 57//90 63//90 59//90
f 64//88 60//88 54//86
f 60//91 65//91 58//87
f 61//87 58//87 65//91
f 66//89 56//89 62//89
f 62//90 59//90 63//90
f 60//88 64//88 67//10
f 65//91 60//91 68//10
f 62//4 69//92 66//4
f 63//8 70//93 62//8
f 71//10 67//10 64//88
f 67//10 68//10 60//91
f 72//92 66//4 69//92
f 69//93 62//8 70//93
f 67//13 71//13 73//13
f 67//15 73//15 68//15
f 69//92 74//94 72//92
f 70//93 75//95 69//93
f 76//13 73//13 71//13
f 77//15 68//15 73//15
f 78//94 72//92 74//94
f 74//95 69//93 75//95
f 76//10 79//10 73//10
f 77//10 73//10 79//10
f 74//94 80//96 78//94
f 75//95 81//97 74//95
f 82//96 78//94 80//96
f 80//97 74//95 81//97
f 80//96 83//98 82//96
f 81//97 84//99 80//97
f 85//100 82//96 83//98
f 83//98 80//97 84//99
f 85//100 83//98 86//44
f 84//99 86//44 83//98
