# SSTK version 0.8.0
# 43
mtllib original-43.mtl
o DF_21_CR1/DF_21_CR/mesh29/mesh29-geometry#mesh29-geometry
v 0.426697 -0.295883 0.511306
v 0.421187 -0.426748 0.511306
v 0.426697 -0.426748 0.511306
v 0.421187 -0.295883 0.511306
v 0.426697 -0.426748 0.513632
v 0.421187 -0.295883 0.513632
v 0.426697 -0.295883 0.513632
v 0.421187 -0.426748 0.513632
v 0.427251 -0.426748 0.515700
v 0.420633 -0.295883 0.515700
v 0.427251 -0.295883 0.515700
v 0.420633 -0.426748 0.515700
v 0.428764 -0.426748 0.517213
v 0.419120 -0.295883 0.517213
v 0.428764 -0.295883 0.517213
v 0.419120 -0.426748 0.517213
v 0.430832 -0.295883 0.517767
v 0.417052 -0.426748 0.517767
v 0.430832 -0.426748 0.517767
v 0.417052 -0.295883 0.517767
v 0.441860 -0.295883 0.517767
v 0.315696 -0.426748 0.517767
v 0.441860 -0.426748 0.517767
v 0.315696 -0.295883 0.517767
v 0.443928 -0.295883 0.517213
v 0.313756 -0.295883 0.515827
v 0.443928 -0.426748 0.517213
v 0.313756 -0.426748 0.515827
v 0.445441 -0.426748 0.515700
v 0.313756 -0.295883 0.507248
v 0.445441 -0.295883 0.515700
v 0.313756 -0.426748 0.507248
v 0.445995 -0.426748 0.513632
v 0.291716 -0.426748 0.507632
v 0.445995 -0.295883 0.513632
v 0.291716 -0.295883 0.507632
v 0.445995 -0.426748 0.488582
v 0.291716 -0.295883 0.510153
v 0.445995 -0.295883 0.488582
v 0.291716 -0.426748 0.510153
v 0.445441 -0.426748 0.486514
v 0.291347 -0.295883 0.511530
v 0.445441 -0.295883 0.486514
v 0.291347 -0.426748 0.511530
v 0.443928 -0.426748 0.485001
v 0.290339 -0.426748 0.512539
v 0.443928 -0.295883 0.485001
v 0.290339 -0.295883 0.512539
v 0.441860 -0.295883 0.484447
v 0.288961 -0.426748 0.512908
v 0.441860 -0.426748 0.484447
v 0.288961 -0.295883 0.512908
v 0.313756 -0.295883 0.484447
v 0.252004 -0.426748 0.512908
v 0.313756 -0.426748 0.484447
v 0.252004 -0.295883 0.512908
v 0.313756 -0.426748 0.486414
v 0.313756 -0.295883 0.486414
v 0.252004 -0.295883 0.486414
v 0.252004 -0.426748 0.486414
vt 0.389388 0.170007
vt 0.386804 0.087806
vt 0.389388 0.087806
vt 0.386804 0.170007
vt 0.389648 0.087806
vt 0.386544 0.170007
vt 0.389648 0.170007
vt 0.386544 0.087806
vt 0.390357 0.087806
vt 0.385835 0.170007
vt 0.390357 0.170007
vt 0.385835 0.087806
vt 0.391327 0.170007
vt 0.384865 0.087806
vt 0.391327 0.087806
vt 0.384865 0.170007
vt 0.396499 0.170007
vt 0.337335 0.087806
vt 0.396499 0.087806
vt 0.337335 0.170007
vt 0.397468 0.170007
vt 0.336426 0.170007
vt 0.397468 0.087806
vt 0.336426 0.087806
vt 0.398178 0.087806
vt 0.398178 0.170007
vt 0.398438 0.087806
vt 0.326091 0.087806
vt 0.398438 0.170007
vt 0.326091 0.170007
vt 0.325917 0.170007
vt 0.325917 0.087806
vt 0.325445 0.087806
vt 0.325445 0.170007
vt 0.324799 0.087806
vt 0.324799 0.170007
vt 0.307468 0.087806
vt 0.307468 0.170007
vn 0 0 1
vn -0.9914450180195133 0 0.13052500237229192
vn -1 0 0
vn 0.9914448886106774 0 0.1305259853353411
vn 1 0 0
vn -0.866027784878725 0 0.4999958758010399
vn 0.8660253028382761 0 0.5000001748438416
vn -0.500009089881392 0 0.8660201556753642
vn 0.5000001748438416 0 0.8660253028382761
vn -0.13053201252063124 0 0.9914440950993222
vn 0.1305259853353411 0 0.9914448886106774
vn 0.13052696829800534 0 0.9914447592009004
vn -0.3826911406663824 0 0.9238763395906743
vn 0.500004040864082 0 0.8660230707779035
vn -0.9238826680189908 0 0.38267586249215035
vn 0.8660304499111627 0 0.4999912597502768
vn 0.9914456820850616 0 0.13051995814773795
vn 0.01745199480447211 0 0.999847702341384
vn 0.9914448886106774 0 -0.1305259853353411
vn 0.9914423785382254 0 0.13054504984282753
vn 0.8660253028382761 0 -0.5000001748438416
vn 0.8660102941075378 0 0.5000261698149163
vn 0.5000001748438416 0 -0.8660253028382761
vn 0.4999869606865268 0 0.8660329319046993
vn 0.1305259853353411 0 -0.9914448886106774
vn 0.130522053480835 0 0.991445406240377
vn 0 0 -1
vn 0.9914450180195133 0 -0.13052500237229192
vn -0.9914448886106774 0 -0.1305259853353411
vn 0.866027784878725 0 -0.4999958758010399
vn -0.8660253028382761 0 -0.5000001748438416
vn 0.500009089881392 0 -0.8660201556753642
vn -0.5000001748438416 0 -0.8660253028382761
vn 0.13053201252063124 0 -0.9914440950993222
vn -0.1305259853353411 0 -0.9914448886106774
vn -0.13052696829800534 0 -0.9914447592009004
vn 0.3826911406663824 0 -0.9238763395906743
vn -0.500004040864082 0 -0.8660230707779035
vn 0.9238826680189908 0 -0.38267586249215035
vn -0.8660304499111627 0 -0.4999912597502768
vn -0.9914456820850616 0 -0.13051995814773795
vn -0.01745199480447211 0 -0.999847702341384
vn -0.9914448886106774 0 0.1305259853353411
vn -0.9914423785382254 0 -0.13054504984282753
vn -0.8660253028382761 0 0.5000001748438416
vn -0.8660102941075378 0 -0.5000261698149163
vn -0.5000001748438416 0 0.8660253028382761
vn -0.4999869606865268 0 -0.8660329319046993
vn -0.1305259853353411 0 0.9914448886106774
vn -0.130522053480835 0 -0.991445406240377
usemtl material_0_0
f 1/1/1 2/2/1 3/3/1
f 2/2/1 1/1/1 4/4/1
f 5/3/2 1/1/3 3/3/3
f 6/4/4 2/2/5 4/4/5
f 1/1/3 5/3/2 7/1/2
f 2/2/5 6/4/4 8/2/4
f 9/5/6 7/1/2 5/3/2
f 10/6/7 8/2/4 6/4/4
f 7/1/2 9/5/6 11/7/6
f 8/2/4 10/6/7 12/8/7
f 13/9/8 11/7/6 9/5/6
f 14/10/9 12/8/7 10/6/7
f 11/7/6 13/9/8 15/11/8
f 12/8/7 14/10/9 16/12/9
f 13/9/8 17/13/10 15/11/8
f 14/10/9 18/14/11 16/12/9
f 17/13/10 13/9/8 19/15/10
f 18/14/11 14/10/9 20/16/11
f 19/15/10 21/17/12 17/13/10
f 20/16/11 22/18/13 18/14/11
f 21/17/12 19/15/10 23/19/12
f 22/18/13 20/16/11 24/20/13
f 23/19/12 25/21/14 21/17/12
f 26/22/15 22/18/13 24/20/13
f 25/21/14 23/19/12 27/23/14
f 22/18/13 26/22/15 28/24/15
f 29/25/16 25/21/14 27/23/14
f 30/22/3 28/24/15 26/22/15
f 25/21/14 29/25/16 31/26/16
f 28/24/15 30/22/3 32/24/3
f 33/27/17 31/26/16 29/25/16
f 30/22/18 34/28/18 32/24/18
f 31/26/16 33/27/17 35/29/17
f 34/28/18 30/22/18 36/30/18
f 37/27/19 35/29/17 33/27/17
f 38/30/20 34/28/5 36/30/5
f 35/29/17 37/27/19 39/29/19
f 34/28/5 38/30/20 40/28/20
f 41/25/21 39/29/19 37/27/19
f 42/31/22 40/28/20 38/30/20
f 39/29/19 41/25/21 43/26/21
f 40/28/20 42/31/22 44/32/22
f 45/23/23 43/26/21 41/25/21
f 42/31/22 46/33/24 44/32/22
f 43/26/21 45/23/23 47/21/23
f 46/33/24 42/31/22 48/34/24
f 45/23/23 49/17/25 47/21/23
f 48/34/24 50/35/26 46/33/24
f 49/17/25 45/23/23 51/19/25
f 50/35/26 48/34/24 52/36/26
f 51/19/25 53/22/27 49/17/25
f 52/36/26 54/37/1 50/35/26
f 53/22/27 51/19/25 55/24/27
f 54/37/1 52/36/26 56/38/1
f 57/24/3 53/22/3 55/24/3
f 53/22/3 57/24/3 58/22/3
f 57/24/27 59/38/27 58/22/27
f 59/38/27 57/24/27 60/37/27
usemtl material_1_0
f 3//27 2//27 1//27
f 4//27 1//27 2//27
f 3//5 1//5 5//28
f 4//3 2//3 6//29
f 7//28 5//28 1//5
f 8//29 6//29 2//3
f 5//28 7//28 9//30
f 6//29 8//29 10//31
f 11//30 9//30 7//28
f 12//31 10//31 8//29
f 9//30 11//30 13//32
f 10//31 12//31 14//33
f 15//32 13//32 11//30
f 16//33 14//33 12//31
f 15//32 17//34 13//32
f 16//33 18//35 14//33
f 19//34 13//32 17//34
f 20//35 14//33 18//35
f 17//34 21//36 19//34
f 18//35 22//37 20//35
f 23//36 19//34 21//36
f 24//37 20//35 22//37
f 21//36 25//38 23//36
f 24//37 22//37 26//39
f 27//38 23//36 25//38
f 28//39 26//39 22//37
f 27//38 25//38 29//40
f 26//39 28//39 30//5
f 31//40 29//40 25//38
f 32//5 30//5 28//39
f 29//40 31//40 33//41
f 32//42 34//42 30//42
f 35//41 33//41 31//40
f 36//42 30//42 34//42
f 33//41 35//41 37//43
f 36//3 34//3 38//44
f 39//43 37//43 35//41
f 40//44 38//44 34//3
f 37//43 39//43 41//45
f 38//44 40//44 42//46
f 43//45 41//45 39//43
f 44//46 42//46 40//44
f 41//45 43//45 45//47
f 44//46 46//48 42//46
f 47//47 45//47 43//45
f 48//48 42//46 46//48
f 47//47 49//49 45//47
f 46//48 50//50 48//48
f 51//49 45//47 49//49
f 52//50 48//48 50//50
f 49//49 53//1 51//49
f 50//50 54//27 52//50
f 55//1 51//49 53//1
f 56//27 52//50 54//27
f 55//5 53//5 57//5
f 58//5 57//5 53//5
f 58//1 59//1 57//1
f 60//1 57//1 59//1
