# SSTK version 0.8.0
# 25
mtllib original-25.mtl
o LB_21_BR1/LB_21_BR/mesh16/mesh16-geometry#mesh16-geometry
v 0.648824 -0.500663 0.299772
v 0.640903 -0.502632 0.298264
v 0.646854 -0.502632 0.298264
v 0.640903 -0.500663 0.299772
v 0.646107 -0.503379 0.295898
v 0.750114 -0.500663 0.299772
v 0.651302 -0.498184 0.299876
v 0.640903 -0.503379 0.295898
v 0.752831 -0.503379 0.295898
v 0.752084 -0.502632 0.298264
v 0.747636 -0.498184 0.299876
v 0.640903 -0.498184 0.299876
v 0.646107 -0.503379 0.292091
v 0.752831 -0.503379 0.292091
v 0.752084 -0.387598 0.298264
v 0.750114 -0.387598 0.299772
v 0.640903 -0.497278 0.302081
v 0.652209 -0.497278 0.302081
v 0.640903 -0.503379 0.292091
v 0.752831 -0.387598 0.295898
v 0.747636 -0.387598 0.299876
v 0.746729 -0.497278 0.302081
v 0.656061 -0.493426 0.277018
v 0.752831 -0.387598 0.292091
v 0.746729 -0.387598 0.302081
v 0.653903 -0.495584 0.303757
v 0.745035 -0.495584 0.303757
v 0.640903 -0.493426 0.277018
v 0.742877 -0.493426 0.277018
v 0.640903 -0.495584 0.303757
v 0.656061 -0.493426 0.275040
v 0.742877 -0.493426 0.275040
v 0.742877 -0.387598 0.277018
v 0.656117 -0.493370 0.304641
v 0.742821 -0.493370 0.304641
v 0.745035 -0.387598 0.303757
v 0.640903 -0.493426 0.275040
v 0.640903 -0.493370 0.304641
v 0.640903 -0.398014 0.275040
v 0.742877 -0.387598 0.275040
v 0.663778 -0.485708 0.305897
v 0.735159 -0.485708 0.305897
v 0.742821 -0.387598 0.304641
v 0.647466 -0.398014 0.275040
v 0.640903 -0.485708 0.305897
v 0.647466 -0.398014 0.281331
v 0.647466 -0.387598 0.275040
v 0.668524 -0.480962 0.305897
v 0.730414 -0.480962 0.305897
v 0.735159 -0.387598 0.305897
v 0.640903 -0.398014 0.281331
v 0.640903 -0.480962 0.305897
v 0.640903 -0.387598 0.281331
v 0.647466 -0.387598 0.281331
v 0.670073 -0.479413 0.306312
v 0.728865 -0.479413 0.306312
v 0.730414 -0.387598 0.305897
v 0.640903 -0.479413 0.306312
v 0.640903 -0.478279 0.307446
v 0.671207 -0.478279 0.307446
v 0.728865 -0.387598 0.306312
v 0.727731 -0.478279 0.307446
v 0.727731 -0.387598 0.307446
v 0.640903 -0.477864 0.308995
v 0.671622 -0.477864 0.308995
v 0.727315 -0.387598 0.308995
v 0.727315 -0.477864 0.308995
v 0.640903 -0.477864 0.311165
v 0.671622 -0.477864 0.311165
v 0.727315 -0.387598 0.311165
v 0.727315 -0.477864 0.311165
v 0.671622 -0.422171 0.311165
v 0.640903 -0.422171 0.311165
v 0.640903 -0.422171 0.305897
v 0.671622 -0.387598 0.311165
v 0.671622 -0.422171 0.305897
v 0.671622 -0.387598 0.305897
v 0.664473 -0.415021 0.305897
v 0.640903 -0.415021 0.305897
v 0.664473 -0.387598 0.305897
v 0.661360 -0.411908 0.305213
v 0.640903 -0.411908 0.305213
v 0.661360 -0.387598 0.305213
v 0.658821 -0.409369 0.303287
v 0.640903 -0.409369 0.303287
v 0.658821 -0.387598 0.303287
v 0.640903 -0.407871 0.300474
v 0.657323 -0.387598 0.300474
v 0.657323 -0.407871 0.300474
v 0.640903 -0.407871 0.298862
v 0.657323 -0.387598 0.298862
v 0.657323 -0.407871 0.298862
v 0.649874 -0.400422 0.296866
v 0.640903 -0.399218 0.296543
v 0.648670 -0.399218 0.296543
v 0.648670 -0.387598 0.296543
v 0.647788 -0.398337 0.295662
v 0.647788 -0.387598 0.295662
v 0.640903 -0.398337 0.295662
v 0.640903 -0.398014 0.294458
v 0.647466 -0.387598 0.294458
v 0.647466 -0.398014 0.294458
v 0.640903 -0.398014 0.290362
v 0.647466 -0.387598 0.290362
v 0.647466 -0.398014 0.290362
v 0.640903 -0.387598 0.290362
vt 0.539575 0.001175
vt 0.536149 0.000323
vt 0.538723 0.000323
vt 0.536149 0.001175
vt 0.5384 0
vt 0.540647 0.002247
vt 0.536149 0
vt 0.536149 0.002247
vt 0.536149 0.002639
vt 0.541039 0.002639
vt 0.542705 0.004305
vt 0.541772 0.003372
vt 0.536149 0.004305
vt 0.536149 0.003372
vt 0.542729 0.004329
vt 0.536149 0.004329
vt 0.546043 0.007643
vt 0.536149 0.007643
vt 0.548096 0.009696
vt 0.536149 0.009696
vt 0.548766 0.010366
vt 0.536149 0.010366
vt 0.536149 0.010856
vt 0.549256 0.010856
vt 0.536149 0.011036
vt 0.549436 0.011036
vt 0.549436 0.035124
vt 0.536149 0.035124
vt 0.546343 0.038217
vt 0.536149 0.038217
vt 0.544997 0.039563
vt 0.536149 0.039563
vt 0.543899 0.040661
vt 0.536149 0.040661
vt 0.536149 0.041309
vt 0.543251 0.041309
vt 0.540029 0.044531
vt 0.536149 0.045052
vt 0.539508 0.045052
vt 0.539127 0.045433
vt 0.536149 0.045433
vt 0.536149 0.045573
vt 0.538987 0.045573
vt 0.702534 0.000323
vt 0.747197 0.001175
vt 0.703386 0.001175
vt 0.748372 0
vt 0.702211 0
vt 0.748049 0.000323
vt 0.746125 0.002247
vt 0.704458 0.002247
vt 0.748049 0.050078
vt 0.747197 0.050078
vt 0.70485 0.002639
vt 0.748372 0.050078
vt 0.746125 0.050078
vt 0.745733 0.002639
vt 0.706516 0.004305
vt 0.745733 0.050078
vt 0.745 0.003372
vt 0.744067 0.004305
vt 0.705583 0.003372
vt 0.744067 0.050078
vt 0.744042 0.004329
vt 0.745 0.050078
vt 0.70654 0.004329
vt 0.69996 0.045573
vt 0.69996 0.004305
vt 0.740728 0.007643
vt 0.744042 0.050078
vt 0.702799 0.045573
vt 0.709854 0.007643
vt 0.702799 0.050078
vt 0.738676 0.009696
vt 0.740728 0.050078
vt 0.711907 0.009696
vt 0.69996 0.050078
vt 0.738006 0.010366
vt 0.738676 0.050078
vt 0.712577 0.010366
vt 0.713068 0.010856
vt 0.738006 0.050078
vt 0.737515 0.010856
vt 0.737515 0.050078
vt 0.713247 0.011036
vt 0.737336 0.050078
vt 0.737336 0.011036
vt 0.713247 0.035124
vt 0.713247 0.050078
vt 0.710155 0.038217
vt 0.710155 0.050078
vt 0.708808 0.039563
vt 0.708808 0.050078
vt 0.70771 0.040661
vt 0.70771 0.050078
vt 0.707062 0.050078
vt 0.707062 0.041309
vt 0.70384 0.044531
vt 0.703319 0.045052
vt 0.703319 0.050078
vt 0.702938 0.050078
vt 0.702938 0.045433
vn 0 -0.340767813987169 0.9401474868074722
vn 0 -0.8187698428846325 0.5741218898306126
vn 0 -0.988336156236192 0.15228802407369255
vn 0 -0.041955021015569194 0.9991195004660768
vn 0 -0.9577262639316767 -0.2876810792795945
vn 0 -0.9248689496145284 0.3802859792825906
vn 0 -0.8307398269897266 0.5566608840695378
vn 0 -0.5479590874800316 0.8365051335455457
vn 0 -1 0
vn 0 -0.26778889221432334 0.9634776121979303
vn 0 -0.08117498901601025 0.9966998651340585
vn 0 -0.13052598533534132 0.9914448886106773
vn 0 -0.500000174843842 0.8660253028382761
vn 0 -0.8660253028382763 0.5000001748438415
vn 0 -0.9914448886106773 0.13052598533534088
vn 0 0 1
vn 0 1 0
vn 0 0.10793894836822572 0.9941575244523182
vn 0 0.4192320527257703 0.9078791141816938
vn 0 0.7612240147308266 0.6484890125492355
vn 0 0.8826627565537013 0.47000687036789324
vn 0 0.2588189595935752 0.9659258492011171
vn 0 0.5000001748438415 0.8660253028382763
vn 0 0.8660253028382761 0.500000174843842
vn 0 0.9914448886106773 0.13052598533534132
vn 0 0.8187698428846325 -0.5741218898306126
vn 0 0.340767813987169 -0.9401474868074722
vn 0 0.988336156236192 -0.15228802407369255
vn 0 0.041955021015569194 -0.9991195004660768
vn 0 0.9577262639316767 0.2876810792795945
vn -0.8187698428846324 0 -0.5741218898306129
vn -0.34076781398716877 0 -0.9401474868074723
vn -0.04195502101556897 0 -0.9991195004660768
vn 0 0.9248689496145284 -0.3802859792825906
vn 0 0.8307398269897266 -0.5566608840695378
vn -0.988336156236192 0 -0.15228802407369277
vn -0.9577262639316768 0 0.2876810792795943
vn -0.9248689496145283 0 -0.38028597928259084
vn -0.8307398269897263 0 -0.556660884069538
vn 0 0.5479590874800316 -0.8365051335455457
vn -0.5479590874800314 0 -0.8365051335455458
vn 0 0.26778889221432334 -0.9634776121979303
vn -1 0 0
vn -0.2677888922143231 0 -0.9634776121979304
vn 0 0.08117498901601025 -0.9966998651340585
vn -0.08117498901601004 0 -0.9966998651340587
vn 0 0.13052598533534132 -0.9914448886106773
vn 1 0 0
vn -0.1305259853353411 0 -0.9914448886106773
vn 0 0.500000174843842 -0.8660253028382761
vn -0.5000001748438417 0 -0.8660253028382762
vn 0 0.8660253028382763 -0.5000001748438415
vn -0.8660253028382762 0 -0.5000001748438417
vn 0 0.9914448886106773 -0.13052598533534088
vn -0.9914448886106773 0 -0.1305259853353411
vn 0 0 -1
vn 0 -0.10793894836822572 -0.9941575244523182
vn 0.10793894836822594 0 -0.9941575244523182
vn 0 -0.4192320527257703 -0.9078791141816938
vn 0.4192320527257705 0 -0.9078791141816936
vn 0 -0.7612240147308266 -0.6484890125492355
vn 0.7612240147308267 0 -0.6484890125492353
vn 0 -0.8826627565537013 -0.47000687036789324
vn 0.8826627565537014 0 -0.470006870367893
vn 0 -0.2588189595935752 -0.9659258492011171
vn 0.2588189595935754 0 -0.965925849201117
vn 0 -0.5000001748438415 -0.8660253028382763
vn 0.5000001748438417 0 -0.8660253028382762
vn 0 -0.8660253028382761 -0.500000174843842
vn 0.8660253028382762 0 -0.5000001748438417
vn 0 -0.9914448886106773 -0.13052598533534132
vn 0.9914448886106773 0 -0.1305259853353411
vn 0.8187698428846324 0 0.5741218898306129
vn 0.34076781398716877 0 0.9401474868074723
vn 0.04195502101556897 0 0.9991195004660768
vn 0.988336156236192 0 0.15228802407369277
vn 0.9577262639316768 0 -0.2876810792795943
vn 0.8307398269897263 0 0.556660884069538
vn 0.9248689496145283 0 0.38028597928259084
vn 0.5479590874800314 0 0.8365051335455458
vn 0.2677888922143231 0 0.9634776121979304
vn 0.08117498901601004 0 0.9966998651340587
vn 0.1305259853353411 0 0.9914448886106773
vn 0.5000001748438417 0 0.8660253028382762
vn 0.8660253028382762 0 0.5000001748438417
vn 0.9914448886106773 0 0.1305259853353411
vn -0.10793894836822594 0 0.9941575244523182
vn -0.4192320527257705 0 0.9078791141816936
vn -0.7612240147308267 0 0.6484890125492353
vn -0.8826627565537014 0 0.470006870367893
vn -0.2588189595935754 0 0.965925849201117
vn -0.5000001748438417 0 0.8660253028382762
vn -0.8660253028382762 0 0.5000001748438417
vn -0.9914448886106773 0 0.1305259853353411
usemtl material_0_0
f 1/1/1 2/2/2 3/3/2
f 2/2/2 1/1/1 4/4/1
f 2/2/2 5/5/3 3/3/2
f 7/6/4 4/4/1 1/1/1
f 5/5/3 2/2/2 8/7/3
f 4/4/1 7/6/4 12/8/4
f 8/7/3 13/5/5 5/5/3
f 7/6/6 17/9/7 12/8/6
f 13/5/5 8/7/3 19/7/5
f 17/9/7 7/6/6 18/10/7
f 19/7/5 23/11/5 13/5/5
f 26/12/8 17/9/7 18/10/7
f 23/11/5 19/7/5 28/13/5
f 17/9/7 26/12/8 30/14/8
f 28/13/5 31/11/9 23/11/5
f 34/15/10 30/14/8 26/12/8
f 31/11/9 28/13/5 37/13/9
f 30/14/8 34/15/10 38/16/10
f 41/17/11 38/16/10 34/15/10
f 38/16/10 41/17/11 45/18/11
f 48/19/12 45/18/11 41/17/11
f 45/18/11 48/19/12 52/20/12
f 55/21/13 52/20/12 48/19/12
f 52/20/12 55/21/13 58/22/13
f 55/21/13 59/23/14 58/22/13
f 59/23/14 55/21/13 60/24/14
f 60/24/14 64/25/15 59/23/14
f 64/25/15 60/24/14 65/26/15
f 65/26/15 68/25/9 64/25/15
f 68/25/9 65/26/15 69/26/9
f 72/27/16 68/25/16 69/26/16
f 68/25/16 72/27/16 73/28/16
f 72/27/17 74/28/17 73/28/17
f 74/28/17 72/27/17 76/27/17
f 78/29/18 74/28/16 76/27/16
f 74/28/16 78/29/18 79/30/18
f 81/31/19 79/30/18 78/29/18
f 79/30/18 81/31/19 82/32/19
f 84/33/20 82/32/19 81/31/19
f 82/32/19 84/33/20 85/34/20
f 84/33/20 87/35/21 85/34/20
f 87/35/21 84/33/20 89/36/21
f 89/36/17 90/35/17 87/35/17
f 90/35/17 89/36/17 92/36/17
f 93/37/22 90/35/22 92/36/22
f 90/35/22 93/37/22 94/38/23
f 94/38/23 93/37/22 95/39/23
f 97/40/24 94/38/23 95/39/23
f 94/38/23 97/40/24 99/41/24
f 97/40/24 100/42/25 99/41/24
f 100/42/25 97/40/24 102/43/25
f 102/43/25 103/42/17 100/42/25
f 103/42/17 102/43/25 105/43/17
usemtl material_1_0
f 3//26 2//26 1//27
f 4//27 1//27 2//26
f 3//26 5//28 2//26
f 1//27 6//27 3//26
f 1//27 4//27 7//29
f 8//28 2//26 5//28
f 5//28 3//26 9//28
f 10//26 3//26 6//27
f 6//27 1//27 11//29
f 12//29 7//29 4//27
f 7//29 11//29 1//27
f 5//28 13//30 8//28
f 10//26 9//28 3//26
f 9//28 14//30 5//28
f 10//31 6//32 15//31
f 6//32 11//33 16//32
f 12//34 17//35 7//34
f 7//34 18//35 11//34
f 19//30 8//28 13//30
f 13//30 5//28 14//30
f 10//31 15//31 9//36
f 9//36 20//36 14//37
f 16//32 15//31 6//32
f 21//33 16//32 11//33
f 18//35 7//34 17//35
f 22//35 11//34 18//35
f 13//30 23//30 19//30
f 13//30 14//30 23//30
f 20//36 9//36 15//31
f 24//37 14//37 20//36
f 21//38 11//38 25//39
f 18//35 17//35 26//40
f 22//39 25//39 11//38
f 22//35 18//35 27//40
f 28//30 19//30 23//30
f 29//30 23//30 14//30
f 14//37 24//37 29//37
f 30//40 26//40 17//35
f 26//40 27//40 18//35
f 22//39 27//41 25//39
f 23//30 31//17 28//30
f 29//30 32//17 23//30
f 33//37 29//37 24//37
f 26//40 30//40 34//42
f 27//40 26//40 35//42
f 36//41 25//39 27//41
f 37//17 28//30 31//17
f 31//17 23//30 32//17
f 29//37 33//37 32//43
f 38//42 34//42 30//40
f 34//42 35//42 26//40
f 27//41 35//44 36//41
f 37//16 31//16 39//16
f 32//16 39//16 31//16
f 40//43 32//43 33//37
f 34//42 38//42 41//45
f 35//42 34//42 42//45
f 43//44 36//41 35//44
f 44//16 39//16 32//16
f 40//16 44//16 32//16
f 45//45 41//45 38//42
f 41//45 42//45 34//42
f 35//44 42//46 43//44
f 44//9 46//9 39//9
f 47//16 44//16 40//16
f 41//45 45//45 48//47
f 42//45 41//45 49//47
f 50//46 43//44 42//46
f 51//9 39//9 46//9
f 44//48 47//48 46//48
f 52//47 48//47 45//45
f 48//47 49//47 41//45
f 42//46 49//49 50//46
f 51//16 46//16 53//16
f 54//48 46//48 47//48
f 48//47 52//47 55//50
f 49//47 48//47 56//50
f 57//49 50//46 49//49
f 54//16 53//16 46//16
f 58//50 55//50 52//47
f 55//50 56//50 48//47
f 49//49 56//51 57//49
f 58//50 59//52 55//50
f 55//50 60//52 56//50
f 61//51 57//49 56//51
f 60//52 55//50 59//52
f 62//52 56//50 60//52
f 61//51 56//51 63//53
f 59//52 64//54 60//52
f 62//53 63//53 56//51
f 60//52 65//54 62//52
f 65//54 60//52 64//54
f 63//53 62//53 66//55
f 67//54 62//52 65//54
f 64//54 68//17 65//54
f 67//55 66//55 62//53
f 65//54 69//17 67//54
f 69//17 65//54 68//17
f 66//55 67//55 70//43
f 71//17 67//54 69//17
f 69//56 68//56 72//56
f 71//43 70//43 67//55
f 71//56 69//56 70//56
f 73//56 72//56 68//56
f 72//56 70//56 69//56
f 73//9 74//9 72//9
f 75//56 70//56 72//56
f 76//9 72//9 74//9
f 75//48 72//48 77//48
f 76//48 77//48 72//48
f 76//56 74//56 78//57
f 76//56 78//58 77//56
f 79//57 78//57 74//56
f 80//58 77//56 78//58
f 78//57 79//57 81//59
f 78//58 81//60 80//58
f 82//59 81//59 79//57
f 83//60 80//58 81//60
f 81//59 82//59 84//61
f 81//60 84//62 83//60
f 85//61 84//61 82//59
f 86//62 83//60 84//62
f 85//61 87//63 84//61
f 86//62 84//62 88//64
f 89//63 84//61 87//63
f 89//64 88//64 84//62
f 87//9 90//9 89//9
f 88//48 89//48 91//48
f 92//9 89//9 90//9
f 92//48 91//48 89//48
f 92//65 90//65 93//65
f 92//66 93//66 91//66
f 94//67 93//65 90//65
f 95//68 91//66 93//66
f 95//67 93//65 94//67
f 96//68 91//66 95//68
f 95//67 94//67 97//69
f 96//68 95//68 98//70
f 99//69 97//69 94//67
f 97//70 98//70 95//68
f 99//69 100//71 97//69
f 98//70 97//70 101//72
f 102//71 97//69 100//71
f 102//72 101//72 97//70
f 100//71 103//9 102//71
f 101//72 102//72 104//48
f 105//9 102//71 103//9
f 105//48 104//48 102//72
f 105//56 103//56 104//56
f 106//56 104//56 103//56
usemtl material_2_0
f 3/44/2 6/45/1 1/46/1
f 9/47/3 3/44/2 5/48/3
f 6/45/1 3/44/2 10/49/2
f 11/50/4 1/46/1 6/45/1
f 1/46/1 11/50/4 7/51/4
f 3/44/2 9/47/3 10/49/2
f 5/48/3 14/47/5 9/47/3
f 15/52/73 6/45/74 10/49/73
f 16/53/74 11/50/75 6/45/74
f 11/50/6 18/54/7 7/51/6
f 14/47/5 5/48/3 13/48/5
f 9/47/76 15/52/73 10/49/73
f 14/47/77 20/55/76 9/47/76
f 6/45/74 15/52/73 16/53/74
f 11/50/75 16/53/74 21/56/75
f 18/54/7 11/50/6 22/57/7
f 23/58/5 14/47/5 13/48/5
f 15/52/73 9/47/76 20/55/76
f 20/55/76 14/47/77 24/55/77
f 25/59/78 11/50/79 21/56/79
f 11/50/79 25/59/78 22/57/78
f 27/60/8 18/54/7 22/57/7
f 14/47/5 23/58/5 29/61/5
f 29/61/77 24/55/77 14/47/77
f 18/54/7 27/60/8 26/62/8
f 25/59/78 27/60/80 22/57/78
f 23/58/5 32/61/9 29/61/5
f 24/55/77 29/61/77 33/63/77
f 35/64/10 26/62/8 27/60/8
f 27/60/80 25/59/78 36/65/80
f 32/61/9 23/58/5 31/58/9
f 32/61/48 33/63/77 29/61/77
f 26/62/8 35/64/10 34/66/10
f 36/65/80 35/64/81 27/60/80
f 39/67/56 31/58/56 37/68/56
f 31/58/56 39/67/56 32/61/56
f 33/63/77 32/61/48 40/63/48
f 42/69/11 34/66/10 35/64/10
f 35/64/81 36/65/80 43/70/81
f 32/61/56 39/67/56 44/71/56
f 32/61/56 44/71/56 40/63/56
f 34/66/10 42/69/11 41/72/11
f 43/70/81 42/69/82 35/64/81
f 39/67/17 46/71/17 44/71/17
f 40/63/56 44/71/56 47/73/56
f 49/74/12 41/72/11 42/69/11
f 42/69/82 43/70/81 50/75/82
f 46/71/17 39/67/17 51/67/17
f 46/71/43 47/73/43 44/71/43
f 41/72/11 49/74/12 48/76/12
f 50/75/82 49/74/83 42/69/82
f 53/77/56 46/71/56 51/67/56
f 47/73/43 46/71/43 54/73/43
f 56/78/13 48/76/12 49/74/12
f 49/74/83 50/75/82 57/79/83
f 46/71/56 53/77/56 54/73/56
f 48/76/12 56/78/13 55/80/13
f 57/79/83 56/78/84 49/74/83
f 56/78/13 60/81/14 55/80/13
f 56/78/84 57/79/83 61/82/84
f 60/81/14 56/78/13 62/83/14
f 63/84/85 56/78/84 61/82/84
f 56/78/84 63/84/85 62/83/85
f 62/83/14 65/85/15 60/81/14
f 66/86/86 62/83/85 63/84/85
f 65/85/15 62/83/14 67/87/15
f 62/83/85 66/86/86 67/87/86
f 67/87/15 69/85/9 65/85/15
f 70/86/48 67/87/86 66/86/86
f 69/85/9 67/87/15 71/87/9
f 67/87/86 70/86/48 71/87/48
f 70/86/16 69/85/16 71/87/16
f 69/85/16 70/86/16 72/88/16
f 72/88/16 70/86/16 75/89/16
f 77/89/43 72/88/43 75/89/43
f 72/88/43 77/89/43 76/88/43
f 77/89/16 78/90/87 76/88/16
f 78/90/87 77/89/16 80/91/87
f 80/91/87 81/92/88 78/90/87
f 81/92/88 80/91/87 83/93/88
f 83/93/88 84/94/89 81/92/88
f 84/94/89 83/93/88 86/95/89
f 88/96/90 84/94/89 86/95/89
f 84/94/89 88/96/90 89/97/90
f 91/96/43 89/97/43 88/96/43
f 89/97/43 91/96/43 92/97/43
f 91/96/91 93/98/91 92/97/91
f 93/98/91 91/96/91 95/99/92
f 95/99/92 91/96/91 96/100/92
f 98/101/93 95/99/92 96/100/92
f 95/99/92 98/101/93 97/102/93
f 101/73/94 97/102/93 98/101/93
f 97/102/93 101/73/94 102/71/94
f 104/73/43 102/71/94 101/73/94
f 102/71/94 104/73/43 105/71/43
f 104/73/16 103/67/16 105/71/16
f 103/67/16 104/73/16 106/77/16
