# SSTK version 0.8.0
# 24
mtllib original-24.mtl
o DR_FACE_8_1/DR_FACE_8/mesh13/mesh13-geometry#mesh13-geometry
v -0.778807 -0.583714 0.225556
v 0.770822 -0.583714 0.255646
v -0.778807 -0.583714 0.255646
v 0.770822 -0.583714 0.225556
v -0.778807 0.123398 0.255646
v 0.770822 0.123398 0.225556
v 0.770822 0.123398 0.255646
v -0.778807 0.123398 0.225556
vt -0.495791 0.742188
vt -0.480166 0
vt -0.480166 0.742188
vt -0.495791 0
vt 0.392383 -0.105579
vt 0.392383 -0.847766
vt 0.376758 -0.105579
vt 0.376758 -0.847766
vt 0.887494 0
vt 1.227337 0.742188
vt 0.887494 0.742188
vt 1.760043 -0.105579
vt 2.099886 -0.105579
vt 1.760043 -0.847766
vt 1.227337 0.480166
vt 0.887494 0.495791
vt 0.887494 0.480166
vt 1.760043 -0.3676
vt 1.760043 -0.351975
vt 2.099886 -0.3676
vt -0.887494 0.742188
vt -1.227337 0
vt -0.887494 0
vt -0.014945 -0.847766
vt -0.354789 -0.847766
vt -0.014945 -0.105579
vt -1.227337 0.495791
vt -0.887494 0.480166
vt -0.887494 0.495791
vt -0.014945 -0.351975
vt -0.014945 -0.3676
vt -0.354789 -0.351975
vt 1.227337 0
vt 2.099886 -0.847766
vt 1.227337 0.495791
vt 2.099886 -0.351975
vt -1.227337 0.742188
vt -0.354789 -0.105579
vt -1.227337 0.480166
vt -0.354789 -0.3676
vt 0.495791 0
vt 0.480166 0.742188
vt 0.480166 0
vt 1.352715 -0.847766
vt 1.352715 -0.105579
vt 1.36834 -0.847766
vt 0.495791 0.742188
vt 1.36834 -0.105579
vn 0 -1 0
vn 0 1 0
vn 0 0 1
vn 0 0 -1
vn -1 0 0
vn 1 0 0
usemtl material_0_0
f 1/1/1 2/2/1 3/3/1
f 2/2/1 1/1/1 4/4/1
f 3/5/2 2/6/2 1/7/2
f 4/8/2 1/7/2 2/6/2
f 2/9/3 5/10/3 3/11/3
f 3/12/4 5/13/4 2/14/4
f 5/15/5 1/16/5 3/17/5
f 3/18/6 1/19/6 5/20/6
f 1/21/4 6/22/4 4/23/4
f 4/24/3 6/25/3 1/26/3
f 6/27/6 2/28/6 4/29/6
f 4/30/5 2/31/5 6/32/5
f 5/10/3 2/9/3 7/33/3
f 7/34/4 2/14/4 5/13/4
f 1/16/5 5/15/5 8/35/5
f 8/36/6 5/20/6 1/19/6
f 6/22/4 1/21/4 8/37/4
f 8/38/3 1/26/3 6/25/3
f 2/28/6 6/27/6 7/39/6
f 7/40/5 6/32/5 2/31/5
f 6/41/2 5/42/2 7/43/2
f 7/44/1 5/45/1 6/46/1
f 5/42/2 6/41/2 8/47/2
f 8/48/1 6/46/1 5/45/1
