# SSTK version 0.8.0
# 39
mtllib original-39.mtl
o RT_21_TL1/RT_21_TL/mesh31/mesh31-geometry#mesh31-geometry
v 0.101400 0.576047 0.435112
v 0.138973 0.580470 0.448119
v 0.096978 0.580470 0.448119
v 0.138973 0.576047 0.435112
v 0.138973 0.655592 0.448119
v 0.101400 0.516288 0.435112
v 0.138973 0.576047 0.434158
v 0.096978 0.655592 0.448119
v 0.096978 0.516288 0.448119
v 0.101400 0.516288 0.434158
v 0.101400 0.576047 0.434158
v 0.138973 0.658499 0.447542
v 0.021856 0.655592 0.448119
v 0.021856 0.516288 0.448119
v 0.099885 0.658499 0.447542
v 0.138973 0.516288 0.434158
v 0.138973 0.660474 0.446783
v 0.018949 0.516288 0.447542
v 0.018949 0.658499 0.447542
v 0.101860 0.660474 0.446783
v 0.138973 0.661831 0.445479
v 0.016974 0.516288 0.446783
v 0.016974 0.660474 0.446783
v 0.103217 0.661831 0.445479
v 0.103857 0.662471 0.443437
v 0.015617 0.516288 0.445479
v 0.015617 0.661831 0.445479
v 0.138973 0.662471 0.443437
v 0.138973 0.662103 0.420978
v 0.014977 0.662471 0.443437
v 0.103489 0.662103 0.420978
v 0.015344 0.662103 0.420978
v 0.014977 0.516288 0.443437
v 0.101400 0.660014 0.420978
v 0.101400 0.576047 0.420978
v 0.015344 0.516288 0.420978
v 0.138973 0.576047 0.420978
v 0.101400 0.516288 0.420978
v 0.101400 0.576047 0.427761
v 0.138973 0.576047 0.427761
v 0.101400 0.516288 0.427761
v 0.138973 0.516288 0.427761
vt 0.459588 0.391292
vt 0.462134 0.369662
vt 0.462134 0.393838
vt 0.459588 0.369662
vt 0.505382 0.369662
vt 0.446067 0.56998
vt 0.448613 0.53303
vt 0.448613 0.567434
vt 0.505382 0.393838
vt 0.446067 0.53303
vt 0.507055 0.369662
vt 0.402819 0.613227
vt 0.446067 0.613227
vt 0.402819 0.53303
vt 0.470243 0.567434
vt 0.507055 0.392165
vt 0.44774 0.614901
vt 0.470243 0.53303
vt 0.508192 0.369662
vt 0.401145 0.53303
vt 0.401145 0.614901
vt 0.508192 0.391028
vt 0.448877 0.616038
vt 0.508974 0.369662
vt 0.400008 0.53303
vt 0.400008 0.616038
vt 0.508974 0.390247
vt 0.449658 0.616819
vt 0.509342 0.389878
vt 0.399227 0.53303
vt 0.399227 0.616819
vt 0.509342 0.369662
vt 0.450027 0.617187
vt 0.50913 0.369662
vt 0.398859 0.617187
vt 0.50913 0.39009
vt 0.39907 0.616976
vt 0.398859 0.53303
vt 0.507928 0.391292
vt 0.449815 0.616976
vt 0.448613 0.615773
vt 0.39907 0.53303
vn 0 -0.9866034141870529 0.16313706848675003
vn 0 -0.9467726899613448 0.3219028945867981
vn 0 0.09787398191890886 0.9951988161484805
vn 0 0 1
vn 0.9467726899613448 0 0.3219028945867983
vn 0.9866034141870529 0 0.16313706848675025
vn 0 -1 0
vn 1 0 0
vn 0 0.2776680254686841 0.960677088116669
vn -0.06549401933799623 0.065494019337996 0.9957012939942924
vn -0.09787398191890909 0 0.9951988161484805
vn 0 0.536284271889491 0.844037427916534
vn -0.2776680254686843 0 0.960677088116669
vn 0 0.8501918909233629 0.52647293245537
vn -0.5362842718894912 0 0.844037427916534
vn 0 0.9897122770561347 0.14307204005102042
vn -0.8501918909233631 0 0.5264729324553697
vn 0 0.9998661989134013 -0.016358003254261268
vn -0.9897122770561347 0 0.1430720400510202
vn 0 0 -1
vn -0.9998661989134013 0 -0.01635800325426149
vn 0 0.9467726899613448 -0.3219028945867981
vn 0 0.9866034141870529 -0.16313706848675003
vn 0 -0.09787398191890886 -0.9951988161484805
vn -0.9866034141870529 0 -0.16313706848675025
vn -0.9467726899613448 0 -0.3219028945867983
vn 0 1 0
vn -1 0 0
vn 0 -0.2776680254686841 -0.960677088116669
vn 0.06549401933799623 -0.065494019337996 -0.9957012939942924
vn 0.09787398191890909 0 -0.9951988161484805
vn 0 -0.536284271889491 -0.844037427916534
vn 0.2776680254686843 0 -0.960677088116669
vn 0 -0.8501918909233629 -0.52647293245537
vn 0.5362842718894912 0 -0.844037427916534
vn 0 -0.9897122770561347 -0.14307204005102042
vn 0.8501918909233631 0 -0.5264729324553697
vn 0 -0.9998661989134013 0.016358003254261268
vn 0.9897122770561347 0 -0.1430720400510202
vn 0.9998661989134013 0 0.01635800325426149
usemtl material_0_0
f 1/1/1 2/2/2 3/3/2
f 2/2/2 1/1/1 4/4/1
f 5/5/3 3/3/4 2/2/4
f 3/6/5 6/7/6 1/8/6
f 1/1/1 7/4/7 4/4/1
f 3/3/4 5/5/3 8/9/3
f 6/7/6 3/6/5 9/10/5
f 10/7/8 1/8/6 6/7/6
f 7/4/7 1/1/1 11/1/7
f 12/11/9 8/9/3 5/5/3
f 13/12/10 3/6/4 8/13/3
f 3/6/4 14/14/11 9/10/4
f 1/8/6 10/7/8 11/8/8
f 10/7/4 7/15/4 11/8/4
f 8/9/3 12/11/9 15/16/9
f 14/14/11 3/6/4 13/12/10
f 15/17/9 13/12/10 8/13/3
f 7/15/4 10/7/4 16/18/4
f 17/19/12 15/16/9 12/11/9
f 13/12/10 18/20/13 14/14/11
f 13/12/10 15/17/9 19/21/9
f 15/16/9 17/19/12 20/22/12
f 18/20/13 13/12/10 19/21/13
f 20/23/12 19/21/9 15/17/9
f 21/24/14 20/22/12 17/19/12
f 19/21/13 22/25/15 18/20/13
f 19/21/9 20/23/12 23/26/12
f 20/22/12 21/24/14 24/27/14
f 22/25/15 19/21/13 23/26/15
f 24/28/14 23/26/12 20/23/12
f 21/24/14 25/29/16 24/27/14
f 23/26/15 26/30/17 22/25/15
f 23/26/12 24/28/14 27/31/14
f 25/29/16 21/24/14 28/32/16
f 25/33/16 27/31/14 24/28/14
f 26/30/17 23/26/15 27/31/17
f 29/34/18 25/29/16 28/32/16
f 27/31/14 25/33/16 30/35/16
f 30/35/19 26/30/17 27/31/17
f 25/29/16 29/34/18 31/36/18
f 25/33/16 32/37/18 30/35/16
f 26/30/17 30/35/19 33/38/19
f 29/34/20 34/39/20 31/36/20
f 32/37/18 25/33/16 31/40/18
f 32/37/21 33/38/19 30/35/19
f 29/34/20 35/1/20 34/39/20
f 34/41/20 32/37/20 31/40/20
f 33/38/19 32/37/21 36/42/21
f 35/1/20 29/34/20 37/4/20
f 35/8/20 32/37/20 34/41/20
f 32/37/20 38/7/20 36/42/20
f 37/4/7 39/1/7 35/1/7
f 38/7/20 32/37/20 35/8/20
f 39/1/7 37/4/7 40/4/7
f 41/7/8 35/8/8 39/8/8
f 35/8/8 41/7/8 38/7/8
f 42/18/20 39/8/20 40/15/20
f 39/8/20 42/18/20 41/7/20
usemtl material_1_0
f 3//22 2//22 1//23
f 4//23 1//23 2//22
f 2//20 3//20 5//24
f 1//25 6//25 3//26
f 4//23 7//27 1//23
f 8//24 5//24 3//20
f 9//26 3//26 6//25
f 6//25 1//25 10//28
f 11//27 1//23 7//27
f 5//24 8//24 12//29
f 8//24 3//20 13//30
f 9//20 14//31 3//20
f 11//28 10//28 1//25
f 11//20 7//20 10//20
f 15//29 12//29 8//24
f 13//30 3//20 14//31
f 8//24 13//30 15//29
f 16//20 10//20 7//20
f 12//29 15//29 17//32
f 14//31 18//33 13//30
f 19//29 15//29 13//30
f 20//32 17//32 15//29
f 19//33 13//30 18//33
f 15//29 19//29 20//32
f 17//32 20//32 21//34
f 18//33 22//35 19//33
f 23//32 20//32 19//29
f 24//34 21//34 20//32
f 23//35 19//33 22//35
f 20//32 23//32 24//34
f 24//34 25//36 21//34
f 22//35 26//37 23//35
f 27//34 24//34 23//32
f 28//36 21//34 25//36
f 24//34 27//34 25//36
f 27//37 23//35 26//37
f 28//36 25//36 29//38
f 30//36 25//36 27//34
f 27//37 26//37 30//39
f 31//38 29//38 25//36
f 30//36 32//38 25//36
f 33//39 30//39 26//37
f 31//4 34//4 29//4
f 31//38 25//36 32//38
f 30//39 33//39 32//40
f 34//4 35//4 29//4
f 31//4 32//4 34//4
f 36//40 32//40 33//39
f 37//4 29//4 35//4
f 34//4 32//4 35//4
f 36//4 38//4 32//4
f 35//27 39//27 37//27
f 35//4 32//4 38//4
f 40//27 37//27 39//27
f 39//28 35//28 41//28
f 38//28 41//28 35//28
f 40//4 39//4 42//4
f 41//4 42//4 39//4
