# SSTK version 0.8.0
# 41
mtllib original-41.mtl
o RT_21_BR1/RT_21_BR/mesh33/mesh33-geometry#mesh33-geometry
v 0.552795 -0.309602 0.434158
v 0.515223 -0.249842 0.434158
v 0.515223 -0.309602 0.434158
v 0.552795 -0.249842 0.434158
v 0.552795 -0.309602 0.435112
v 0.552795 -0.249842 0.435112
v 0.515223 -0.309602 0.435112
v 0.557217 -0.314025 0.448119
v 0.557217 -0.249842 0.448119
v 0.515223 -0.314025 0.448119
v 0.557217 -0.389147 0.448119
v 0.632340 -0.249842 0.448119
v 0.515223 -0.389147 0.448119
v 0.632340 -0.389147 0.448119
v 0.554310 -0.392054 0.447542
v 0.635247 -0.392054 0.447542
v 0.635247 -0.249842 0.447542
v 0.515223 -0.392054 0.447542
v 0.552335 -0.394029 0.446783
v 0.637222 -0.249842 0.446783
v 0.515223 -0.394029 0.446783
v 0.637222 -0.394029 0.446783
v 0.550978 -0.395386 0.445479
v 0.638579 -0.395386 0.445479
v 0.638579 -0.249842 0.445479
v 0.515223 -0.395386 0.445479
v 0.550339 -0.396026 0.443437
v 0.639219 -0.396026 0.443437
v 0.515223 -0.396026 0.443437
v 0.639219 -0.249842 0.443437
v 0.515223 -0.395658 0.420978
v 0.550706 -0.395658 0.420978
v 0.638851 -0.395658 0.420978
v 0.638851 -0.249842 0.420978
v 0.515223 -0.309602 0.420978
v 0.552795 -0.393569 0.420978
v 0.552795 -0.309602 0.420978
v 0.552795 -0.249842 0.420978
v 0.552795 -0.309602 0.427761
v 0.552795 -0.249842 0.427761
v 0.515223 -0.309602 0.427761
v 0.515223 -0.249842 0.427761
vt 0.688949 0.049754
vt 0.667318 0.084158
vt 0.667318 0.049754
vt 0.688949 0.084158
vt 0.077325 0.172587
vt 0.077325 0.150956
vt 0.074779 0.14841
vt 0.691495 0.084158
vt 0.074779 0.172587
vt 0.691495 0.047208
vt 0.031531 0.14841
vt 0.734742 0.084158
vt 0.031531 0.172587
vt 0.734742 0.00396
vt 0.691495 0.00396
vt 0.029858 0.150084
vt 0.736416 0.002287
vt 0.736416 0.084158
vt 0.029858 0.172587
vt 0.689821 0.002287
vt 0.028721 0.151221
vt 0.688684 0.00115
vt 0.737553 0.084158
vt 0.028721 0.172587
vt 0.737553 0.00115
vt 0.027939 0.152002
vt 0.738334 0.000368
vt 0.738334 0.084158
vt 0.027939 0.172587
vt 0.687903 0.000368
vt 0.027571 0.152371
vt 0.738702 0
vt 0.027571 0.172587
vt 0.687534 0
vt 0.738702 0.084158
vt 0.027783 0.172587
vt 0.687746 0.000212
vt 0.738491 0.000212
vt 0.027783 0.152159
vt 0.738491 0.084158
vt 0.688949 0.001414
vt 0.028985 0.150956
vn 0 0 1
vn 0 1 0
vn 0 0.9866034141870529 0.16313706848675047
vn -1 0 0
vn -0.9866034141870529 0 0.16313706848675025
vn 0 0.9467726899613448 0.32190289458679855
vn -0.9467726899613448 0 0.3219028945867983
vn 0 -0.09787398191890931 0.9951988161484805
vn 0.09787398191890909 0 0.9951988161484805
vn 0.06549401933799623 -0.06549401933799645 0.9957012939942924
vn 0 -0.2776680254686845 0.9606770881166689
vn 0.2776680254686843 0 0.960677088116669
vn 0 -0.5362842718894915 0.8440374279165338
vn 0.5362842718894912 0 0.844037427916534
vn 0 -0.8501918909233632 0.5264729324553695
vn 0.8501918909233631 0 0.5264729324553697
vn 0 -0.9897122770561348 0.14307204005101998
vn 0.9897122770561347 0 0.1430720400510202
vn 0 -0.9998661989134013 -0.016358003254261712
vn 0.9998661989134013 0 -0.01635800325426149
vn 0 0 -1
vn 0 -1 0
vn 0 -0.9866034141870529 -0.16313706848675047
vn 1 0 0
vn 0.9866034141870529 0 -0.16313706848675025
vn 0 -0.9467726899613448 -0.32190289458679855
vn 0.9467726899613448 0 -0.3219028945867983
vn 0 0.09787398191890931 -0.9951988161484805
vn -0.09787398191890909 0 -0.9951988161484805
vn -0.06549401933799623 0.06549401933799645 -0.9957012939942924
vn 0 0.2776680254686845 -0.9606770881166689
vn -0.2776680254686843 0 -0.960677088116669
vn 0 0.5362842718894915 -0.8440374279165338
vn -0.5362842718894912 0 -0.844037427916534
vn 0 0.8501918909233632 -0.5264729324553695
vn -0.8501918909233631 0 -0.5264729324553697
vn 0 0.9897122770561348 -0.14307204005101998
vn -0.9897122770561347 0 -0.1430720400510202
vn 0 0.9998661989134013 0.016358003254261712
vn -0.9998661989134013 0 0.01635800325426149
usemtl material_0_0
f 1/1/1 2/2/1 3/3/1
f 2/2/1 1/1/1 4/4/1
f 3/5/2 5/6/3 1/6/2
f 1/1/4 6/4/5 4/4/4
f 5/6/3 3/5/2 7/5/3
f 6/4/5 1/1/4 5/1/5
f 7/5/3 8/7/6 5/6/3
f 5/1/5 9/8/7 6/4/5
f 8/7/6 7/5/3 10/9/6
f 9/8/7 5/1/5 8/10/7
f 10/9/1 11/11/8 8/7/1
f 8/10/1 12/12/9 9/8/1
f 11/11/8 10/9/1 13/13/8
f 14/14/10 8/10/1 11/15/8
f 8/10/1 14/14/10 12/12/9
f 13/13/8 15/16/11 11/11/8
f 11/15/8 16/17/11 14/14/10
f 14/14/10 17/18/12 12/12/9
f 15/16/11 13/13/8 18/19/11
f 16/17/11 11/15/8 15/20/11
f 17/18/12 14/14/10 16/17/12
f 18/19/11 19/21/13 15/16/11
f 19/22/13 16/17/11 15/20/11
f 16/17/12 20/23/14 17/18/12
f 19/21/13 18/19/11 21/24/13
f 16/17/11 19/22/13 22/25/13
f 20/23/14 16/17/12 22/25/14
f 21/24/13 23/26/15 19/21/13
f 19/22/13 24/27/15 22/25/13
f 22/25/14 25/28/16 20/23/14
f 23/26/15 21/24/13 26/29/15
f 24/27/15 19/22/13 23/30/15
f 25/28/16 22/25/14 24/27/16
f 26/29/15 27/31/17 23/26/15
f 23/30/15 28/32/17 24/27/15
f 28/32/18 25/28/16 24/27/16
f 27/31/17 26/29/15 29/33/17
f 28/32/17 23/30/15 27/34/17
f 25/28/16 28/32/18 30/35/18
f 31/36/19 27/31/17 29/33/17
f 32/37/19 28/32/17 27/34/17
f 33/38/20 30/35/18 28/32/18
f 27/31/17 31/36/19 32/39/19
f 28/32/17 32/37/19 33/38/19
f 30/35/18 33/38/20 34/40/20
f 35/5/21 32/39/21 31/36/21
f 36/41/21 33/38/21 32/37/21
f 33/38/21 36/41/21 34/40/21
f 32/39/21 35/5/21 36/42/21
f 34/40/21 36/41/21 37/1/21
f 36/42/21 35/5/21 37/6/21
f 34/40/21 37/1/21 38/4/21
f 35/5/2 39/6/2 37/6/2
f 37/1/4 40/4/4 38/4/4
f 39/6/2 35/5/2 41/5/2
f 40/4/4 37/1/4 39/1/4
f 42/2/21 39/1/21 41/3/21
f 39/1/21 42/2/21 40/4/21
usemtl material_1_0
f 3//21 2//21 1//21
f 4//21 1//21 2//21
f 1//22 5//23 3//22
f 4//24 6//25 1//24
f 7//23 3//22 5//23
f 5//25 1//24 6//25
f 5//23 8//26 7//23
f 6//25 9//27 5//25
f 10//26 7//23 8//26
f 8//27 5//25 9//27
f 8//21 11//28 10//21
f 9//21 12//29 8//21
f 13//28 10//21 11//28
f 11//28 8//21 14//30
f 12//29 14//30 8//21
f 11//28 15//31 13//28
f 14//30 16//31 11//28
f 12//29 17//32 14//30
f 18//31 13//28 15//31
f 15//31 11//28 16//31
f 16//32 14//30 17//32
f 15//31 19//33 18//31
f 15//31 16//31 19//33
f 17//32 20//34 16//32
f 21//33 18//31 19//33
f 22//33 19//33 16//31
f 22//34 16//32 20//34
f 19//33 23//35 21//33
f 22//33 24//35 19//33
f 20//34 25//36 22//34
f 26//35 21//33 23//35
f 23//35 19//33 24//35
f 24//36 22//34 25//36
f 23//35 27//37 26//35
f 24//35 28//37 23//35
f 24//36 25//36 28//38
f 29//37 26//35 27//37
f 27//37 23//35 28//37
f 30//38 28//38 25//36
f 29//37 27//37 31//39
f 27//37 28//37 32//39
f 28//38 30//38 33//40
f 32//39 31//39 27//37
f 33//39 32//39 28//37
f 34//40 33//40 30//38
f 31//1 32//1 35//1
f 32//1 33//1 36//1
f 34//1 36//1 33//1
f 36//1 35//1 32//1
f 37//1 36//1 34//1
f 37//1 35//1 36//1
f 38//1 37//1 34//1
f 37//22 39//22 35//22
f 38//24 40//24 37//24
f 41//22 35//22 39//22
f 39//24 37//24 40//24
f 41//1 39//1 42//1
f 40//1 42//1 39//1
