# SSTK version 0.8.0
# 27
mtllib original-27.mtl
o LT_21_TR1/LT_21_TR/mesh21/mesh21-geometry#mesh21-geometry
v -0.098587 0.576047 0.427761
v -0.098587 0.516288 0.420978
v -0.098587 0.516288 0.427761
v -0.098587 0.576047 0.420978
v -0.136160 0.576047 0.427761
v -0.012531 0.516288 0.420978
v -0.136160 0.516288 0.427761
v -0.136160 0.576047 0.420978
v -0.012531 0.662103 0.420978
v -0.136160 0.662103 0.420978
v -0.098587 0.660014 0.420978
v -0.012164 0.662471 0.443437
v -0.100676 0.662103 0.420978
v -0.012164 0.516288 0.443437
v -0.012804 0.661831 0.445479
v -0.101044 0.662471 0.443437
v -0.012804 0.516288 0.445479
v -0.100404 0.661831 0.445479
v -0.136160 0.662471 0.443437
v -0.014161 0.516288 0.446783
v -0.099047 0.660474 0.446783
v -0.014161 0.660474 0.446783
v -0.136160 0.660474 0.446783
v -0.136160 0.661831 0.445479
v -0.016136 0.516288 0.447542
v -0.097072 0.658499 0.447542
v -0.136160 0.658499 0.447542
v -0.016136 0.658499 0.447542
v -0.019043 0.516288 0.448119
v -0.094165 0.655592 0.448119
v -0.019043 0.655592 0.448119
v -0.136160 0.655592 0.448119
v -0.094165 0.516288 0.448119
v -0.094165 0.580470 0.448119
v -0.136160 0.580470 0.448119
v -0.098587 0.516288 0.435112
v -0.098587 0.576047 0.435112
v -0.136160 0.576047 0.435112
v -0.098587 0.516288 0.434158
v -0.098587 0.576047 0.434158
v -0.136160 0.576047 0.434158
v -0.136160 0.516288 0.434158
vt 0.29009 0.567434
vt 0.29009 0.53303
vt 0.26846 0.567434
vt 0.459588 0.172587
vt 0.459588 0.150956
vt 0.339632 0.53303
vt 0.26846 0.53303
vt 0.339632 0.616976
vt 0.50913 0.172587
vt 0.29009 0.615773
vt 0.339844 0.617187
vt 0.507928 0.150956
vt 0.288887 0.616976
vt 0.339844 0.53303
vt 0.50913 0.152159
vt 0.339475 0.616819
vt 0.288676 0.617187
vt 0.509342 0.152371
vt 0.339475 0.53303
vt 0.289044 0.616819
vt 0.509342 0.172587
vt 0.338694 0.53303
vt 0.289825 0.616038
vt 0.508974 0.152002
vt 0.338694 0.616038
vt 0.508192 0.172587
vt 0.508192 0.151221
vt 0.508974 0.172587
vt 0.337557 0.53303
vt 0.290962 0.614901
vt 0.507055 0.172587
vt 0.337557 0.614901
vt 0.507055 0.150084
vt 0.335884 0.53303
vt 0.292636 0.613227
vt 0.505382 0.14841
vt 0.335884 0.613227
vt 0.505382 0.172587
vt 0.292636 0.53303
vt 0.292636 0.56998
vt 0.462134 0.172587
vt 0.462134 0.14841
vn -1 0 0
vn 0 0 -1
vn 0 -1 0
vn 0.9897122770561347 0 0.1430720400510202
vn 0.9998661989134013 0 -0.01635800325426149
vn 0 0.9998661989134013 -0.016358003254261268
vn 0 0.9897122770561347 0.14307204005102042
vn 0.8501918909233631 0 0.5264729324553697
vn 0 0.8501918909233629 0.52647293245537
vn 0.5362842718894912 0 0.844037427916534
vn 0 0.536284271889491 0.844037427916534
vn 0.2776680254686843 0 0.960677088116669
vn 0 0.2776680254686841 0.960677088116669
vn 0.09787398191890909 0 0.9951988161484805
vn 0 0.09787398191890886 0.9951988161484805
vn 0.06549401933799623 0.065494019337996 0.9957012939942924
vn 0 0 1
vn -0.9467726899613448 0 0.3219028945867983
vn -0.9866034141870529 0 0.16313706848675025
vn 0 -0.9467726899613448 0.3219028945867981
vn 0 -0.9866034141870529 0.16313706848675003
vn 1 0 0
vn 0 1 0
vn -0.9998661989134013 0 0.01635800325426149
vn -0.9897122770561347 0 -0.1430720400510202
vn 0 -0.9998661989134013 0.016358003254261268
vn 0 -0.9897122770561347 -0.14307204005102042
vn -0.8501918909233631 0 -0.5264729324553697
vn 0 -0.8501918909233629 -0.52647293245537
vn -0.5362842718894912 0 -0.844037427916534
vn 0 -0.536284271889491 -0.844037427916534
vn -0.2776680254686843 0 -0.960677088116669
vn 0 -0.2776680254686841 -0.960677088116669
vn -0.09787398191890909 0 -0.9951988161484805
vn 0 -0.09787398191890886 -0.9951988161484805
vn -0.06549401933799623 -0.065494019337996 -0.9957012939942924
vn 0.9467726899613448 0 -0.3219028945867983
vn 0.9866034141870529 0 -0.16313706848675025
vn 0 0.9467726899613448 -0.3219028945867981
vn 0 0.9866034141870529 -0.16313706848675003
usemtl material_0_0
f 1/1/1 2/2/1 3/2/1
f 2/2/1 1/1/1 4/1/1
f 3/2/2 5/3/2 1/1/2
f 5/4/3 4/5/3 1/5/3
f 4/1/2 6/6/2 2/2/2
f 5/3/2 3/2/2 7/7/2
f 4/5/3 5/4/3 8/4/3
f 6/6/2 4/1/2 9/8/2
f 10/9/2 4/5/2 8/4/2
f 9/8/2 4/1/2 11/10/2
f 12/11/4 6/6/5 9/8/5
f 4/5/2 10/9/2 11/12/2
f 9/8/2 11/10/2 13/13/2
f 6/6/5 12/11/4 14/14/4
f 13/13/6 12/11/7 9/8/6
f 11/12/2 10/9/2 13/15/2
f 15/16/8 14/14/4 12/11/4
f 12/11/7 13/13/6 16/17/7
f 10/9/6 16/18/7 13/15/6
f 14/14/4 15/16/8 17/19/8
f 12/11/7 18/20/9 15/16/9
f 18/20/9 12/11/7 16/17/7
f 16/18/7 10/9/6 19/21/7
f 15/16/8 20/22/10 17/19/8
f 21/23/11 15/16/9 18/20/9
f 19/21/7 18/24/9 16/18/7
f 20/22/10 15/16/8 22/25/10
f 15/16/9 21/23/11 22/25/11
f 18/24/9 23/26/11 21/27/11
f 18/24/9 19/21/7 24/28/9
f 22/25/10 25/29/12 20/22/10
f 26/30/13 22/25/11 21/23/11
f 23/26/11 18/24/9 24/28/9
f 27/31/13 21/27/11 23/26/11
f 25/29/12 22/25/10 28/32/12
f 22/25/11 26/30/13 28/32/13
f 21/27/11 27/31/13 26/33/13
f 28/32/12 29/34/14 25/29/12
f 30/35/15 28/32/13 26/30/13
f 27/31/13 30/36/15 26/33/13
f 29/34/14 28/32/12 31/37/16
f 28/32/13 30/35/15 31/37/16
f 30/36/15 27/31/13 32/38/15
f 31/37/16 33/39/17 29/34/14
f 34/40/17 31/37/16 30/35/15
f 35/41/17 30/36/15 32/38/15
f 33/39/17 31/37/16 34/40/17
f 30/36/15 35/41/17 34/42/17
f 34/40/18 36/2/19 33/39/18
f 35/41/20 37/5/21 34/42/20
f 36/2/19 34/40/18 37/1/19
f 37/5/21 35/41/20 38/4/21
f 37/1/19 39/2/1 36/2/19
f 38/4/21 40/5/3 37/5/21
f 39/2/1 37/1/19 40/1/1
f 40/5/3 38/4/21 41/4/3
f 40/1/17 42/7/17 39/2/17
f 42/7/17 40/1/17 41/3/17
usemtl material_1_0
f 3//22 2//22 1//22
f 4//22 1//22 2//22
f 1//17 5//17 3//17
f 1//23 4//23 5//23
f 2//17 6//17 4//17
f 7//17 3//17 5//17
f 8//23 5//23 4//23
f 9//17 4//17 6//17
f 8//17 4//17 10//17
f 11//17 4//17 9//17
f 9//24 6//24 12//25
f 11//17 10//17 4//17
f 13//17 11//17 9//17
f 14//25 12//25 6//24
f 9//26 12//27 13//26
f 13//17 10//17 11//17
f 12//25 14//25 15//28
f 16//27 13//26 12//27
f 13//26 16//27 10//26
f 17//28 15//28 14//25
f 15//29 18//29 12//27
f 16//27 12//27 18//29
f 19//27 10//26 16//27
f 17//28 20//30 15//28
f 18//29 15//29 21//31
f 16//27 18//29 19//27
f 22//30 15//28 20//30
f 22//31 21//31 15//29
f 21//31 23//31 18//29
f 24//29 19//27 18//29
f 20//30 25//32 22//30
f 21//31 22//31 26//33
f 24//29 18//29 23//31
f 23//31 21//31 27//33
f 28//32 22//30 25//32
f 28//33 26//33 22//31
f 26//33 27//33 21//31
f 25//32 29//34 28//32
f 26//33 28//33 30//35
f 26//33 30//35 27//33
f 31//36 28//32 29//34
f 31//36 30//35 28//33
f 32//35 27//33 30//35
f 29//34 33//2 31//36
f 30//35 31//36 34//2
f 32//35 30//35 35//2
f 34//2 31//36 33//2
f 34//2 35//2 30//35
f 33//37 36//38 34//37
f 34//39 37//40 35//39
f 37//38 34//37 36//38
f 38//40 35//39 37//40
f 36//38 39//22 37//38
f 37//40 40//23 38//40
f 40//22 37//38 39//22
f 41//23 38//40 40//23
f 39//2 42//2 40//2
f 41//2 40//2 42//2
