# SSTK version 0.8.0
# 43
mtllib original-43.mtl
o RT_21_TC1/RT_21_TC/mesh35/mesh35-geometry#mesh35-geometry
v 0.515225 0.655592 0.448119
v 0.138973 0.580470 0.448119
v 0.515225 0.580470 0.448119
v 0.138973 0.655592 0.448119
v 0.515225 0.576047 0.435112
v 0.515225 0.658499 0.447542
v 0.138973 0.576047 0.435112
v 0.138973 0.658499 0.447542
v 0.515225 0.576047 0.434158
v 0.515225 0.660474 0.446783
v 0.138973 0.576047 0.434158
v 0.138973 0.660474 0.446783
v 0.138973 0.516288 0.434158
v 0.138973 0.661831 0.445479
v 0.515225 0.516288 0.434158
v 0.515225 0.661831 0.445479
v 0.138973 0.662471 0.443437
v 0.515225 0.662471 0.443437
v 0.138973 0.662103 0.420978
v 0.515225 0.662103 0.420978
v 0.515225 0.576047 0.420978
v 0.138973 0.576047 0.420978
v 0.138973 0.576047 0.427761
v 0.515225 0.576047 0.427761
v 0.515225 0.516288 0.427761
v 0.138973 0.516288 0.427761
vt 0.505382 0.172587
vt 0.462134 0.369662
vt 0.462134 0.172587
vt 0.505382 0.369662
vt 0.459588 0.172587
vt 0.507055 0.172587
vt 0.459588 0.369662
vt 0.507055 0.369662
vt 0.508192 0.172587
vt 0.508192 0.369662
vt 0.470243 0.53303
vt 0.667318 0.567434
vt 0.470243 0.567434
vt 0.508974 0.369662
vt 0.667318 0.53303
vt 0.508974 0.172587
vt 0.509342 0.369662
vt 0.509342 0.172587
vt 0.50913 0.369662
vt 0.50913 0.172587
vn 0 0.09787398191890884 0.9951988161484805
vn 0 0 1
vn 0 -0.9467726899613449 0.3219028945867981
vn 0 -0.9866034141870529 0.16313706848675003
vn 0 0.2776680254686841 0.960677088116669
vn 0 -1 0
vn 0 0.5362842718894909 0.8440374279165341
vn 0 0.8501918909233629 0.5264729324553699
vn 0 0.9897122770561348 0.14307204005102042
vn 0 0.9998661989134014 -0.016358003254261268
vn 0 0 -1
vn 0 -0.09787398191890884 -0.9951988161484805
vn 0 0.9467726899613449 -0.3219028945867981
vn 0 0.9866034141870529 -0.16313706848675003
vn 0 -0.2776680254686841 -0.960677088116669
vn 0 1 0
vn 0 -0.5362842718894909 -0.8440374279165341
vn 0 -0.8501918909233629 -0.5264729324553699
vn 0 -0.9897122770561348 -0.14307204005102042
vn 0 -0.9998661989134014 0.016358003254261268
usemtl material_0_0
f 1/1/1 2/2/2 3/3/2
f 2/2/2 1/1/1 4/4/1
f 2/2/3 5/5/4 3/3/3
f 6/6/5 4/4/1 1/1/1
f 5/5/4 2/2/3 7/7/4
f 4/4/1 6/6/5 8/8/5
f 7/7/4 9/5/6 5/5/4
f 10/9/7 8/8/5 6/6/5
f 9/5/6 7/7/4 11/7/6
f 8/8/5 10/9/7 12/10/7
f 13/11/2 9/12/2 11/13/2
f 10/9/7 14/14/8 12/10/7
f 9/12/2 13/11/2 15/15/2
f 14/14/8 10/9/7 16/16/8
f 16/16/8 17/17/9 14/14/8
f 17/17/9 16/16/8 18/18/9
f 18/18/9 19/19/10 17/17/9
f 19/19/10 18/18/9 20/20/10
f 21/5/11 19/19/11 20/20/11
f 19/19/11 21/5/11 22/7/11
f 21/5/6 23/7/6 22/7/6
f 23/7/6 21/5/6 24/5/6
f 25/15/11 23/13/11 24/12/11
f 23/13/11 25/15/11 26/11/11
usemtl material_1_0
f 3//11 2//11 1//12
f 4//12 1//12 2//11
f 3//13 5//14 2//13
f 1//12 4//12 6//15
f 7//14 2//13 5//14
f 8//15 6//15 4//12
f 5//14 9//16 7//14
f 6//15 8//15 10//17
f 11//16 7//14 9//16
f 12//17 10//17 8//15
f 11//11 9//11 13//11
f 12//17 14//18 10//17
f 15//11 13//11 9//11
f 16//18 10//17 14//18
f 14//18 17//19 16//18
f 18//19 16//18 17//19
f 17//19 19//20 18//19
f 20//20 18//19 19//20
f 20//2 19//2 21//2
f 22//2 21//2 19//2
f 22//16 23//16 21//16
f 24//16 21//16 23//16
f 24//2 23//2 25//2
f 26//2 25//2 23//2
