# SSTK version 0.8.0
# 45
mtllib original-45.mtl
o RT_21_CL1/RT_21_CL/mesh37/mesh37-geometry#mesh37-geometry
v 0.014977 0.516289 0.443437
v 0.015344 -0.249842 0.420978
v 0.014977 -0.249842 0.443437
v 0.015344 0.516289 0.420978
v 0.015617 0.516289 0.445479
v 0.101400 0.516289 0.420978
v 0.015617 -0.249842 0.445479
v 0.101400 -0.249842 0.420978
v 0.016974 0.516289 0.446783
v 0.101400 -0.249842 0.427761
v 0.016974 -0.249842 0.446783
v 0.101400 0.516289 0.427761
v 0.018949 0.516289 0.447542
v 0.138973 -0.249842 0.427761
v 0.018949 -0.249842 0.447542
v 0.138973 0.516289 0.427761
v 0.021856 0.516289 0.448119
v 0.021856 -0.249842 0.448119
v 0.096978 0.516289 0.448119
v 0.096978 -0.249842 0.448119
v 0.101400 -0.249842 0.435112
v 0.101400 0.516289 0.435112
v 0.101400 -0.249842 0.434158
v 0.101400 0.516289 0.434158
v 0.138973 0.516289 0.434158
v 0.138973 -0.249842 0.434158
vt 0.398859 0.53303
vt 0.39907 0.084158
vt 0.398859 0.084158
vt 0.39907 0.53303
vt 0.399227 0.53303
vt 0.448613 0.53303
vt 0.399227 0.084158
vt 0.448613 0.084158
vt 0.400008 0.53303
vt 0.400008 0.084158
vt 0.401145 0.53303
vt 0.470243 0.084158
vt 0.401145 0.084158
vt 0.470243 0.53303
vt 0.402819 0.53303
vt 0.402819 0.084158
vt 0.446067 0.53303
vt 0.446067 0.084158
vn -0.9897122770561347 0 0.1430720400510202
vn -0.9998661989134013 0 -0.01635800325426149
vn -0.8501918909233631 0 0.5264729324553697
vn 0 0 -1
vn -0.5362842718894912 0 0.844037427916534
vn 1 0 0
vn -0.2776680254686843 0 0.960677088116669
vn -0.09787398191890909 0 0.9951988161484805
vn 0 0 1
vn 0.9866034141870529 0 0.16313706848675025
vn 0.9467726899613448 0 0.3219028945867983
vn 0.9897122770561347 0 -0.1430720400510202
vn 0.9998661989134013 0 0.01635800325426149
vn 0.8501918909233631 0 -0.5264729324553697
vn 0.5362842718894912 0 -0.844037427916534
vn -1 0 0
vn 0.2776680254686843 0 -0.960677088116669
vn 0.09787398191890909 0 -0.9951988161484805
vn -0.9467726899613448 0 -0.3219028945867983
vn -0.9866034141870529 0 -0.16313706848675025
usemtl material_0_0
f 1/1/1 2/2/2 3/3/1
f 2/2/2 1/1/1 4/4/2
f 3/3/1 5/5/3 1/1/1
f 6/6/4 2/2/4 4/4/4
f 5/5/3 3/3/1 7/7/3
f 2/2/4 6/6/4 8/8/4
f 7/7/3 9/9/5 5/5/3
f 6/6/6 10/8/6 8/8/6
f 9/9/5 7/7/3 11/10/5
f 10/8/6 6/6/6 12/6/6
f 11/10/5 13/11/7 9/9/5
f 12/6/4 14/12/4 10/8/4
f 13/11/7 11/10/5 15/13/7
f 14/12/4 12/6/4 16/14/4
f 15/13/7 17/15/8 13/11/7
f 17/15/8 15/13/7 18/16/8
f 18/16/8 19/17/9 17/15/8
f 19/17/9 18/16/8 20/18/9
f 21/8/10 19/17/11 20/18/11
f 19/17/11 21/8/10 22/6/10
f 23/8/6 22/6/10 21/8/10
f 22/6/10 23/8/6 24/6/6
f 23/8/9 25/14/9 24/6/9
f 25/14/9 23/8/9 26/12/9
usemtl material_1_0
f 3//12 2//13 1//12
f 4//13 1//12 2//13
f 1//12 5//14 3//12
f 4//9 2//9 6//9
f 7//14 3//12 5//14
f 8//9 6//9 2//9
f 5//14 9//15 7//14
f 8//16 10//16 6//16
f 11//15 7//14 9//15
f 12//16 6//16 10//16
f 9//15 13//17 11//15
f 10//9 14//9 12//9
f 15//17 11//15 13//17
f 16//9 12//9 14//9
f 13//17 17//18 15//17
f 18//18 15//17 17//18
f 17//18 19//4 18//18
f 20//4 18//18 19//4
f 20//19 19//19 21//20
f 22//20 21//20 19//19
f 21//20 22//20 23//16
f 24//16 23//16 22//20
f 24//4 25//4 23//4
f 26//4 23//4 25//4
