# SSTK version 0.8.0
# 26
mtllib original-26.mtl
o LT_21_TL1/LT_21_TL/mesh20/mesh20-geometry#mesh20-geometry
v -0.632434 0.658499 0.447542
v -0.634409 0.516288 0.446783
v -0.632434 0.516288 0.447542
v -0.634409 0.660474 0.446783
v -0.629527 0.655592 0.448119
v -0.549523 0.660474 0.446783
v -0.635766 0.516288 0.445479
v -0.629527 0.516288 0.448119
v -0.551497 0.658499 0.447542
v -0.548165 0.661831 0.445479
v -0.635766 0.661831 0.445479
v -0.554404 0.580470 0.448119
v -0.554404 0.655592 0.448119
v -0.512410 0.660474 0.446783
v -0.512410 0.661831 0.445479
v -0.636406 0.516288 0.443437
v -0.554404 0.516288 0.448119
v -0.512410 0.658499 0.447542
v -0.547526 0.662471 0.443437
v -0.636406 0.662471 0.443437
v -0.549982 0.516288 0.435112
v -0.512410 0.655592 0.448119
v -0.512410 0.662471 0.443437
v -0.636038 0.516288 0.420978
v -0.549982 0.576047 0.435112
v -0.512410 0.580470 0.448119
v -0.636038 0.662103 0.420978
v -0.512410 0.662103 0.420978
v -0.549982 0.516288 0.434158
v -0.547893 0.662103 0.420978
v -0.549982 0.516288 0.420978
v -0.549982 0.576047 0.434158
v -0.512410 0.576047 0.435112
v -0.549982 0.660014 0.420978
v -0.549982 0.576047 0.420978
v -0.512410 0.576047 0.434158
v -0.549982 0.576047 0.427761
v -0.512410 0.516288 0.434158
v -0.512410 0.576047 0.420978
v -0.549982 0.516288 0.427761
v -0.512410 0.516288 0.427761
v -0.512410 0.576047 0.427761
vt 0.002287 0.614901
vt 0.00115 0.53303
vt 0.002287 0.53303
vt 0.00115 0.616038
vt 0.00396 0.613227
vt 0.050018 0.616038
vt 0.000368 0.53303
vt 0.00396 0.53303
vt 0.048882 0.614901
vt 0.0508 0.616819
vt 0.000368 0.616819
vt 0.047208 0.56998
vt 0.047208 0.613227
vt 0.507055 0.392165
vt 0.508192 0.369662
vt 0.508192 0.391028
vt 0.508974 0.369662
vt 0.508974 0.390247
vt 0 0.53303
vt 0.047208 0.53303
vt 0.505382 0.393838
vt 0.507055 0.369662
vt 0.051168 0.617187
vt 0.509342 0.389878
vt 0 0.617187
vt 0.049754 0.53303
vt 0.462134 0.393838
vt 0.505382 0.369662
vt 0.509342 0.369662
vt 0.000212 0.53303
vt 0.049754 0.567434
vt 0.462134 0.369662
vt 0.000212 0.616976
vt 0.50913 0.369662
vt 0.459588 0.391292
vt 0.050957 0.616976
vt 0.50913 0.39009
vt 0.459588 0.369662
vt 0.049754 0.615773
vt 0.507928 0.391292
vt 0.071384 0.567434
vt 0.071384 0.53303
vn -0.2776680254686843 0 0.960677088116669
vn -0.5362842718894912 0 0.844037427916534
vn -0.06549401933799623 0.065494019337996 0.9957012939942924
vn 0 0.2776680254686841 0.960677088116669
vn 0 0.536284271889491 0.844037427916534
vn -0.8501918909233631 0 0.5264729324553697
vn -0.09787398191890909 0 0.9951988161484805
vn 0 0.8501918909233629 0.52647293245537
vn 0 0 1
vn 0 0.09787398191890886 0.9951988161484805
vn -0.9897122770561347 0 0.1430720400510202
vn 0 0.9897122770561347 0.14307204005102042
vn 0.9866034141870529 0 0.16313706848675025
vn 0.9467726899613448 0 0.3219028945867983
vn -0.9998661989134013 0 -0.01635800325426149
vn 0 0.9998661989134013 -0.016358003254261268
vn 1 0 0
vn 0 -0.9866034141870529 0.16313706848675003
vn 0 -0.9467726899613448 0.3219028945867981
vn 0 0 -1
vn 0 -1 0
vn 0.2776680254686843 0 -0.960677088116669
vn 0.5362842718894912 0 -0.844037427916534
vn 0.06549401933799623 -0.065494019337996 -0.9957012939942924
vn 0 -0.536284271889491 -0.844037427916534
vn 0 -0.2776680254686841 -0.960677088116669
vn 0.8501918909233631 0 -0.5264729324553697
vn 0.09787398191890909 0 -0.9951988161484805
vn 0 -0.8501918909233629 -0.52647293245537
vn 0 -0.09787398191890886 -0.9951988161484805
vn 0.9897122770561347 0 -0.1430720400510202
vn 0 -0.9897122770561347 -0.14307204005102042
vn -0.9467726899613448 0 -0.3219028945867983
vn -0.9866034141870529 0 -0.16313706848675025
vn 0.9998661989134013 0 0.01635800325426149
vn 0 -0.9998661989134013 0.016358003254261268
vn -1 0 0
vn 0 0.9467726899613448 -0.3219028945867981
vn 0 0.9866034141870529 -0.16313706848675003
vn 0 1 0
usemtl material_0_0
f 1/1/1 2/2/2 3/3/1
f 2/2/2 1/1/1 4/4/2
f 3/3/1 5/5/3 1/1/1
f 1/1/4 6/6/5 4/4/5
f 4/4/2 7/7/6 2/2/2
f 5/5/3 3/3/1 8/8/7
f 5/5/3 9/9/4 1/1/4
f 6/6/5 1/1/4 9/9/4
f 10/10/8 4/4/5 6/6/5
f 7/7/6 4/4/2 11/11/6
f 8/8/7 12/12/9 5/5/3
f 9/9/4 5/5/3 13/13/10
f 9/14/4 14/15/5 6/16/5
f 4/4/5 10/10/8 11/11/8
f 6/16/5 15/17/8 10/18/8
f 11/11/6 16/19/11 7/7/6
f 12/12/9 8/8/7 17/20/9
f 5/5/3 12/12/9 13/13/10
f 13/21/10 18/22/4 9/14/4
f 14/15/5 9/14/4 18/22/4
f 15/17/8 6/16/5 14/15/5
f 19/23/12 11/11/8 10/10/8
f 15/17/8 19/24/12 10/18/8
f 16/19/11 11/11/6 20/25/11
f 21/26/13 12/12/14 17/20/14
f 12/27/9 22/28/10 13/21/10
f 18/22/4 13/21/10 22/28/10
f 11/11/8 19/23/12 20/25/12
f 19/24/12 15/17/8 23/29/12
f 20/25/11 24/30/15 16/19/11
f 12/12/14 21/26/13 25/31/13
f 22/28/10 12/27/9 26/32/9
f 19/23/12 27/33/16 20/25/12
f 28/34/16 19/24/12 23/29/12
f 24/30/15 20/25/11 27/33/15
f 29/26/17 25/31/13 21/26/13
f 25/35/18 26/32/19 12/27/19
f 27/33/16 19/23/12 30/36/16
f 19/24/12 28/34/16 30/37/16
f 27/33/20 31/26/20 24/30/20
f 25/31/13 29/26/17 32/31/17
f 26/32/19 25/35/18 33/38/18
f 34/39/20 27/33/20 30/36/20
f 28/34/20 34/40/20 30/37/20
f 31/26/20 27/33/20 35/31/20
f 29/26/9 36/41/9 32/31/9
f 36/38/21 25/35/18 32/35/21
f 25/35/18 36/38/21 33/38/18
f 35/31/20 27/33/20 34/39/20
f 28/34/20 35/35/20 34/40/20
f 37/31/17 31/26/17 35/31/17
f 36/41/9 29/26/9 38/42/9
f 35/35/20 28/34/20 39/38/20
f 31/26/17 37/31/17 40/26/17
f 39/38/21 37/35/21 35/35/21
f 37/31/20 41/42/20 40/26/20
f 37/35/21 39/38/21 42/38/21
f 41/42/20 37/31/20 42/41/20
usemtl material_1_0
f 3//22 2//23 1//22
f 4//23 1//22 2//23
f 1//22 5//24 3//22
f 4//25 6//25 1//26
f 2//23 7//27 4//23
f 8//28 3//22 5//24
f 1//26 9//26 5//24
f 9//26 1//26 6//25
f 6//25 4//25 10//29
f 11//27 4//23 7//27
f 5//24 12//20 8//28
f 13//30 5//24 9//26
f 6//25 14//25 9//26
f 11//29 10//29 4//25
f 10//29 15//29 6//25
f 7//27 16//31 11//27
f 17//20 8//28 12//20
f 13//30 12//20 5//24
f 9//26 18//26 13//30
f 18//26 9//26 14//25
f 14//25 6//25 15//29
f 10//29 11//29 19//32
f 10//29 19//32 15//29
f 20//31 11//27 16//31
f 17//33 12//33 21//34
f 13//30 22//30 12//20
f 22//30 13//30 18//26
f 20//32 19//32 11//29
f 23//32 15//29 19//32
f 16//31 24//35 20//31
f 25//34 21//34 12//33
f 26//20 12//20 22//30
f 20//32 27//36 19//32
f 23//32 19//32 28//36
f 27//35 20//31 24//35
f 21//34 25//34 29//37
f 12//38 26//38 25//39
f 30//36 19//32 27//36
f 30//36 28//36 19//32
f 24//9 31//9 27//9
f 32//37 29//37 25//34
f 33//39 25//39 26//38
f 30//9 27//9 34//9
f 30//9 34//9 28//9
f 35//9 27//9 31//9
f 32//20 36//20 29//20
f 32//40 25//39 36//40
f 33//39 36//40 25//39
f 34//9 27//9 35//9
f 34//9 35//9 28//9
f 35//37 31//37 37//37
f 38//20 29//20 36//20
f 39//9 28//9 35//9
f 40//37 37//37 31//37
f 35//40 37//40 39//40
f 40//9 41//9 37//9
f 42//40 39//40 37//40
f 42//9 37//9 41//9
