# SSTK version 0.8.0
# 49
mtllib original-49.mtl
o RT_11_BR1/RT_11_BR/mesh35/mesh35-geometry#mesh35-geometry
v 0.436575 -0.606043 0.413354
v 0.292357 -0.605166 0.414419
v 0.292357 -0.606043 0.413354
v 0.435697 -0.605166 0.414419
v 0.437109 -0.606578 0.412069
v 0.435697 -0.434193 0.414419
v 0.292357 -0.603418 0.415442
v 0.292357 -0.606578 0.412069
v 0.436575 -0.434193 0.413354
v 0.433949 -0.603418 0.415442
v 0.439756 -0.609225 0.412069
v 0.437109 -0.434193 0.412069
v 0.433949 -0.434193 0.415442
v 0.292357 -0.601617 0.415633
v 0.292357 -0.609225 0.412069
v 0.439756 -0.434193 0.412069
v 0.432148 -0.601617 0.415633
v 0.439785 -0.609254 0.413905
v 0.439785 -0.434193 0.413905
v 0.432148 -0.434193 0.415633
v 0.292357 -0.601589 0.417046
v 0.292357 -0.609254 0.413905
v 0.432120 -0.434193 0.417046
v 0.432120 -0.601589 0.417046
v 0.440140 -0.609609 0.415307
v 0.440140 -0.434193 0.415307
v 0.292357 -0.600284 0.418421
v 0.292357 -0.609609 0.415307
v 0.430815 -0.434193 0.418421
v 0.430815 -0.600284 0.418421
v 0.441181 -0.610650 0.416312
v 0.441181 -0.434193 0.416312
v 0.292357 -0.528089 0.418421
v 0.292357 -0.610650 0.416312
v 0.358620 -0.528089 0.418421
v 0.442595 -0.612064 0.416618
v 0.442595 -0.434193 0.416618
v 0.358620 -0.434193 0.418421
v 0.292357 -0.526826 0.417098
v 0.292357 -0.612064 0.416618
v 0.357357 -0.526826 0.417098
v 0.443958 -0.613427 0.416133
v 0.443958 -0.434193 0.416133
v 0.357357 -0.434193 0.417098
v 0.292357 -0.526734 0.412126
v 0.292357 -0.613427 0.416133
v 0.357265 -0.526734 0.412126
v 0.445431 -0.614900 0.415037
v 0.445431 -0.434193 0.415037
v 0.357265 -0.434193 0.412126
v 0.292357 -0.525493 0.411047
v 0.292357 -0.614900 0.415037
v 0.356024 -0.525493 0.411047
v 0.450979 -0.620448 0.412349
v 0.450979 -0.434193 0.412349
v 0.356024 -0.434193 0.411047
v 0.292357 -0.521008 0.411047
v 0.292357 -0.620448 0.412349
v 0.351539 -0.521008 0.411047
v 0.457125 -0.626594 0.410890
v 0.457125 -0.434193 0.410890
v 0.351539 -0.434193 0.411047
v 0.292357 -0.520395 0.413808
v 0.292357 -0.626594 0.410890
v 0.350926 -0.434193 0.413808
v 0.350926 -0.520395 0.413808
v 0.460859 -0.630328 0.410810
v 0.460859 -0.434193 0.410810
v 0.292357 -0.518448 0.415860
v 0.292357 -0.630328 0.410810
v 0.348979 -0.434193 0.415860
v 0.348979 -0.518448 0.415860
v 0.462623 -0.632092 0.409031
v 0.292357 -0.515723 0.416616
v 0.292357 -0.632092 0.409031
v 0.462623 -0.434193 0.409031
v 0.346254 -0.515723 0.416616
v 0.462623 -0.632092 0.388758
v 0.346254 -0.434193 0.416616
v 0.292357 -0.512997 0.415860
v 0.292357 -0.632092 0.388758
v 0.462623 -0.434193 0.388758
v 0.343529 -0.512997 0.415860
v 0.459369 -0.628838 0.384620
v 0.343529 -0.434193 0.415860
v 0.292357 -0.511050 0.413808
v 0.292357 -0.628838 0.384620
v 0.459369 -0.434193 0.384620
v 0.341582 -0.511050 0.413808
v 0.292357 -0.502981 0.384620
v 0.333513 -0.502981 0.384620
v 0.341582 -0.434193 0.413808
v 0.292357 -0.510438 0.411047
v 0.333513 -0.434193 0.384620
v 0.340969 -0.510438 0.411047
v 0.333513 -0.502981 0.391225
v 0.333513 -0.434193 0.391225
v 0.340969 -0.434193 0.411047
v 0.292357 -0.508445 0.411047
v 0.292357 -0.502981 0.391225
v 0.338976 -0.508445 0.411047
v 0.292357 -0.434193 0.391225
v 0.338976 -0.434193 0.411047
v 0.292357 -0.506778 0.410569
v 0.337309 -0.506778 0.410569
v 0.337309 -0.434193 0.410569
v 0.292357 -0.505592 0.409315
v 0.336123 -0.505592 0.409315
v 0.336123 -0.434193 0.409315
v 0.292357 -0.505141 0.407552
v 0.335672 -0.505141 0.407552
v 0.335672 -0.434193 0.407552
v 0.292357 -0.505141 0.400299
v 0.335672 -0.505141 0.400299
v 0.335672 -0.434193 0.400299
v 0.292357 -0.434193 0.400299
vt 0.036579 0.633221
vt 0.036985 0.699887
vt 0.036579 0.699887
vt 0.036985 0.633627
vt 0.036332 0.632974
vt 0.327803 0.012041
vt 0.327397 0.091481
vt 0.327397 0.012447
vt 0.037793 0.699887
vt 0.036332 0.699887
vt 0.32805 0.011794
vt 0.327803 0.091481
vt 0.326589 0.013255
vt 0.037793 0.634435
vt 0.035108 0.63175
vt 0.32805 0.091481
vt 0.326589 0.091481
vt 0.038625 0.699887
vt 0.035108 0.699887
vt 0.329274 0.091481
vt 0.329274 0.01057
vt 0.325757 0.014087
vt 0.038625 0.635267
vt 0.035095 0.631737
vt 0.329287 0.091481
vt 0.325757 0.091481
vt 0.038638 0.699887
vt 0.035095 0.699887
vt 0.329287 0.010557
vt 0.325744 0.091481
vt 0.038638 0.63528
vt 0.034931 0.631573
vt 0.329451 0.091481
vt 0.325744 0.0141
vt 0.039242 0.699887
vt 0.034931 0.699887
vt 0.329451 0.010393
vt 0.32514 0.091481
vt 0.039242 0.635884
vt 0.03445 0.631092
vt 0.329932 0.091481
vt 0.32514 0.014703
vt 0.072615 0.699887
vt 0.03445 0.699887
vt 0.329932 0.009912
vt 0.291768 0.048076
vt 0.072615 0.669257
vt 0.033796 0.630438
vt 0.330586 0.091481
vt 0.291768 0.091481
vt 0.073198 0.699887
vt 0.033796 0.699887
vt 0.330586 0.009258
vt 0.291184 0.04866
vt 0.073198 0.66984
vt 0.033166 0.629808
vt 0.331216 0.091481
vt 0.291184 0.091481
vt 0.073241 0.699887
vt 0.033166 0.699887
vt 0.331216 0.008628
vt 0.291141 0.048702
vt 0.073241 0.669883
vt 0.032485 0.629127
vt 0.331897 0.091481
vt 0.291141 0.091481
vt 0.073815 0.699887
vt 0.032485 0.699887
vt 0.331897 0.007947
vt 0.290567 0.049276
vt 0.073815 0.670457
vt 0.029921 0.626563
vt 0.334461 0.091481
vt 0.290567 0.091481
vt 0.075888 0.699887
vt 0.029921 0.699887
vt 0.334461 0.005382
vt 0.288494 0.05135
vt 0.075888 0.67253
vt 0.02708 0.623722
vt 0.337302 0.091481
vt 0.288494 0.091481
vt 0.076171 0.699887
vt 0.02708 0.699887
vt 0.337302 0.002541
vt 0.288211 0.091481
vt 0.076171 0.672813
vt 0.025354 0.621996
vt 0.339028 0.091481
vt 0.288211 0.051633
vt 0.077071 0.699887
vt 0.025354 0.699887
vt 0.339028 0.000815
vt 0.287311 0.091481
vt 0.077071 0.673713
vt 0.024538 0.62118
vt 0.339844 0
vt 0.287311 0.052533
vt 0.078331 0.699887
vt 0.024538 0.699887
vt 0.339844 0.091481
vt 0.286051 0.053793
vt 0.078331 0.674973
vt 0.286051 0.091481
vt 0.079591 0.699887
vt 0.284791 0.055052
vt 0.079591 0.676233
vt 0.026042 0.622684
vt 0.33834 0.001504
vt 0.284791 0.091481
vt 0.080491 0.699887
vt 0.026042 0.699887
vt 0.33834 0.091481
vt 0.283891 0.055952
vt 0.080491 0.677133
vt 0.084221 0.699887
vt 0.280161 0.059682
vt 0.283891 0.091481
vt 0.080774 0.699887
vt 0.084221 0.680863
vt 0.280161 0.091481
vt 0.283608 0.056236
vt 0.080774 0.677416
vt 0.283608 0.091481
vt 0.081695 0.699887
vt 0.282687 0.057157
vt 0.081695 0.678337
vt 0.261137 0.091481
vt 0.261137 0.059682
vt 0.282687 0.091481
vt 0.082466 0.699887
vt 0.281916 0.057928
vt 0.082466 0.679108
vt 0.281916 0.091481
vt 0.083014 0.699887
vt 0.281368 0.058476
vt 0.083014 0.679656
vt 0.281368 0.091481
vt 0.083223 0.699887
vt 0.281159 0.058684
vt 0.083223 0.679865
vt 0.281159 0.091481
vt 0.261137 0.058684
vn 0 -0.8569058686513363 0.5154729209870278
vn 0 -0.6485230293281579 0.7611950344235237
vn 0 -0.9233742208355903 0.38390109181437176
vn 0.8569058686513362 0 0.515472920987028
vn 0.6485230293281576 0 0.7611950344235238
vn 0 -0.3121370299436191 0.9500370911380125
vn 0.9233742208355902 0 0.383901091814372
vn 0.31213702994361886 0 0.9500370911380126
vn 0 0 1
vn 0 -0.10509798638728952 0.994461871193329
vn 0.1050979863872893 0 0.994461871193329
vn 0 0.9998810892883854 0.015421001377080286
vn 0 0.9913292929170314 0.1314010388262535
vn -0.9998810892883854 0 0.015421001377080064
vn -0.9913292929170314 0 0.13140103882625329
vn 0 -0.9997994393469632 0.020027008800570324
vn 0 -0.925002578416296 0.37996082682719295
vn 0.9250025784162961 0 0.37996082682719323
vn 0.9997994393469632 0 0.020027008800570546
vn 0 0.8650370308675492 0.5017080179026987
vn -0.8650370308675494 0 0.5017080179026985
vn 0 -0.3946238895003938 0.9188427427125824
vn 0.39462388950039357 0 0.9188427427125825
vn 0 0.4709491822100381 0.8821603413074611
vn -0.47094918221003834 0 0.882160341307461
vn 0 0.39341584314965866 0.9193606334615613
vn -0.3934158431496589 0 0.9193606334615612
vn 0 -0.06444700844094771 0.9979211307027286
vn 0.06444700844094749 0 0.9979211307027286
vn 0 0.9247981708250348 0.3804580702766997
vn -0.9247981708250347 0 0.3804580702766994
vn 0 -0.4712621119971038 0.8819932096087979
vn 0.4712621119971036 0 0.881993209608798
vn 0 0.9059915435253358 0.42329578672670487
vn -0.905991543525336 0 0.42329578672670465
vn 0 -0.5187288783160755 0.854938799447625
vn 0.5187288783160753 0 0.8549387994476251
vn 0 0.34998597721223856 0.9367549390074196
vn -0.3499859772122388 0 0.9367549390074195
vn 0 -0.3355149569785976 0.9420348792075852
vn 0.3355149569785974 0 0.9420348792075853
vn 0 -0.12685097270896775 0.9919217865954899
vn 0.12685097270896753 0 0.9919217865954899
vn 0 -0.9762715506789323 0.21654990033466345
vn 0 -0.8829048588548676 0.4695519249353221
vn 0.8829048588548675 0 0.46955192493532233
vn 0.9762715506789323 0 0.21654990033466368
vn 0 -0.39455801380854466 0.9188710321581895
vn 0.39455801380854444 0 0.9188710321581897
vn 0 -0.5149989020261033 0.8571908369271732
vn 0.5149989020261031 0 0.8571908369271733
vn 0 -0.9247352064258889 0.38061108496267987
vn 0.9247352064258888 0 0.3806110849626801
vn 0 -0.945027820027029 -0.3269899377273885
vn 0.9450278200270291 0 -0.32698993772738827
vn 0 0.5149989020261029 0.8571908369271735
vn -0.5149989020261031 0 0.8571908369271733
vn 0 -0.43701910779842384 -0.8994522218656584
vn 0.43701910779842407 0 -0.8994522218656583
vn 0 0.8829048588548674 0.46955192493532255
vn -0.8829048588548675 0 0.46955192493532233
vn 0 0 -1
vn 0 0.9762715506789323 0.2165499003346639
vn -0.9762715506789323 0 0.21654990033466368
vn 0 1 0
vn -1 0 0
vn 0 0.1391790330320595 0.990267235025102
vn -0.13917903303205972 0 0.990267235025102
vn 0 0.5196688573548156 0.8543677654824885
vn -0.5196688573548158 0 0.8543677654824884
vn 0 0.8756788571430763 0.48289392122141667
vn -0.8756788571430764 0 0.48289392122141644
vn 0 0.9921490536147441 0.12506100675817217
vn -0.9921490536147441 0 0.12506100675817194
vn 0 0.8569058686513363 -0.5154729209870278
vn 0 0.6485230293281579 -0.7611950344235237
vn 0 0.9233742208355903 -0.38390109181437176
vn -0.6485230293281576 0 -0.7611950344235238
vn -0.8569058686513362 0 -0.515472920987028
vn 0 0.3121370299436191 -0.9500370911380125
vn -0.9233742208355902 0 -0.383901091814372
vn -0.31213702994361886 0 -0.9500370911380126
vn 0 0.10509798638728952 -0.994461871193329
vn -0.1050979863872893 0 -0.994461871193329
vn 0 -0.9998810892883854 -0.015421001377080286
vn 0 -0.9913292929170314 -0.1314010388262535
vn 0.9998810892883854 0 -0.015421001377080064
vn 0.9913292929170314 0 -0.13140103882625329
vn 0 0.9997994393469632 -0.020027008800570324
vn 0 0.925002578416296 -0.37996082682719295
vn -0.9997994393469632 0 -0.020027008800570546
vn -0.9250025784162961 0 -0.37996082682719323
vn 0 -0.8650370308675492 -0.5017080179026987
vn 0.8650370308675494 0 -0.5017080179026985
vn 0 0.3946238895003938 -0.9188427427125824
vn -0.39462388950039357 0 -0.9188427427125825
vn 0 -0.4709491822100381 -0.8821603413074611
vn 0.47094918221003834 0 -0.882160341307461
vn 0 -0.39341584314965866 -0.9193606334615613
vn 0.3934158431496589 0 -0.9193606334615612
vn 0 0.06444700844094771 -0.9979211307027286
vn -0.06444700844094749 0 -0.9979211307027286
vn 0 -0.9247981708250348 -0.3804580702766997
vn 0.9247981708250347 0 -0.3804580702766994
vn 0 0.4712621119971038 -0.8819932096087979
vn -0.4712621119971036 0 -0.881993209608798
vn 0 -0.9059915435253358 -0.42329578672670487
vn 0.905991543525336 0 -0.42329578672670465
vn 0 0.5187288783160755 -0.854938799447625
vn -0.5187288783160753 0 -0.8549387994476251
vn 0 -0.34998597721223856 -0.9367549390074196
vn 0.3499859772122388 0 -0.9367549390074195
vn 0 0.3355149569785976 -0.9420348792075852
vn -0.3355149569785974 0 -0.9420348792075853
vn 0 0.12685097270896775 -0.9919217865954899
vn -0.12685097270896753 0 -0.9919217865954899
vn 0 0.9762715506789323 -0.21654990033466345
vn 0 0.8829048588548676 -0.4695519249353221
vn -0.9762715506789323 0 -0.21654990033466368
vn -0.8829048588548675 0 -0.46955192493532233
vn 0 0.39455801380854466 -0.9188710321581895
vn -0.39455801380854444 0 -0.9188710321581897
vn 0 0.5149989020261033 -0.8571908369271732
vn -0.5149989020261031 0 -0.8571908369271733
vn 0 0.9247352064258889 -0.38061108496267987
vn -0.9247352064258888 0 -0.3806110849626801
vn 0 0.945027820027029 0.3269899377273885
vn -0.9450278200270291 0 0.32698993772738827
vn 0 -0.5149989020261029 -0.8571908369271735
vn 0.5149989020261031 0 -0.8571908369271733
vn 0 0.43701910779842384 0.8994522218656584
vn -0.43701910779842407 0 0.8994522218656583
vn 0 -0.8829048588548674 -0.46955192493532255
vn 0.8829048588548675 0 -0.46955192493532233
vn 0 -0.9762715506789323 -0.2165499003346639
vn 0.9762715506789323 0 -0.21654990033466368
vn 0 -1 0
vn 1 0 0
vn 0 -0.1391790330320595 -0.990267235025102
vn 0.13917903303205972 0 -0.990267235025102
vn 0 -0.5196688573548156 -0.8543677654824885
vn 0.5196688573548158 0 -0.8543677654824884
vn 0 -0.8756788571430763 -0.48289392122141667
vn 0.8756788571430764 0 -0.48289392122141644
vn 0 -0.9921490536147441 -0.12506100675817217
vn 0.9921490536147441 0 -0.12506100675817194
usemtl material_0_0
f 1/1/1 2/2/2 3/3/1
f 2/2/2 1/1/1 4/4/2
f 3/3/1 5/5/3 1/1/1
f 1/6/4 6/7/5 4/8/5
f 4/4/2 7/9/6 2/2/2
f 5/5/3 3/3/1 8/10/3
f 5/11/7 9/12/4 1/6/4
f 6/7/5 1/6/4 9/12/4
f 6/7/5 10/13/8 4/8/5
f 7/9/6 4/4/2 10/14/6
f 8/10/9 11/15/9 5/5/9
f 9/12/4 5/11/7 12/16/7
f 10/13/8 6/7/5 13/17/8
f 10/14/6 14/18/10 7/9/6
f 11/15/9 8/10/9 15/19/9
f 16/20/9 5/11/9 11/21/9
f 5/11/9 16/20/9 12/16/9
f 13/17/8 17/22/11 10/13/8
f 14/18/10 10/14/6 17/23/10
f 15/19/12 18/24/13 11/15/12
f 11/21/14 19/25/15 16/20/14
f 17/22/11 13/17/8 20/26/11
f 17/23/16 21/27/17 14/18/16
f 18/24/13 15/19/12 22/28/13
f 19/25/15 11/21/14 18/29/15
f 23/30/18 17/22/19 20/26/19
f 21/27/17 17/23/16 24/31/17
f 22/28/13 25/32/20 18/24/13
f 18/29/15 26/33/21 19/25/15
f 17/22/19 23/30/18 24/34/18
f 24/31/17 27/35/22 21/27/17
f 25/32/20 22/28/13 28/36/20
f 26/33/21 18/29/15 25/37/21
f 29/38/23 24/34/18 23/30/18
f 27/35/22 24/31/17 30/39/22
f 28/36/20 31/40/24 25/32/20
f 25/37/21 32/41/25 26/33/21
f 24/34/18 29/38/23 30/42/23
f 30/39/22 33/43/26 27/35/22
f 31/40/24 28/36/20 34/44/24
f 32/41/25 25/37/21 31/45/25
f 29/38/23 35/46/27 30/42/23
f 33/43/26 30/39/22 35/47/26
f 34/44/24 36/48/28 31/40/24
f 31/45/25 37/49/29 32/41/25
f 35/46/27 29/38/23 38/50/27
f 35/47/26 39/51/30 33/43/26
f 36/48/28 34/44/24 40/52/28
f 37/49/29 31/45/25 36/53/29
f 38/50/27 41/54/31 35/46/27
f 39/51/30 35/47/26 41/55/30
f 40/52/28 42/56/32 36/48/28
f 36/53/29 43/57/33 37/49/29
f 41/54/31 38/50/27 44/58/31
f 41/55/30 45/59/34 39/51/30
f 42/56/32 40/52/28 46/60/32
f 43/57/33 36/53/29 42/61/33
f 44/58/31 47/62/35 41/54/31
f 45/59/34 41/55/30 47/63/34
f 46/60/32 48/64/36 42/56/32
f 42/61/33 49/65/37 43/57/33
f 47/62/35 44/58/31 50/66/35
f 47/63/34 51/67/38 45/59/34
f 48/64/36 46/60/32 52/68/36
f 49/65/37 42/61/33 48/69/37
f 50/66/35 53/70/39 47/62/35
f 51/67/38 47/63/34 53/71/38
f 52/68/36 54/72/40 48/64/36
f 48/69/37 55/73/41 49/65/37
f 53/70/39 50/66/35 56/74/39
f 53/71/38 57/75/9 51/67/38
f 54/72/40 52/68/36 58/76/40
f 55/73/41 48/69/37 54/77/41
f 56/74/39 59/78/9 53/70/39
f 57/75/9 53/71/38 59/79/9
f 58/76/40 60/80/42 54/72/40
f 54/77/41 61/81/43 55/73/41
f 59/78/9 56/74/39 62/82/9
f 59/79/44 63/83/45 57/75/44
f 60/80/42 58/76/40 64/84/42
f 61/81/43 54/77/41 60/85/43
f 65/86/46 59/78/47 62/82/47
f 63/83/45 59/79/44 66/87/45
f 64/84/42 67/88/48 60/80/42
f 60/85/43 68/89/49 61/81/43
f 59/78/47 65/86/46 66/90/46
f 66/87/45 69/91/50 63/83/45
f 67/88/48 64/84/42 70/92/48
f 68/89/49 60/85/43 67/93/49
f 71/94/51 66/90/46 65/86/46
f 69/91/50 66/87/45 72/95/50
f 70/92/48 73/96/52 67/88/48
f 73/97/53 68/89/49 67/93/49
f 66/90/46 71/94/51 72/98/51
f 72/95/50 74/99/9 69/91/50
f 73/96/52 70/92/48 75/100/52
f 68/89/49 73/97/53 76/101/53
f 71/94/51 77/102/9 72/98/51
f 74/99/9 72/95/50 77/103/9
f 75/100/52 78/96/54 73/96/52
f 78/97/55 76/101/53 73/97/53
f 77/102/9 71/94/51 79/104/9
f 77/103/9 80/105/56 74/99/9
f 78/96/54 75/100/52 81/100/54
f 76/101/53 78/97/55 82/101/55
f 79/104/9 83/106/57 77/102/9
f 80/105/56 77/103/9 83/107/56
f 81/100/54 84/108/58 78/96/54
f 84/109/59 82/101/55 78/97/55
f 83/106/57 79/104/9 85/110/57
f 83/107/56 86/111/60 80/105/56
f 84/108/58 81/100/54 87/112/58
f 82/101/55 84/109/59 88/113/59
f 85/110/57 89/114/61 83/106/57
f 86/111/60 83/107/56 89/115/60
f 90/116/62 84/108/58 87/112/58
f 91/117/62 88/113/59 84/109/59
f 89/114/61 85/110/57 92/118/61
f 89/115/60 93/119/63 86/111/60
f 84/108/58 90/116/62 91/120/62
f 88/113/59 91/117/62 94/121/62
f 92/118/61 95/122/64 89/114/61
f 93/119/63 89/115/60 95/123/63
f 90/116/65 96/120/65 91/120/65
f 91/117/66 97/121/66 94/121/66
f 95/122/64 92/118/61 98/124/64
f 95/123/9 99/125/67 93/119/9
f 96/120/65 90/116/65 100/116/65
f 97/121/66 91/117/66 96/117/66
f 98/124/9 101/126/68 95/122/9
f 99/125/67 95/123/9 101/127/67
f 102/128/62 96/117/62 100/129/62
f 96/117/62 102/128/62 97/121/62
f 101/126/68 98/124/9 103/130/68
f 101/127/67 104/131/69 99/125/67
f 103/130/68 105/132/70 101/126/68
f 104/131/69 101/127/67 105/133/69
f 105/132/70 103/130/68 106/134/70
f 105/133/69 107/135/71 104/131/69
f 106/134/70 108/136/72 105/132/70
f 107/135/71 105/133/69 108/137/71
f 108/136/72 106/134/70 109/138/72
f 108/137/71 110/139/73 107/135/71
f 109/138/72 111/140/74 108/136/72
f 110/139/73 108/137/71 111/141/73
f 111/140/74 109/138/72 112/142/74
f 111/141/73 113/139/65 110/139/73
f 112/142/74 114/140/66 111/140/74
f 113/139/65 111/141/73 114/141/65
f 114/140/66 112/142/74 115/142/66
f 114/140/9 116/128/9 113/143/9
f 116/128/9 114/140/9 115/142/9
usemtl material_1_0
f 3//75 2//76 1//75
f 4//76 1//75 2//76
f 1//75 5//77 3//75
f 4//78 6//78 1//79
f 2//76 7//80 4//76
f 8//77 3//75 5//77
f 1//79 9//79 5//81
f 9//79 1//79 6//78
f 4//78 10//82 6//78
f 10//80 4//76 7//80
f 5//62 11//62 8//62
f 12//81 5//81 9//79
f 13//82 6//78 10//82
f 7//80 14//83 10//80
f 15//62 8//62 11//62
f 11//62 5//62 16//62
f 12//62 16//62 5//62
f 10//82 17//84 13//82
f 17//83 10//80 14//83
f 11//85 18//86 15//85
f 16//87 19//88 11//87
f 20//84 13//82 17//84
f 14//89 21//90 17//89
f 22//86 15//85 18//86
f 18//88 11//87 19//88
f 20//91 17//91 23//92
f 24//90 17//89 21//90
f 18//86 25//93 22//86
f 19//88 26//94 18//88
f 24//92 23//92 17//91
f 21//90 27//95 24//90
f 28//93 22//86 25//93
f 25//94 18//88 26//94
f 23//92 24//92 29//96
f 30//95 24//90 27//95
f 25//93 31//97 28//93
f 26//94 32//98 25//94
f 30//96 29//96 24//92
f 27//95 33//99 30//95
f 34//97 28//93 31//97
f 31//98 25//94 32//98
f 30//96 35//100 29//96
f 35//99 30//95 33//99
f 31//97 36//101 34//97
f 32//98 37//102 31//98
f 38//100 29//96 35//100
f 33//99 39//103 35//99
f 40//101 34//97 36//101
f 36//102 31//98 37//102
f 35//100 41//104 38//100
f 41//103 35//99 39//103
f 36//101 42//105 40//101
f 37//102 43//106 36//102
f 44//104 38//100 41//104
f 39//103 45//107 41//103
f 46//105 40//101 42//105
f 42//106 36//102 43//106
f 41//104 47//108 44//104
f 47//107 41//103 45//107
f 42//105 48//109 46//105
f 43//106 49//110 42//106
f 50//108 44//104 47//108
f 45//107 51//111 47//107
f 52//109 46//105 48//109
f 48//110 42//106 49//110
f 47//108 53//112 50//108
f 53//111 47//107 51//111
f 48//109 54//113 52//109
f 49//110 55//114 48//110
f 56//112 50//108 53//112
f 51//111 57//62 53//111
f 58//113 52//109 54//113
f 54//114 48//110 55//114
f 53//112 59//62 56//112
f 59//62 53//111 57//62
f 54//113 60//115 58//113
f 55//114 61//116 54//114
f 62//62 56//112 59//62
f 57//117 63//118 59//117
f 64//115 58//113 60//115
f 60//116 54//114 61//116
f 62//119 59//119 65//120
f 66//118 59//117 63//118
f 60//115 67//121 64//115
f 61//116 68//122 60//116
f 66//120 65//120 59//119
f 63//118 69//123 66//118
f 70//121 64//115 67//121
f 67//122 60//116 68//122
f 65//120 66//120 71//124
f 72//123 66//118 69//123
f 67//121 73//125 70//121
f 67//122 68//122 73//126
f 72//124 71//124 66//120
f 69//123 74//62 72//123
f 75//125 70//121 73//125
f 76//126 73//126 68//122
f 72//124 77//62 71//124
f 77//62 72//123 74//62
f 73//125 78//127 75//125
f 73//126 76//126 78//128
f 79//62 71//124 77//62
f 74//62 80//129 77//62
f 81//127 75//125 78//127
f 82//128 78//128 76//126
f 77//62 83//130 79//62
f 83//129 77//62 80//129
f 78//127 84//131 81//127
f 78//128 82//128 84//132
f 85//130 79//62 83//130
f 80//129 86//133 83//129
f 87//131 81//127 84//131
f 88//132 84//132 82//128
f 83//130 89//134 85//130
f 89//133 83//129 86//133
f 87//131 84//131 90//9
f 84//132 88//132 91//9
f 92//134 85//130 89//134
f 86//133 93//135 89//133
f 91//9 90//9 84//131
f 94//9 91//9 88//132
f 89//134 95//136 92//134
f 95//135 89//133 93//135
f 91//137 96//137 90//137
f 94//138 97//138 91//138
f 98//136 92//134 95//136
f 93//62 99//139 95//62
f 100//137 90//137 96//137
f 96//138 91//138 97//138
f 95//62 101//140 98//62
f 101//139 95//62 99//139
f 100//9 96//9 102//9
f 97//9 102//9 96//9
f 103//140 98//62 101//140
f 99//139 104//141 101//139
f 101//140 105//142 103//140
f 105//141 101//139 104//141
f 106//142 103//140 105//142
f 104//141 107//143 105//141
f 105//142 108//144 106//142
f 108//143 105//141 107//143
f 109//144 106//142 108//144
f 107//143 110//145 108//143
f 108//144 111//146 109//144
f 111//145 108//143 110//145
f 112//146 109//144 111//146
f 110//145 113//137 111//145
f 111//146 114//138 112//146
f 114//137 111//145 113//137
f 115//138 112//146 114//138
f 113//62 116//62 114//62
f 115//62 114//62 116//62
