# SSTK version 0.8.0
# 38
mtllib original-38.mtl
o DF_21_TC1/DF_21_TC/mesh25/mesh25-geometry#mesh25-geometry
v 0.419701 -0.195856 0.383729
v -0.434222 -0.201216 0.384087
v 0.419701 -0.201216 0.384087
v -0.434222 -0.195856 0.383729
v -0.434222 -0.212632 0.388753
v -0.434222 -0.195757 0.389447
v 0.419701 -0.212632 0.388753
v 0.419701 -0.195757 0.389447
v -0.434222 -0.249459 0.391532
v -0.434222 -0.195260 0.391135
v 0.419701 -0.249459 0.391532
v 0.419701 -0.195260 0.391135
v -0.434222 -0.250253 0.391929
v -0.434222 -0.193474 0.394311
v 0.419701 -0.250253 0.391929
v 0.419701 -0.193474 0.394311
v -0.434222 -0.251841 0.393120
v -0.434222 -0.192282 0.395602
v 0.419701 -0.251841 0.393120
v 0.419701 -0.192282 0.395602
v 0.419701 -0.252933 0.395701
v 0.419701 -0.189304 0.397488
v -0.434222 -0.252933 0.395701
v -0.434222 -0.189304 0.397488
v 0.419701 -0.252933 0.398580
v 0.419701 -0.187518 0.397984
v -0.434222 -0.252933 0.398580
v -0.434222 -0.187518 0.397984
v 0.419701 -0.253826 0.400069
v -0.434222 -0.187518 0.400664
v -0.434222 -0.253826 0.400069
v 0.419701 -0.187518 0.400664
v -0.434222 -0.254223 0.400367
v 0.419701 -0.111382 0.400664
v 0.419701 -0.254223 0.400367
v -0.434222 -0.111382 0.400664
v -0.434222 -0.255216 0.400664
v 0.419701 -0.110985 0.400565
v 0.419701 -0.255216 0.400664
v -0.434222 -0.110985 0.400565
v -0.434222 -0.257432 0.400664
v 0.419701 -0.110687 0.400466
v 0.419701 -0.257432 0.400664
v -0.434222 -0.110687 0.400466
v -0.434222 -0.110389 0.400069
v 0.419701 -0.110389 0.400069
v -0.434222 -0.110290 0.399572
v 0.419701 -0.110290 0.399572
v -0.434222 -0.110290 0.396495
v 0.419701 -0.110290 0.396495
v 0.419701 -0.105922 0.395304
v -0.434222 -0.105922 0.395304
v 0.419701 -0.102349 0.392425
v -0.434222 -0.102349 0.392425
v -0.434222 -0.101058 0.390639
v 0.419701 -0.101058 0.390639
v -0.434222 -0.099172 0.386470
v 0.419701 -0.099172 0.386470
v -0.434222 -0.099172 0.371778
v 0.419701 -0.099172 0.371778
v -0.434222 -0.099569 0.370190
v 0.419701 -0.099569 0.370190
v -0.434222 -0.100463 0.368800
v 0.419701 -0.100463 0.368800
v -0.434222 -0.101058 0.368304
v 0.419701 -0.101058 0.368304
v 0.419701 -0.101753 0.367907
v -0.434222 -0.101753 0.367907
v 0.419701 -0.103341 0.367609
v -0.434222 -0.103341 0.367609
v 0.419701 -0.257432 0.367609
v -0.434222 -0.257432 0.367609
vn 0 0.06662998353626591 0.9977777534571298
vn 0 0.22537691862621306 0.9742716482329522
vn 0 -0.22537691862621306 -0.9742716482329522
vn 0 -0.06662998353626591 -0.9977777534571298
vn 0 0.22958797925810434 0.973287912069281
vn 0 -0.22958797925810434 -0.973287912069281
vn 0 -0.9998493558214528 0.01735700617692545
vn 0 -0.9885149672040396 0.15112299498619228
vn 0 0.2662380828941716 0.9639073001159585
vn 0 -0.2662380828941716 -0.9639073001159585
vn 0 -0.9213643176422461 0.3887001340051715
vn 0 0.5257309452814002 0.8506509114634073
vn 0 -0.5257309452814002 -0.8506509114634073
vn 0 -0.8086723822332438 0.5882592780511079
vn 0 0.7876763399229791 0.6160892658743043
vn 0 -0.7876763399229791 -0.6160892658743043
vn 0 -0.6403648737629641 0.7680708485879043
vn 0 0.9800427289113983 0.19878694501374974
vn 0 -0.9800427289113983 -0.19878694501374974
vn 0 -0.4057119888540778 0.9140009748901085
vn 0 0.9637148257695306 0.266933951740882
vn 0 -0.9637148257695306 -0.266933951740882
vn 0 -0.267643966937943 0.9635178809766433
vn 0 0.742596765142671 0.6697387881850957
vn 0 -0.742596765142671 -0.6697387881850957
vn 0 -1 0
vn 0 0.45063711409727575 0.8927072260254639
vn 0 -0.45063711409727575 -0.8927072260254639
vn 0 0.12218295017667416 0.992507595278809
vn 0 0 1
vn 0 0.28734806905262256 0.9578262301752491
vn 0 -0.28734806905262256 -0.9578262301752491
vn 0 0.2795880189918554 0.9601200652190381
vn 0 0.5847101851590341 0.8112422568945039
vn 0 0.9129059480848659 0.40816997678819067
vn 0 0.9951332860346846 0.09853802832313467
vn 0 1 0
vn 0 0.45483409566708455 0.8905761873184717
vn 0 0.26311698271518796 0.9647639366222472
vn 0 0.7254689220171733 0.6882549260174172
vn 0 0.8652444317415046 0.501350250164813
vn 0 0.9775244466016959 0.2108220963183134
vn 0 0.992507595278809 -0.12218295017667416
vn 0 0.917853540537877 -0.39691923375175914
vn 0 0.7493622725266222 -0.6621602408131557
vn 0 0.5703581035257089 -0.8213961490916283
vn 0 0.34500791718706975 -0.9385997747060458
vn 0 0.09254098846189796 -0.9957088758540293
vn 0 0 -1
vn 0 0.9998493558214528 -0.01735700617692545
vn 0 0.9885149672040396 -0.15112299498619228
vn 0 0.9213643176422461 -0.3887001340051715
vn 0 0.8086723822332438 -0.5882592780511079
vn 0 0.6403648737629641 -0.7680708485879043
vn 0 0.4057119888540778 -0.9140009748901085
vn 0 0.267643966937943 -0.9635178809766433
vn 0 -0.12218295017667416 -0.992507595278809
vn 0 -0.2795880189918554 -0.9601200652190381
vn 0 -0.5847101851590341 -0.8112422568945039
vn 0 -0.9129059480848659 -0.40816997678819067
vn 0 -0.9951332860346846 -0.09853802832313467
vn 0 -0.26311698271518796 -0.9647639366222472
vn 0 -0.45483409566708455 -0.8905761873184717
vn 0 -0.7254689220171733 -0.6882549260174172
vn 0 -0.8652444317415046 -0.501350250164813
vn 0 -0.9775244466016959 -0.2108220963183134
vn 0 -0.992507595278809 0.12218295017667416
vn 0 -0.917853540537877 0.39691923375175914
vn 0 -0.7493622725266222 0.6621602408131557
vn 0 -0.5703581035257089 0.8213961490916283
vn 0 -0.34500791718706975 0.9385997747060458
vn 0 -0.09254098846189796 0.9957088758540293
usemtl material_0_0
f 1//1 2//2 3//2
f 2//2 1//1 4//1
f 3//3 2//3 1//4
f 4//4 1//4 2//3
f 5//5 3//2 2//2
f 2//3 3//3 5//6
f 1//7 6//8 4//7
f 3//2 5//5 7//5
f 7//6 5//6 3//3
f 6//8 1//7 8//8
f 9//9 7//5 5//5
f 5//6 7//6 9//10
f 8//8 10//11 6//8
f 7//5 9//9 11//9
f 11//10 9//10 7//6
f 10//11 8//8 12//11
f 13//12 11//9 9//9
f 9//10 11//10 13//13
f 12//11 14//14 10//11
f 11//9 13//12 15//12
f 15//13 13//13 11//10
f 14//14 12//11 16//14
f 17//15 15//12 13//12
f 13//13 15//13 17//16
f 16//14 18//17 14//14
f 15//12 17//15 19//15
f 19//16 17//16 15//13
f 18//17 16//14 20//17
f 17//15 21//18 19//15
f 19//16 21//19 17//16
f 22//20 18//17 20//17
f 21//18 17//15 23//18
f 23//19 17//16 21//19
f 18//17 22//20 24//20
f 23//18 25//21 21//18
f 21//19 25//22 23//19
f 26//23 24//20 22//20
f 25//21 23//18 27//21
f 27//22 23//19 25//22
f 24//20 26//23 28//23
f 27//21 29//24 25//21
f 25//22 29//25 27//22
f 26//26 30//26 28//26
f 29//24 27//21 31//24
f 31//25 27//22 29//25
f 30//26 26//26 32//26
f 33//27 29//24 31//24
f 31//25 29//25 33//28
f 34//29 30//30 32//30
f 29//24 33//27 35//27
f 35//28 33//28 29//25
f 30//30 34//29 36//29
f 37//31 35//27 33//27
f 33//28 35//28 37//32
f 38//33 36//29 34//29
f 35//27 37//31 39//31
f 39//32 37//32 35//28
f 36//29 38//33 40//33
f 41//30 39//30 37//30
f 42//34 40//33 38//33
f 39//30 41//30 43//30
f 40//33 42//34 44//34
f 42//34 45//35 44//34
f 45//35 42//34 46//35
f 46//35 47//36 45//35
f 47//36 46//35 48//36
f 48//36 49//37 47//36
f 49//37 48//36 50//37
f 51//38 49//39 50//39
f 49//39 51//38 52//38
f 53//40 52//38 51//38
f 52//38 53//40 54//40
f 53//40 55//41 54//40
f 55//41 53//40 56//41
f 56//41 57//42 55//41
f 57//42 56//41 58//42
f 58//42 59//43 57//42
f 59//43 58//42 60//43
f 60//43 61//44 59//43
f 61//44 60//43 62//44
f 62//44 63//45 61//44
f 63//45 62//44 64//45
f 64//45 65//46 63//45
f 65//46 64//45 66//46
f 67//47 65//46 66//46
f 65//46 67//47 68//47
f 69//48 68//47 67//47
f 68//47 69//48 70//48
f 71//49 70//48 69//48
f 70//48 71//49 72//49
usemtl material_1_0
f 4//50 6//51 1//50
f 8//51 1//50 6//51
f 6//51 10//52 8//51
f 12//52 8//51 10//52
f 10//52 14//53 12//52
f 16//53 12//52 14//53
f 14//53 18//54 16//53
f 20//54 16//53 18//54
f 20//54 18//54 22//55
f 24//55 22//55 18//54
f 22//55 24//55 26//56
f 28//56 26//56 24//55
f 28//37 30//37 26//37
f 32//37 26//37 30//37
f 32//49 30//49 34//57
f 36//57 34//57 30//49
f 34//57 36//57 38//58
f 40//58 38//58 36//57
f 37//49 39//49 41//49
f 38//58 40//58 42//59
f 43//49 41//49 39//49
f 44//59 42//59 40//58
f 44//59 45//60 42//59
f 46//60 42//59 45//60
f 45//60 47//61 46//60
f 48//61 46//60 47//61
f 47//61 49//26 48//61
f 50//26 48//61 49//26
f 50//62 49//62 51//63
f 52//63 51//63 49//62
f 51//63 52//63 53//64
f 54//64 53//64 52//63
f 54//64 55//65 53//64
f 56//65 53//64 55//65
f 55//65 57//66 56//65
f 58//66 56//65 57//66
f 57//66 59//67 58//66
f 60//67 58//66 59//67
f 59//67 61//68 60//67
f 62//68 60//67 61//68
f 61//68 63//69 62//68
f 64//69 62//68 63//69
f 63//69 65//70 64//69
f 66//70 64//69 65//70
f 66//70 65//70 67//71
f 68//71 67//71 65//70
f 67//71 68//71 69//72
f 70//72 69//72 68//71
f 69//72 70//72 71//30
f 72//30 71//30 70//72
