# SSTK version 0.8.0
# 41
mtllib original-41.mtl
o DF_21_CR1/DF_21_CR/mesh28/mesh28-geometry#mesh28-geometry
v 0.491122 -0.257432 0.397984
v 0.489335 -0.442248 0.397488
v 0.491122 -0.442248 0.397984
v 0.489335 -0.257432 0.397488
v 0.491122 -0.257432 0.400664
v 0.486357 -0.442248 0.395602
v 0.491122 -0.442248 0.400664
v 0.486357 -0.257432 0.395602
v 0.567258 -0.257432 0.400664
v 0.485166 -0.442248 0.394311
v 0.567258 -0.442248 0.400664
v 0.485166 -0.257432 0.394311
v 0.567655 -0.257432 0.400565
v 0.483379 -0.442248 0.391135
v 0.567655 -0.442248 0.400565
v 0.483379 -0.257432 0.391135
v 0.567952 -0.257432 0.400466
v 0.482883 -0.442248 0.389447
v 0.567952 -0.442248 0.400466
v 0.482883 -0.257432 0.389447
v 0.568250 -0.442248 0.400069
v 0.482783 -0.442248 0.383729
v 0.568250 -0.257432 0.400069
v 0.482783 -0.257432 0.383729
v 0.568349 -0.442248 0.399572
v 0.477423 -0.442248 0.384087
v 0.568349 -0.257432 0.399572
v 0.477423 -0.257432 0.384087
v 0.568349 -0.442248 0.396495
v 0.466008 -0.442248 0.388753
v 0.568349 -0.257432 0.396495
v 0.466008 -0.257432 0.388753
v 0.572717 -0.257432 0.395304
v 0.429181 -0.442248 0.391532
v 0.572717 -0.442248 0.395304
v 0.429181 -0.257432 0.391532
v 0.576291 -0.257432 0.392425
v 0.428387 -0.442248 0.391929
v 0.576291 -0.442248 0.392425
v 0.428387 -0.257432 0.391929
v 0.577581 -0.442248 0.390639
v 0.426798 -0.442248 0.393120
v 0.577581 -0.257432 0.390639
v 0.426798 -0.257432 0.393120
v 0.579467 -0.442248 0.386470
v 0.425706 -0.257432 0.395701
v 0.579467 -0.257432 0.386470
v 0.425706 -0.442248 0.395701
v 0.579467 -0.442248 0.371778
v 0.425706 -0.257432 0.398580
v 0.579467 -0.257432 0.371778
v 0.425706 -0.442248 0.398580
v 0.579070 -0.442248 0.370190
v 0.424813 -0.257432 0.400069
v 0.579070 -0.257432 0.370190
v 0.424813 -0.442248 0.400069
v 0.578177 -0.442248 0.368800
v 0.424416 -0.442248 0.400367
v 0.578177 -0.257432 0.368800
v 0.424416 -0.257432 0.400367
v 0.577581 -0.257432 0.368304
v 0.423423 -0.442248 0.400664
v 0.577581 -0.442248 0.368304
v 0.423423 -0.257432 0.400664
v 0.576886 -0.442248 0.367907
v 0.419701 -0.257432 0.400664
v 0.576886 -0.257432 0.367907
v 0.419701 -0.442248 0.400664
v 0.575298 -0.257432 0.367609
v 0.575298 -0.442248 0.367609
v 0.483081 -0.257432 0.367609
v 0.483081 -0.442248 0.367609
v 0.419701 -0.257432 0.367609
v 0.419701 -0.442248 0.367609
vn -0.2676439669379428 0 0.9635178809766434
vn -0.40571198885407755 0 0.9140009748901086
vn -1 0 0
vn -0.6403648737629639 0 0.7680708485879044
vn 0 0 1
vn 0.12218295017667438 0 0.992507595278809
vn -0.8086723822332434 0 0.588259278051108
vn 0.27958801899185565 0 0.960120065219038
vn -0.921364317642246 0 0.3887001340051717
vn 0.5847101851590343 0 0.8112422568945038
vn -0.9885149672040394 0 0.15112299498619247
vn 0.912905948084866 0 0.40816997678819045
vn -0.9998493558214528 0 0.017357006176925673
vn 0.9951332860346846 0 0.09853802832313445
vn 0.06662998353626613 0 0.9977777534571298
vn 0.22537691862621329 0 0.9742716482329522
vn 1 0 0
vn 0.2295879792581045 0 0.9732879120692808
vn 0.2631169827151882 0 0.9647639366222471
vn 0.45483409566708477 0 0.8905761873184715
vn 0.26623808289417183 0 0.9639073001159584
vn 0.7254689220171735 0 0.6882549260174172
vn 0.5257309452814002 0 0.8506509114634071
vn 0.8652444317415047 0 0.5013502501648128
vn 0.7876763399229795 0 0.6160892658743042
vn 0.9775244466016959 0 0.21082209631831317
vn 0.9800427289113983 0 0.19878694501374952
vn 0.992507595278809 0 -0.12218295017667438
vn 0.9637148257695305 0 0.26693395174088175
vn 0.9178535405378769 0 -0.39691923375175936
vn 0.7425967651426711 0 0.6697387881850956
vn 0.7493622725266221 0 -0.6621602408131558
vn 0.45063711409727597 0 0.8927072260254638
vn 0.5703581035257088 0 -0.8213961490916286
vn 0.2873480690526228 0 0.957826230175249
vn 0.3450079171870695 0 -0.9385997747060459
vn 0.09254098846189773 0 -0.9957088758540293
vn 0 0 -1
vn 0.2676439669379428 0 -0.9635178809766434
vn 0.40571198885407755 0 -0.9140009748901086
vn 0.6403648737629639 0 -0.7680708485879044
vn -0.12218295017667438 0 -0.992507595278809
vn 0.8086723822332434 0 -0.588259278051108
vn -0.27958801899185565 0 -0.960120065219038
vn 0.921364317642246 0 -0.3887001340051717
vn -0.5847101851590343 0 -0.8112422568945038
vn 0.9885149672040394 0 -0.15112299498619247
vn -0.912905948084866 0 -0.40816997678819045
vn 0.9998493558214528 0 -0.017357006176925673
vn -0.9951332860346846 0 -0.09853802832313445
vn -0.06662998353626613 0 -0.9977777534571298
vn -0.22537691862621329 0 -0.9742716482329522
vn -0.2295879792581045 0 -0.9732879120692808
vn -0.2631169827151882 0 -0.9647639366222471
vn -0.45483409566708477 0 -0.8905761873184715
vn -0.26623808289417183 0 -0.9639073001159584
vn -0.7254689220171735 0 -0.6882549260174172
vn -0.5257309452814002 0 -0.8506509114634071
vn -0.8652444317415047 0 -0.5013502501648128
vn -0.7876763399229795 0 -0.6160892658743042
vn -0.9775244466016959 0 -0.21082209631831317
vn -0.9800427289113983 0 -0.19878694501374952
vn -0.992507595278809 0 0.12218295017667438
vn -0.9637148257695305 0 -0.26693395174088175
vn -0.9178535405378769 0 0.39691923375175936
vn -0.7425967651426711 0 -0.6697387881850956
vn -0.7493622725266221 0 0.6621602408131558
vn -0.45063711409727597 0 -0.8927072260254638
vn -0.5703581035257088 0 0.8213961490916286
vn -0.2873480690526228 0 -0.957826230175249
vn -0.3450079171870695 0 0.9385997747060459
vn -0.09254098846189773 0 0.9957088758540293
usemtl material_0_0
f 1//1 2//2 3//1
f 2//2 1//1 4//2
f 3//3 5//3 1//3
f 4//2 6//4 2//2
f 5//3 3//3 7//3
f 6//4 4//2 8//4
f 7//5 9//6 5//5
f 8//4 10//7 6//4
f 9//6 7//5 11//6
f 10//7 8//4 12//7
f 11//6 13//8 9//6
f 12//7 14//9 10//7
f 13//8 11//6 15//8
f 14//9 12//7 16//9
f 15//8 17//10 13//8
f 16//9 18//11 14//9
f 17//10 15//8 19//10
f 18//11 16//9 20//11
f 21//12 17//10 19//10
f 20//11 22//13 18//11
f 17//10 21//12 23//12
f 22//13 20//11 24//13
f 25//14 23//12 21//12
f 24//15 26//16 22//15
f 23//12 25//14 27//14
f 26//16 24//15 28//16
f 29//17 27//14 25//14
f 28//16 30//18 26//16
f 27//14 29//17 31//17
f 30//18 28//16 32//18
f 29//19 33//20 31//19
f 32//18 34//21 30//18
f 33//20 29//19 35//20
f 34//21 32//18 36//21
f 35//20 37//22 33//20
f 36//21 38//23 34//21
f 37//22 35//20 39//22
f 38//23 36//21 40//23
f 41//24 37//22 39//22
f 40//23 42//25 38//23
f 37//22 41//24 43//24
f 42//25 40//23 44//25
f 45//26 43//24 41//24
f 46//27 42//25 44//25
f 43//24 45//26 47//26
f 42//25 46//27 48//27
f 49//28 47//26 45//26
f 50//29 48//27 46//27
f 47//26 49//28 51//28
f 48//27 50//29 52//29
f 53//30 51//28 49//28
f 54//31 52//29 50//29
f 51//28 53//30 55//30
f 52//29 54//31 56//31
f 57//32 55//30 53//30
f 54//31 58//33 56//31
f 55//30 57//32 59//32
f 58//33 54//31 60//33
f 57//32 61//34 59//32
f 60//33 62//35 58//33
f 61//34 57//32 63//34
f 62//35 60//33 64//35
f 65//36 61//34 63//34
f 66//5 62//5 64//5
f 61//34 65//36 67//36
f 62//5 66//5 68//5
f 65//36 69//37 67//36
f 69//37 65//36 70//37
f 70//37 71//38 69//37
f 71//38 70//37 72//38
f 72//38 73//38 71//38
f 73//38 72//38 74//38
usemtl material_1_0
f 3//39 2//40 1//39
f 4//40 1//39 2//40
f 1//17 5//17 3//17
f 2//40 6//41 4//40
f 7//17 3//17 5//17
f 8//41 4//40 6//41
f 5//38 9//42 7//38
f 6//41 10//43 8//41
f 11//42 7//38 9//42
f 12//43 8//41 10//43
f 9//42 13//44 11//42
f 10//43 14//45 12//43
f 15//44 11//42 13//44
f 16//45 12//43 14//45
f 13//44 17//46 15//44
f 14//45 18//47 16//45
f 19//46 15//44 17//46
f 20//47 16//45 18//47
f 19//46 17//46 21//48
f 18//47 22//49 20//47
f 23//48 21//48 17//46
f 24//49 20//47 22//49
f 21//48 23//48 25//50
f 22//51 26//52 24//51
f 27//50 25//50 23//48
f 28//52 24//51 26//52
f 25//50 27//50 29//3
f 26//52 30//53 28//52
f 31//3 29//3 27//50
f 32//53 28//52 30//53
f 31//54 33//55 29//54
f 30//53 34//56 32//53
f 35//55 29//54 33//55
f 36//56 32//53 34//56
f 33//55 37//57 35//55
f 34//56 38//58 36//56
f 39//57 35//55 37//57
f 40//58 36//56 38//58
f 39//57 37//57 41//59
f 38//58 42//60 40//58
f 43//59 41//59 37//57
f 44//60 40//58 42//60
f 41//59 43//59 45//61
f 44//60 42//60 46//62
f 47//61 45//61 43//59
f 48//62 46//62 42//60
f 45//61 47//61 49//63
f 46//62 48//62 50//64
f 51//63 49//63 47//61
f 52//64 50//64 48//62
f 49//63 51//63 53//65
f 50//64 52//64 54//66
f 55//65 53//65 51//63
f 56//66 54//66 52//64
f 53//65 55//65 57//67
f 56//66 58//68 54//66
f 59//67 57//67 55//65
f 60//68 54//66 58//68
f 59//67 61//69 57//67
f 58//68 62//70 60//68
f 63//69 57//67 61//69
f 64//70 60//68 62//70
f 63//69 61//69 65//71
f 64//38 62//38 66//38
f 67//71 65//71 61//69
f 68//38 66//38 62//38
f 67//71 69//72 65//71
f 70//72 65//71 69//72
f 69//72 71//5 70//72
f 72//5 70//72 71//5
f 71//5 73//5 72//5
f 74//5 72//5 73//5
