# SSTK version 0.8.0
# 17
mtllib original-17.mtl
o FR_5_3/FR_5/mesh5/mesh5-geometry#mesh5-geometry
v 0.521621 0.426954 0.367609
v -0.536142 0.360844 0.367609
v 0.521621 0.360844 0.367609
v -0.536142 0.426954 0.367609
v 0.521621 0.360844 0.334554
v -0.536142 0.426954 0.334554
v -0.536142 0.360844 0.334554
v 0.521621 0.426954 0.334554
vt -0.188497 -0.894464
vt -0.219747 -0.331964
vt -0.219747 -0.894464
vt -0.188497 -0.331964
vn 0 0 1
vn 0 -1 0
vn 0 1 0
vn 0 0 -1
usemtl material_0_0
f 1//1 2//1 3//1
f 2//1 1//1 4//1
f 2//2 5//2 3//2
f 1//3 6//3 4//3
f 5//2 2//2 7//2
f 6//3 1//3 8//3
usemtl material_1_0
f 3//4 2//4 1//4
f 4//4 1//4 2//4
f 3//3 5//3 2//3
f 4//2 6//2 1//2
f 7//3 2//3 5//3
f 8//2 1//2 6//2
f 7//1 5//1 6//1
f 8//1 6//1 5//1
usemtl material_2_0
f 6/1/4 5/2/4 7/3/4
f 5/2/4 6/1/4 8/4/4
