# SSTK version 0.8.0
# 39
mtllib original-39.mtl
o DF_21_BC1/DF_21_BC/mesh26/mesh26-geometry#mesh26-geometry
v 0.419701 -0.589291 0.400069
v -0.434222 -0.588993 0.400466
v -0.434222 -0.589291 0.400069
v 0.419701 -0.588993 0.400466
v 0.419701 -0.589390 0.399572
v 0.419701 -0.588695 0.400565
v -0.434222 -0.589390 0.399572
v -0.434222 -0.588695 0.400565
v 0.419701 -0.589390 0.396495
v 0.419701 -0.588298 0.400664
v -0.434222 -0.589390 0.396495
v -0.434222 -0.588298 0.400664
v -0.434222 -0.593758 0.395304
v 0.419701 -0.512162 0.400664
v 0.419701 -0.593758 0.395304
v -0.434222 -0.512162 0.400664
v 0.419701 -0.597331 0.392425
v -0.434222 -0.512162 0.397984
v -0.434222 -0.597331 0.392425
v 0.419701 -0.512162 0.397984
v 0.419701 -0.598622 0.390639
v 0.419701 -0.510375 0.397488
v -0.434222 -0.598622 0.390639
v -0.434222 -0.510375 0.397488
v 0.419701 -0.600508 0.386470
v 0.419701 -0.507397 0.395602
v -0.434222 -0.600508 0.386470
v -0.434222 -0.507397 0.395602
v 0.419701 -0.600508 0.371778
v -0.434222 -0.506206 0.394311
v -0.434222 -0.600508 0.371778
v 0.419701 -0.506206 0.394311
v 0.419701 -0.600111 0.370190
v -0.434222 -0.504420 0.391135
v -0.434222 -0.600111 0.370190
v 0.419701 -0.504420 0.391135
v 0.419701 -0.599217 0.368800
v -0.434222 -0.503923 0.389447
v -0.434222 -0.599217 0.368800
v 0.419701 -0.503923 0.389447
v -0.434222 -0.598622 0.368304
v -0.434222 -0.503824 0.383729
v 0.419701 -0.598622 0.368304
v 0.419701 -0.503824 0.383729
v 0.419701 -0.597927 0.367907
v 0.419701 -0.498464 0.384087
v -0.434222 -0.597927 0.367907
v -0.434222 -0.498464 0.384087
v -0.434222 -0.596338 0.367609
v 0.419701 -0.487048 0.388753
v 0.419701 -0.596338 0.367609
v -0.434222 -0.487048 0.388753
v 0.419701 -0.442248 0.367609
v 0.419701 -0.450221 0.391532
v -0.434222 -0.442248 0.367609
v -0.434222 -0.450221 0.391532
v 0.419701 -0.449427 0.391929
v -0.434222 -0.449427 0.391929
v 0.419701 -0.447839 0.393120
v -0.434222 -0.447839 0.393120
v -0.434222 -0.446747 0.395701
v 0.419701 -0.446747 0.395701
v -0.434222 -0.446747 0.398580
v 0.419701 -0.446747 0.398580
v -0.434222 -0.445854 0.400069
v 0.419701 -0.445854 0.400069
v 0.419701 -0.445456 0.400367
v -0.434222 -0.445456 0.400367
v 0.419701 -0.444464 0.400664
v -0.434222 -0.444464 0.400664
v 0.419701 -0.442248 0.400664
v -0.434222 -0.442248 0.400664
vn 0 -0.9129059480848661 0.4081699767881902
vn 0 -0.5847101851590344 0.8112422568945036
vn 0 -0.9951332860346846 0.09853802832313423
vn 0 -0.27958801899185587 0.9601200652190379
vn 0 -1 0
vn 0 -0.1221829501766746 0.992507595278809
vn 0 -0.454834095667085 0.8905761873184714
vn 0 -0.26311698271518846 0.9647639366222472
vn 0 0 1
vn 0 -0.7254689220171735 0.688254926017417
vn 0 1 0
vn 0 -0.8652444317415048 0.5013502501648126
vn 0 0.40571198885407733 0.9140009748901087
vn 0 0.26764396693794257 0.9635178809766435
vn 0 -0.9775244466016961 0.210822096318313
vn 0 0.6403648737629637 0.7680708485879045
vn 0 -0.992507595278809 -0.1221829501766746
vn 0 0.8086723822332433 0.5882592780511082
vn 0 -0.9178535405378768 -0.3969192337517596
vn 0 0.9213643176422459 0.38870013400517195
vn 0 -0.749362272526622 -0.6621602408131559
vn 0 0.9885149672040394 0.1511229949861927
vn 0 -0.5703581035257086 -0.8213961490916287
vn 0 0.9998493558214528 0.017357006176925895
vn 0 -0.3450079171870693 -0.938599774706046
vn 0 -0.22537691862621345 0.974271648232952
vn 0 -0.06662998353626635 0.9977777534571298
vn 0 -0.09254098846189751 -0.9957088758540293
vn 0 -0.22958797925810473 0.9732879120692808
vn 0 0 -1
vn 0 -0.26623808289417206 0.9639073001159583
vn 0 -0.5257309452814004 0.850650911463407
vn 0 -0.7876763399229796 0.616089265874304
vn 0 -0.9800427289113983 0.1987869450137493
vn 0 -0.9637148257695306 0.2669339517408815
vn 0 -0.7425967651426713 0.6697387881850955
vn 0 -0.4506371140972762 0.8927072260254637
vn 0 -0.287348069052623 0.9578262301752489
vn 0 0.9129059480848661 -0.4081699767881902
vn 0 0.5847101851590344 -0.8112422568945036
vn 0 0.9951332860346846 -0.09853802832313423
vn 0 0.27958801899185587 -0.9601200652190379
vn 0 0.1221829501766746 -0.992507595278809
vn 0 0.26311698271518846 -0.9647639366222472
vn 0 0.454834095667085 -0.8905761873184714
vn 0 0.7254689220171735 -0.688254926017417
vn 0 0.8652444317415048 -0.5013502501648126
vn 0 -0.26764396693794257 -0.9635178809766435
vn 0 -0.40571198885407733 -0.9140009748901087
vn 0 0.9775244466016961 -0.210822096318313
vn 0 -0.6403648737629637 -0.7680708485879045
vn 0 0.992507595278809 0.1221829501766746
vn 0 -0.8086723822332433 -0.5882592780511082
vn 0 0.9178535405378768 0.3969192337517596
vn 0 -0.9213643176422459 -0.38870013400517195
vn 0 0.749362272526622 0.6621602408131559
vn 0 -0.9885149672040394 -0.1511229949861927
vn 0 0.5703581035257086 0.8213961490916287
vn 0 -0.9998493558214528 -0.017357006176925895
vn 0 0.3450079171870693 0.938599774706046
vn 0 0.06662998353626635 -0.9977777534571298
vn 0 0.22537691862621345 -0.974271648232952
vn 0 0.09254098846189751 0.9957088758540293
vn 0 0.22958797925810473 -0.9732879120692808
vn 0 0.26623808289417206 -0.9639073001159583
vn 0 0.5257309452814004 -0.850650911463407
vn 0 0.7876763399229796 -0.616089265874304
vn 0 0.9800427289113983 -0.1987869450137493
vn 0 0.9637148257695306 -0.2669339517408815
vn 0 0.7425967651426713 -0.6697387881850955
vn 0 0.4506371140972762 -0.8927072260254637
vn 0 0.287348069052623 -0.9578262301752489
usemtl material_0_0
f 1//1 2//2 3//1
f 2//2 1//1 4//2
f 3//1 5//3 1//1
f 6//4 2//2 4//2
f 5//3 3//1 7//3
f 2//2 6//4 8//4
f 7//3 9//5 5//3
f 10//6 8//4 6//4
f 9//5 7//3 11//5
f 8//4 10//6 12//6
f 13//7 9//8 11//8
f 14//9 12//6 10//6
f 9//8 13//7 15//7
f 12//6 14//9 16//9
f 13//7 17//10 15//7
f 14//11 18//11 16//11
f 17//10 13//7 19//10
f 18//11 14//11 20//11
f 19//10 21//12 17//10
f 22//13 18//14 20//14
f 21//12 19//10 23//12
f 18//14 22//13 24//13
f 23//12 25//15 21//12
f 26//16 24//13 22//13
f 25//15 23//12 27//15
f 24//13 26//16 28//16
f 27//15 29//17 25//15
f 26//16 30//18 28//16
f 29//17 27//15 31//17
f 30//18 26//16 32//18
f 31//17 33//19 29//17
f 32//18 34//20 30//18
f 33//19 31//17 35//19
f 34//20 32//18 36//20
f 35//19 37//21 33//19
f 36//20 38//22 34//20
f 37//21 35//19 39//21
f 38//22 36//20 40//22
f 41//23 37//21 39//21
f 40//22 42//24 38//22
f 37//21 41//23 43//23
f 42//24 40//22 44//24
f 41//23 45//25 43//23
f 46//26 42//27 44//27
f 45//25 41//23 47//25
f 42//27 46//26 48//26
f 49//28 45//25 47//25
f 50//29 48//26 46//26
f 45//25 49//28 51//28
f 48//26 50//29 52//29
f 49//28 53//30 51//28
f 54//31 52//29 50//29
f 53//30 49//28 55//30
f 52//29 54//31 56//31
f 57//32 56//31 54//31
f 56//31 57//32 58//32
f 59//33 58//32 57//32
f 58//32 59//33 60//33
f 59//33 61//34 60//33
f 61//34 59//33 62//34
f 62//34 63//35 61//34
f 63//35 62//34 64//35
f 64//35 65//36 63//35
f 65//36 64//35 66//36
f 67//37 65//36 66//36
f 65//36 67//37 68//37
f 69//38 68//37 67//37
f 68//37 69//38 70//38
f 71//9 70//9 69//9
f 70//9 71//9 72//9
usemtl material_1_0
f 3//39 2//40 1//39
f 4//40 1//39 2//40
f 1//39 5//41 3//39
f 4//40 2//40 6//42
f 7//41 3//39 5//41
f 8//42 6//42 2//40
f 5//41 9//11 7//41
f 6//42 8//42 10//43
f 11//11 7//41 9//11
f 12//43 10//43 8//42
f 11//44 9//44 13//45
f 10//43 12//43 14//30
f 15//45 13//45 9//44
f 16//30 14//30 12//43
f 15//45 17//46 13//45
f 16//5 18//5 14//5
f 19//46 13//45 17//46
f 20//5 14//5 18//5
f 17//46 21//47 19//46
f 20//48 18//48 22//49
f 23//47 19//46 21//47
f 24//49 22//49 18//48
f 21//47 25//50 23//47
f 22//49 24//49 26//51
f 27//50 23//47 25//50
f 28//51 26//51 24//49
f 25//50 29//52 27//50
f 28//51 30//53 26//51
f 31//52 27//50 29//52
f 32//53 26//51 30//53
f 29//52 33//54 31//52
f 30//53 34//55 32//53
f 35//54 31//52 33//54
f 36//55 32//53 34//55
f 33//54 37//56 35//54
f 34//55 38//57 36//55
f 39//56 35//54 37//56
f 40//57 36//55 38//57
f 39//56 37//56 41//58
f 38//57 42//59 40//57
f 43//58 41//58 37//56
f 44//59 40//57 42//59
f 43//58 45//60 41//58
f 44//61 42//61 46//62
f 47//60 41//58 45//60
f 48//62 46//62 42//61
f 47//60 45//60 49//63
f 46//62 48//62 50//64
f 51//63 49//63 45//60
f 52//64 50//64 48//62
f 51//63 53//9 49//63
f 50//64 52//64 54//65
f 55//9 49//63 53//9
f 56//65 54//65 52//64
f 54//65 56//65 57//66
f 58//66 57//66 56//65
f 57//66 58//66 59//67
f 60//67 59//67 58//66
f 60//67 61//68 59//67
f 62//68 59//67 61//68
f 61//68 63//69 62//68
f 64//69 62//68 63//69
f 63//69 65//70 64//69
f 66//70 64//69 65//70
f 66//70 65//70 67//71
f 68//71 67//71 65//70
f 67//71 68//71 69//72
f 70//72 69//72 68//71
f 69//30 70//30 71//30
f 72//30 71//30 70//30
