# SSTK version 0.8.0
# 36
mtllib original-36.mtl
o DF_21_BR1/DF_21_BR/mesh23/mesh23-geometry#mesh23-geometry
v 0.425706 -0.446747 0.395701
v 0.419701 -0.446747 0.398580
v 0.419701 -0.446747 0.395701
v 0.425706 -0.446747 0.398580
v 0.426798 -0.447839 0.393120
v 0.425706 -0.442248 0.395701
v 0.419701 -0.445854 0.400069
v 0.419701 -0.447839 0.393120
v 0.426798 -0.442248 0.393120
v 0.425706 -0.442248 0.398580
v 0.424813 -0.445854 0.400069
v 0.419701 -0.449427 0.391929
v 0.428387 -0.442248 0.391929
v 0.424416 -0.445456 0.400367
v 0.428387 -0.449427 0.391929
v 0.424813 -0.442248 0.400069
v 0.419701 -0.445456 0.400367
v 0.419701 -0.450221 0.391532
v 0.429181 -0.442248 0.391532
v 0.423423 -0.444464 0.400664
v 0.424416 -0.442248 0.400367
v 0.429181 -0.450221 0.391532
v 0.419701 -0.444464 0.400664
v 0.419701 -0.487048 0.388753
v 0.466008 -0.442248 0.388753
v 0.423423 -0.442248 0.400664
v 0.466008 -0.487048 0.388753
v 0.419701 -0.442248 0.400664
v 0.419701 -0.498464 0.384087
v 0.477423 -0.442248 0.384087
v 0.477423 -0.498464 0.384087
v 0.419701 -0.503824 0.383729
v 0.482783 -0.442248 0.383729
v 0.482783 -0.503824 0.383729
v 0.482883 -0.503923 0.389447
v 0.419701 -0.503923 0.389447
v 0.482883 -0.442248 0.389447
v 0.483379 -0.504420 0.391135
v 0.419701 -0.504420 0.391135
v 0.483379 -0.442248 0.391135
v 0.485166 -0.506206 0.394311
v 0.419701 -0.506206 0.394311
v 0.485166 -0.442248 0.394311
v 0.486357 -0.507397 0.395602
v 0.419701 -0.507397 0.395602
v 0.486357 -0.442248 0.395602
v 0.419701 -0.510375 0.397488
v 0.489335 -0.442248 0.397488
v 0.489335 -0.510375 0.397488
v 0.419701 -0.512162 0.397984
v 0.491122 -0.442248 0.397984
v 0.491122 -0.512162 0.397984
v 0.491122 -0.512162 0.400664
v 0.419701 -0.512162 0.400664
v 0.491122 -0.442248 0.400664
v 0.419701 -0.588298 0.400664
v 0.567258 -0.442248 0.400664
v 0.491122 -0.588298 0.400664
v 0.419701 -0.588695 0.400565
v 0.567258 -0.588298 0.400664
v 0.490725 -0.588695 0.400565
v 0.567655 -0.442248 0.400565
v 0.419701 -0.588993 0.400466
v 0.567655 -0.588695 0.400565
v 0.490427 -0.588993 0.400466
v 0.567952 -0.588993 0.400466
v 0.567952 -0.442248 0.400466
v 0.490129 -0.589291 0.400069
v 0.419701 -0.589291 0.400069
v 0.568250 -0.589291 0.400069
v 0.568250 -0.442248 0.400069
v 0.490030 -0.589390 0.399572
v 0.568349 -0.589390 0.399572
v 0.419701 -0.589390 0.399572
v 0.568349 -0.442248 0.399572
v 0.490030 -0.589390 0.396495
v 0.568349 -0.589390 0.396495
v 0.568349 -0.442248 0.396495
v 0.419701 -0.589390 0.396495
v 0.419701 -0.593758 0.395304
v 0.572717 -0.593758 0.395304
v 0.572717 -0.442248 0.395304
v 0.485662 -0.593758 0.395304
v 0.482089 -0.597331 0.392425
v 0.576291 -0.442248 0.392425
v 0.419701 -0.597331 0.392425
v 0.576291 -0.597331 0.392425
v 0.480798 -0.598622 0.390639
v 0.577581 -0.598622 0.390639
v 0.577581 -0.442248 0.390639
v 0.419701 -0.598622 0.390639
v 0.478912 -0.600508 0.386470
v 0.579467 -0.600508 0.386470
v 0.579467 -0.442248 0.386470
v 0.419701 -0.600508 0.386470
v 0.478912 -0.600508 0.371778
v 0.579467 -0.600508 0.371778
v 0.579467 -0.442248 0.371778
v 0.419701 -0.600508 0.371778
v 0.479309 -0.600111 0.370190
v 0.579070 -0.442248 0.370190
v 0.419701 -0.600111 0.370190
v 0.579070 -0.600111 0.370190
v 0.480203 -0.599217 0.368800
v 0.578177 -0.442248 0.368800
v 0.419701 -0.599217 0.368800
v 0.578177 -0.599217 0.368800
v 0.419701 -0.598622 0.368304
v 0.480798 -0.598622 0.368304
v 0.577581 -0.598622 0.368304
v 0.577581 -0.442248 0.368304
v 0.481493 -0.597927 0.367907
v 0.576886 -0.597927 0.367907
v 0.419701 -0.597927 0.367907
v 0.576886 -0.442248 0.367907
v 0.419701 -0.596338 0.367609
v 0.575298 -0.596338 0.367609
v 0.483081 -0.596338 0.367609
v 0.575298 -0.442248 0.367609
v 0.483081 -0.442248 0.367609
v 0.419701 -0.442248 0.367609
vn 0 -0.9800427289113983 0.1987869450137493
vn 0 -0.9637148257695306 0.2669339517408815
vn 0 -0.7876763399229796 0.616089265874304
vn 0.9800427289113983 0 0.19878694501374952
vn 0.9637148257695305 0 0.26693395174088175
vn 0 -0.7425967651426713 0.6697387881850955
vn 0.7876763399229795 0 0.6160892658743042
vn 0 -0.5257309452814004 0.850650911463407
vn 0.5257309452814002 0 0.8506509114634071
vn 0.7425967651426711 0 0.6697387881850956
vn 0 -0.4506371140972762 0.8927072260254637
vn 0.45063711409727597 0 0.8927072260254638
vn 0 -0.26623808289417206 0.9639073001159583
vn 0.26623808289417183 0 0.9639073001159584
vn 0 -0.287348069052623 0.9578262301752489
vn 0.2873480690526228 0 0.957826230175249
vn 0 -0.22958797925810473 0.9732879120692808
vn 0.2295879792581045 0 0.9732879120692808
vn 0 0 1
vn 0 -0.22537691862621345 0.974271648232952
vn 0.22537691862621329 0 0.9742716482329522
vn 0 -0.06662998353626635 0.9977777534571298
vn 0.06662998353626613 0 0.9977777534571298
vn 0 0.9998493558214528 0.017357006176925895
vn 0 0.9885149672040394 0.1511229949861927
vn -0.9885149672040394 0 0.15112299498619247
vn -0.9998493558214528 0 0.017357006176925673
vn 0 0.9213643176422459 0.38870013400517195
vn -0.921364317642246 0 0.3887001340051717
vn 0 0.8086723822332433 0.5882592780511082
vn -0.8086723822332434 0 0.588259278051108
vn 0 0.6403648737629637 0.7680708485879045
vn -0.6403648737629639 0 0.7680708485879044
vn 0 0.40571198885407733 0.9140009748901087
vn -0.40571198885407755 0 0.9140009748901086
vn 0 0.26764396693794257 0.9635178809766435
vn -0.2676439669379428 0 0.9635178809766434
vn 0 1 0
vn -1 0 0
vn 0 -0.1221829501766746 0.992507595278809
vn 0.12218295017667438 0 0.992507595278809
vn 0 -0.27958801899185587 0.9601200652190379
vn 0.08193195635186797 -0.08193195635186819 0.9932644708519031
vn 0.27958801899185565 0 0.960120065219038
vn 0 -0.5847101851590344 0.8112422568945036
vn 0.5847101851590343 0 0.8112422568945038
vn 0 -0.9129059480848661 0.4081699767881902
vn 0.912905948084866 0 0.40816997678819045
vn 0 -0.9951332860346846 0.09853802832313423
vn 0.9951332860346846 0 0.09853802832313445
vn 0 -1 0
vn 1 0 0
vn 0 -0.454834095667085 0.8905761873184714
vn 0 -0.26311698271518846 0.9647639366222472
vn 0.2631169827151882 0 0.9647639366222471
vn 0.45483409566708477 0 0.8905761873184715
vn 0 -0.7254689220171735 0.688254926017417
vn 0.7254689220171735 0 0.6882549260174172
vn 0 -0.8652444317415048 0.5013502501648126
vn 0.8652444317415047 0 0.5013502501648128
vn 0 -0.9775244466016961 0.210822096318313
vn 0.9775244466016959 0 0.21082209631831317
vn 0 -0.992507595278809 -0.1221829501766746
vn 0.992507595278809 0 -0.12218295017667438
vn 0 -0.9178535405378768 -0.3969192337517596
vn 0.9178535405378769 0 -0.39691923375175936
vn 0 -0.749362272526622 -0.6621602408131559
vn 0.7493622725266221 0 -0.6621602408131558
vn 0 -0.5703581035257086 -0.8213961490916287
vn 0.5703581035257088 0 -0.8213961490916286
vn 0 -0.3450079171870693 -0.938599774706046
vn 0.3450079171870695 0 -0.9385997747060459
vn 0 -0.09254098846189751 -0.9957088758540293
vn 0.06190000130234508 -0.06190000130234486 -0.9961610209587299
vn 0.09254098846189773 0 -0.9957088758540293
vn 0 0 -1
vn 0 0.9800427289113983 -0.1987869450137493
vn 0 0.9637148257695306 -0.2669339517408815
vn 0 0.7876763399229796 -0.616089265874304
vn -0.9800427289113983 0 -0.19878694501374952
vn -0.9637148257695305 0 -0.26693395174088175
vn 0 0.7425967651426713 -0.6697387881850955
vn -0.7876763399229795 0 -0.6160892658743042
vn 0 0.5257309452814004 -0.850650911463407
vn -0.5257309452814002 0 -0.8506509114634071
vn -0.7425967651426711 0 -0.6697387881850956
vn 0 0.4506371140972762 -0.8927072260254637
vn -0.45063711409727597 0 -0.8927072260254638
vn 0 0.26623808289417206 -0.9639073001159583
vn -0.26623808289417183 0 -0.9639073001159584
vn 0 0.287348069052623 -0.9578262301752489
vn -0.2873480690526228 0 -0.957826230175249
vn 0 0.22958797925810473 -0.9732879120692808
vn -0.2295879792581045 0 -0.9732879120692808
vn 0 0.22537691862621345 -0.974271648232952
vn -0.22537691862621329 0 -0.9742716482329522
vn 0 0.06662998353626635 -0.9977777534571298
vn -0.06662998353626613 0 -0.9977777534571298
vn 0 -0.9998493558214528 -0.017357006176925895
vn 0 -0.9885149672040394 -0.1511229949861927
vn 0.9998493558214528 0 -0.017357006176925673
vn 0.9885149672040394 0 -0.15112299498619247
vn 0 -0.9213643176422459 -0.38870013400517195
vn 0.921364317642246 0 -0.3887001340051717
vn 0 -0.8086723822332433 -0.5882592780511082
vn 0.8086723822332434 0 -0.588259278051108
vn 0 -0.6403648737629637 -0.7680708485879045
vn 0.6403648737629639 0 -0.7680708485879044
vn 0 -0.40571198885407733 -0.9140009748901087
vn 0.40571198885407755 0 -0.9140009748901086
vn 0 -0.26764396693794257 -0.9635178809766435
vn 0.2676439669379428 0 -0.9635178809766434
vn 0 0.1221829501766746 -0.992507595278809
vn -0.12218295017667438 0 -0.992507595278809
vn 0 0.27958801899185587 -0.9601200652190379
vn -0.08193195635186797 0.08193195635186819 -0.9932644708519031
vn -0.27958801899185565 0 -0.960120065219038
vn 0 0.5847101851590344 -0.8112422568945036
vn -0.5847101851590343 0 -0.8112422568945038
vn 0 0.9129059480848661 -0.4081699767881902
vn -0.912905948084866 0 -0.40816997678819045
vn 0 0.9951332860346846 -0.09853802832313423
vn -0.9951332860346846 0 -0.09853802832313445
vn 0 0.26311698271518846 -0.9647639366222472
vn 0 0.454834095667085 -0.8905761873184714
vn -0.2631169827151882 0 -0.9647639366222471
vn -0.45483409566708477 0 -0.8905761873184715
vn 0 0.7254689220171735 -0.688254926017417
vn -0.7254689220171735 0 -0.6882549260174172
vn 0 0.8652444317415048 -0.5013502501648126
vn -0.8652444317415047 0 -0.5013502501648128
vn 0 0.9775244466016961 -0.210822096318313
vn -0.9775244466016959 0 -0.21082209631831317
vn 0 0.992507595278809 0.1221829501766746
vn -0.992507595278809 0 0.12218295017667438
vn 0 0.9178535405378768 0.3969192337517596
vn -0.9178535405378769 0 0.39691923375175936
vn 0 0.749362272526622 0.6621602408131559
vn -0.7493622725266221 0 0.6621602408131558
vn 0 0.5703581035257086 0.8213961490916287
vn -0.5703581035257088 0 0.8213961490916286
vn 0 0.3450079171870693 0.938599774706046
vn -0.3450079171870695 0 0.9385997747060459
vn 0 0.09254098846189751 0.9957088758540293
vn -0.06190000130234508 0.06190000130234486 0.9961610209587299
vn -0.09254098846189773 0 0.9957088758540293
usemtl material_0_0
f 1//1 2//2 3//1
f 2//2 1//1 4//2
f 3//1 5//3 1//1
f 6//4 4//5 1//4
f 4//2 7//6 2//2
f 5//3 3//1 8//3
f 9//7 1//4 5//7
f 4//5 6//4 10//5
f 1//4 9//7 6//4
f 7//6 4//2 11//6
f 12//8 5//3 8//3
f 5//7 13//9 9//7
f 10//5 11//10 4//5
f 14//11 7//6 11//6
f 5//3 12//8 15//8
f 13//9 5//7 15//9
f 11//10 10//5 16//10
f 7//6 14//11 17//11
f 16//10 14//12 11//10
f 18//13 15//8 12//8
f 15//9 19//14 13//9
f 20//15 17//11 14//11
f 14//12 16//10 21//12
f 15//8 18//13 22//13
f 19//14 15//9 22//14
f 17//11 20//15 23//15
f 21//12 20//16 14//12
f 24//17 22//13 18//13
f 22//14 25//18 19//14
f 26//19 23//19 20//19
f 20//16 21//12 26//16
f 22//13 24//17 27//17
f 25//18 22//14 27//18
f 23//19 26//19 28//19
f 29//20 27//17 24//17
f 27//18 30//21 25//18
f 27//17 29//20 31//20
f 30//21 27//18 31//21
f 32//22 31//20 29//20
f 31//21 33//23 30//21
f 31//20 32//22 34//22
f 33//23 31//21 34//23
f 32//24 35//25 34//24
f 35//26 33//27 34//27
f 35//25 32//24 36//25
f 33//27 35//26 37//26
f 36//25 38//28 35//25
f 38//29 37//26 35//26
f 38//28 36//25 39//28
f 37//26 38//29 40//29
f 39//28 41//30 38//28
f 41//31 40//29 38//29
f 41//30 39//28 42//30
f 40//29 41//31 43//31
f 42//30 44//32 41//30
f 44//33 43//31 41//31
f 44//32 42//30 45//32
f 43//31 44//33 46//33
f 47//34 44//32 45//32
f 44//33 48//35 46//33
f 44//32 47//34 49//34
f 48//35 44//33 49//35
f 50//36 49//34 47//34
f 49//35 51//37 48//35
f 49//34 50//36 52//36
f 51//37 49//35 52//37
f 50//38 53//38 52//38
f 53//39 51//39 52//39
f 53//38 50//38 54//38
f 51//39 53//39 55//39
f 56//40 53//19 54//19
f 53//19 57//41 55//19
f 53//19 56//40 58//40
f 58//40 57//41 53//19
f 59//42 58//40 56//40
f 57//41 58//40 60//43
f 58//40 59//42 61//42
f 61//42 60//43 58//40
f 60//43 62//44 57//41
f 63//45 61//42 59//42
f 60//43 61//42 64//42
f 62//44 60//43 64//44
f 61//42 63//45 65//45
f 61//42 66//45 64//42
f 64//44 67//46 62//44
f 63//45 68//47 65//45
f 66//45 61//42 65//45
f 67//46 64//44 66//46
f 68//47 63//45 69//47
f 70//47 65//45 68//47
f 65//45 70//47 66//45
f 66//46 71//48 67//46
f 69//47 72//49 68//47
f 68//47 73//49 70//47
f 71//48 66//46 70//48
f 72//49 69//47 74//49
f 73//49 68//47 72//49
f 75//50 70//48 73//50
f 70//48 75//50 71//48
f 74//49 76//51 72//49
f 72//49 77//51 73//49
f 73//50 78//52 75//50
f 76//51 74//49 79//51
f 77//51 72//49 76//51
f 78//52 73//50 77//52
f 80//53 76//54 79//54
f 76//54 81//53 77//54
f 77//55 82//56 78//55
f 76//54 80//53 83//53
f 81//53 76//54 83//53
f 82//56 77//55 81//56
f 80//53 84//57 83//53
f 84//57 81//53 83//53
f 81//56 85//58 82//56
f 84//57 80//53 86//57
f 81//53 84//57 87//57
f 85//58 81//56 87//58
f 86//57 88//59 84//57
f 84//57 89//59 87//57
f 87//58 90//60 85//58
f 88//59 86//57 91//59
f 89//59 84//57 88//59
f 90//60 87//58 89//60
f 91//59 92//61 88//59
f 88//59 93//61 89//59
f 89//60 94//62 90//60
f 92//61 91//59 95//61
f 93//61 88//59 92//61
f 94//62 89//60 93//62
f 95//61 96//63 92//61
f 92//61 97//63 93//61
f 93//62 98//64 94//62
f 96//63 95//61 99//63
f 97//63 92//61 96//63
f 98//64 93//62 97//64
f 99//63 100//65 96//63
f 100//65 97//63 96//63
f 97//64 101//66 98//64
f 100//65 99//63 102//65
f 97//63 100//65 103//65
f 101//66 97//64 103//66
f 102//65 104//67 100//65
f 104//67 103//65 100//65
f 103//66 105//68 101//66
f 104//67 102//65 106//67
f 103//65 104//67 107//67
f 105//68 103//66 107//68
f 108//69 104//67 106//67
f 109//69 107//67 104//67
f 110//70 105//68 107//68
f 104//67 108//69 109//69
f 107//67 109//69 110//69
f 105//68 110//70 111//70
f 108//69 112//71 109//69
f 112//71 110//69 109//69
f 113//72 111//70 110//70
f 112//71 108//69 114//71
f 110//69 112//71 113//71
f 111//70 113//72 115//72
f 116//73 112//71 114//71
f 112//71 117//74 113//71
f 117//74 115//72 113//72
f 112//71 116//73 118//73
f 117//74 112//71 118//73
f 115//72 117//74 119//75
f 116//73 120//76 118//73
f 120//76 117//74 118//73
f 117//74 120//76 119//75
f 120//76 116//73 121//76
usemtl material_1_0
f 3//77 2//78 1//77
f 4//78 1//77 2//78
f 1//77 5//79 3//77
f 1//80 4//81 6//80
f 2//78 7//82 4//78
f 8//79 3//77 5//79
f 5//83 1//80 9//83
f 10//81 6//80 4//81
f 6//80 9//83 1//80
f 11//82 4//78 7//82
f 8//79 5//79 12//84
f 9//83 13//85 5//83
f 4//81 11//86 10//81
f 11//82 7//82 14//87
f 15//84 12//84 5//79
f 15//85 5//83 13//85
f 16//86 10//81 11//86
f 17//87 14//87 7//82
f 11//86 14//88 16//86
f 12//84 15//84 18//89
f 13//85 19//90 15//85
f 14//87 17//87 20//91
f 21//88 16//86 14//88
f 22//89 18//89 15//84
f 22//90 15//85 19//90
f 23//91 20//91 17//87
f 14//88 20//92 21//88
f 18//89 22//89 24//93
f 19//90 25//94 22//90
f 20//76 23//76 26//76
f 26//92 21//88 20//92
f 27//93 24//93 22//89
f 27//94 22//90 25//94
f 28//76 26//76 23//76
f 24//93 27//93 29//95
f 25//94 30//96 27//94
f 31//95 29//95 27//93
f 31//96 27//94 30//96
f 29//95 31//95 32//97
f 30//96 33//98 31//96
f 34//97 32//97 31//95
f 34//98 31//96 33//98
f 34//99 35//100 32//99
f 34//101 33//101 35//102
f 36//100 32//99 35//100
f 37//102 35//102 33//101
f 35//100 38//103 36//100
f 35//102 37//102 38//104
f 39//103 36//100 38//103
f 40//104 38//104 37//102
f 38//103 41//105 39//103
f 38//104 40//104 41//106
f 42//105 39//103 41//105
f 43//106 41//106 40//104
f 41//105 44//107 42//105
f 41//106 43//106 44//108
f 45//107 42//105 44//107
f 46//108 44//108 43//106
f 45//107 44//107 47//109
f 46//108 48//110 44//108
f 49//109 47//109 44//107
f 49//110 44//108 48//110
f 47//109 49//109 50//111
f 48//110 51//112 49//110
f 52//111 50//111 49//109
f 52//112 49//110 51//112
f 52//51 53//51 50//51
f 52//52 51//52 53//52
f 54//51 50//51 53//51
f 55//52 53//52 51//52
f 54//76 53//76 56//113
f 55//76 57//114 53//76
f 58//113 56//113 53//76
f 53//76 57//114 58//113
f 56//113 58//113 59//115
f 60//116 58//113 57//114
f 61//115 59//115 58//113
f 58//113 60//116 61//115
f 57//114 62//117 60//116
f 59//115 61//115 63//118
f 64//115 61//115 60//116
f 64//117 60//116 62//117
f 65//118 63//118 61//115
f 64//115 66//118 61//115
f 62//117 67//119 64//117
f 65//118 68//120 63//118
f 65//118 61//115 66//118
f 66//119 64//117 67//119
f 69//120 63//118 68//120
f 68//120 65//118 70//120
f 66//118 70//120 65//118
f 67//119 71//121 66//119
f 68//120 72//122 69//120
f 70//120 73//122 68//120
f 70//121 66//119 71//121
f 74//122 69//120 72//122
f 72//122 68//120 73//122
f 73//123 70//121 75//123
f 71//121 75//123 70//121
f 72//122 76//38 74//122
f 73//122 77//38 72//122
f 75//123 78//39 73//123
f 79//38 74//122 76//38
f 76//38 72//122 77//38
f 77//39 73//123 78//39
f 79//124 76//124 80//125
f 77//124 81//125 76//124
f 78//126 82//127 77//126
f 83//125 80//125 76//124
f 83//125 76//124 81//125
f 81//127 77//126 82//127
f 83//125 84//128 80//125
f 83//125 81//125 84//128
f 82//127 85//129 81//127
f 86//128 80//125 84//128
f 87//128 84//128 81//125
f 87//129 81//127 85//129
f 84//128 88//130 86//128
f 87//128 89//130 84//128
f 85//129 90//131 87//129
f 91//130 86//128 88//130
f 88//130 84//128 89//130
f 89//131 87//129 90//131
f 88//130 92//132 91//130
f 89//130 93//132 88//130
f 90//131 94//133 89//131
f 95//132 91//130 92//132
f 92//132 88//130 93//132
f 93//133 89//131 94//133
f 92//132 96//134 95//132
f 93//132 97//134 92//132
f 94//133 98//135 93//133
f 99//134 95//132 96//134
f 96//134 92//132 97//134
f 97//135 93//133 98//135
f 96//134 100//136 99//134
f 96//134 97//134 100//136
f 98//135 101//137 97//135
f 102//136 99//134 100//136
f 103//136 100//136 97//134
f 103//137 97//135 101//137
f 100//136 104//138 102//136
f 100//136 103//136 104//138
f 101//137 105//139 103//137
f 106//138 102//136 104//138
f 107//138 104//138 103//136
f 107//139 103//137 105//139
f 106//138 104//138 108//140
f 104//138 107//138 109//140
f 107//139 105//139 110//141
f 109//140 108//140 104//138
f 110//140 109//140 107//138
f 111//141 110//141 105//139
f 109//140 112//142 108//140
f 109//140 110//140 112//142
f 110//141 111//141 113//143
f 114//142 108//140 112//142
f 113//142 112//142 110//140
f 115//143 113//143 111//141
f 114//142 112//142 116//144
f 113//142 117//145 112//142
f 113//143 115//143 117//145
f 118//144 116//144 112//142
f 118//144 112//142 117//145
f 119//146 117//145 115//143
f 118//144 120//19 116//144
f 118//144 117//145 120//19
f 119//146 120//19 117//145
f 121//19 116//144 120//19
