# SSTK version 0.8.0
# 11
mtllib original-11.mtl
o E2_1_1/E2_1/mesh7/mesh7-geometry#mesh7-geometry
v 0.758241 0.624663 0.391366
v 0.758241 0.624663 0.306696
v 0.740416 0.624663 0.391366
v 0.758241 -0.444850 0.391366
v 0.740416 0.624663 0.306696
v 0.758241 -0.444850 0.306696
v 0.740416 -0.444850 0.306696
v 0.740416 -0.444850 0.391366
vt -0.071485 0.629113
vt -0.022006 0.629113
vt -0.071485 0.618697
vt -0.022006 0.618697
vt -0.022006 -0.006303
vt -0.022006 -0.01672
vt -0.071485 -0.01672
vt -0.071485 -0.006303
vn 0 1 0
vn -1 0 0
vn 0 -1 0
vn 1 0 0
usemtl material_0_0
f 1/1/1 2/2/1 3/3/1
f 5/4/1 3/3/1 2/2/1
f 5/4/2 7/5/2 3/3/2
f 6/6/3 4/7/3 7/5/3
f 8/8/2 3/3/2 7/5/2
f 8/8/3 7/5/3 4/7/3
usemtl material_1_0
f 3//3 2//3 1//3
f 2//2 4//2 1//2
f 2//3 3//3 5//3
f 4//2 2//2 6//2
f 3//4 7//4 5//4
f 7//1 4//1 6//1
f 7//4 3//4 8//4
f 4//1 7//1 8//1
usemtl material_2_0
f 1//4 4//4 2//4
f 6//4 2//4 4//4
