# SSTK version 0.8.0
# 54
mtllib original-54.mtl
o RT_11_BL1/RT_11_BL/mesh40/mesh40-geometry#mesh40-geometry
v -0.644976 -0.435519 0.418077
v -0.594243 -0.359661 0.418077
v -0.594243 -0.435524 0.418077
v -0.644976 -0.359657 0.418077
v -0.643899 -0.436203 0.418287
v -0.720838 -0.308920 0.418077
v -0.594243 -0.359665 0.422444
v -0.594243 -0.436208 0.418287
v -0.720838 -0.435519 0.418077
v -0.644976 -0.308920 0.418077
v -0.644979 -0.359660 0.422444
v -0.643320 -0.436782 0.418602
v -0.721522 -0.436203 0.418287
v -0.721522 -0.308920 0.418287
v -0.644979 -0.308920 0.422444
v -0.594243 -0.308920 0.422444
v -0.594243 -0.436787 0.418602
v -0.722102 -0.436782 0.418602
v -0.642372 -0.437730 0.419496
v -0.723049 -0.437730 0.419496
v -0.722102 -0.308920 0.418602
v -0.594243 -0.437735 0.419496
v -0.723049 -0.308920 0.419496
v -0.642108 -0.437994 0.420074
v -0.723313 -0.308920 0.420074
v -0.594243 -0.437998 0.420074
v -0.723313 -0.437994 0.420074
v -0.641950 -0.438152 0.420706
v -0.723471 -0.308920 0.420706
v -0.594243 -0.438157 0.420706
v -0.723471 -0.438152 0.420706
v -0.641942 -0.438160 0.433178
v -0.723480 -0.308920 0.433178
v -0.594243 -0.438165 0.433178
v -0.723480 -0.438160 0.433178
v -0.594243 -0.436800 0.436652
v -0.722114 -0.436795 0.436652
v -0.722114 -0.308920 0.436652
v -0.643307 -0.436795 0.436652
v -0.594243 -0.434381 0.439390
v -0.719695 -0.434376 0.439390
v -0.719695 -0.308920 0.439390
v -0.645726 -0.434376 0.439390
v -0.594243 -0.432855 0.440391
v -0.647252 -0.432850 0.440391
v -0.718170 -0.432850 0.440391
v -0.718170 -0.308920 0.440391
v -0.594243 -0.431172 0.441076
v -0.648935 -0.431167 0.441076
v -0.716486 -0.431167 0.441076
v -0.716486 -0.308920 0.441076
v -0.594243 -0.429330 0.441446
v -0.650777 -0.429325 0.441446
v -0.714645 -0.429325 0.441446
v -0.714645 -0.308920 0.441446
v -0.650775 -0.429327 0.443866
v -0.714647 -0.308920 0.443866
v -0.594243 -0.429332 0.443866
v -0.714647 -0.429327 0.443866
v -0.594243 -0.429174 0.444235
v -0.714489 -0.429170 0.444235
v -0.714489 -0.308920 0.444235
v -0.650932 -0.429170 0.444235
v -0.594243 -0.429069 0.444393
v -0.714384 -0.429064 0.444393
v -0.714384 -0.308920 0.444393
v -0.651038 -0.429064 0.444393
v -0.594243 -0.428806 0.444656
v -0.714121 -0.428801 0.444656
v -0.714121 -0.308920 0.444656
v -0.651301 -0.428801 0.444656
v -0.594243 -0.428596 0.444761
v -0.713910 -0.428591 0.444761
v -0.651511 -0.428591 0.444761
v -0.713910 -0.308920 0.444761
v -0.594243 -0.428175 0.444814
v -0.651932 -0.428170 0.444814
v -0.713489 -0.428170 0.444814
v -0.713489 -0.308920 0.444814
v -0.594243 -0.366617 0.444814
v -0.651932 -0.366613 0.444814
v -0.651932 -0.308920 0.444814
v -0.651930 -0.366611 0.442594
v -0.594243 -0.366616 0.442594
v -0.651930 -0.308920 0.442594
v -0.594243 -0.365090 0.442174
v -0.650404 -0.365085 0.442174
v -0.650404 -0.308920 0.442174
v -0.594243 -0.363668 0.441439
v -0.648983 -0.363663 0.441439
v -0.648983 -0.308920 0.441439
v -0.594243 -0.361404 0.439230
v -0.646718 -0.361399 0.439230
v -0.646718 -0.308920 0.439230
v -0.645726 -0.360407 0.437862
v -0.594243 -0.360412 0.437862
v -0.645726 -0.308920 0.437862
v -0.644989 -0.359669 0.436389
v -0.594243 -0.359674 0.436389
v -0.644989 -0.308920 0.436389
v -0.644985 -0.359665 0.430662
v -0.594243 -0.359670 0.430662
v -0.644985 -0.308920 0.430662
v -0.594243 -0.340653 0.431193
v -0.625967 -0.340648 0.431193
v -0.625967 -0.308920 0.431193
v -0.594243 -0.331288 0.435094
v -0.616603 -0.331284 0.435094
v -0.616603 -0.308920 0.435094
v -0.594243 -0.318654 0.437102
v -0.603968 -0.318649 0.437102
v -0.603968 -0.308920 0.437102
v -0.594243 -0.317180 0.437629
v -0.602495 -0.317176 0.437629
v -0.602495 -0.308920 0.437629
v -0.594243 -0.316549 0.438051
v -0.601864 -0.316544 0.438051
v -0.601864 -0.308920 0.438051
v -0.601338 -0.316018 0.438577
v -0.601338 -0.308920 0.438577
v -0.594243 -0.316023 0.438577
v -0.600865 -0.315545 0.439262
v -0.600865 -0.308920 0.439262
v -0.594243 -0.315550 0.439262
v -0.600234 -0.314915 0.440683
v -0.600234 -0.308920 0.440683
v -0.594243 -0.314920 0.440683
v -0.594243 -0.314921 0.443051
v -0.600236 -0.308920 0.443051
v -0.600236 -0.314916 0.443051
v -0.599658 -0.314338 0.444209
v -0.599658 -0.308920 0.444209
v -0.594243 -0.314343 0.444209
v -0.594243 -0.313975 0.444473
v -0.599290 -0.313970 0.444473
v -0.599290 -0.308920 0.444473
v -0.594243 -0.313186 0.444841
v -0.598501 -0.313181 0.444841
v -0.598501 -0.308920 0.444841
v -0.594243 -0.308920 0.444841
vn -0.000014999997335925712 -0.1483639736498186 -0.9889328243606015
vn 0 0 -1
vn -0.00003800000064294101 -0.38780600656148345 -0.9217410155953972
vn 0 -0.14835306906096568 -0.9889344603664046
vn -0.1483530690609659 0 -0.9889344603664046
vn 0.00009699997618432627 0.9999997544775904 0.0006939998296076697
vn 0 -0.38778700458170323 -0.9217490108904647
vn -0.09975695320906196 -0.09975695320906174 -0.9899985356417907
vn -0.000058999993926835945 -0.5870579395711939 -0.8095449166694985
vn -0.3877870045817035 0 -0.9217490108904648
vn 0.9999997591820871 0 0.0006939998328723683
vn 0 -0.5870399656687296 -0.8095579526554334
vn -0.00008299999064511307 -0.8133169083314629 -0.5818209344232572
vn 0 -0.8133039925432223 -0.5818389946654094
vn -0.5870399656687297 0 -0.8095579526554332
vn -0.8133039925432224 0 -0.5818389946654092
vn -0.00009700004853000942 -0.9439224722530263 -0.33016716518564576
vn 0 -0.9439172567393932 -0.33018208980739466
vn -0.9439172567393933 0 -0.33018208980739444
vn -0.0001020000267602715 -0.9924232603677346 -0.12286603223458374
vn 0 -0.9924225339024156 -0.1228719422924074
vn -0.9924225339024156 0 -0.12287194229240718
vn -0.00010099998802352314 -0.9825788834867856 0.1858459779625709
vn 0 -0.9825771759039297 0.18585503327232838
vn -0.9825771759039295 0 0.18585503327232858
vn -0.00008499996950074144 -0.8530226939227172 0.5218738127438812
vn 0 -0.8530121330592407 0.5218910814084913
vn -0.8530121330592406 0 0.5218910814084915
vn -0.00006300002571945075 -0.6548552673414434 0.7557543085329806
vn 0 -0.6548381350260004 0.7557691558377264
vn -0.6548381350260002 0 0.7557691558377265
vn -0.00004300000854036154 -0.4650180923586477 0.8853011758323397
vn 0 -0.46500184745523915 0.8853097095724266
vn -0.4650018474552389 0 0.8853097095724267
vn -0.000025999988503873624 -0.28819887257030313 0.9575705766016449
vn 0 -0.28818704143481555 0.9575741376776253
vn -0.2881870414348153 0 0.9575741376776254
vn -0.000016999994181217488 -0.1968049326373242 0.9804426644126716
vn 0 -0.19679608828746833 0.980444439851005
vn -0.1967960882874681 0 0.980444439851005
vn -0.00008699997871959032 -0.9999997553975898 -0.0006939998302461493
vn -0.00008499995453238898 -0.9797184759355012 0.20037889281465357
vn 0 -0.9797170249411464 0.2003860051013266
vn 0 -0.9999997591820871 -0.0006939998328725904
vn -0.9999997591820871 0 -0.0006939998328723683
vn -0.9797170249411464 0 0.20038600510132681
vn -0.00007599999612483629 -0.8796189551491103 0.475678975745605
vn 0 -0.8796104527302963 0.4756947040356908
vn -0.8796104527302961 0 0.47569470403569103
vn -0.00006700000426756542 -0.7737950492868774 0.6334360403467098
vn 0 -0.7737819923287256 0.6334519937199569
vn -0.7737819923287252 0 0.6334519937199569
vn -0.000050999989882954506 -0.5852888838942073 0.8108248391538546
vn 0 -0.5852731453160244 0.8108362013205183
vn -0.5852731453160241 0 0.8108362013205184
vn -0.000025000010474069086 -0.2904591216915055 0.9568874009000217
vn 0 -0.29044793804964 0.9568907959023917
vn -0.29044793804963975 0 0.9568907959023918
vn -0.000004999999204157691 -0.062485990054199705 0.9980458411425532
vn 0 -0.062483997863922315 0.9980459658808013
vn -0.04171900032361429 -0.04171900032361451 0.9982580077434874
vn -0.06248399786392209 0 0.9980459658808013
vn 0 0 1
vn 0.0000849999784493632 0.9999997464630964 0.0007069998207496312
vn 0.9999997500755938 0 0.0007069998233034448
vn 0.000032000012965351874 0.3644591476668491 0.9312193772994379
vn 0.00002299999269256998 0.26524991572626877 0.9641796936661794
vn 0.3644729851431702 0 0.9312139620413916
vn 0.26525997945176916 0 0.9641769253105196
vn 0.00005299997806371113 0.5853237577389366 0.8107996644161696
vn 0.5853399717444695 0 0.8107879608616444
vn 0.00007100001177627592 0.7565921254906499 0.6538871084556865
vn 0.7566069510668253 0 0.6538699577112888
vn 0.0000819999528293767 0.8546335083705063 0.5192317013110115
vn 0.8546441946315632 0 0.5192141182427215
vn 0.00009400002211942978 0.9730872289801018 0.2304370542248411
vn 0.9730893575593176 0 0.23042808467023923
vn -0.00003600000949935976 -0.20972105533931212 0.9777612580028751
vn -0.000003000000482236616 -0.02792000448801566 0.9996101606828479
vn -0.20973696688956175 0 0.9777578456448033
vn -0.027921003708733204 0 0.9996101327777227
vn -0.00005500002924863833 -0.27264214498922296 0.9621155116464303
vn -0.27266712317017505 0 0.9621084346070876
vn -0.00011300002294245349 -0.24801105035381293 0.968757196687278
vn -0.24806203803039392 0 0.9687441485181767
vn -0.00026600002560010967 -0.4493990432506156 0.893331085975081
vn -0.4495009309114875 0 0.8932798627024491
vn -0.0004110002316097928 -0.6344053575046488 0.773000435606739
vn -0.6345251658556994 0 0.7729022020254549
vn -0.0005339999586881627 -0.7680889405783377 0.64034295046115
vn -0.7681958691605065 0 0.6402148909582889
vn -0.0006540000657217779 -0.8720860876376797 0.4893520491759684
vn -0.8721627413056673 0 0.48921585489248376
vn -0.0007850001723664318 -0.9783442148199546 0.20698304544830698
vn -0.9783593314437387 0 0.2069130700969872
vn -0.0008190001501939942 -0.9733881785067543 0.22916104202515963
vn -0.9734080659250369 0 0.22907801551453819
vn -0.000679000030937279 -0.76057303465399 0.6492520295818706
vn -0.760701221438256 0 0.649102188952052
vn -0.0004980002258160126 -0.5046012288092085 0.8633523914833455
vn -0.5047842986605142 0 0.8632455107475585
vn -0.00044499999238805277 -0.4233309927587121 0.9059749845028451
vn -0.4235138305318217 0 0.9058896375101458
vn 0.000014999997335925712 0.1483639736498186 0.9889328243606015
vn 0.00003800000064294101 0.38780600656148345 0.9217410155953972
vn 0.1483530690609659 0 0.9889344603664046
vn 0 0.14835306906096568 0.9889344603664046
vn -0.00009699997618432627 -0.9999997544775904 -0.0006939998296076697
vn 0.09975695320906196 0.09975695320906174 0.9899985356417907
vn 0 0.38778700458170323 0.9217490108904647
vn 0.000058999993926835945 0.5870579395711939 0.8095449166694985
vn 0.3877870045817035 0 0.9217490108904648
vn 0 0.5870399656687296 0.8095579526554334
vn 0.00008299999064511307 0.8133169083314629 0.5818209344232572
vn 0 0.8133039925432223 0.5818389946654094
vn 0.5870399656687297 0 0.8095579526554332
vn 0.8133039925432224 0 0.5818389946654092
vn 0.00009700004853000942 0.9439224722530263 0.33016716518564576
vn 0 0.9439172567393932 0.33018208980739466
vn 0.9439172567393933 0 0.33018208980739444
vn 0.0001020000267602715 0.9924232603677346 0.12286603223458374
vn 0 0.9924225339024156 0.1228719422924074
vn 0.9924225339024156 0 0.12287194229240718
vn 0.00010099998802352314 0.9825788834867856 -0.1858459779625709
vn 0 0.9825771759039297 -0.18585503327232838
vn 0.9825771759039295 0 -0.18585503327232858
vn 0.00008499996950074144 0.8530226939227172 -0.5218738127438812
vn 0 0.8530121330592407 -0.5218910814084913
vn 0.8530121330592406 0 -0.5218910814084915
vn 0.00006300002571945075 0.6548552673414434 -0.7557543085329806
vn 0 0.6548381350260004 -0.7557691558377264
vn 0.6548381350260002 0 -0.7557691558377265
vn 0.00004300000854036154 0.4650180923586477 -0.8853011758323397
vn 0 0.46500184745523915 -0.8853097095724266
vn 0.4650018474552389 0 -0.8853097095724267
vn 0.000025999988503873624 0.28819887257030313 -0.9575705766016449
vn 0 0.28818704143481555 -0.9575741376776253
vn 0.2881870414348153 0 -0.9575741376776254
vn 0.000016999994181217488 0.1968049326373242 -0.9804426644126716
vn 0 0.19679608828746833 -0.980444439851005
vn 0.1967960882874681 0 -0.980444439851005
vn 0.00008699997871959032 0.9999997553975898 0.0006939998302461493
vn 0.00008499995453238898 0.9797184759355012 -0.20037889281465357
vn 0 0.9999997591820871 0.0006939998328725904
vn 0 0.9797170249411464 -0.2003860051013266
vn 0.9797170249411464 0 -0.20038600510132681
vn 0.00007599999612483629 0.8796189551491103 -0.475678975745605
vn 0 0.8796104527302963 -0.4756947040356908
vn 0.8796104527302961 0 -0.47569470403569103
vn 0.00006700000426756542 0.7737950492868774 -0.6334360403467098
vn 0 0.7737819923287256 -0.6334519937199569
vn 0.7737819923287252 0 -0.6334519937199569
vn 0.000050999989882954506 0.5852888838942073 -0.8108248391538546
vn 0 0.5852731453160244 -0.8108362013205183
vn 0.5852731453160241 0 -0.8108362013205184
vn 0.000025000010474069086 0.2904591216915055 -0.9568874009000217
vn 0 0.29044793804964 -0.9568907959023917
vn 0.29044793804963975 0 -0.9568907959023918
vn 0.000004999999204157691 0.062485990054199705 -0.9980458411425532
vn 0 0.062483997863922315 -0.9980459658808013
vn 0.04171900032361429 0.04171900032361451 -0.9982580077434874
vn 0.06248399786392209 0 -0.9980459658808013
vn -0.0000849999784493632 -0.9999997464630964 -0.0007069998207496312
vn -0.9999997500755938 0 -0.0007069998233034448
vn -0.00002299999269256998 -0.26524991572626877 -0.9641796936661794
vn -0.000032000012965351874 -0.3644591476668491 -0.9312193772994379
vn -0.26525997945176916 0 -0.9641769253105196
vn -0.3644729851431702 0 -0.9312139620413916
vn -0.00005299997806371113 -0.5853237577389366 -0.8107996644161696
vn -0.5853399717444695 0 -0.8107879608616444
vn -0.00007100001177627592 -0.7565921254906499 -0.6538871084556865
vn -0.7566069510668253 0 -0.6538699577112888
vn -0.0000819999528293767 -0.8546335083705063 -0.5192317013110115
vn -0.8546441946315632 0 -0.5192141182427215
vn -0.00009400002211942978 -0.9730872289801018 -0.2304370542248411
vn -0.9730893575593176 0 -0.23042808467023923
vn 0.000003000000482236616 0.02792000448801566 -0.9996101606828479
vn 0.00003600000949935976 0.20972105533931212 -0.9777612580028751
vn 0.027921003708733204 0 -0.9996101327777227
vn 0.20973696688956175 0 -0.9777578456448033
vn 0.00005500002924863833 0.27264214498922296 -0.9621155116464303
vn 0.27266712317017505 0 -0.9621084346070876
vn 0.00011300002294245349 0.24801105035381293 -0.968757196687278
vn 0.24806203803039392 0 -0.9687441485181767
vn 0.00026600002560010967 0.4493990432506156 -0.893331085975081
vn 0.4495009309114875 0 -0.8932798627024491
vn 0.0004110002316097928 0.6344053575046488 -0.773000435606739
vn 0.6345251658556994 0 -0.7729022020254549
vn 0.0005339999586881627 0.7680889405783377 -0.64034295046115
vn 0.7681958691605065 0 -0.6402148909582889
vn 0.0006540000657217779 0.8720860876376797 -0.4893520491759684
vn 0.8721627413056673 0 -0.48921585489248376
vn 0.0007850001723664318 0.9783442148199546 -0.20698304544830698
vn 0.9783593314437387 0 -0.2069130700969872
vn 0.0008190001501939942 0.9733881785067543 -0.22916104202515963
vn 0.9734080659250369 0 -0.22907801551453819
vn 0.000679000030937279 0.76057303465399 -0.6492520295818706
vn 0.760701221438256 0 -0.649102188952052
vn 0.0004980002258160126 0.5046012288092085 -0.8633523914833455
vn 0.5047842986605142 0 -0.8632455107475585
vn 0.00044499999238805277 0.4233309927587121 -0.9059749845028451
vn 0.4235138305318217 0 -0.9058896375101458
usemtl material_0_0
f 1//1 2//2 3//1
f 2//2 1//1 4//2
f 3//1 5//3 1//1
f 1//4 6//5 4//2
f 4//6 7//6 2//6
f 5//3 3//1 8//3
f 5//7 9//8 1//4
f 6//5 1//4 9//8
f 4//2 6//5 10//2
f 7//6 4//6 11//6
f 8//3 12//9 5//3
f 9//8 5//7 13//7
f 9//8 14//10 6//5
f 15//11 4//11 10//11
f 4//11 15//11 11//11
f 11//2 16//2 7//2
f 12//9 8//3 17//9
f 18//12 5//7 12//12
f 5//7 18//12 13//7
f 14//10 9//8 13//10
f 16//2 11//2 15//2
f 17//9 19//13 12//9
f 12//12 20//14 18//12
f 21//15 13//10 18//15
f 13//10 21//15 14//10
f 19//13 17//9 22//13
f 20//14 12//12 19//14
f 23//16 18//15 20//16
f 18//15 23//16 21//15
f 22//13 24//17 19//13
f 24//18 20//14 19//14
f 20//16 25//19 23//16
f 24//17 22//13 26//17
f 20//14 24//18 27//18
f 25//19 20//16 27//19
f 26//17 28//20 24//17
f 28//21 27//18 24//18
f 27//19 29//22 25//19
f 28//20 26//17 30//20
f 27//18 28//21 31//21
f 29//22 27//19 31//22
f 30//20 32//23 28//20
f 32//24 31//21 28//21
f 31//22 33//25 29//22
f 32//23 30//20 34//23
f 31//21 32//24 35//24
f 33//25 31//22 35//25
f 36//26 32//23 34//23
f 32//24 37//27 35//24
f 35//25 38//28 33//25
f 32//23 36//26 39//26
f 37//27 32//24 39//27
f 38//28 35//25 37//28
f 40//29 39//26 36//26
f 39//27 41//30 37//27
f 37//28 42//31 38//28
f 39//26 40//29 43//29
f 41//30 39//27 43//30
f 42//31 37//28 41//31
f 44//32 43//29 40//29
f 45//33 41//30 43//30
f 46//34 42//31 41//31
f 43//29 44//32 45//32
f 41//30 45//33 46//33
f 42//31 46//34 47//34
f 48//35 45//32 44//32
f 49//36 46//33 45//33
f 50//37 47//34 46//34
f 45//32 48//35 49//35
f 46//33 49//36 50//36
f 47//34 50//37 51//37
f 52//38 49//35 48//35
f 53//39 50//36 49//36
f 54//40 51//37 50//37
f 49//35 52//38 53//38
f 50//36 53//39 54//39
f 51//37 54//40 55//40
f 52//41 56//42 53//41
f 56//43 54//44 53//44
f 54//45 57//46 55//45
f 56//42 52//41 58//42
f 54//44 56//43 59//43
f 57//46 54//45 59//46
f 60//47 56//42 58//42
f 56//43 61//48 59//43
f 59//46 62//49 57//46
f 56//42 60//47 63//47
f 61//48 56//43 63//48
f 62//49 59//46 61//49
f 64//50 63//47 60//47
f 63//48 65//51 61//48
f 61//49 66//52 62//49
f 63//47 64//50 67//50
f 65//51 63//48 67//51
f 66//52 61//49 65//52
f 68//53 67//50 64//50
f 67//51 69//54 65//51
f 65//52 70//55 66//52
f 67//50 68//53 71//53
f 69//54 67//51 71//54
f 70//55 65//52 69//55
f 72//56 71//53 68//53
f 71//54 73//57 69//54
f 73//58 70//55 69//55
f 71//53 72//56 74//56
f 73//57 71//54 74//57
f 70//55 73//58 75//58
f 76//59 74//56 72//56
f 77//60 73//57 74//57
f 78//61 75//58 73//58
f 74//56 76//59 77//59
f 73//57 77//60 78//61
f 75//58 78//61 79//62
f 80//63 77//59 76//59
f 81//63 78//61 77//60
f 78//61 81//63 79//62
f 77//59 80//63 81//63
f 79//62 81//63 82//63
f 80//64 83//64 81//64
f 83//65 82//65 81//65
f 83//64 80//64 84//64
f 82//65 83//65 85//65
f 86//66 83//67 84//67
f 87//68 85//69 83//69
f 83//67 86//66 87//66
f 85//69 87//68 88//68
f 89//70 87//66 86//66
f 90//71 88//68 87//68
f 87//66 89//70 90//70
f 88//68 90//71 91//71
f 92//72 90//70 89//70
f 93//73 91//71 90//71
f 90//70 92//72 93//72
f 91//71 93//73 94//73
f 92//72 95//74 93//72
f 95//75 94//73 93//73
f 95//74 92//72 96//74
f 94//73 95//75 97//75
f 96//74 98//76 95//74
f 98//77 97//75 95//75
f 98//76 96//74 99//76
f 97//75 98//77 100//77
f 99//76 101//6 98//76
f 101//11 100//77 98//77
f 101//6 99//76 102//6
f 100//77 101//11 103//11
f 104//78 101//79 102//79
f 105//80 103//81 101//81
f 101//79 104//78 105//78
f 103//81 105//80 106//80
f 107//82 105//78 104//78
f 108//83 106//80 105//80
f 105//78 107//82 108//82
f 106//80 108//83 109//83
f 110//84 108//82 107//82
f 111//85 109//83 108//83
f 108//82 110//84 111//84
f 109//83 111//85 112//85
f 113//86 111//84 110//84
f 114//87 112//85 111//85
f 111//84 113//86 114//86
f 112//85 114//87 115//87
f 116//88 114//86 113//86
f 117//89 115//87 114//87
f 114//86 116//88 117//88
f 115//87 117//89 118//89
f 116//88 119//90 117//88
f 117//89 120//91 118//89
f 119//90 116//88 121//90
f 120//91 117//89 119//91
f 121//90 122//92 119//90
f 119//91 123//93 120//91
f 122//92 121//90 124//92
f 123//93 119//91 122//93
f 124//92 125//94 122//92
f 122//93 126//95 123//93
f 125//94 124//92 127//94
f 126//95 122//93 125//95
f 128//96 125//94 127//94
f 125//95 129//97 126//95
f 125//94 128//96 130//96
f 129//97 125//95 130//97
f 128//96 131//98 130//96
f 130//97 132//99 129//97
f 131//98 128//96 133//98
f 132//99 130//97 131//99
f 134//100 131//98 133//98
f 135//101 132//99 131//99
f 131//98 134//100 135//100
f 132//99 135//101 136//101
f 137//102 135//100 134//100
f 138//103 136//101 135//101
f 135//100 137//102 138//102
f 136//101 138//103 139//103
f 140//63 138//63 137//63
f 138//63 140//63 139//63
usemtl material_1_0
f 3//104 2//63 1//104
f 4//63 1//104 2//63
f 1//104 5//105 3//104
f 4//63 6//106 1//107
f 2//108 7//108 4//108
f 8//105 3//104 5//105
f 1//107 9//109 5//110
f 9//109 1//107 6//106
f 10//63 6//106 4//63
f 11//108 4//108 7//108
f 5//105 12//111 8//105
f 13//110 5//110 9//109
f 6//106 14//112 9//109
f 10//45 4//45 15//45
f 11//45 15//45 4//45
f 7//63 16//63 11//63
f 17//111 8//105 12//111
f 12//113 5//110 18//113
f 13//110 18//113 5//110
f 13//112 9//109 14//112
f 15//63 11//63 16//63
f 12//111 19//114 17//111
f 18//113 20//115 12//113
f 18//116 13//112 21//116
f 14//112 21//116 13//112
f 22//114 17//111 19//114
f 19//115 12//113 20//115
f 20//117 18//116 23//117
f 21//116 23//117 18//116
f 19//114 24//118 22//114
f 19//115 20//115 24//119
f 23//117 25//120 20//117
f 26//118 22//114 24//118
f 27//119 24//119 20//115
f 27//120 20//117 25//120
f 24//118 28//121 26//118
f 24//119 27//119 28//122
f 25//120 29//123 27//120
f 30//121 26//118 28//121
f 31//122 28//122 27//119
f 31//123 27//120 29//123
f 28//121 32//124 30//121
f 28//122 31//122 32//125
f 29//123 33//126 31//123
f 34//124 30//121 32//124
f 35//125 32//125 31//122
f 35//126 31//123 33//126
f 34//124 32//124 36//127
f 35//125 37//128 32//125
f 33//126 38//129 35//126
f 39//127 36//127 32//124
f 39//128 32//125 37//128
f 37//129 35//126 38//129
f 36//127 39//127 40//130
f 37//128 41//131 39//128
f 38//129 42//132 37//129
f 43//130 40//130 39//127
f 43//131 39//128 41//131
f 41//132 37//129 42//132
f 40//130 43//130 44//133
f 43//131 41//131 45//134
f 41//132 42//132 46//135
f 45//133 44//133 43//130
f 46//134 45//134 41//131
f 47//135 46//135 42//132
f 44//133 45//133 48//136
f 45//134 46//134 49//137
f 46//135 47//135 50//138
f 49//136 48//136 45//133
f 50//137 49//137 46//134
f 51//138 50//138 47//135
f 48//136 49//136 52//139
f 49//137 50//137 53//140
f 50//138 51//138 54//141
f 53//139 52//139 49//136
f 54//140 53//140 50//137
f 55//141 54//141 51//138
f 53//142 56//143 52//142
f 53//144 54//144 56//145
f 55//11 57//146 54//11
f 58//143 52//142 56//143
f 59//145 56//145 54//144
f 59//146 54//11 57//146
f 58//143 56//143 60//147
f 59//145 61//148 56//145
f 57//146 62//149 59//146
f 63//147 60//147 56//143
f 63//148 56//145 61//148
f 61//149 59//146 62//149
f 60//147 63//147 64//150
f 61//148 65//151 63//148
f 62//149 66//152 61//149
f 67//150 64//150 63//147
f 67//151 63//148 65//151
f 65//152 61//149 66//152
f 64//150 67//150 68//153
f 65//151 69//154 67//151
f 66//152 70//155 65//152
f 71//153 68//153 67//150
f 71//154 67//151 69//154
f 69//155 65//152 70//155
f 68//153 71//153 72//156
f 69//154 73//157 71//154
f 69//155 70//155 73//158
f 74//156 72//156 71//153
f 74//157 71//154 73//157
f 75//158 73//158 70//155
f 72//156 74//156 76//159
f 74//157 73//157 77//160
f 73//158 75//158 78//161
f 77//159 76//159 74//156
f 78//161 77//160 73//157
f 79//162 78//161 75//158
f 76//159 77//159 80//2
f 77//160 78//161 81//2
f 79//162 81//2 78//161
f 81//2 80//2 77//159
f 82//2 81//2 79//162
f 81//163 83//163 80//163
f 81//164 82//164 83//164
f 84//163 80//163 83//163
f 85//164 83//164 82//164
f 84//165 83//165 86//166
f 83//167 85//167 87//168
f 87//166 86//166 83//165
f 88//168 87//168 85//167
f 86//166 87//166 89//169
f 87//168 88//168 90//170
f 90//169 89//169 87//166
f 91//170 90//170 88//168
f 89//169 90//169 92//171
f 90//170 91//170 93//172
f 93//171 92//171 90//169
f 94//172 93//172 91//170
f 93//171 95//173 92//171
f 93//172 94//172 95//174
f 96//173 92//171 95//173
f 97//174 95//174 94//172
f 95//173 98//175 96//173
f 95//174 97//174 98//176
f 99//175 96//173 98//175
f 100//176 98//176 97//174
f 98//175 101//108 99//175
f 98//176 100//176 101//45
f 102//108 99//175 101//108
f 103//45 101//45 100//176
f 102//177 101//177 104//178
f 101//179 103//179 105//180
f 105//178 104//178 101//177
f 106//180 105//180 103//179
f 104//178 105//178 107//181
f 105//180 106//180 108//182
f 108//181 107//181 105//178
f 109//182 108//182 106//180
f 107//181 108//181 110//183
f 108//182 109//182 111//184
f 111//183 110//183 108//181
f 112//184 111//184 109//182
f 110//183 111//183 113//185
f 111//184 112//184 114//186
f 114//185 113//185 111//183
f 115//186 114//186 112//184
f 113//185 114//185 116//187
f 114//186 115//186 117//188
f 117//187 116//187 114//185
f 118//188 117//188 115//186
f 117//187 119//189 116//187
f 118//188 120//190 117//188
f 121//189 116//187 119//189
f 119//190 117//188 120//190
f 119//189 122//191 121//189
f 120//190 123//192 119//190
f 124//191 121//189 122//191
f 122//192 119//190 123//192
f 122//191 125//193 124//191
f 123//192 126//194 122//192
f 127//193 124//191 125//193
f 125//194 122//192 126//194
f 127//193 125//193 128//195
f 126//194 129//196 125//194
f 130//195 128//195 125//193
f 130//196 125//194 129//196
f 130//195 131//197 128//195
f 129//196 132//198 130//196
f 133//197 128//195 131//197
f 131//198 130//196 132//198
f 133//197 131//197 134//199
f 131//198 132//198 135//200
f 135//199 134//199 131//197
f 136//200 135//200 132//198
f 134//199 135//199 137//201
f 135//200 136//200 138//202
f 138//201 137//201 135//199
f 139//202 138//202 136//200
f 137//2 138//2 140//2
f 139//2 140//2 138//2
