# SSTK version 0.8.0
# 77
mtllib original-77.mtl
o RT_11_TC1/RT_11_TC/mesh55/mesh55-geometry#mesh55-geometry
v 0.514982 0.333447 0.441748
v 0.127512 0.337240 0.437955
v 0.127512 0.333447 0.441748
v 0.514982 0.337240 0.437955
v 0.514982 0.261742 0.441748
v 0.127512 0.337240 0.420326
v 0.127512 0.261742 0.441748
v 0.514982 0.337240 0.420326
v 0.514982 0.258203 0.434158
v 0.127512 0.336875 0.418129
v 0.127512 0.258203 0.434158
v 0.514982 0.336875 0.418129
v 0.514982 0.258203 0.431023
v 0.127512 0.335819 0.416168
v 0.127512 0.258203 0.431023
v 0.514982 0.335819 0.416168
v 0.127512 0.197243 0.431023
v 0.514982 0.334185 0.414654
v 0.514982 0.197243 0.431023
v 0.127512 0.334185 0.414654
v 0.514982 0.261742 0.414654
v 0.127512 0.261742 0.414654
v 0.127512 0.258203 0.422244
v 0.514982 0.258203 0.422244
v 0.127512 0.258203 0.425379
v 0.514982 0.258203 0.425379
v 0.514982 0.197243 0.425379
v 0.127512 0.197243 0.425379
vt 0.427597 0.228227
vt 0.429784 0.432146
vt 0.427597 0.432146
vt 0.429784 0.228227
vt 0.386245 0.228227
vt 0.386245 0.432146
vt 0.384204 0.228227
vt 0.429574 0.432146
vt 0.384204 0.432146
vt 0.429574 0.228227
vt 0.428964 0.432146
vt 0.428964 0.228227
vt 0.067962 0.401035
vt 0.271882 0.43619
vt 0.067962 0.43619
vt 0.428022 0.228227
vt 0.271882 0.401035
vt 0.428022 0.432146
vn 0 0.7071067811865476 0.7071067811865478
vn 0 0 1
vn 0 1 0
vn 0 0.9966103232062618 -0.08226702667965334
vn 0 -0.9063079253256678 0.4226179651788165
vn 0 -0.9762959252079247 0.21643998341896617
vn 0 0.9462230373975741 -0.3235150127862839
vn 0 -1 0
vn 0 0.7906759082021372 -0.6122349289192225
vn 0 0.6795807408208672 -0.7336007202186771
vn 0 0 -1
vn 0 -0.9063079253256678 -0.42261796517881706
vn 0 -0.9762959252079247 -0.2164399834189666
vn 0 -0.7071067811865476 -0.7071067811865478
vn 0 -0.9966103232062618 0.08226702667965334
vn 0 0.9063079253256678 -0.4226179651788165
vn 0 0.9762959252079247 -0.21643998341896617
vn 0 -0.9462230373975741 0.3235150127862839
vn 0 -0.7906759082021372 0.6122349289192225
vn 0 -0.6795807408208672 0.7336007202186771
vn 0 0.9063079253256678 0.42261796517881706
vn 0 0.9762959252079247 0.2164399834189666
usemtl material_0_0
f 1/1/1 2/2/1 3/3/1
f 2/2/1 1/1/1 4/4/1
f 3/3/2 5/5/2 1/1/2
f 4/4/3 6/2/4 2/2/3
f 5/5/2 3/3/2 7/6/2
f 6/2/4 4/4/3 8/4/4
f 7/6/5 9/7/6 5/5/5
f 8/4/4 10/8/7 6/2/4
f 9/7/6 7/6/5 11/9/6
f 10/8/7 8/4/4 12/10/7
f 11/9/6 13/7/8 9/7/6
f 12/10/7 14/11/9 10/8/7
f 13/7/8 11/9/6 15/9/8
f 14/11/9 12/10/7 16/12/9
f 17/13/2 13/14/2 15/15/2
f 18/16/10 14/11/9 16/12/9
f 13/14/2 17/13/2 19/17/2
f 14/11/9 18/16/10 20/18/10
f 21/5/11 20/18/11 18/16/11
f 20/18/11 21/5/11 22/6/11
f 21/5/12 23/9/13 22/6/12
f 23/9/13 21/5/12 24/7/13
f 24/7/13 25/9/8 23/9/13
f 25/9/8 24/7/13 26/7/8
f 27/17/11 25/15/11 26/14/11
f 25/15/11 27/17/11 28/13/11
usemtl material_1_0
f 3//14 2//14 1//14
f 4//14 1//14 2//14
f 1//11 5//11 3//11
f 2//8 6//15 4//8
f 7//11 3//11 5//11
f 8//15 4//8 6//15
f 5//16 9//17 7//16
f 6//15 10//18 8//15
f 11//17 7//16 9//17
f 12//18 8//15 10//18
f 9//17 13//3 11//17
f 10//18 14//19 12//18
f 15//3 11//17 13//3
f 16//19 12//18 14//19
f 15//11 13//11 17//11
f 16//19 14//19 18//20
f 19//11 17//11 13//11
f 20//20 18//20 14//19
f 18//2 20//2 21//2
f 22//2 21//2 20//2
f 22//21 23//22 21//21
f 24//22 21//21 23//22
f 23//22 25//3 24//22
f 26//3 24//22 25//3
f 26//2 25//2 27//2
f 28//2 27//2 25//2
