# SSTK version 0.8.0
# 79
mtllib original-79.mtl
o RT_11_CL1/RT_11_CL/mesh57/mesh57-geometry#mesh57-geometry
v 0.013458 0.197243 0.441748
v 0.009665 -0.324297 0.437955
v 0.013458 -0.324297 0.441748
v 0.009665 0.197243 0.437955
v 0.085163 0.197243 0.441748
v 0.009665 -0.324297 0.420326
v 0.085163 -0.324297 0.441748
v 0.009665 0.197243 0.420326
v 0.088702 0.197243 0.434158
v 0.010030 -0.324297 0.418129
v 0.088702 -0.324297 0.434158
v 0.010030 0.197243 0.418129
v 0.088702 -0.324297 0.431023
v 0.011086 0.197243 0.416168
v 0.088702 0.197243 0.431023
v 0.011086 -0.324297 0.416168
v 0.127512 0.197243 0.431023
v 0.012720 -0.324297 0.414654
v 0.127512 -0.324297 0.431023
v 0.012720 0.197243 0.414654
v 0.085163 -0.324297 0.414654
v 0.085163 0.197243 0.414654
v 0.088702 0.197243 0.422244
v 0.088702 -0.324297 0.422244
v 0.088702 -0.324297 0.425379
v 0.088702 0.197243 0.425379
v 0.127512 -0.324297 0.425379
v 0.127512 0.197243 0.425379
vt 0.002187 0.401035
vt 0 0.080735
vt 0.002188 0.080735
vt 0 0.401035
vt 0.002187 0.080735
vt 0.043539 0.401035
vt 0.043539 0.080735
vt 0.045581 0.401035
vt 0.000211 0.080735
vt 0.045581 0.080735
vt 0.000211 0.401035
vt 0.00082 0.401035
vt 0.00082 0.080735
vt 0.067962 0.401035
vt 0.001762 0.080735
vt 0.067962 0.080735
vt 0.001762 0.401035
vn -0.7071067811865476 0 0.7071067811865476
vn 0 0 1
vn -1 0 0
vn -0.9966103232062618 0 -0.08226702667965356
vn 0.906307925325668 0 0.42261796517881683
vn 0.9762959252079247 0 0.2164399834189664
vn -0.946223037397574 0 -0.32351501278628414
vn 1 0 0
vn -0.7906759082021371 0 -0.6122349289192227
vn -0.6795807408208668 0 -0.7336007202186771
vn 0 0 -1
vn 0.9762959252079247 0 -0.2164399834189664
vn 0.906307925325668 0 -0.42261796517881683
vn 0.7071067811865476 0 -0.7071067811865476
vn 0.9966103232062618 0 0.08226702667965356
vn -0.906307925325668 0 -0.42261796517881683
vn -0.9762959252079247 0 -0.2164399834189664
vn 0.946223037397574 0 0.32351501278628414
vn 0.7906759082021371 0 0.6122349289192227
vn 0.6795807408208668 0 0.7336007202186771
vn -0.906307925325668 0 0.42261796517881683
vn -0.9762959252079247 0 0.2164399834189664
usemtl material_0_0
f 1/1/1 2/2/1 3/3/1
f 2/2/1 1/1/1 4/4/1
f 3/5/2 5/6/2 1/1/2
f 4/4/3 6/2/4 2/2/3
f 5/6/2 3/5/2 7/7/2
f 6/2/4 4/4/3 8/4/4
f 7/7/5 9/8/6 5/6/5
f 8/4/4 10/9/7 6/2/4
f 9/8/6 7/7/5 11/10/6
f 10/9/7 8/4/4 12/11/7
f 13/10/8 9/8/6 11/10/6
f 14/12/9 10/9/7 12/11/7
f 9/8/6 13/10/8 15/8/8
f 10/9/7 14/12/9 16/13/9
f 13/10/2 17/14/2 15/8/2
f 14/12/9 18/15/10 16/13/9
f 17/14/2 13/10/2 19/16/2
f 18/15/10 14/12/9 20/17/10
f 20/17/11 21/7/11 18/15/11
f 21/7/11 20/17/11 22/6/11
f 23/8/12 21/7/13 22/6/13
f 21/7/13 23/8/12 24/10/12
f 23/8/12 25/10/8 24/10/12
f 25/10/8 23/8/12 26/8/8
f 26/8/11 27/16/11 25/10/11
f 27/16/11 26/8/11 28/14/11
usemtl material_1_0
f 3//14 2//14 1//14
f 4//14 1//14 2//14
f 1//11 5//11 3//11
f 2//8 6//15 4//8
f 7//11 3//11 5//11
f 8//15 4//8 6//15
f 5//16 9//17 7//16
f 6//15 10//18 8//15
f 11//17 7//16 9//17
f 12//18 8//15 10//18
f 11//17 9//17 13//3
f 12//18 10//18 14//19
f 15//3 13//3 9//17
f 16//19 14//19 10//18
f 15//11 17//11 13//11
f 16//19 18//20 14//19
f 19//11 13//11 17//11
f 20//20 14//19 18//20
f 18//2 21//2 20//2
f 22//2 20//2 21//2
f 22//21 21//21 23//22
f 24//22 23//22 21//21
f 24//22 25//3 23//22
f 26//3 23//22 25//3
f 25//2 27//2 26//2
f 28//2 26//2 27//2
