# SSTK version 0.8.0
# 41
mtllib original-41.mtl
o DF_11_TC1/DF_11_TC/mesh29/mesh29-geometry#mesh29-geometry
v -0.522747 0.589321 0.414654
v 0.514982 0.590955 0.416168
v 0.514982 0.589321 0.414654
v -0.522747 0.590955 0.416168
v 0.514982 0.516878 0.414654
v 0.514982 0.592011 0.418129
v -0.522747 0.516878 0.414654
v -0.522747 0.592011 0.418129
v -0.522747 0.513339 0.422244
v 0.514982 0.592377 0.420326
v 0.514982 0.513339 0.422244
v -0.522747 0.592377 0.420326
v -0.522747 0.513339 0.425379
v 0.514982 0.592377 0.437955
v 0.514982 0.513339 0.425379
v -0.522747 0.592377 0.437955
v 0.514982 0.507651 0.425379
v -0.522747 0.588583 0.441748
v -0.522747 0.507651 0.425379
v 0.514982 0.588583 0.441748
v -0.522747 0.516878 0.441748
v 0.514982 0.516878 0.441748
v 0.514982 0.513339 0.434158
v -0.522747 0.513339 0.434158
v 0.514982 0.513339 0.431023
v -0.522747 0.513339 0.431023
v -0.522747 0.507651 0.431023
v 0.514982 0.507651 0.431023
vt 0.428022 0.432146
vt 0.428964 0.228227
vt 0.428022 0.228227
vt 0.428964 0.432146
vt 0.386245 0.228227
vt 0.429574 0.228227
vt 0.386245 0.432146
vt 0.429574 0.432146
vt 0.384204 0.432146
vt 0.429784 0.228227
vt 0.384204 0.228227
vt 0.429784 0.432146
vt 0.380924 0.228227
vt 0.427597 0.432146
vt 0.380924 0.432146
vt 0.427597 0.228227
vn 0 0.6795807408208672 -0.7336007202186771
vn 0 0.7906759082021372 -0.6122349289192225
vn 0 0 -1
vn 0 0.9462230373975741 -0.3235150127862839
vn 0 -0.9063079253256678 -0.42261796517881706
vn 0 -0.9762959252079247 -0.2164399834189666
vn 0 0.9966103232062618 -0.08226702667965334
vn 0 -1 0
vn 0 1 0
vn 0 0.7071067811865476 0.7071067811865478
vn 0 0 1
vn 0 -0.9063079253256678 0.4226179651788165
vn 0 -0.9762959252079247 0.21643998341896617
vn 0 -0.6795807408208672 0.7336007202186771
vn 0 -0.7906759082021372 0.6122349289192225
vn 0 -0.9462230373975741 0.3235150127862839
vn 0 0.9063079253256678 0.42261796517881706
vn 0 0.9762959252079247 0.2164399834189666
vn 0 -0.9966103232062618 0.08226702667965334
vn 0 -0.7071067811865476 -0.7071067811865478
vn 0 0.9063079253256678 -0.4226179651788165
vn 0 0.9762959252079247 -0.21643998341896617
usemtl material_0_0
f 1/1/1 2/2/2 3/3/1
f 2/2/2 1/1/1 4/4/2
f 5/5/3 1/1/3 3/3/3
f 4/4/2 6/6/4 2/2/2
f 1/1/3 5/5/3 7/7/3
f 6/6/4 4/4/2 8/8/4
f 5/5/5 9/9/6 7/7/5
f 8/8/4 10/10/7 6/6/4
f 9/9/6 5/5/5 11/11/6
f 10/10/7 8/8/4 12/12/7
f 11/11/6 13/9/8 9/9/6
f 12/12/7 14/10/9 10/10/7
f 13/9/8 11/11/6 15/11/8
f 14/10/9 12/12/7 16/12/9
f 17/13/3 13/9/3 15/11/3
f 18/14/10 14/10/10 16/12/10
f 13/9/3 17/13/3 19/15/3
f 14/10/10 18/14/10 20/16/10
f 21/7/11 20/16/11 18/14/11
f 20/16/11 21/7/11 22/5/11
f 21/7/12 23/11/13 22/5/12
f 23/11/13 21/7/12 24/9/13
f 24/9/13 25/11/8 23/11/13
f 25/11/8 24/9/13 26/9/8
f 27/15/11 25/11/11 26/9/11
f 25/11/11 27/15/11 28/13/11
usemtl material_1_0
f 3//14 2//15 1//14
f 4//15 1//14 2//15
f 3//11 1//11 5//11
f 2//15 6//16 4//15
f 7//11 5//11 1//11
f 8//16 4//15 6//16
f 7//17 9//18 5//17
f 6//16 10//19 8//16
f 11//18 5//17 9//18
f 12//19 8//16 10//19
f 9//18 13//9 11//18
f 10//19 14//8 12//19
f 15//9 11//18 13//9
f 16//8 12//19 14//8
f 15//11 13//11 17//11
f 16//20 14//20 18//20
f 19//11 17//11 13//11
f 20//20 18//20 14//20
f 18//3 20//3 21//3
f 22//3 21//3 20//3
f 22//21 23//22 21//21
f 24//22 21//21 23//22
f 23//22 25//9 24//22
f 26//9 24//22 25//9
f 26//3 25//3 27//3
f 28//3 27//3 25//3
