# SSTK version 0.8.0
# 39
mtllib original-39.mtl
o DF_11_BR1/DF_11_BR/mesh27/mesh27-geometry#mesh27-geometry
v 0.553792 0.435512 0.434158
v 0.553792 0.429825 0.431023
v 0.553792 0.429825 0.434158
v 0.553792 0.435512 0.431023
v 0.514982 0.429825 0.431023
v 0.557331 0.435512 0.441748
v 0.514982 0.429825 0.434158
v 0.557331 0.426286 0.441748
v 0.514982 0.435512 0.431023
v 0.629036 0.435512 0.441748
v 0.514982 0.426286 0.441748
v 0.557331 0.354580 0.441748
v 0.629036 0.354580 0.441748
v 0.514982 0.354580 0.441748
v 0.632829 0.350787 0.437955
v 0.632829 0.435512 0.437955
v 0.553538 0.350787 0.437955
v 0.514982 0.350787 0.437955
v 0.632829 0.350787 0.420326
v 0.553538 0.350787 0.420326
v 0.632829 0.435512 0.420326
v 0.514982 0.350787 0.420326
v 0.553903 0.351153 0.418129
v 0.632464 0.351153 0.418129
v 0.632464 0.435512 0.418129
v 0.514982 0.351153 0.418129
v 0.554959 0.352209 0.416168
v 0.631408 0.352209 0.416168
v 0.631408 0.435512 0.416168
v 0.514982 0.352209 0.416168
v 0.629774 0.353843 0.414654
v 0.514982 0.353843 0.414654
v 0.556593 0.353843 0.414654
v 0.629774 0.435512 0.414654
v 0.557331 0.354580 0.414654
v 0.514982 0.426286 0.414654
v 0.557331 0.426286 0.414654
v 0.557331 0.435512 0.414654
v 0.553792 0.429825 0.422244
v 0.514982 0.429825 0.422244
v 0.553792 0.435512 0.422244
v 0.553792 0.429825 0.425379
v 0.553792 0.435512 0.425379
v 0.514982 0.429825 0.425379
v 0.514982 0.435512 0.425379
vt 0.294263 0.04886
vt 0.294263 0.045581
vt 0.347761 0.228227
vt 0.347761 0.205845
vt 0.296304 0.04886
vt 0.35104 0.205845
vt 0.296304 0.043539
vt 0.35104 0.228227
vt 0.345719 0.203804
vt 0.337656 0.04886
vt 0.345719 0.228227
vt 0.296304 0.002188
vt 0.304368 0.203804
vt 0.337656 0.002188
vt 0.304368 0.228227
vt 0.339844 0
vt 0.339844 0.04886
vt 0.30218 0.205992
vt 0.294117 0
vt 0.30218 0.228227
vt 0.294327 0.000211
vt 0.339633 0.000211
vt 0.302391 0.205781
vt 0.339633 0.04886
vt 0.302391 0.228227
vt 0.294937 0.00082
vt 0.339024 0.00082
vt 0.303 0.205172
vt 0.339024 0.04886
vt 0.303 0.228227
vt 0.338082 0.001762
vt 0.303942 0.228227
vt 0.295879 0.001762
vt 0.338082 0.04886
vt 0.303942 0.204229
vn -0.9762959252079247 0 0.2164399834189664
vn -1 0 0
vn 0 1 0
vn 0 0.9762959252079247 0.2164399834189666
vn -0.906307925325668 0 0.42261796517881683
vn 0 0 1
vn 0 0.9063079253256678 0.42261796517881706
vn 0 -0.7071067811865478 0.7071067811865476
vn 0.7071067811865476 0 0.7071067811865476
vn 0 -1 0
vn 0 -0.9966103232062618 -0.08226702667965378
vn 0.9966103232062618 0 -0.08226702667965356
vn 1 0 0
vn 0 -0.9462230373975739 -0.32351501278628436
vn 0.946223037397574 0 -0.32351501278628414
vn 0 -0.7906759082021368 -0.6122349289192228
vn 0.7906759082021371 0 -0.6122349289192227
vn 0 -0.679580740820867 -0.7336007202186773
vn 0.6795807408208668 0 -0.7336007202186771
vn 0 0 -1
vn 0 0.9063079253256678 -0.4226179651788165
vn 0 0.9762959252079247 -0.21643998341896617
vn -0.9762959252079247 0 -0.2164399834189664
vn -0.906307925325668 0 -0.42261796517881683
vn 0.9762959252079247 0 -0.2164399834189664
vn 0 -0.9762959252079247 -0.2164399834189666
vn 0.906307925325668 0 -0.42261796517881683
vn 0 -0.9063079253256678 -0.42261796517881706
vn 0 0.7071067811865478 -0.7071067811865476
vn -0.7071067811865476 0 -0.7071067811865476
vn 0 0.9966103232062618 0.08226702667965378
vn -0.9966103232062618 0 0.08226702667965356
vn 0 0.9462230373975739 0.32351501278628436
vn -0.946223037397574 0 0.32351501278628414
vn 0 0.7906759082021368 0.6122349289192228
vn -0.7906759082021371 0 0.6122349289192227
vn 0 0.679580740820867 0.7336007202186773
vn -0.6795807408208668 0 0.7336007202186771
vn 0 -0.9063079253256678 0.4226179651788165
vn 0 -0.9762959252079247 0.21643998341896617
vn 0.906307925325668 0 0.42261796517881683
vn 0.9762959252079247 0 0.2164399834189664
usemtl material_0_0
f 1/1/1 2/2/2 3/2/1
f 2/2/2 1/1/1 4/1/2
f 5/3/3 3/4/4 2/4/3
f 3/2/1 6/5/5 1/1/1
f 4/6/6 5/3/6 2/4/6
f 3/4/4 5/3/3 7/3/4
f 6/5/5 3/2/1 8/7/5
f 5/3/6 4/6/6 9/8/6
f 7/3/4 8/9/7 3/4/4
f 8/7/6 10/10/6 6/5/6
f 8/9/7 7/3/4 11/11/7
f 12/12/6 10/10/6 8/7/6
f 11/11/6 12/13/6 8/9/6
f 10/10/6 12/12/6 13/14/6
f 12/13/6 11/11/6 14/15/6
f 12/12/8 15/16/8 13/14/8
f 13/14/9 16/17/9 10/10/9
f 14/15/8 17/18/8 12/13/8
f 15/16/8 12/12/8 17/19/8
f 16/17/9 13/14/9 15/16/9
f 17/18/8 14/15/8 18/20/8
f 17/19/10 19/16/11 15/16/10
f 19/16/12 16/17/13 15/16/13
f 18/20/10 20/18/11 17/18/10
f 19/16/11 17/19/10 20/19/11
f 16/17/13 19/16/12 21/17/12
f 20/18/11 18/20/10 22/20/11
f 23/21/14 19/16/11 20/19/11
f 24/22/15 21/17/12 19/16/12
f 22/20/11 23/23/14 20/18/11
f 19/16/11 23/21/14 24/22/14
f 21/17/12 24/22/15 25/24/15
f 23/23/14 22/20/11 26/25/14
f 27/26/16 24/22/14 23/21/14
f 28/27/17 25/24/15 24/22/15
f 26/25/14 27/28/16 23/23/14
f 24/22/14 27/26/16 28/27/16
f 25/24/15 28/27/17 29/29/17
f 27/28/16 26/25/14 30/30/16
f 27/26/16 31/31/18 28/27/16
f 31/31/19 29/29/17 28/27/17
f 32/32/18 27/28/16 30/30/16
f 31/31/18 27/26/16 33/33/18
f 29/29/17 31/31/19 34/34/19
f 27/28/16 32/32/18 33/35/18
f 35/12/20 31/31/20 33/33/20
f 31/31/20 35/12/20 34/34/20
f 36/11/20 33/35/20 32/32/20
f 33/35/20 36/11/20 35/13/20
f 34/34/20 35/12/20 37/7/20
f 35/13/20 36/11/20 37/9/20
f 34/34/20 37/7/20 38/5/20
f 36/11/21 39/4/22 37/9/21
f 39/2/23 38/5/24 37/7/24
f 39/4/22 36/11/21 40/3/22
f 38/5/24 39/2/23 41/1/23
f 40/3/22 42/4/3 39/4/22
f 39/2/23 43/1/2 41/1/23
f 42/4/3 40/3/22 44/3/3
f 43/1/2 39/2/23 42/2/2
f 45/8/20 42/4/20 44/3/20
f 42/4/20 45/8/20 43/6/20
usemtl material_1_0
f 3//25 2//13 1//25
f 4//13 1//25 2//13
f 2//10 3//26 5//10
f 1//25 6//27 3//25
f 2//20 5//20 4//20
f 7//26 5//10 3//26
f 8//27 3//25 6//27
f 9//20 4//20 5//20
f 3//26 8//28 7//26
f 6//20 10//20 8//20
f 11//28 7//26 8//28
f 8//20 10//20 12//20
f 8//20 12//20 11//20
f 13//20 12//20 10//20
f 14//20 11//20 12//20
f 13//29 15//29 12//29
f 10//30 16//30 13//30
f 12//29 17//29 14//29
f 17//29 12//29 15//29
f 15//30 13//30 16//30
f 18//29 14//29 17//29
f 15//3 19//31 17//3
f 15//2 16//2 19//32
f 17//3 20//31 18//3
f 20//31 17//3 19//31
f 21//32 19//32 16//2
f 22//31 18//3 20//31
f 20//31 19//31 23//33
f 19//32 21//32 24//34
f 20//31 23//33 22//31
f 24//33 23//33 19//31
f 25//34 24//34 21//32
f 26//33 22//31 23//33
f 23//33 24//33 27//35
f 24//34 25//34 28//36
f 23//33 27//35 26//33
f 28//35 27//35 24//33
f 29//36 28//36 25//34
f 30//35 26//33 27//35
f 28//35 31//37 27//35
f 28//36 29//36 31//38
f 30//35 27//35 32//37
f 33//37 27//35 31//37
f 34//38 31//38 29//36
f 33//37 32//37 27//35
f 33//6 31//6 35//6
f 34//6 35//6 31//6
f 32//6 33//6 36//6
f 35//6 36//6 33//6
f 37//6 35//6 34//6
f 37//6 36//6 35//6
f 38//6 37//6 34//6
f 37//39 39//40 36//39
f 37//41 38//41 39//42
f 40//40 36//39 39//40
f 41//42 39//42 38//41
f 39//40 42//10 40//40
f 41//42 43//13 39//42
f 44//10 40//40 42//10
f 42//13 39//42 43//13
f 44//6 42//6 45//6
f 43//6 45//6 42//6
