# SSTK version 0.8.0
# 73
mtllib original-73.mtl
o RT_11_TL1/RT_11_TL/mesh51/mesh51-geometry#mesh51-geometry
v 0.085163 0.261742 0.441748
v 0.013458 0.197243 0.441748
v 0.085163 0.197243 0.441748
v 0.013458 0.333447 0.441748
v 0.088702 0.197243 0.434158
v 0.085163 0.333447 0.441748
v 0.009665 0.197243 0.437955
v 0.088702 0.258203 0.434158
v 0.127512 0.333447 0.441748
v 0.088956 0.337240 0.437955
v 0.009665 0.337240 0.437955
v 0.088702 0.197243 0.431023
v 0.127512 0.261742 0.441748
v 0.127512 0.337240 0.437955
v 0.009665 0.197243 0.420326
v 0.088702 0.258203 0.431023
v 0.127512 0.258203 0.434158
v 0.009665 0.337240 0.420326
v 0.127512 0.337240 0.420326
v 0.127512 0.258203 0.431023
v 0.088956 0.337240 0.420326
v 0.010030 0.197243 0.418129
v 0.127512 0.197243 0.431023
v 0.010030 0.336875 0.418129
v 0.127512 0.336875 0.418129
v 0.088591 0.336875 0.418129
v 0.011086 0.197243 0.416168
v 0.011086 0.335819 0.416168
v 0.127512 0.335819 0.416168
v 0.087535 0.335819 0.416168
v 0.012720 0.197243 0.414654
v 0.085901 0.334185 0.414654
v 0.012720 0.334185 0.414654
v 0.127512 0.334185 0.414654
v 0.085163 0.197243 0.414654
v 0.085163 0.333447 0.414654
v 0.085163 0.261742 0.414654
v 0.088702 0.258203 0.422244
v 0.127512 0.261742 0.414654
v 0.088702 0.197243 0.422244
v 0.088702 0.258203 0.425379
v 0.127512 0.258203 0.422244
v 0.088702 0.197243 0.425379
v 0.127512 0.197243 0.425379
v 0.127512 0.258203 0.425379
vt 0.043539 0.438231
vt 0.002187 0.401035
vt 0.043539 0.401035
vt 0.002187 0.479583
vt 0.045581 0.401035
vt 0.043539 0.479583
vt 0.002188 0.479583
vt 0 0.401035
vt 0.045581 0.43619
vt 0.386245 0.456569
vt 0.427597 0.432146
vt 0.427597 0.456569
vt 0.045727 0.481771
vt 0 0.481771
vt 0.384204 0.454528
vt 0.386245 0.432146
vt 0.429784 0.432146
vt 0.429784 0.454381
vt 0.384204 0.432146
vt 0.067962 0.43619
vt 0.000211 0.401035
vt 0.067962 0.401035
vt 0.000211 0.48156
vt 0.429574 0.432146
vt 0.045516 0.48156
vt 0.429574 0.454592
vt 0.00082 0.401035
vt 0.00082 0.480951
vt 0.428964 0.432146
vt 0.044907 0.480951
vt 0.428964 0.455201
vt 0.001762 0.401035
vt 0.043965 0.480009
vt 0.428022 0.456144
vt 0.001762 0.480009
vt 0.428022 0.432146
vn 0 0 1
vn 0.9762959252079247 0 0.2164399834189664
vn 0.906307925325668 0 0.42261796517881683
vn -0.7071067811865476 0 0.7071067811865476
vn 0 0.7071067811865476 0.7071067811865478
vn 1 0 0
vn 0 -0.9762959252079247 0.21643998341896617
vn 0 -0.9063079253256678 0.4226179651788165
vn -1 0 0
vn -0.9966103232062618 0 -0.08226702667965356
vn 0 1 0
vn 0 0.9966103232062618 -0.08226702667965334
vn 0 -1 0
vn -0.946223037397574 0 -0.32351501278628414
vn 0 0.9462230373975741 -0.3235150127862839
vn -0.7906759082021371 0 -0.6122349289192227
vn 0 0.7906759082021372 -0.6122349289192225
vn -0.6795807408208668 0 -0.7336007202186771
vn 0 0.6795807408208672 -0.7336007202186771
vn 0 0 -1
vn 0.9762959252079247 0 -0.2164399834189664
vn 0.906307925325668 0 -0.42261796517881683
vn 0 -0.9063079253256678 -0.42261796517881706
vn 0 -0.9762959252079247 -0.2164399834189666
vn -0.906307925325668 0 -0.42261796517881683
vn -0.9762959252079247 0 -0.2164399834189664
vn 0.7071067811865476 0 -0.7071067811865476
vn 0 -0.7071067811865476 -0.7071067811865478
vn 0 0.9063079253256678 -0.4226179651788165
vn 0 0.9762959252079247 -0.21643998341896617
vn 0.9966103232062618 0 0.08226702667965356
vn 0 -0.9966103232062618 0.08226702667965334
vn 0.946223037397574 0 0.32351501278628414
vn 0 -0.9462230373975741 0.3235150127862839
vn 0.7906759082021371 0 0.6122349289192227
vn 0 -0.7906759082021372 0.6122349289192225
vn 0.6795807408208668 0 0.7336007202186771
vn 0 -0.6795807408208672 0.7336007202186771
vn -0.906307925325668 0 0.42261796517881683
vn -0.9762959252079247 0 0.2164399834189664
vn 0 0.9063079253256678 0.42261796517881706
vn 0 0.9762959252079247 0.2164399834189666
usemtl material_0_0
f 1/1/1 2/2/1 3/3/1
f 2/2/1 1/1/1 4/4/1
f 5/5/2 1/1/3 3/3/3
f 4/4/1 1/1/1 6/6/1
f 4/7/4 7/8/4 2/2/4
f 1/1/3 5/5/2 8/9/2
f 1/10/1 9/11/1 6/12/1
f 10/13/5 4/7/5 6/6/5
f 7/8/4 4/7/4 11/14/4
f 12/5/6 8/9/2 5/5/2
f 8/15/7 13/16/8 1/10/8
f 9/11/1 1/10/1 13/16/1
f 14/17/5 6/12/5 9/11/5
f 4/7/5 10/13/5 11/14/5
f 6/12/5 14/17/5 10/18/5
f 11/14/9 15/8/10 7/8/9
f 8/9/2 12/5/6 16/9/6
f 13/16/8 8/15/7 17/19/7
f 10/13/11 18/14/12 11/14/11
f 19/17/12 10/18/11 14/17/11
f 15/8/10 11/14/9 18/14/10
f 12/5/1 20/20/1 16/9/1
f 20/19/13 8/15/7 16/15/13
f 8/15/7 20/19/13 17/19/7
f 18/14/12 10/13/11 21/13/12
f 10/18/11 19/17/12 21/18/12
f 18/14/10 22/21/14 15/8/10
f 20/20/1 12/5/1 23/22/1
f 21/13/12 24/23/15 18/14/12
f 25/24/15 21/18/12 19/17/12
f 22/21/14 18/14/10 24/23/14
f 24/23/15 21/13/12 26/25/15
f 21/18/12 25/24/15 26/26/15
f 24/23/14 27/27/16 22/21/14
f 26/25/15 28/28/17 24/23/15
f 29/29/17 26/26/15 25/24/15
f 27/27/16 24/23/14 28/28/16
f 28/28/17 26/25/15 30/30/17
f 26/26/15 29/29/17 30/31/17
f 28/28/16 31/32/18 27/27/16
f 32/33/19 28/28/17 30/30/17
f 29/29/17 32/34/19 30/31/17
f 31/32/18 28/28/16 33/35/18
f 28/28/17 32/33/19 33/35/19
f 32/34/19 29/29/17 34/36/19
f 33/35/20 35/3/20 31/32/20
f 36/6/20 33/35/20 32/33/20
f 34/36/20 36/12/20 32/34/20
f 35/3/20 33/35/20 37/1/20
f 37/1/20 33/35/20 36/6/20
f 34/36/20 37/10/20 36/12/20
f 38/9/21 35/3/22 37/1/22
f 37/10/20 34/36/20 39/16/20
f 35/3/22 38/9/21 40/5/21
f 39/16/23 38/15/24 37/10/23
f 41/9/6 40/5/21 38/9/21
f 38/15/24 39/16/23 42/19/24
f 40/5/21 41/9/6 43/5/6
f 42/19/24 41/15/13 38/15/24
f 41/9/20 44/22/20 43/5/20
f 41/15/13 42/19/24 45/19/13
f 44/22/20 41/9/20 45/20/20
usemtl material_1_0
f 3//20 2//20 1//20
f 4//20 1//20 2//20
f 3//25 1//25 5//26
f 6//20 1//20 4//20
f 2//27 7//27 4//27
f 8//26 5//26 1//25
f 6//20 9//20 1//20
f 6//28 4//28 10//28
f 11//27 4//27 7//27
f 5//26 8//26 12//9
f 1//29 13//29 8//30
f 13//20 1//20 9//20
f 9//28 6//28 14//28
f 11//28 10//28 4//28
f 10//28 14//28 6//28
f 7//6 15//31 11//6
f 16//9 12//9 8//26
f 17//30 8//30 13//29
f 11//13 18//32 10//13
f 14//13 10//13 19//32
f 18//31 11//6 15//31
f 16//20 20//20 12//20
f 16//11 8//30 20//11
f 17//30 20//11 8//30
f 21//32 10//13 18//32
f 21//32 19//32 10//13
f 15//31 22//33 18//31
f 23//20 12//20 20//20
f 18//32 24//34 21//32
f 19//32 21//32 25//34
f 24//33 18//31 22//33
f 26//34 21//32 24//34
f 26//34 25//34 21//32
f 22//33 27//35 24//33
f 24//34 28//36 26//34
f 25//34 26//34 29//36
f 28//35 24//33 27//35
f 30//36 26//34 28//36
f 30//36 29//36 26//34
f 27//35 31//37 28//35
f 30//36 28//36 32//38
f 30//36 32//38 29//36
f 33//37 28//35 31//37
f 33//38 32//38 28//36
f 34//38 29//36 32//38
f 31//1 35//1 33//1
f 32//1 33//1 36//1
f 32//1 36//1 34//1
f 37//1 33//1 35//1
f 36//1 33//1 37//1
f 36//1 37//1 34//1
f 37//39 35//39 38//40
f 39//1 34//1 37//1
f 40//40 38//40 35//39
f 37//41 38//42 39//41
f 38//40 40//40 41//9
f 42//42 39//41 38//42
f 43//9 41//9 40//40
f 38//42 41//11 42//42
f 43//1 44//1 41//1
f 45//11 42//42 41//11
f 45//1 41//1 44//1
