# SSTK version 0.8.0
# 44
mtllib original-44.mtl
o DF_11_CR1/DF_11_CR/mesh32/mesh32-geometry#mesh32-geometry
v 0.632829 0.435512 0.420326
v 0.632829 0.507651 0.437955
v 0.632829 0.435512 0.437955
v 0.632829 0.507651 0.420326
v 0.629036 0.507651 0.441748
v 0.632464 0.435512 0.418129
v 0.629036 0.435512 0.441748
v 0.632464 0.507651 0.418129
v 0.557331 0.435512 0.441748
v 0.631408 0.435512 0.416168
v 0.557331 0.507651 0.441748
v 0.631408 0.507651 0.416168
v 0.553792 0.507651 0.434158
v 0.629774 0.507651 0.414654
v 0.553792 0.435512 0.434158
v 0.629774 0.435512 0.414654
v 0.553792 0.435512 0.431023
v 0.557331 0.435512 0.414654
v 0.553792 0.507651 0.431023
v 0.557331 0.507651 0.414654
v 0.514982 0.435512 0.431023
v 0.553792 0.435512 0.422244
v 0.514982 0.507651 0.431023
v 0.553792 0.507651 0.422244
v 0.553792 0.435512 0.425379
v 0.553792 0.507651 0.425379
v 0.514982 0.435512 0.425379
v 0.514982 0.507651 0.425379
vt 0.339844 0.04886
vt 0.339844 0.078744
vt 0.337656 0.078744
vt 0.339633 0.04886
vt 0.337656 0.04886
vt 0.339633 0.078744
vt 0.296304 0.04886
vt 0.339024 0.04886
vt 0.296304 0.078744
vt 0.339024 0.078744
vt 0.294263 0.078744
vt 0.338082 0.078744
vt 0.294263 0.04886
vt 0.338082 0.04886
vt 0.380924 0.205845
vt 0.35104 0.228227
vt 0.35104 0.205845
vt 0.380924 0.228227
vn 0.9966103232062618 0 -0.08226702667965356
vn 1 0 0
vn 0.7071067811865476 0 0.7071067811865476
vn 0.946223037397574 0 -0.32351501278628414
vn 0 0 1
vn 0.7906759082021371 0 -0.6122349289192227
vn -0.9762959252079247 0 0.2164399834189664
vn -0.906307925325668 0 0.42261796517881683
vn 0.6795807408208668 0 -0.7336007202186771
vn -1 0 0
vn 0 0 -1
vn -0.9762959252079247 0 -0.2164399834189664
vn -0.906307925325668 0 -0.42261796517881683
vn -0.9966103232062618 0 0.08226702667965356
vn -0.7071067811865476 0 -0.7071067811865476
vn -0.946223037397574 0 0.32351501278628414
vn -0.7906759082021371 0 0.6122349289192227
vn 0.906307925325668 0 -0.42261796517881683
vn 0.9762959252079247 0 -0.2164399834189664
vn -0.6795807408208668 0 0.7336007202186771
vn 0.906307925325668 0 0.42261796517881683
vn 0.9762959252079247 0 0.2164399834189664
usemtl material_0_0
f 1/1/1 2/2/2 3/1/2
f 2/2/2 1/1/1 4/2/1
f 5/3/3 3/1/3 2/2/3
f 6/4/4 4/2/1 1/1/1
f 3/1/3 5/3/3 7/5/3
f 4/2/1 6/4/4 8/6/4
f 5/3/5 9/7/5 7/5/5
f 10/8/6 8/6/4 6/4/4
f 9/7/5 5/3/5 11/9/5
f 8/6/4 10/8/6 12/10/6
f 13/11/7 9/7/8 11/9/8
f 10/8/6 14/12/9 12/10/6
f 9/7/8 13/11/7 15/13/7
f 14/12/9 10/8/6 16/14/9
f 13/11/7 17/13/10 15/13/7
f 18/7/11 14/12/11 16/14/11
f 17/13/10 13/11/7 19/11/10
f 14/12/11 18/7/11 20/9/11
f 19/15/5 21/16/5 17/17/5
f 22/13/12 20/9/13 18/7/13
f 21/16/5 19/15/5 23/18/5
f 20/9/13 22/13/12 24/11/12
f 25/13/10 24/11/12 22/13/12
f 24/11/12 25/13/10 26/11/10
f 27/16/11 26/15/11 25/17/11
f 26/15/11 27/16/11 28/18/11
usemtl material_1_0
f 3//10 2//10 1//14
f 4//14 1//14 2//10
f 2//15 3//15 5//15
f 1//14 4//14 6//16
f 7//15 5//15 3//15
f 8//16 6//16 4//14
f 7//11 9//11 5//11
f 6//16 8//16 10//17
f 11//11 5//11 9//11
f 12//17 10//17 8//16
f 11//18 9//18 13//19
f 12//17 14//20 10//17
f 15//19 13//19 9//18
f 16//20 10//17 14//20
f 15//19 17//2 13//19
f 16//5 14//5 18//5
f 19//2 13//19 17//2
f 20//5 18//5 14//5
f 17//11 21//11 19//11
f 18//21 20//21 22//22
f 23//11 19//11 21//11
f 24//22 22//22 20//21
f 22//22 24//22 25//2
f 26//2 25//2 24//22
f 25//5 26//5 27//5
f 28//5 27//5 26//5
