# SSTK version 0.8.0
# 26
mtllib original-26.mtl
o LT_21_BR_1_1/LT_21_BR_1/mesh19/mesh19-geometry#mesh19-geometry
v 0.326720 -0.486592 0.541593
v 0.264718 -0.485406 0.540563
v 0.264718 -0.486592 0.541593
v 0.325534 -0.485406 0.540563
v 0.326808 -0.486680 0.546343
v 0.326720 -0.398195 0.541593
v 0.321250 -0.481122 0.540563
v 0.264718 -0.486680 0.546343
v 0.326808 -0.398195 0.546343
v 0.325534 -0.398195 0.540563
v 0.264718 -0.481122 0.540563
v 0.328014 -0.487886 0.547607
v 0.328014 -0.398195 0.547607
v 0.264718 -0.480537 0.543201
v 0.321250 -0.398195 0.540563
v 0.264718 -0.487886 0.547607
v 0.320665 -0.480537 0.543201
v 0.320665 -0.398195 0.543201
v 0.264718 -0.556848 0.547607
v 0.396975 -0.398195 0.547607
v 0.264718 -0.478677 0.545160
v 0.396975 -0.556848 0.547607
v 0.318805 -0.398195 0.545160
v 0.318805 -0.478677 0.545160
v 0.398222 -0.558094 0.546294
v 0.316201 -0.476074 0.545882
v 0.264718 -0.558094 0.546294
v 0.398222 -0.398195 0.546294
v 0.264718 -0.476074 0.545882
v 0.398249 -0.558121 0.544943
v 0.316201 -0.398195 0.545882
v 0.313598 -0.473470 0.545160
v 0.264718 -0.558121 0.544943
v 0.398249 -0.398195 0.544943
v 0.264718 -0.473470 0.545160
v 0.264718 -0.559842 0.544762
v 0.399970 -0.398195 0.544762
v 0.313598 -0.398195 0.545160
v 0.264718 -0.471610 0.543201
v 0.399970 -0.559842 0.544762
v 0.311738 -0.471610 0.543201
v 0.264718 -0.561511 0.543784
v 0.401639 -0.398195 0.543784
v 0.311738 -0.398195 0.543201
v 0.264718 -0.471025 0.540563
v 0.401639 -0.561511 0.543784
v 0.311153 -0.471025 0.540563
v 0.402477 -0.562349 0.542767
v 0.311153 -0.398195 0.540563
v 0.309249 -0.469121 0.540563
v 0.264718 -0.562349 0.542767
v 0.402477 -0.398195 0.542767
v 0.264718 -0.469121 0.540563
v 0.402988 -0.562860 0.541539
v 0.309249 -0.398195 0.540563
v 0.307657 -0.467529 0.540107
v 0.264718 -0.562860 0.541539
v 0.402988 -0.398195 0.541539
v 0.264718 -0.467529 0.540107
v 0.264718 -0.565389 0.541539
v 0.405517 -0.398195 0.541539
v 0.307657 -0.398195 0.540107
v 0.264718 -0.466396 0.538908
v 0.405517 -0.565389 0.541539
v 0.306524 -0.466396 0.538908
v 0.405544 -0.565416 0.543293
v 0.405544 -0.398195 0.543293
v 0.306524 -0.398195 0.538908
v 0.264718 -0.465965 0.537225
v 0.264718 -0.565416 0.543293
v 0.306093 -0.465965 0.537225
v 0.405883 -0.565755 0.544632
v 0.405883 -0.398195 0.544632
v 0.306093 -0.398195 0.537225
v 0.264718 -0.465965 0.530297
v 0.264718 -0.565755 0.544632
v 0.306093 -0.465965 0.530297
v 0.264718 -0.566749 0.545592
v 0.406877 -0.398195 0.545592
v 0.306093 -0.398195 0.530297
v 0.406877 -0.566749 0.545592
v 0.264718 -0.398195 0.530297
v 0.264718 -0.568100 0.545884
v 0.408228 -0.398195 0.545884
v 0.408228 -0.568100 0.545884
v 0.264718 -0.569402 0.545421
v 0.409530 -0.398195 0.545421
v 0.409530 -0.569402 0.545421
v 0.264718 -0.570809 0.544374
v 0.410937 -0.398195 0.544374
v 0.410937 -0.570809 0.544374
v 0.264718 -0.576109 0.541807
v 0.416236 -0.398195 0.541807
v 0.416236 -0.576109 0.541807
v 0.264718 -0.581979 0.540413
v 0.422107 -0.398195 0.540413
v 0.422107 -0.581979 0.540413
v 0.264718 -0.585546 0.540337
v 0.425674 -0.398195 0.540337
v 0.425674 -0.585546 0.540337
v 0.427359 -0.587231 0.538637
v 0.264718 -0.587231 0.538637
v 0.427359 -0.398195 0.538637
v 0.427359 -0.587231 0.519272
v 0.264718 -0.587231 0.519272
v 0.427359 -0.398195 0.519272
v 0.424251 -0.584123 0.515319
v 0.264718 -0.584123 0.515319
v 0.424251 -0.398195 0.515319
v 0.264718 -0.463903 0.515319
v 0.304031 -0.463903 0.515319
v 0.304031 -0.398195 0.515319
v 0.304031 -0.463903 0.521628
v 0.304031 -0.398195 0.521628
v 0.264718 -0.463903 0.521628
v 0.264718 -0.398195 0.521628
vt 0.073241 0.669883
vt 0.073815 0.699887
vt 0.073241 0.699887
vt 0.073815 0.670457
vt 0.073198 0.66984
vt 0.291141 0.091481
vt 0.290567 0.049276
vt 0.291141 0.048702
vt 0.075888 0.67253
vt 0.073198 0.699887
vt 0.291184 0.091481
vt 0.291184 0.04866
vt 0.290567 0.091481
vt 0.075888 0.699887
vt 0.288494 0.05135
vt 0.072615 0.669257
vt 0.291768 0.091481
vt 0.076171 0.699887
vt 0.288494 0.091481
vt 0.072615 0.699887
vt 0.291768 0.048076
vt 0.076171 0.672813
vt 0.288211 0.091481
vt 0.039242 0.699887
vt 0.32514 0.091481
vt 0.288211 0.051633
vt 0.077071 0.699887
vt 0.039242 0.635884
vt 0.32514 0.014703
vt 0.287311 0.091481
vt 0.077071 0.673713
vt 0.038638 0.63528
vt 0.325744 0.0141
vt 0.287311 0.052533
vt 0.078331 0.674973
vt 0.038638 0.699887
vt 0.325744 0.091481
vt 0.286051 0.053793
vt 0.078331 0.699887
vt 0.038625 0.635267
vt 0.325757 0.014087
vt 0.286051 0.091481
vt 0.079591 0.676233
vt 0.038625 0.699887
vt 0.325757 0.091481
vt 0.284791 0.055052
vt 0.079591 0.699887
vt 0.037793 0.699887
vt 0.326589 0.091481
vt 0.284791 0.091481
vt 0.080491 0.699887
vt 0.037793 0.634435
vt 0.326589 0.013255
vt 0.283891 0.055952
vt 0.080491 0.677133
vt 0.036985 0.699887
vt 0.327397 0.091481
vt 0.283891 0.091481
vt 0.080774 0.699887
vt 0.036985 0.633627
vt 0.327397 0.012447
vt 0.283608 0.056236
vt 0.080774 0.677416
vt 0.036579 0.633221
vt 0.327803 0.012041
vt 0.283608 0.091481
vt 0.081695 0.678337
vt 0.036579 0.699887
vt 0.327803 0.091481
vt 0.282687 0.057157
vt 0.081695 0.699887
vt 0.036332 0.632974
vt 0.32805 0.011794
vt 0.282687 0.091481
vt 0.082466 0.679108
vt 0.036332 0.699887
vt 0.32805 0.091481
vt 0.281916 0.057928
vt 0.082466 0.699887
vt 0.035108 0.699887
vt 0.329274 0.091481
vt 0.281916 0.091481
vt 0.083014 0.699887
vt 0.035108 0.63175
vt 0.329274 0.01057
vt 0.281368 0.058476
vt 0.083014 0.679656
vt 0.035095 0.631737
vt 0.329287 0.091481
vt 0.281368 0.091481
vt 0.083223 0.699887
vt 0.035095 0.699887
vt 0.329287 0.010557
vt 0.281159 0.058684
vt 0.083223 0.679865
vt 0.034931 0.631573
vt 0.329451 0.091481
vt 0.281159 0.091481
vt 0.034931 0.699887
vt 0.329451 0.010393
vt 0.03445 0.699887
vt 0.329932 0.091481
vt 0.261137 0.058684
vt 0.03445 0.631092
vt 0.329932 0.009912
vt 0.261137 0.091481
vt 0.033796 0.699887
vt 0.330586 0.091481
vt 0.033796 0.630438
vt 0.330586 0.009258
vt 0.033166 0.699887
vt 0.331216 0.091481
vt 0.033166 0.629808
vt 0.331216 0.008628
vt 0.032485 0.699887
vt 0.331897 0.091481
vt 0.032485 0.629127
vt 0.331897 0.007947
vt 0.029921 0.699887
vt 0.334461 0.091481
vt 0.029921 0.626563
vt 0.334461 0.005382
vt 0.02708 0.699887
vt 0.337302 0.091481
vt 0.02708 0.623722
vt 0.337302 0.002541
vt 0.025354 0.699887
vt 0.339028 0.091481
vt 0.025354 0.621996
vt 0.339028 0.000815
vt 0.024538 0.62118
vt 0.339844 0
vt 0.024538 0.699887
vt 0.339844 0.091481
vt 0.026042 0.622684
vt 0.33834 0.001504
vt 0.026042 0.699887
vt 0.33834 0.091481
vt 0.084221 0.699887
vt 0.280161 0.059682
vt 0.084221 0.680863
vt 0.280161 0.091481
vt 0.261137 0.059682
vn 0 0.9059915435253356 0.42329578672670476
vn 0 0.34998597721223856 0.9367549390074196
vn 0 0.9247981708250346 0.38045807027669953
vn -0.9059915435253356 0 0.42329578672670454
vn -0.3499859772122388 0 0.9367549390074196
vn 0 0 1
vn -0.9247981708250347 0 0.38045807027669937
vn 0 0.39341584314965866 0.9193606334615612
vn -0.3934158431496589 0 0.9193606334615612
vn 0 -0.9762715506789325 0.21654990033466348
vn 0 -0.8829048588548676 0.4695519249353221
vn 0.8829048588548676 0 0.46955192493532233
vn 0.9762715506789322 0 0.21654990033466368
vn 0 -0.3946238895003938 0.9188427427125826
vn 0.39462388950039357 0 0.9188427427125826
vn 0 -0.5149989020261033 0.8571908369271733
vn 0.5149989020261032 0 0.8571908369271736
vn 0 -0.9250025784162961 0.37996082682719307
vn 0.925002578416296 0 0.37996082682719323
vn 0 -0.9997994393469632 0.020027008800570324
vn 0.9997994393469632 0 0.020027008800570546
vn 0 0.5149989020261029 0.8571908369271737
vn -0.5149989020261032 0 0.8571908369271736
vn 0 -0.3121370299436191 0.9500370911380126
vn 0 -0.10509798638728951 0.9944618711933289
vn 0.10509798638728929 0 0.9944618711933289
vn 0.31213702994361886 0 0.9500370911380126
vn 0 0.8829048588548674 0.4695519249353225
vn -0.8829048588548676 0 0.46955192493532233
vn 0 -0.6485230293281579 0.7611950344235237
vn 0.6485230293281576 0 0.7611950344235239
vn 0 0.9762715506789322 0.2165499003346639
vn -0.9762715506789322 0 0.21654990033466368
vn 0 -0.8569058686513363 0.5154729209870278
vn 0.8569058686513363 0 0.515472920987028
vn 0 0.1391790330320595 0.9902672350251023
vn -0.1391790330320597 0 0.990267235025102
vn 0 -0.9233742208355903 0.38390109181437176
vn 0.9233742208355901 0 0.3839010918143719
vn 0 0.5196688573548155 0.8543677654824883
vn -0.5196688573548158 0 0.8543677654824884
vn 0 0.8756788571430764 0.48289392122141667
vn -0.8756788571430765 0 0.4828939212214165
vn 0 0.9998810892883854 0.015421001377080286
vn 0 0.9913292929170315 0.1314010388262535
vn -0.9998810892883854 0 0.015421001377080064
vn -0.9913292929170315 0 0.13140103882625329
vn 0 0.992149053614744 0.12506100675817217
vn -0.992149053614744 0 0.12506100675817194
vn 0 0.8650370308675492 0.5017080179026986
vn -0.8650370308675495 0 0.5017080179026985
vn 0 1 0
vn -1 0 0
vn 0 0.4709491822100382 0.8821603413074612
vn -0.47094918221003834 0 0.882160341307461
vn 0 -0.06444700844094771 0.9979211307027286
vn 0.06444700844094749 0 0.9979211307027286
vn 0 -0.4712621119971039 0.881993209608798
vn 0.4712621119971037 0 0.8819932096087981
vn 0 -0.5187288783160754 0.8549387994476249
vn 0.5187288783160752 0 0.854938799447625
vn 0 -0.3355149569785976 0.9420348792075853
vn 0.3355149569785974 0 0.9420348792075853
vn 0 -0.12685097270896778 0.99192178659549
vn 0.12685097270896756 0 0.99192178659549
vn 0 -0.39455801380854455 0.9188710321581894
vn 0.39455801380854433 0 0.9188710321581894
vn 0 -0.924735206425889 0.38061108496268
vn 0.9247352064258889 0 0.38061108496268015
vn 0 -0.9450278200270289 -0.3269899377273884
vn 0.9450278200270289 0 -0.32698993772738816
vn 0 -0.43701910779842384 -0.8994522218656583
vn 0.43701910779842407 0 -0.8994522218656583
vn 0 0 -1
vn 0 -0.9059915435253356 -0.42329578672670476
vn 0 -0.34998597721223856 -0.9367549390074196
vn 0 -0.9247981708250346 -0.38045807027669953
vn 0.9059915435253356 0 -0.42329578672670454
vn 0.3499859772122388 0 -0.9367549390074196
vn 0.9247981708250347 0 -0.38045807027669937
vn 0 -0.39341584314965866 -0.9193606334615612
vn 0.3934158431496589 0 -0.9193606334615612
vn 0 0.9762715506789325 -0.21654990033466348
vn 0 0.8829048588548676 -0.4695519249353221
vn -0.9762715506789322 0 -0.21654990033466368
vn -0.8829048588548676 0 -0.46955192493532233
vn 0 0.3946238895003938 -0.9188427427125826
vn -0.39462388950039357 0 -0.9188427427125826
vn 0 0.5149989020261033 -0.8571908369271733
vn -0.5149989020261032 0 -0.8571908369271736
vn 0 0.9250025784162961 -0.37996082682719307
vn -0.925002578416296 0 -0.37996082682719323
vn 0 0.9997994393469632 -0.020027008800570324
vn -0.9997994393469632 0 -0.020027008800570546
vn 0 -0.5149989020261029 -0.8571908369271737
vn 0.5149989020261032 0 -0.8571908369271736
vn 0 0.10509798638728951 -0.9944618711933289
vn 0 0.3121370299436191 -0.9500370911380126
vn -0.10509798638728929 0 -0.9944618711933289
vn -0.31213702994361886 0 -0.9500370911380126
vn 0 -0.8829048588548674 -0.4695519249353225
vn 0.8829048588548676 0 -0.46955192493532233
vn 0 0.6485230293281579 -0.7611950344235237
vn -0.6485230293281576 0 -0.7611950344235239
vn 0 -0.9762715506789322 -0.2165499003346639
vn 0.9762715506789322 0 -0.21654990033466368
vn 0 0.8569058686513363 -0.5154729209870278
vn -0.8569058686513363 0 -0.515472920987028
vn 0 -0.1391790330320595 -0.9902672350251023
vn 0.1391790330320597 0 -0.990267235025102
vn 0 0.9233742208355903 -0.38390109181437176
vn -0.9233742208355901 0 -0.3839010918143719
vn 0 -0.5196688573548155 -0.8543677654824883
vn 0.5196688573548158 0 -0.8543677654824884
vn 0 -0.8756788571430764 -0.48289392122141667
vn 0.8756788571430765 0 -0.4828939212214165
vn 0 -0.9998810892883854 -0.015421001377080286
vn 0 -0.9913292929170315 -0.1314010388262535
vn 0.9998810892883854 0 -0.015421001377080064
vn 0.9913292929170315 0 -0.13140103882625329
vn 0 -0.992149053614744 -0.12506100675817217
vn 0.992149053614744 0 -0.12506100675817194
vn 0 -0.8650370308675492 -0.5017080179026986
vn 0.8650370308675495 0 -0.5017080179026985
vn 0 -1 0
vn 1 0 0
vn 0 -0.4709491822100382 -0.8821603413074612
vn 0.47094918221003834 0 -0.882160341307461
vn 0 0.06444700844094771 -0.9979211307027286
vn -0.06444700844094749 0 -0.9979211307027286
vn 0 0.4712621119971039 -0.881993209608798
vn -0.4712621119971037 0 -0.8819932096087981
vn 0 0.5187288783160754 -0.8549387994476249
vn -0.5187288783160752 0 -0.854938799447625
vn 0 0.3355149569785976 -0.9420348792075853
vn -0.3355149569785974 0 -0.9420348792075853
vn 0 0.12685097270896778 -0.99192178659549
vn -0.12685097270896756 0 -0.99192178659549
vn 0 0.39455801380854455 -0.9188710321581894
vn -0.39455801380854433 0 -0.9188710321581894
vn 0 0.924735206425889 -0.38061108496268
vn -0.9247352064258889 0 -0.38061108496268015
vn 0 0.9450278200270289 0.3269899377273884
vn -0.9450278200270289 0 0.32698993772738816
vn 0 0.43701910779842384 0.8994522218656583
vn -0.43701910779842407 0 0.8994522218656583
usemtl material_0_0
f 1/1/1 2/2/2 3/3/1
f 2/2/2 1/1/1 4/4/2
f 3/3/1 5/5/3 1/1/1
f 6/6/4 4/7/5 1/8/4
f 7/9/6 2/2/2 4/4/2
f 5/5/3 3/3/1 8/10/3
f 9/11/7 1/8/4 5/12/7
f 4/7/5 6/6/4 10/13/5
f 1/8/4 9/11/7 6/6/4
f 2/2/2 7/9/6 11/14/6
f 10/13/5 7/15/6 4/7/5
f 8/10/3 12/16/8 5/5/3
f 5/12/7 13/17/9 9/11/7
f 7/9/10 14/18/11 11/14/10
f 7/15/6 10/13/5 15/19/6
f 12/16/8 8/10/3 16/20/8
f 13/17/9 5/12/7 12/21/9
f 14/18/11 7/9/10 17/22/11
f 18/23/12 7/15/13 15/19/13
f 19/24/14 12/16/8 16/20/8
f 12/21/9 20/25/15 13/17/9
f 7/15/13 18/23/12 17/26/12
f 17/22/11 21/27/16 14/18/11
f 12/16/8 19/24/14 22/28/14
f 20/25/15 12/21/9 22/29/15
f 23/30/17 17/26/12 18/23/12
f 21/27/16 17/22/11 24/31/16
f 19/24/14 25/32/18 22/28/14
f 25/33/19 20/25/15 22/29/15
f 17/26/12 23/30/17 24/34/17
f 26/35/6 21/27/16 24/31/16
f 25/32/18 19/24/14 27/36/18
f 20/25/15 25/33/19 28/37/19
f 23/30/17 26/38/6 24/34/17
f 21/27/16 26/35/6 29/39/6
f 27/36/18 30/40/20 25/32/18
f 30/41/21 28/37/19 25/33/19
f 26/38/6 23/30/17 31/42/6
f 32/43/22 29/39/6 26/35/6
f 30/40/20 27/36/18 33/44/20
f 28/37/19 30/41/21 34/45/21
f 31/42/6 32/46/23 26/38/6
f 29/39/6 32/43/22 35/47/22
f 36/48/24 30/40/25 33/44/25
f 30/41/26 37/49/27 34/45/26
f 32/46/23 31/42/6 38/50/23
f 32/43/22 39/51/28 35/47/22
f 30/40/25 36/48/24 40/52/24
f 37/49/27 30/41/26 40/53/27
f 38/50/23 41/54/29 32/46/23
f 39/51/28 32/43/22 41/55/28
f 42/56/30 40/52/24 36/48/24
f 40/53/27 43/57/31 37/49/27
f 41/54/29 38/50/23 44/58/29
f 41/55/28 45/59/32 39/51/28
f 40/52/24 42/56/30 46/60/30
f 43/57/31 40/53/27 46/61/31
f 44/58/29 47/62/33 41/54/29
f 45/59/32 41/55/28 47/63/32
f 42/56/30 48/64/34 46/60/30
f 48/65/35 43/57/31 46/61/31
f 47/62/33 44/58/29 49/66/33
f 50/67/36 45/59/6 47/63/6
f 48/64/34 42/56/30 51/68/34
f 43/57/31 48/65/35 52/69/35
f 49/66/6 50/70/37 47/62/6
f 45/59/6 50/67/36 53/71/36
f 51/68/34 54/72/38 48/64/34
f 54/73/39 52/69/35 48/65/35
f 50/70/37 49/66/6 55/74/37
f 56/75/40 53/71/36 50/67/36
f 54/72/38 51/68/34 57/76/38
f 52/69/35 54/73/39 58/77/39
f 55/74/37 56/78/41 50/70/37
f 53/71/36 56/75/40 59/79/40
f 60/80/6 54/72/6 57/76/6
f 54/73/6 61/81/6 58/77/6
f 56/78/41 55/74/37 62/82/41
f 56/75/40 63/83/42 59/79/40
f 54/72/6 60/80/6 64/84/6
f 61/81/6 54/73/6 64/85/6
f 62/82/41 65/86/43 56/78/41
f 63/83/42 56/75/40 65/87/42
f 60/80/44 66/88/45 64/84/44
f 64/85/46 67/89/47 61/81/46
f 65/86/43 62/82/41 68/90/43
f 65/87/42 69/91/48 63/83/42
f 66/88/45 60/80/44 70/92/45
f 67/89/47 64/85/46 66/93/47
f 68/90/43 71/94/49 65/86/43
f 69/91/48 65/87/42 71/95/48
f 70/92/45 72/96/50 66/88/45
f 66/93/47 73/97/51 67/89/47
f 71/94/49 68/90/43 74/98/49
f 71/95/48 75/91/52 69/91/48
f 72/96/50 70/92/45 76/99/50
f 73/97/51 66/93/47 72/100/51
f 74/98/49 77/94/53 71/94/49
f 75/91/52 71/95/48 77/95/52
f 78/101/54 72/96/50 76/99/50
f 72/100/51 79/102/55 73/97/51
f 77/94/53 74/98/49 80/98/53
f 80/98/6 75/103/6 77/94/6
f 72/96/50 78/101/54 81/104/54
f 79/102/55 72/100/51 81/105/55
f 75/103/6 80/98/6 82/106/6
f 83/107/56 81/104/54 78/101/54
f 81/105/55 84/108/57 79/102/55
f 81/104/54 83/107/56 85/109/56
f 84/108/57 81/105/55 85/110/57
f 86/111/58 85/109/56 83/107/56
f 85/110/57 87/112/59 84/108/57
f 85/109/56 86/111/58 88/113/58
f 87/112/59 85/110/57 88/114/59
f 89/115/60 88/113/58 86/111/58
f 88/114/59 90/116/61 87/112/59
f 88/113/58 89/115/60 91/117/60
f 90/116/61 88/114/59 91/118/61
f 92/119/62 91/117/60 89/115/60
f 91/118/61 93/120/63 90/116/61
f 91/117/60 92/119/62 94/121/62
f 93/120/63 91/118/61 94/122/63
f 95/123/64 94/121/62 92/119/62
f 94/122/63 96/124/65 93/120/63
f 94/121/62 95/123/64 97/125/64
f 96/124/65 94/122/63 97/126/65
f 98/127/66 97/125/64 95/123/64
f 97/126/65 99/128/67 96/124/65
f 97/125/64 98/127/66 100/129/66
f 99/128/67 97/126/65 100/130/67
f 98/127/66 101/131/68 100/129/66
f 101/132/69 99/128/67 100/130/67
f 101/131/68 98/127/66 102/133/68
f 99/128/67 101/132/69 103/134/69
f 102/133/68 104/131/70 101/131/68
f 104/132/71 103/134/69 101/132/69
f 104/131/70 102/133/68 105/133/70
f 103/134/69 104/132/71 106/134/71
f 105/133/70 107/135/72 104/131/70
f 107/136/73 106/134/71 104/132/71
f 107/135/72 105/133/70 108/137/72
f 106/134/71 107/136/73 109/138/73
f 110/139/74 107/135/72 108/137/72
f 111/140/74 109/138/73 107/136/73
f 107/135/72 110/139/74 111/141/74
f 109/138/73 111/140/74 112/142/74
f 110/139/52 113/141/52 111/141/52
f 111/140/53 114/142/53 112/142/53
f 113/141/52 110/139/52 115/139/52
f 114/142/53 111/140/53 113/140/53
f 116/106/74 113/140/74 115/143/74
f 113/140/74 116/106/74 114/142/74
usemtl material_1_0
f 3//75 2//76 1//75
f 4//76 1//75 2//76
f 1//75 5//77 3//75
f 1//78 4//79 6//78
f 4//76 2//76 7//74
f 8//77 3//75 5//77
f 5//80 1//78 9//80
f 10//79 6//78 4//79
f 6//78 9//80 1//78
f 11//74 7//74 2//76
f 4//79 7//74 10//79
f 5//77 12//81 8//77
f 9//80 13//82 5//80
f 11//83 14//84 7//83
f 15//74 10//79 7//74
f 16//81 8//77 12//81
f 12//82 5//80 13//82
f 17//84 7//83 14//84
f 15//85 7//85 18//86
f 16//81 12//81 19//87
f 13//82 20//88 12//82
f 17//86 18//86 7//85
f 14//84 21//89 17//84
f 22//87 19//87 12//81
f 22//88 12//82 20//88
f 18//86 17//86 23//90
f 24//89 17//84 21//89
f 22//87 25//91 19//87
f 22//88 20//88 25//92
f 24//90 23//90 17//86
f 24//89 21//89 26//74
f 27//91 19//87 25//91
f 28//92 25//92 20//88
f 24//90 26//74 23//90
f 29//74 26//74 21//89
f 25//91 30//93 27//91
f 25//92 28//92 30//94
f 31//74 23//90 26//74
f 26//74 29//74 32//95
f 33//93 27//91 30//93
f 34//94 30//94 28//92
f 26//74 32//96 31//74
f 35//95 32//95 29//74
f 33//97 30//97 36//98
f 34//99 37//100 30//99
f 38//96 31//74 32//96
f 35//95 39//101 32//95
f 40//98 36//98 30//97
f 40//100 30//99 37//100
f 32//96 41//102 38//96
f 41//101 32//95 39//101
f 36//98 40//98 42//103
f 37//100 43//104 40//100
f 44//102 38//96 41//102
f 39//101 45//105 41//101
f 46//103 42//103 40//98
f 46//104 40//100 43//104
f 41//102 47//106 44//102
f 47//105 41//101 45//105
f 46//103 48//107 42//103
f 46//104 43//104 48//108
f 49//106 44//102 47//106
f 47//74 45//74 50//109
f 51//107 42//103 48//107
f 52//108 48//108 43//104
f 47//74 50//110 49//74
f 53//109 50//109 45//74
f 48//107 54//111 51//107
f 48//108 52//108 54//112
f 55//110 49//74 50//110
f 50//109 53//109 56//113
f 57//111 51//107 54//111
f 58//112 54//112 52//108
f 50//110 56//114 55//110
f 59//113 56//113 53//109
f 57//74 54//74 60//74
f 58//74 61//74 54//74
f 62//114 55//110 56//114
f 59//113 63//115 56//113
f 64//74 60//74 54//74
f 64//74 54//74 61//74
f 56//114 65//116 62//114
f 65//115 56//113 63//115
f 64//117 66//118 60//117
f 61//119 67//120 64//119
f 68//116 62//114 65//116
f 63//115 69//121 65//115
f 70//118 60//117 66//118
f 66//120 64//119 67//120
f 65//116 71//122 68//116
f 71//121 65//115 69//121
f 66//118 72//123 70//118
f 67//120 73//124 66//120
f 74//122 68//116 71//122
f 69//121 75//125 71//121
f 76//123 70//118 72//123
f 72//124 66//120 73//124
f 71//122 77//126 74//122
f 77//125 71//121 75//125
f 76//123 72//123 78//127
f 73//124 79//128 72//124
f 80//126 74//122 77//126
f 77//74 75//74 80//74
f 81//127 78//127 72//123
f 81//128 72//124 79//128
f 82//74 80//74 75//74
f 78//127 81//127 83//129
f 79//128 84//130 81//128
f 85//129 83//129 81//127
f 85//130 81//128 84//130
f 83//129 85//129 86//131
f 84//130 87//132 85//130
f 88//131 86//131 85//129
f 88//132 85//130 87//132
f 86//131 88//131 89//133
f 87//132 90//134 88//132
f 91//133 89//133 88//131
f 91//134 88//132 90//134
f 89//133 91//133 92//135
f 90//134 93//136 91//134
f 94//135 92//135 91//133
f 94//136 91//134 93//136
f 92//135 94//135 95//137
f 93//136 96//138 94//136
f 97//137 95//137 94//135
f 97//138 94//136 96//138
f 95//137 97//137 98//139
f 96//138 99//140 97//138
f 100//139 98//139 97//137
f 100//140 97//138 99//140
f 100//139 101//141 98//139
f 100//140 99//140 101//142
f 102//141 98//139 101//141
f 103//142 101//142 99//140
f 101//141 104//143 102//141
f 101//142 103//142 104//144
f 105//143 102//141 104//143
f 106//144 104//144 103//142
f 104//143 107//145 105//143
f 104//144 106//144 107//146
f 108//145 105//143 107//145
f 109//146 107//146 106//144
f 108//145 107//145 110//6
f 107//146 109//146 111//6
f 111//6 110//6 107//145
f 112//6 111//6 109//146
f 111//125 113//125 110//125
f 112//126 114//126 111//126
f 115//125 110//125 113//125
f 113//126 111//126 114//126
f 115//6 113//6 116//6
f 114//6 116//6 113//6
