# SSTK version 0.8.0
# 51
mtllib original-51.mtl
o DF_31_CL1/DF_31_CL/mesh29/mesh29-geometry#mesh29-geometry
v -0.171764 -0.522446 0.575430
v -0.172291 0.649578 0.579801
v -0.172291 -0.522446 0.579801
v -0.171764 0.649578 0.575430
v -0.174400 0.649578 0.583667
v -0.171764 -0.522446 0.572849
v -0.174400 -0.522446 0.583667
v -0.171764 0.649578 0.572849
v -0.177790 -0.522446 0.586476
v -0.166137 0.649578 0.572849
v -0.177790 0.649578 0.586476
v -0.166137 -0.522446 0.572849
v -0.181980 -0.522446 0.587831
v -0.181980 0.649578 0.587831
v -0.181980 0.649578 0.590785
v -0.181980 -0.522446 0.590785
v -0.259379 -0.522446 0.590785
v -0.259379 0.649578 0.590785
v -0.260258 -0.522446 0.590543
v -0.260258 0.649578 0.590543
v -0.260890 0.649578 0.589887
v -0.260890 -0.522446 0.589887
v -0.261098 0.649578 0.589001
v -0.261098 -0.522446 0.589001
v -0.261098 0.649578 0.586351
v -0.261098 -0.522446 0.586351
v -0.266891 -0.522446 0.584920
v -0.266891 0.649578 0.584920
v -0.271604 -0.522446 0.581261
v -0.271604 0.649578 0.581261
v -0.274427 0.649578 0.576004
v -0.274427 -0.522446 0.576004
v -0.274873 0.649578 0.570054
v -0.274873 -0.522446 0.570054
v -0.274873 0.649578 0.561238
v -0.274873 -0.522446 0.561238
v -0.274869 0.649578 0.559460
v -0.274869 -0.522446 0.559460
v -0.274236 0.649578 0.557800
v -0.274236 -0.522446 0.557800
v -0.273056 0.649578 0.556471
v -0.273056 -0.522446 0.556471
v -0.271481 -0.522446 0.555647
v -0.271481 0.649578 0.555647
v -0.269717 -0.522446 0.555433
v -0.269717 0.649578 0.555433
v -0.171764 -0.522446 0.555433
v -0.171764 0.649578 0.555433
v -0.171764 0.649578 0.560674
v -0.171764 -0.522446 0.560674
v -0.166137 0.649578 0.560674
v -0.166137 -0.522446 0.560674
vt 0.045573 0.049583
vt 0.04534 0.567604
vt 0.04534 0.049583
vt 0.045573 0.567604
vt 0.044408 0.567604
vt 0.044408 0.049583
vt 0.04291 0.049583
vt 0.04806 0.567604
vt 0.04291 0.567604
vt 0.04806 0.049583
vt 0.041058 0.049583
vt 0.041058 0.567604
vt 0.006848 0.049583
vt 0.006848 0.567604
vt 0.00646 0.049583
vt 0.00646 0.567604
vt 0.006181 0.567604
vt 0.006181 0.049583
vt 0.006088 0.567604
vt 0.006088 0.049583
vt 0.003528 0.049583
vt 0.003528 0.567604
vt 0.001445 0.049583
vt 0.001445 0.567604
vt 0.000197 0.567604
vt 0.000197 0.049583
vt 0 0.567604
vt 0 0.049583
vt 0.000002 0.567604
vt 0.000002 0.049583
vt 0.000282 0.567604
vt 0.000282 0.049583
vt 0.000803 0.567604
vt 0.000803 0.049583
vt 0.001499 0.049583
vt 0.001499 0.567604
vt 0.002279 0.049583
vt 0.002279 0.567604
vn 0.9981997002985705 0 0.05997798199209343
vn 0.9524214534017695 0 0.304784145092984
vn 0.7718322552835607 0 0.6358262102995539
vn 1 0 0
vn 0.481487866302153 0 0.8764527566296999
vn 0 0 1
vn 0.30759902413775775 0 0.9515160746668966
vn -0.13360901643143827 0 0.9910341218788705
vn -0.5107362628083494 0 0.85973744239306
vn -0.87819811091072 0 0.47829706040581355
vn -0.9933549531603352 0 0.11509099457311447
vn -1 0 0
vn -0.23985893850677215 0 0.9708077511116218
vn -0.4360179781624761 0 0.8999379549275086
vn -0.763725776321173 0 0.6455408109350033
vn -0.9599883063591972 0 0.28004008936864794
vn -0.9992990646416605 0 0.037435002421558075
vn -0.9999993671868351 0 -0.0011250004130856023
vn -0.9832544340282682 0 -0.18223808044355125
vn -0.854978829854955 0 -0.5186628967835004
vn -0.6158659605362343 0 -0.7878509495156945
vn -0.2969149752905883 0 -0.9549039205324217
vn -0.1201569883042798 0 -0.9927549033682207
vn 0 0 -1
vn -0.9524214534017695 0 -0.304784145092984
vn -0.9981997002985705 0 -0.05997798199209343
vn -0.7718322552835607 0 -0.6358262102995539
vn -0.481487866302153 0 -0.8764527566296999
vn -0.30759902413775775 0 -0.9515160746668966
vn 0.13360901643143827 0 -0.9910341218788705
vn 0.5107362628083494 0 -0.85973744239306
vn 0.87819811091072 0 -0.47829706040581355
vn 0.9933549531603352 0 -0.11509099457311447
vn 0.23985893850677215 0 -0.9708077511116218
vn 0.4360179781624761 0 -0.8999379549275086
vn 0.763725776321173 0 -0.6455408109350033
vn 0.9599883063591972 0 -0.28004008936864794
vn 0.9992990646416605 0 -0.037435002421558075
vn 0.9999993671868351 0 0.0011250004130856023
vn 0.9832544340282682 0 0.18223808044355125
vn 0.854978829854955 0 0.5186628967835004
vn 0.6158659605362343 0 0.7878509495156945
vn 0.2969149752905883 0 0.9549039205324217
vn 0.1201569883042798 0 0.9927549033682207
usemtl material_0_0
f 1/1/1 2/2/2 3/3/2
f 2/2/2 1/1/1 4/4/1
f 5/5/3 3/3/2 2/2/2
f 6/1/4 4/4/1 1/1/1
f 3/3/2 5/5/3 7/6/3
f 4/4/1 6/1/4 8/4/4
f 5/5/3 9/7/5 7/6/3
f 6/1/6 10/8/6 8/4/6
f 9/7/5 5/5/3 11/9/5
f 10/8/6 6/1/6 12/10/6
f 11/9/5 13/11/7 9/7/5
f 13/11/7 11/9/5 14/12/7
f 15/12/4 13/11/4 14/12/4
f 13/11/4 15/12/4 16/11/4
f 15/12/6 17/13/8 16/11/6
f 17/13/8 15/12/6 18/14/8
f 18/14/8 19/15/9 17/13/8
f 19/15/9 18/14/8 20/16/9
f 21/17/10 19/15/9 20/16/9
f 19/15/9 21/17/10 22/18/10
f 23/19/11 22/18/10 21/17/10
f 22/18/10 23/19/11 24/20/11
f 25/19/12 24/20/11 23/19/11
f 24/20/11 25/19/12 26/20/12
f 25/19/13 27/21/14 26/20/13
f 27/21/14 25/19/13 28/22/14
f 28/22/14 29/23/15 27/21/14
f 29/23/15 28/22/14 30/24/15
f 31/25/16 29/23/15 30/24/15
f 29/23/15 31/25/16 32/26/16
f 33/27/17 32/26/16 31/25/16
f 32/26/16 33/27/17 34/28/17
f 35/27/18 34/28/17 33/27/17
f 34/28/17 35/27/18 36/28/18
f 37/29/19 36/28/18 35/27/18
f 36/28/18 37/29/19 38/30/19
f 39/31/20 38/30/19 37/29/19
f 38/30/19 39/31/20 40/32/20
f 41/33/21 40/32/20 39/31/20
f 40/32/20 41/33/21 42/34/21
f 41/33/21 43/35/22 42/34/21
f 43/35/22 41/33/21 44/36/22
f 44/36/22 45/37/23 43/35/22
f 45/37/23 44/36/22 46/38/23
f 46/38/24 47/1/24 45/37/24
f 47/1/24 46/38/24 48/4/24
f 49/4/4 47/1/4 48/4/4
f 47/1/4 49/4/4 50/1/4
f 51/8/24 50/1/24 49/4/24
f 50/1/24 51/8/24 52/10/24
usemtl material_1_0
f 3//25 2//25 1//26
f 4//26 1//26 2//25
f 2//25 3//25 5//27
f 1//26 4//26 6//12
f 7//27 5//27 3//25
f 8//12 6//12 4//26
f 7//27 9//28 5//27
f 8//24 10//24 6//24
f 11//28 5//27 9//28
f 12//24 6//24 10//24
f 9//28 13//29 11//28
f 14//29 11//28 13//29
f 14//12 13//12 15//12
f 16//12 15//12 13//12
f 16//24 17//30 15//24
f 18//30 15//24 17//30
f 17//30 19//31 18//30
f 20//31 18//30 19//31
f 20//31 19//31 21//32
f 22//32 21//32 19//31
f 21//32 22//32 23//33
f 24//33 23//33 22//32
f 23//33 24//33 25//4
f 26//4 25//4 24//33
f 26//34 27//35 25//34
f 28//35 25//34 27//35
f 27//35 29//36 28//35
f 30//36 28//35 29//36
f 30//36 29//36 31//37
f 32//37 31//37 29//36
f 31//37 32//37 33//38
f 34//38 33//38 32//37
f 33//38 34//38 35//39
f 36//39 35//39 34//38
f 35//39 36//39 37//40
f 38//40 37//40 36//39
f 37//40 38//40 39//41
f 40//41 39//41 38//40
f 39//41 40//41 41//42
f 42//42 41//42 40//41
f 42//42 43//43 41//42
f 44//43 41//42 43//43
f 43//43 45//44 44//43
f 46//44 44//43 45//44
f 45//6 47//6 46//6
f 48//6 46//6 47//6
f 48//12 47//12 49//12
f 50//12 49//12 47//12
f 49//6 50//6 51//6
f 52//6 51//6 50//6
