# SSTK version 0.8.0
# 49
mtllib original-49.mtl
o _3043_6_1/_3043_6/mesh27/mesh27-geometry#mesh27-geometry
v 0.047447 0.776706 0.578202
v -0.053221 0.785162 0.573422
v -0.053221 0.776706 0.578202
v 0.047447 0.785162 0.573422
v -0.053221 0.770287 0.577959
v 0.047447 0.770287 0.577959
v -0.053221 0.789838 0.564965
v -0.053221 0.767079 0.574760
v 0.047447 0.767079 0.574760
v 0.047447 0.789838 0.564965
v -0.053221 0.766835 0.568358
v 0.047447 0.766835 0.568358
v -0.053221 0.789110 0.558735
v -0.053221 0.771628 0.559923
v 0.047447 0.771628 0.559923
v 0.047447 0.789110 0.558735
v -0.053221 0.807186 0.540708
v -0.053221 0.780107 0.555261
v 0.047447 0.780107 0.555261
v 0.047447 0.807186 0.540708
v -0.053221 0.786354 0.555986
v 0.047447 0.786354 0.555986
v -0.053221 0.809514 0.535100
v -0.053221 0.803882 0.538506
v 0.047447 0.803882 0.538506
v 0.047447 0.809514 0.535100
v -0.053221 0.809542 0.495838
v -0.053221 0.805618 0.534326
v 0.047447 0.805618 0.534326
v 0.047447 0.809542 0.495838
v 0.047447 0.768800 0.495838
v -0.053221 0.805642 0.499724
v 0.047447 0.805642 0.499724
v -0.053221 0.768800 0.495838
v -0.053221 0.768800 0.499724
v 0.047447 0.768800 0.499724
vt -0.304935 0.515212
vt -0.35342 -0.000413
vt -0.304935 -0.000413
vt -0.35342 0.515212
vt -0.191732 0.636948
vt -0.214478 0.711128
vt -0.21567 0.679111
vt -0.272896 0.515212
vt -0.214478 -0.195503
vt -0.191732 -0.121323
vt -0.21567 -0.163486
vt -0.401712 -0.000413
vt -0.198488 0.72714
vt -0.272896 -0.000413
vt -0.198488 -0.211515
vt -0.401712 0.515212
vt -0.166473 0.728378
vt -0.149426 0.61366
vt -0.250267 0.515212
vt -0.250267 -0.000413
vt -0.166473 -0.212753
vt -0.149426 -0.098035
vt -0.18922 0
vt -0.15785 0.515625
vt -0.18922 0.515625
vt -0.124276 0.7045
vt -0.218227 0.515212
vt -0.218227 -0.000413
vt -0.124276 -0.188875
vt -0.15785 0
vt -0.118269 0.617311
vt -0.169743 0.515212
vt -0.169743 -0.000413
vt -0.118269 -0.101686
vt -0.030352 0.515625
vt -0.100927 0.662227
vt -0.12145 -0.000413
vt -0.100927 -0.146602
vt -0.030352 0
vt -0.02805 0.52722
vt -0.104534 0.631065
vt -0.12145 0.515212
vt -0.104534 -0.11544
vt -0.02805 -0.011595
vt 0 0.515625
vt -0.017051 0.543707
vt -0.09008 -0.000413
vt -0.09008 0.515212
vt -0.017051 -0.028082
vt 0 0
vt 0.033552 -0.000413
vt 0.033552 0.515212
vt 0.196355 0.515625
vt 0.003859 0.535063
vt 0.056178 0.515212
vt 0.003859 -0.019438
vt 0.196355 0
vt 0.056178 -0.000413
vt 0.399564 0
vt 0.176903 0.535063
vt 0.229221 0.515212
vt 0.176903 -0.019438
vt 0.399564 0.515625
vt 0.19621 -0.203209
vt 0.176772 0.71882
vt 0.229221 -0.000413
vt 0.196341 0.515212
vt 0.176903 -0.000413
vt 0.196341 -0.000413
vt 0.19621 0.718834
vt 0.176772 -0.203195
vt 0.412979 0.515212
vt 0.412979 -0.000413
vt 0.176903 0.515212
vn 0 0.23600258288608034 0.9717524277670206
vn 0 0.7103067970424702 0.7038922176549951
vn -1 0 0
vn 0 -0.39923716975401513 0.9168476876159986
vn 1 0 0
vn 0 0.9811458538238923 0.1932687598247207
vn 0 -0.9160630683453194 0.40103423147377176
vn 0 0.9932509083786158 -0.11598548618277384
vn 0 -0.9714615893651479 -0.23719692322654706
vn 0 -0.7019907316284884 -0.7121860801136873
vn 0 0.7061608755853119 0.7080514231272936
vn 0 0.8307826917609423 0.5565969089659438
vn 0 -0.1922762587615509 -0.9813408379949656
vn 0 0.9806152653815035 0.19594310730608397
vn 0 0.11537518971221271 -0.9933219848563056
vn 0 -0.8307826917609423 -0.5565969089659438
vn 0 -0.7061608755853119 -0.7080514231272936
vn 0 0.9999997444527607 0.000714908674685261
vn 0 -0.9806152653815035 -0.19594310730608397
vn 0 0 -1
vn 0 -0.9999997444527607 -0.000714908674685261
vn 0 -1 0
vn 0 0 1
vn 0 -0.23600258288608034 -0.9717524277670206
vn 0 -0.7103067970424702 -0.7038922176549951
vn 0 0.39923716975401513 -0.9168476876159986
vn 0 -0.9811458538238923 -0.1932687598247207
vn 0 0.9160630683453194 -0.40103423147377176
vn 0 -0.9932509083786158 0.11598548618277384
vn 0 0.9714615893651479 0.23719692322654706
vn 0 0.7019907316284884 0.7121860801136873
vn 0 0.1922762587615509 0.9813408379949656
vn 0 -0.11537518971221271 0.9933219848563056
vn 0 1 0
usemtl material_0_0
f 1/1/1 2/2/2 3/3/1
f 2/2/2 1/1/1 4/4/2
f 2/5/3 5/6/3 3/7/3
f 3/3/1 6/8/4 1/1/1
f 6/9/5 4/10/5 1/11/5
f 4/4/2 7/12/6 2/2/2
f 5/6/3 2/5/3 8/13/3
f 6/8/4 3/3/1 5/14/4
f 4/10/5 6/9/5 9/15/5
f 7/12/6 4/4/2 10/16/6
f 11/17/3 2/5/3 7/18/3
f 8/13/3 2/5/3 11/17/3
f 9/19/7 5/14/4 8/20/7
f 5/14/4 9/19/7 6/8/4
f 4/10/5 9/15/5 12/21/5
f 4/10/5 12/21/5 10/22/5
f 10/23/6 13/24/8 7/25/6
f 11/17/3 7/18/3 14/26/3
f 12/27/9 8/20/7 11/28/9
f 8/20/7 12/27/9 9/19/7
f 10/22/5 12/21/5 15/29/5
f 13/24/8 10/23/6 16/30/8
f 14/26/3 7/18/3 13/31/3
f 15/32/10 11/28/9 14/33/10
f 11/28/9 15/32/10 12/27/9
f 10/22/5 15/29/5 16/34/5
f 16/30/11 17/35/12 13/24/11
f 14/26/3 13/31/3 18/36/3
f 18/37/13 15/32/10 14/33/10
f 16/34/5 15/29/5 19/38/5
f 17/35/12 16/30/11 20/39/12
f 17/40/3 21/41/3 13/31/3
f 18/36/3 13/31/3 21/41/3
f 15/32/10 18/37/13 19/42/13
f 16/34/5 19/38/5 22/43/5
f 22/43/5 20/44/5 16/34/5
f 20/39/12 23/45/14 17/35/12
f 21/41/3 17/40/3 24/46/3
f 21/47/15 19/42/13 18/37/13
f 19/42/13 21/47/15 22/48/15
f 20/44/5 22/43/5 25/49/5
f 23/45/14 20/39/12 26/50/14
f 24/46/3 17/40/3 23/45/3
f 24/51/16 22/48/17 21/47/17
f 22/48/17 24/51/16 25/52/16
f 20/44/5 25/49/5 26/50/5
f 26/50/14 27/53/18 23/45/14
f 24/46/3 23/45/3 28/54/3
f 24/51/16 29/55/19 25/52/16
f 26/50/5 25/49/5 29/56/5
f 27/53/18 26/50/14 30/57/18
f 28/54/3 23/45/3 27/53/3
f 29/55/19 24/51/16 28/58/19
f 26/50/5 29/56/5 30/57/5
f 31/59/20 27/53/20 30/57/20
f 28/54/3 27/53/3 32/60/3
f 28/58/19 33/61/21 29/55/19
f 30/57/5 29/56/5 33/62/5
f 27/53/20 31/59/20 34/63/20
f 30/57/5 33/62/5 31/64/5
f 32/60/3 27/53/3 35/65/3
f 33/61/21 28/58/19 32/66/21
f 31/67/22 35/68/22 34/69/22
f 35/65/3 27/53/3 34/70/3
f 31/64/5 33/62/5 36/71/5
f 36/72/23 32/66/23 35/73/23
f 32/66/23 36/72/23 33/61/23
f 35/68/22 31/67/22 36/74/22
usemtl material_1_0
f 3//24 2//25 1//24
f 4//25 1//24 2//25
f 3//5 5//5 2//5
f 1//24 6//26 3//24
f 1//3 4//3 6//3
f 2//25 7//27 4//25
f 8//5 2//5 5//5
f 5//26 3//24 6//26
f 9//3 6//3 4//3
f 10//27 4//25 7//27
f 7//5 2//5 11//5
f 11//5 2//5 8//5
f 8//28 5//26 9//28
f 6//26 9//28 5//26
f 12//3 9//3 4//3
f 10//3 12//3 4//3
f 7//27 13//29 10//27
f 14//5 7//5 11//5
f 11//30 8//28 12//30
f 9//28 12//30 8//28
f 15//3 12//3 10//3
f 16//29 10//27 13//29
f 13//5 7//5 14//5
f 14//31 11//30 15//31
f 12//30 15//31 11//30
f 16//3 15//3 10//3
f 13//17 17//16 16//17
f 18//5 13//5 14//5
f 14//31 15//31 18//32
f 19//3 15//3 16//3
f 20//16 16//17 17//16
f 13//5 21//5 17//5
f 21//5 13//5 18//5
f 19//32 18//32 15//31
f 22//3 19//3 16//3
f 16//3 20//3 22//3
f 17//16 23//19 20//16
f 24//5 17//5 21//5
f 18//32 19//32 21//33
f 22//33 21//33 19//32
f 25//3 22//3 20//3
f 26//19 20//16 23//19
f 23//5 17//5 24//5
f 21//11 22//11 24//12
f 25//12 24//12 22//11
f 26//3 25//3 20//3
f 23//19 27//21 26//19
f 28//5 23//5 24//5
f 25//12 29//14 24//12
f 29//3 25//3 26//3
f 30//21 26//19 27//21
f 27//5 23//5 28//5
f 28//14 24//12 29//14
f 30//3 29//3 26//3
f 30//23 27//23 31//23
f 32//5 27//5 28//5
f 29//14 33//18 28//14
f 33//3 29//3 30//3
f 34//23 31//23 27//23
f 31//3 33//3 30//3
f 35//5 27//5 32//5
f 32//18 28//14 33//18
f 34//34 35//34 31//34
f 34//5 27//5 35//5
f 36//3 33//3 31//3
f 35//20 32//20 36//20
f 33//20 36//20 32//20
f 36//34 31//34 35//34
