# SSTK version 0.8.0
# 39
mtllib original-39.mtl
o RT_11_BL1/RT_11_BL/mesh30/mesh30-geometry#mesh30-geometry
v -0.386889 -0.291277 0.492866
v -0.392253 -0.447112 0.512884
v -0.392253 -0.291277 0.512884
v -0.386889 -0.441748 0.492866
v -0.392253 -0.447112 0.517448
v -0.312281 -0.367140 0.492866
v -0.308331 -0.447112 0.512884
v -0.392253 -0.291277 0.517448
v -0.312281 -0.441748 0.492866
v -0.312281 -0.291277 0.492866
v -0.391776 -0.446635 0.520146
v -0.308331 -0.447112 0.517448
v -0.262094 -0.367140 0.492866
v -0.308502 -0.363361 0.500971
v -0.262094 -0.441748 0.492866
v -0.391776 -0.291277 0.520146
v -0.262094 -0.447112 0.512884
v -0.308502 -0.291277 0.500971
v -0.390404 -0.445263 0.522517
v -0.308807 -0.446635 0.520146
v -0.262094 -0.447112 0.517448
v -0.262094 -0.363361 0.500971
v -0.308502 -0.363361 0.504613
v -0.390404 -0.291277 0.522517
v -0.262094 -0.446635 0.520146
v -0.262094 -0.363361 0.504613
v -0.308502 -0.291277 0.504613
v -0.388303 -0.443162 0.524275
v -0.310180 -0.445263 0.522517
v -0.262094 -0.445263 0.522517
v -0.262094 -0.291277 0.504613
v -0.388303 -0.291277 0.524275
v -0.312281 -0.443162 0.524275
v -0.312281 -0.367140 0.524275
v -0.262094 -0.443162 0.524275
v -0.312281 -0.291277 0.524275
v -0.262094 -0.367140 0.524275
v -0.308502 -0.291277 0.516169
v -0.308502 -0.363361 0.516169
v -0.262094 -0.363361 0.516169
v -0.308502 -0.291277 0.512528
v -0.308502 -0.363361 0.512528
v -0.262094 -0.363361 0.512528
v -0.262094 -0.291277 0.512528
vt 0.402572 0.077524
vt 0.399904 0
vt 0.399904 0.077524
vt 0.402572 0.002668
vt 0.439688 0.039784
vt 0.441653 0
vt 0.439688 0.002668
vt 0.439688 0.077524
vt 0.400141 0.000237
vt 0.072079 0.280882
vt 0.034963 0.305849
vt 0.072079 0.305849
vt 0.441568 0.041664
vt 0.034963 0.280882
vt 0.032295 0.303884
vt 0.400141 0.077524
vt 0.032295 0.280882
vt 0.073959 0.303969
vt 0.441568 0.077524
vt 0.400824 0.00092
vt 0.441416 0.000237
vt 0.073959 0.280882
vt 0.400824 0.077524
vt 0.032532 0.280882
vt 0.032532 0.304121
vt 0.401869 0.001965
vt 0.440733 0.00092
vt 0.033215 0.280882
vt 0.464654 0.077524
vt 0.464654 0.041664
vt 0.401869 0.077524
vt 0.439688 0.001965
vt 0.033215 0.304803
vt 0.03426 0.280882
vt 0.03426 0.305849
vn -0.965925849201117 0 -0.2588189595935754
vn -0.9914448886106773 0 -0.1305259853353411
vn -0.9961802244190083 0 0.08732101967163788
vn 0 0 -1
vn 0 -0.9659258492011171 -0.2588189595935757
vn 0 -0.9914448886106773 -0.13052598533534132
vn 0 -0.9961802244190083 0.08732101967163766
vn -0.9394649613645042 0 0.3426449859087252
vn 0.906307925325668 0 -0.42261796517881683
vn 0 -0.9394649613645043 0.342644985908725
vn 0 0.9063079253256678 -0.4226179651788165
vn -0.7651888579208939 0 0.6438058804591009
vn 1 0 0
vn 0 -0.7651888579208941 0.6438058804591008
vn 0 1 0
vn -0.6415130802811972 0 0.7671120959990987
vn 0 -0.6415130802811975 0.7671120959990986
vn 0 0 1
vn 0.906307925325668 0 0.42261796517881683
vn 0.9762959252079247 0 0.2164399834189664
vn 0 0.9063079253256678 0.42261796517881706
vn 0 0.9762959252079247 0.2164399834189666
vn 0.9914448886106773 0 0.1305259853353411
vn 0.965925849201117 0 0.2588189595935754
vn 0.9961802244190083 0 -0.08732101967163788
vn 0 0.9914448886106773 0.13052598533534132
vn 0 0.9659258492011171 0.2588189595935757
vn 0 0.9961802244190083 -0.08732101967163766
vn 0.9394649613645042 0 -0.3426449859087252
vn -0.906307925325668 0 0.42261796517881683
vn 0 0.9394649613645043 -0.342644985908725
vn 0 -0.9063079253256678 0.4226179651788165
vn 0.7651888579208939 0 -0.6438058804591009
vn -1 0 0
vn 0 0.7651888579208941 -0.6438058804591008
vn 0 -1 0
vn 0.6415130802811972 0 -0.7671120959990987
vn 0 0.6415130802811975 -0.7671120959990986
vn -0.906307925325668 0 -0.42261796517881683
vn -0.9762959252079247 0 -0.2164399834189664
vn 0 -0.9063079253256678 -0.42261796517881706
vn 0 -0.9762959252079247 -0.2164399834189666
usemtl material_0_0
f 1/1/1 2/2/2 3/3/2
f 2/2/2 1/1/1 4/4/1
f 5/2/3 3/3/2 2/2/2
f 6/5/4 4/4/4 1/1/4
f 4/4/5 7/6/6 2/2/6
f 3/3/2 5/2/3 8/3/3
f 7/6/6 5/2/7 2/2/6
f 4/4/4 6/5/4 9/7/4
f 6/5/4 1/1/4 10/8/4
f 7/6/6 4/4/5 9/7/5
f 11/9/8 8/3/3 5/2/3
f 5/2/7 7/6/6 12/6/7
f 13/10/4 9/11/4 6/12/4
f 10/8/9 14/13/9 6/5/9
f 15/14/5 7/15/6 9/11/5
f 8/3/3 11/9/8 16/16/8
f 12/6/7 11/9/10 5/2/7
f 17/17/6 12/15/7 7/15/6
f 9/11/4 13/10/4 15/14/4
f 14/18/11 13/10/11 6/12/11
f 14/13/9 10/8/9 18/19/9
f 7/15/6 15/14/5 17/17/6
f 19/20/12 16/16/8 11/9/8
f 11/9/10 12/6/7 20/21/10
f 12/15/7 17/17/6 21/17/7
f 13/10/11 14/18/11 22/22/11
f 18/19/13 23/13/13 14/13/13
f 16/16/8 19/20/12 24/23/12
f 20/21/10 19/20/14 11/9/10
f 12/15/7 25/24/10 20/25/10
f 25/24/10 12/15/7 21/17/7
f 14/18/15 26/22/15 22/22/15
f 23/13/13 18/19/13 27/19/13
f 26/22/15 14/18/15 23/18/15
f 28/26/16 24/23/12 19/20/12
f 19/20/14 20/21/10 29/27/14
f 30/28/14 20/25/10 25/24/10
f 31/29/4 23/13/4 27/19/4
f 23/13/4 31/29/4 26/30/4
f 24/23/12 28/26/16 32/31/16
f 19/20/14 33/32/17 28/26/17
f 20/25/10 30/28/14 29/33/14
f 33/32/17 19/20/14 29/27/14
f 28/26/18 34/5/18 32/31/18
f 34/5/18 28/26/18 33/32/18
f 35/34/17 29/33/14 30/28/14
f 29/33/14 35/34/17 33/35/17
f 32/31/18 34/5/18 36/8/18
f 33/35/18 37/10/18 34/12/18
f 37/10/18 33/35/18 35/34/18
f 34/5/19 38/19/20 36/8/19
f 37/10/21 39/18/22 34/12/21
f 38/19/20 34/5/19 39/13/20
f 39/18/22 37/10/21 40/22/22
f 39/13/20 41/19/13 38/19/20
f 40/22/22 42/18/15 39/18/22
f 41/19/13 39/13/20 42/13/13
f 42/18/15 40/22/22 43/22/15
f 42/13/18 44/29/18 41/19/18
f 44/29/18 42/13/18 43/30/18
usemtl material_1_0
f 3//23 2//23 1//24
f 4//24 1//24 2//23
f 2//23 3//23 5//25
f 1//18 4//18 6//18
f 2//26 7//26 4//27
f 8//25 5//25 3//23
f 2//26 5//28 7//26
f 9//18 6//18 4//18
f 10//18 1//18 6//18
f 9//27 4//27 7//26
f 5//25 8//25 11//29
f 12//28 7//26 5//28
f 6//18 9//18 13//18
f 6//30 14//30 10//30
f 9//27 7//26 15//27
f 16//29 11//29 8//25
f 5//28 11//31 12//28
f 7//26 12//28 17//26
f 15//18 13//18 9//18
f 6//32 13//32 14//32
f 18//30 10//30 14//30
f 17//26 15//27 7//26
f 11//29 16//29 19//33
f 20//31 12//28 11//31
f 21//28 17//26 12//28
f 22//32 14//32 13//32
f 14//34 23//34 18//34
f 24//33 19//33 16//29
f 11//31 19//35 20//31
f 20//31 25//31 12//28
f 21//28 12//28 25//31
f 22//36 26//36 14//36
f 27//34 18//34 23//34
f 23//36 14//36 26//36
f 19//33 24//33 28//37
f 29//35 20//31 19//35
f 25//31 20//31 30//35
f 27//18 23//18 31//18
f 26//18 31//18 23//18
f 32//37 28//37 24//33
f 28//38 33//38 19//35
f 29//35 30//35 20//31
f 29//35 19//35 33//38
f 32//4 34//4 28//4
f 33//4 28//4 34//4
f 30//35 29//35 35//38
f 33//38 35//38 29//35
f 36//4 34//4 32//4
f 34//4 37//4 33//4
f 35//4 33//4 37//4
f 36//39 38//40 34//39
f 34//41 39//42 37//41
f 39//40 34//39 38//40
f 40//42 37//41 39//42
f 38//40 41//34 39//40
f 39//42 42//36 40//42
f 42//34 39//40 41//34
f 43//36 40//42 42//36
f 41//4 44//4 42//4
f 43//4 42//4 44//4
