# SSTK version 0.8.0
# 27
mtllib original-27.mtl
o DF_12_BR1/DF_12_BR/mesh20/mesh20-geometry#mesh20-geometry
v 0.409955 0.478162 0.524275
v 0.349183 0.502053 0.524275
v 0.349183 0.478162 0.524275
v 0.409955 0.502053 0.524275
v 0.412057 0.476060 0.522517
v 0.412057 0.502053 0.522517
v 0.349183 0.476060 0.522517
v 0.413429 0.474688 0.520146
v 0.349183 0.474688 0.520146
v 0.413429 0.502053 0.520146
v 0.413905 0.474212 0.517448
v 0.349183 0.474212 0.517448
v 0.413905 0.502053 0.517448
v 0.413905 0.474212 0.512884
v 0.349183 0.474212 0.512884
v 0.413905 0.502053 0.512884
v 0.408542 0.479575 0.492866
v 0.349183 0.479575 0.492866
v 0.408542 0.502053 0.492866
v 0.349183 0.502053 0.492866
vt 0.540401 0.130314
vt 0.552286 0.160546
vt 0.540401 0.160546
vt 0.552286 0.130314
vt 0.539356 0.129269
vt 0.552286 0.129269
vt 0.539356 0.160546
vt 0.538673 0.128586
vt 0.538673 0.160546
vt 0.552286 0.128586
vt 0.538436 0.128349
vt 0.538436 0.160546
vt 0.552286 0.128349
vt 0.541104 0.131017
vt 0.541104 0.160546
vt 0.552286 0.131017
vn 0 0 1
vn 0 -0.6415130802811975 0.7671120959990986
vn 0 -0.7651888579208941 0.6438058804591008
vn 0.6415130802811972 0 0.7671120959990987
vn 0.7651888579208939 0 0.6438058804591009
vn 0 -0.9394649613645043 0.342644985908725
vn 0.9394649613645042 0 0.3426449859087252
vn 0 -0.9961802244190083 0.08732101967163766
vn 0.9961802244190083 0 0.08732101967163788
vn 0 -0.9914448886106773 -0.13052598533534132
vn 0.9914448886106773 0 -0.1305259853353411
vn 0 -0.9659258492011171 -0.2588189595935757
vn 0.965925849201117 0 -0.2588189595935754
vn 0 0 -1
vn 0 0.6415130802811975 -0.7671120959990986
vn 0 0.7651888579208941 -0.6438058804591008
vn -0.6415130802811972 0 -0.7671120959990987
vn -0.7651888579208939 0 -0.6438058804591009
vn 0 0.9394649613645043 -0.342644985908725
vn -0.9394649613645042 0 -0.3426449859087252
vn 0 0.9961802244190083 -0.08732101967163766
vn -0.9961802244190083 0 -0.08732101967163788
vn 0 0.9914448886106773 0.13052598533534132
vn -0.9914448886106773 0 0.1305259853353411
vn 0 0.9659258492011171 0.2588189595935757
vn -0.965925849201117 0 0.2588189595935754
usemtl material_0_0
f 1/1/1 2/2/1 3/3/1
f 2/2/1 1/1/1 4/4/1
f 3/3/2 5/5/3 1/1/2
f 1/1/4 6/6/5 4/4/4
f 5/5/3 3/3/2 7/7/3
f 6/6/5 1/1/4 5/5/5
f 7/7/3 8/8/6 5/5/3
f 8/8/7 6/6/5 5/5/5
f 8/8/6 7/7/3 9/9/6
f 6/6/5 8/8/7 10/10/7
f 9/9/6 11/11/8 8/8/6
f 11/11/9 10/10/7 8/8/7
f 11/11/8 9/9/6 12/12/8
f 10/10/7 11/11/9 13/13/9
f 12/12/8 14/11/10 11/11/8
f 14/11/11 13/13/9 11/11/9
f 14/11/10 12/12/8 15/12/10
f 13/13/9 14/11/11 16/13/11
f 15/12/10 17/14/12 14/11/10
f 17/14/13 16/13/11 14/11/11
f 17/14/12 15/12/10 18/15/12
f 16/13/11 17/14/13 19/16/13
f 20/2/14 17/14/14 18/15/14
f 17/14/14 20/2/14 19/16/14
usemtl material_1_0
f 3//14 2//14 1//14
f 4//14 1//14 2//14
f 1//15 5//16 3//15
f 4//17 6//18 1//17
f 7//16 3//15 5//16
f 5//18 1//17 6//18
f 5//16 8//19 7//16
f 5//18 6//18 8//20
f 9//19 7//16 8//19
f 10//20 8//20 6//18
f 8//19 11//21 9//19
f 8//20 10//20 11//22
f 12//21 9//19 11//21
f 13//22 11//22 10//20
f 11//21 14//23 12//21
f 11//22 13//22 14//24
f 15//23 12//21 14//23
f 16//24 14//24 13//22
f 14//23 17//25 15//23
f 14//24 16//24 17//26
f 18//25 15//23 17//25
f 19//26 17//26 16//24
f 18//1 17//1 20//1
f 19//1 20//1 17//1
