# SSTK version 0.8.0
# 40
mtllib original-40.mtl
o RT_11_BR1/RT_11_BR/mesh31/mesh31-geometry#mesh31-geometry
v 0.330154 -0.291277 0.512528
v 0.330154 -0.363361 0.516169
v 0.330154 -0.291277 0.516169
v 0.330154 -0.363361 0.512528
v 0.333934 -0.367140 0.524275
v 0.283747 -0.291277 0.512528
v 0.283747 -0.363361 0.512528
v 0.333934 -0.291277 0.524275
v 0.283747 -0.363361 0.516169
v 0.409955 -0.291277 0.524275
v 0.283747 -0.367140 0.524275
v 0.333934 -0.443162 0.524275
v 0.283747 -0.443162 0.524275
v 0.409955 -0.443162 0.524275
v 0.412057 -0.445263 0.522517
v 0.412057 -0.291277 0.522517
v 0.283747 -0.445263 0.522517
v 0.331832 -0.445263 0.522517
v 0.413429 -0.446635 0.520146
v 0.413429 -0.291277 0.520146
v 0.330460 -0.446635 0.520146
v 0.283747 -0.446635 0.520146
v 0.413905 -0.447112 0.517448
v 0.413905 -0.291277 0.517448
v 0.329984 -0.447112 0.517448
v 0.283747 -0.447112 0.517448
v 0.413905 -0.447112 0.512884
v 0.413905 -0.291277 0.512884
v 0.329984 -0.447112 0.512884
v 0.283747 -0.447112 0.512884
v 0.333934 -0.441748 0.492866
v 0.408542 -0.291277 0.492866
v 0.408542 -0.441748 0.492866
v 0.283747 -0.441748 0.492866
v 0.333934 -0.367140 0.492866
v 0.283747 -0.367140 0.492866
v 0.333934 -0.291277 0.492866
v 0.330154 -0.363361 0.500971
v 0.283747 -0.363361 0.500971
v 0.330154 -0.291277 0.500971
v 0.330154 -0.363361 0.504613
v 0.283747 -0.363361 0.504613
v 0.330154 -0.291277 0.504613
v 0.283747 -0.291277 0.504613
vt 0.698084 0.077524
vt 0.698084 0.041664
vt 0.699964 0.039784
vt 0.674997 0.077524
vt 0.073959 0.070539
vt 0.073959 0.047453
vt 0.699964 0.077524
vt 0.072079 0.045573
vt 0.674997 0.041664
vt 0.737783 0.077524
vt 0.072079 0.070539
vt 0.699964 0.001965
vt 0.03426 0.070539
vt 0.737783 0.001965
vt 0.03426 0.045573
vt 0.738828 0.00092
vt 0.738828 0.077524
vt 0.033215 0.070539
vt 0.698918 0.00092
vt 0.033215 0.046618
vt 0.739511 0.000237
vt 0.739511 0.077524
vt 0.032532 0.047301
vt 0.698236 0.000237
vt 0.032532 0.070539
vt 0.739748 0
vt 0.739748 0.077524
vt 0.032295 0.047538
vt 0.697999 0
vt 0.032295 0.070539
vt 0.699964 0.002668
vt 0.737079 0.077524
vt 0.034963 0.045573
vt 0.737079 0.002668
vt 0.034963 0.070539
vn -1 0 0
vn -0.9762959252079247 0 0.2164399834189664
vn -0.906307925325668 0 0.42261796517881683
vn 0 0 1
vn 0 1 0
vn 0 0.9762959252079247 0.2164399834189666
vn 0 0.9063079253256678 0.42261796517881706
vn 0 -0.6415130802811975 0.7671120959990986
vn 0 -0.7651888579208941 0.6438058804591008
vn 0.6415130802811972 0 0.7671120959990987
vn 0.7651888579208939 0 0.6438058804591009
vn 0 -0.9394649613645043 0.342644985908725
vn 0.9394649613645042 0 0.3426449859087252
vn 0 -0.9961802244190083 0.08732101967163766
vn 0.9961802244190083 0 0.08732101967163788
vn 0 -0.9914448886106773 -0.13052598533534132
vn 0.9914448886106773 0 -0.1305259853353411
vn 0 -0.9659258492011171 -0.2588189595935757
vn 0.965925849201117 0 -0.2588189595935754
vn 0 0 -1
vn 0 0.9063079253256678 -0.4226179651788165
vn -0.906307925325668 0 -0.42261796517881683
vn 0.9762959252079247 0 -0.2164399834189664
vn 1 0 0
vn 0.906307925325668 0 -0.42261796517881683
vn 0 -1 0
vn 0 -0.9762959252079247 -0.2164399834189666
vn 0 -0.9063079253256678 -0.42261796517881706
vn 0 0.6415130802811975 -0.7671120959990986
vn 0 0.7651888579208941 -0.6438058804591008
vn -0.6415130802811972 0 -0.7671120959990987
vn -0.7651888579208939 0 -0.6438058804591009
vn 0 0.9394649613645043 -0.342644985908725
vn -0.9394649613645042 0 -0.3426449859087252
vn 0 0.9961802244190083 -0.08732101967163766
vn -0.9961802244190083 0 -0.08732101967163788
vn 0 0.9914448886106773 0.13052598533534132
vn -0.9914448886106773 0 0.1305259853353411
vn 0 0.9659258492011171 0.2588189595935757
vn -0.965925849201117 0 0.2588189595935754
vn 0 -0.9063079253256678 0.4226179651788165
vn 0.906307925325668 0 0.42261796517881683
usemtl material_0_0
f 1/1/1 2/2/2 3/1/2
f 2/2/2 1/1/1 4/2/1
f 5/3/3 3/1/2 2/2/2
f 6/4/4 4/2/4 1/1/4
f 7/5/5 2/6/6 4/6/5
f 3/1/2 5/3/3 8/7/3
f 9/5/6 5/8/7 2/6/6
f 4/2/4 6/4/4 7/9/4
f 2/6/6 7/5/5 9/5/6
f 5/3/4 10/10/4 8/7/4
f 5/8/7 9/5/6 11/11/7
f 12/12/4 10/10/4 5/3/4
f 13/13/4 5/8/4 11/11/4
f 10/10/4 12/12/4 14/14/4
f 5/8/4 13/13/4 12/15/4
f 12/12/8 15/16/9 14/14/8
f 14/14/10 16/17/11 10/10/10
f 17/18/9 12/15/8 13/13/8
f 15/16/9 12/12/8 18/19/9
f 16/17/11 14/14/10 15/16/11
f 12/15/8 17/18/9 18/20/9
f 18/19/9 19/21/12 15/16/9
f 15/16/11 20/22/13 16/17/11
f 17/18/9 21/23/12 18/20/9
f 19/21/12 18/19/9 21/24/12
f 20/22/13 15/16/11 19/21/13
f 21/23/12 17/18/9 22/25/12
f 21/24/12 23/26/14 19/21/12
f 19/21/13 24/27/15 20/22/13
f 22/25/12 25/28/14 21/23/12
f 23/26/14 21/24/12 25/29/14
f 24/27/15 19/21/13 23/26/15
f 25/28/14 22/25/12 26/30/14
f 25/29/14 27/26/16 23/26/14
f 23/26/15 28/27/17 24/27/15
f 26/30/14 29/28/16 25/28/14
f 27/26/16 25/29/14 29/29/16
f 28/27/17 23/26/15 27/26/17
f 29/28/16 26/30/14 30/30/16
f 31/31/18 27/26/16 29/29/16
f 27/26/17 32/32/19 28/27/17
f 30/30/16 31/33/18 29/28/16
f 27/26/16 31/31/18 33/34/18
f 32/32/19 27/26/17 33/34/19
f 31/33/18 30/30/16 34/35/18
f 31/31/20 32/32/20 33/34/20
f 34/35/20 35/8/20 31/33/20
f 32/32/20 31/31/20 35/3/20
f 35/8/20 34/35/20 36/11/20
f 32/32/20 35/3/20 37/7/20
f 36/11/21 38/6/21 35/8/21
f 38/2/22 37/7/22 35/3/22
f 38/6/21 36/11/21 39/5/21
f 37/7/22 38/2/22 40/1/22
f 39/5/5 41/6/5 38/6/5
f 41/2/1 40/1/1 38/2/1
f 41/6/5 39/5/5 42/5/5
f 40/1/1 41/2/1 43/1/1
f 44/4/20 41/2/20 42/9/20
f 41/2/20 44/4/20 43/1/20
usemtl material_1_0
f 3//23 2//23 1//24
f 4//24 1//24 2//23
f 2//23 3//23 5//25
f 1//20 4//20 6//20
f 4//26 2//27 7//26
f 8//25 5//25 3//23
f 2//27 5//28 9//27
f 7//20 6//20 4//20
f 9//27 7//26 2//27
f 8//20 10//20 5//20
f 11//28 9//27 5//28
f 5//20 10//20 12//20
f 11//20 5//20 13//20
f 14//20 12//20 10//20
f 12//20 13//20 5//20
f 14//29 15//30 12//29
f 10//31 16//32 14//31
f 13//29 12//29 17//30
f 18//30 12//29 15//30
f 15//32 14//31 16//32
f 18//30 17//30 12//29
f 15//30 19//33 18//30
f 16//32 20//34 15//32
f 18//30 21//33 17//30
f 21//33 18//30 19//33
f 19//34 15//32 20//34
f 22//33 17//30 21//33
f 19//33 23//35 21//33
f 20//34 24//36 19//34
f 21//33 25//35 22//33
f 25//35 21//33 23//35
f 23//36 19//34 24//36
f 26//35 22//33 25//35
f 23//35 27//37 25//35
f 24//36 28//38 23//36
f 25//35 29//37 26//35
f 29//37 25//35 27//37
f 27//38 23//36 28//38
f 30//37 26//35 29//37
f 29//37 27//37 31//39
f 28//38 32//40 27//38
f 29//37 31//39 30//37
f 33//39 31//39 27//37
f 33//40 27//38 32//40
f 34//39 30//37 31//39
f 33//4 32//4 31//4
f 31//4 35//4 34//4
f 35//4 31//4 32//4
f 36//4 34//4 35//4
f 37//4 35//4 32//4
f 35//41 38//41 36//41
f 35//42 37//42 38//42
f 39//41 36//41 38//41
f 40//42 38//42 37//42
f 38//26 41//26 39//26
f 38//24 40//24 41//24
f 42//26 39//26 41//26
f 43//24 41//24 40//24
f 42//4 41//4 44//4
f 43//4 44//4 41//4
