# SSTK version 0.8.0
# 44
mtllib original-44.mtl
o RT_11_CR1/RT_11_CR/mesh35/mesh35-geometry#mesh35-geometry
v 0.330154 0.297437 0.516169
v 0.330154 -0.291277 0.512528
v 0.330154 -0.291277 0.516169
v 0.330154 0.297437 0.512528
v 0.333934 -0.291277 0.524275
v 0.283747 0.297437 0.512528
v 0.333934 0.297437 0.524275
v 0.283747 -0.291277 0.512528
v 0.409955 0.297437 0.524275
v 0.409955 -0.291277 0.524275
v 0.412057 0.297437 0.522517
v 0.412057 -0.291277 0.522517
v 0.413429 -0.291277 0.520146
v 0.413429 0.297437 0.520146
v 0.413905 -0.291277 0.517448
v 0.413905 0.297437 0.517448
v 0.413905 0.297437 0.512884
v 0.413905 -0.291277 0.512884
v 0.408542 0.297437 0.492866
v 0.408542 -0.291277 0.492866
v 0.333934 0.297437 0.492866
v 0.333934 -0.291277 0.492866
v 0.330154 0.297437 0.500971
v 0.330154 -0.291277 0.500971
v 0.330154 0.297437 0.504613
v 0.330154 -0.291277 0.504613
v 0.283747 0.297437 0.504613
v 0.283747 -0.291277 0.504613
vt 0.698084 0.404247
vt 0.698084 0.077524
vt 0.699964 0.077524
vt 0.674997 0.404247
vt 0.699964 0.404247
vt 0.674997 0.077524
vt 0.737783 0.404247
vt 0.737783 0.077524
vt 0.738828 0.404247
vt 0.738828 0.077524
vt 0.739511 0.077524
vt 0.739511 0.404247
vt 0.739748 0.077524
vt 0.739748 0.404247
vt 0.737079 0.404247
vt 0.737079 0.077524
vn -0.9762959252079247 0 0.2164399834189664
vn -1 0 0
vn -0.906307925325668 0 0.42261796517881683
vn 0 0 1
vn 0.6415130802811972 0 0.7671120959990987
vn 0.7651888579208939 0 0.6438058804591009
vn 0.9394649613645042 0 0.3426449859087252
vn 0.9961802244190083 0 0.08732101967163788
vn 0.9914448886106773 0 -0.1305259853353411
vn 0.965925849201117 0 -0.2588189595935754
vn 0 0 -1
vn -0.906307925325668 0 -0.42261796517881683
vn 0.9762959252079247 0 -0.2164399834189664
vn 1 0 0
vn 0.906307925325668 0 -0.42261796517881683
vn -0.6415130802811972 0 -0.7671120959990987
vn -0.7651888579208939 0 -0.6438058804591009
vn -0.9394649613645042 0 -0.3426449859087252
vn -0.9961802244190083 0 -0.08732101967163788
vn -0.9914448886106773 0 0.1305259853353411
vn -0.965925849201117 0 0.2588189595935754
vn 0.906307925325668 0 0.42261796517881683
usemtl material_0_0
f 1/1/1 2/2/2 3/2/1
f 2/2/2 1/1/1 4/1/2
f 5/3/3 1/1/1 3/2/1
f 6/4/4 2/2/4 4/1/4
f 1/1/1 5/3/3 7/5/3
f 2/2/4 6/4/4 8/6/4
f 5/3/4 9/7/4 7/5/4
f 9/7/4 5/3/4 10/8/4
f 10/8/5 11/9/6 9/7/5
f 11/9/6 10/8/5 12/10/6
f 13/11/7 11/9/6 12/10/6
f 11/9/6 13/11/7 14/12/7
f 15/13/8 14/12/7 13/11/7
f 14/12/7 15/13/8 16/14/8
f 15/13/8 17/14/9 16/14/8
f 17/14/9 15/13/8 18/13/9
f 18/13/9 19/15/10 17/14/9
f 19/15/10 18/13/9 20/16/10
f 20/16/11 21/5/11 19/15/11
f 21/5/11 20/16/11 22/3/11
f 22/3/12 23/1/12 21/5/12
f 23/1/12 22/3/12 24/2/12
f 24/2/2 25/1/2 23/1/2
f 25/1/2 24/2/2 26/2/2
f 26/2/11 27/4/11 25/1/11
f 27/4/11 26/2/11 28/6/11
usemtl material_1_0
f 3//13 2//14 1//13
f 4//14 1//13 2//14
f 3//13 1//13 5//15
f 4//11 2//11 6//11
f 7//15 5//15 1//13
f 8//11 6//11 2//11
f 7//11 9//11 5//11
f 10//11 5//11 9//11
f 9//16 11//17 10//16
f 12//17 10//16 11//17
f 12//17 11//17 13//18
f 14//18 13//18 11//17
f 13//18 14//18 15//19
f 16//19 15//19 14//18
f 16//19 17//20 15//19
f 18//20 15//19 17//20
f 17//20 19//21 18//20
f 20//21 18//20 19//21
f 19//4 21//4 20//4
f 22//4 20//4 21//4
f 21//22 23//22 22//22
f 24//22 22//22 23//22
f 23//14 25//14 24//14
f 26//14 24//14 25//14
f 25//4 27//4 26//4
f 28//4 26//4 27//4
