# SSTK version 0.8.0
# 38
mtllib original-38.mtl
o RT_11_TR1/RT_11_TR/mesh29/mesh29-geometry#mesh29-geometry
v 0.413905 0.297437 0.517448
v 0.413429 0.452796 0.520146
v 0.413429 0.297437 0.520146
v 0.413905 0.453272 0.517448
v 0.412057 0.451424 0.522517
v 0.413905 0.297437 0.512884
v 0.330460 0.452796 0.520146
v 0.412057 0.297437 0.522517
v 0.331832 0.451424 0.522517
v 0.413905 0.453272 0.512884
v 0.329984 0.453272 0.517448
v 0.409955 0.297437 0.524275
v 0.333934 0.449322 0.524275
v 0.408542 0.297437 0.492866
v 0.329984 0.453272 0.512884
v 0.283747 0.453272 0.517448
v 0.283747 0.452796 0.520146
v 0.409955 0.449322 0.524275
v 0.283747 0.449322 0.524275
v 0.408542 0.447909 0.492866
v 0.333934 0.447909 0.492866
v 0.283747 0.453272 0.512884
v 0.283747 0.451424 0.522517
v 0.333934 0.297437 0.524275
v 0.333934 0.373301 0.524275
v 0.333934 0.373301 0.492866
v 0.283747 0.447909 0.492866
v 0.283747 0.373301 0.524275
v 0.333934 0.297437 0.492866
v 0.330154 0.297437 0.516169
v 0.330154 0.369521 0.516169
v 0.330154 0.369521 0.500971
v 0.283747 0.373301 0.492866
v 0.283747 0.369521 0.516169
v 0.330154 0.297437 0.500971
v 0.283747 0.369521 0.500971
v 0.330154 0.297437 0.512528
v 0.330154 0.369521 0.512528
v 0.330154 0.369521 0.504613
v 0.283747 0.369521 0.504613
v 0.283747 0.369521 0.512528
v 0.330154 0.297437 0.504613
v 0.283747 0.297437 0.512528
v 0.283747 0.297437 0.504613
vt 0.739748 0.404247
vt 0.739511 0.481534
vt 0.739511 0.404247
vt 0.739748 0.481771
vt 0.738828 0.480851
vt 0.698236 0.481534
vt 0.738828 0.404247
vt 0.698918 0.480851
vt 0.697999 0.481771
vt 0.737783 0.404247
vt 0.699964 0.479806
vt 0.737079 0.404247
vt 0.514066 0.070539
vt 0.513829 0.047301
vt 0.514066 0.047538
vt 0.513829 0.070539
vt 0.513146 0.046618
vt 0.737783 0.479806
vt 0.512101 0.070539
vt 0.512101 0.045573
vt 0.737079 0.479103
vt 0.699964 0.479103
vt 0.513146 0.070539
vt 0.699964 0.404247
vt 0.699964 0.441987
vt 0.474282 0.045573
vt 0.511397 0.070539
vt 0.511397 0.045573
vt 0.474282 0.070539
vt 0.698084 0.404247
vt 0.472402 0.047453
vt 0.698084 0.440107
vt 0.472402 0.070539
vt 0.674997 0.404247
vt 0.674997 0.440107
vn 0.9961802244190083 0 0.08732101967163788
vn 0.9394649613645042 0 0.3426449859087252
vn 0.7651888579208939 0 0.6438058804591009
vn 0.9914448886106773 0 -0.1305259853353411
vn 0 0.9961802244190081 0.08732101967163808
vn 0 0.9394649613645041 0.34264498590872544
vn 0 0.7651888579208938 0.6438058804591011
vn 0.6415130802811972 0 0.7671120959990987
vn 0 0.641513080281197 0.7671120959990988
vn 0.965925849201117 0 -0.2588189595935754
vn 0 0.9914448886106773 -0.13052598533534088
vn 0 0.9659258492011171 -0.2588189595935752
vn 0 0 1
vn 0 0 -1
vn -0.906307925325668 0 0.42261796517881683
vn -0.9762959252079247 0 0.2164399834189664
vn 0 -0.9063079253256678 0.4226179651788165
vn 0 -0.9762959252079247 0.21643998341896617
vn -0.906307925325668 0 -0.42261796517881683
vn 0 -0.9063079253256678 -0.42261796517881706
vn -1 0 0
vn 0 -1 0
vn -0.9394649613645042 0 -0.3426449859087252
vn -0.9961802244190083 0 -0.08732101967163788
vn -0.7651888579208939 0 -0.6438058804591009
vn -0.9914448886106773 0 0.1305259853353411
vn 0 -0.9394649613645041 -0.34264498590872544
vn 0 -0.9961802244190081 -0.08732101967163808
vn 0 -0.7651888579208938 -0.6438058804591011
vn -0.6415130802811972 0 -0.7671120959990987
vn 0 -0.641513080281197 -0.7671120959990988
vn -0.965925849201117 0 0.2588189595935754
vn 0 -0.9914448886106773 0.13052598533534088
vn 0 -0.9659258492011171 0.2588189595935752
vn 0.906307925325668 0 -0.42261796517881683
vn 0.9762959252079247 0 -0.2164399834189664
vn 0 0.9063079253256678 -0.4226179651788165
vn 0 0.9762959252079247 -0.21643998341896617
vn 0.906307925325668 0 0.42261796517881683
vn 0 0.9063079253256678 0.42261796517881706
vn 1 0 0
vn 0 1 0
usemtl material_0_0
f 1/1/1 2/2/2 3/3/2
f 2/2/2 1/1/1 4/4/1
f 5/5/3 3/3/2 2/2/2
f 6/1/4 4/4/1 1/1/1
f 4/4/5 7/6/6 2/2/6
f 3/3/2 5/5/3 8/7/3
f 2/2/6 9/8/7 5/5/7
f 4/4/1 6/1/4 10/4/4
f 7/6/6 4/4/5 11/9/5
f 9/8/7 2/2/6 7/6/6
f 5/5/3 12/10/8 8/7/3
f 13/11/9 5/5/7 9/8/7
f 14/12/10 10/4/4 6/1/4
f 15/9/11 4/4/5 10/4/11
f 4/4/5 15/9/11 11/9/5
f 16/13/5 7/14/6 11/15/5
f 17/16/6 9/17/7 7/14/6
f 12/10/8 5/5/3 18/18/8
f 5/5/7 13/11/9 18/18/9
f 9/17/7 19/19/9 13/20/9
f 10/4/4 14/12/10 20/21/10
f 10/4/11 21/22/12 15/9/11
f 22/13/11 11/15/5 15/15/11
f 7/14/6 16/13/5 17/16/6
f 11/15/5 22/13/11 16/13/5
f 9/17/7 17/16/6 23/23/7
f 18/18/13 24/24/13 12/10/13
f 25/25/13 18/18/13 13/11/13
f 19/19/9 9/17/7 23/23/7
f 19/19/13 25/26/13 13/20/13
f 14/12/14 26/25/14 20/21/14
f 21/22/12 10/4/11 20/21/12
f 27/27/12 15/15/11 21/28/12
f 15/15/11 27/27/12 22/13/11
f 24/24/13 18/18/13 25/25/13
f 25/26/13 19/19/13 28/29/13
f 26/25/14 14/12/14 29/24/14
f 20/21/14 26/25/14 21/22/14
f 26/26/14 27/27/14 21/28/14
f 25/25/15 30/30/16 24/24/15
f 28/29/17 31/31/18 25/26/17
f 29/24/19 32/32/19 26/25/19
f 27/27/14 26/26/14 33/29/14
f 30/30/16 25/25/15 31/32/16
f 31/31/18 28/29/17 34/33/18
f 32/32/19 29/24/19 35/30/19
f 36/33/20 26/26/20 32/31/20
f 26/26/20 36/33/20 33/29/20
f 31/32/16 37/30/21 30/30/16
f 34/33/18 38/31/22 31/31/18
f 35/30/21 39/32/21 32/32/21
f 32/31/22 40/33/22 36/33/22
f 37/30/21 31/32/16 38/32/21
f 38/31/22 34/33/18 41/33/22
f 39/32/21 35/30/21 42/30/21
f 40/33/22 32/31/22 39/31/22
f 38/32/13 43/34/13 37/30/13
f 43/34/13 38/32/13 41/35/13
f 42/30/14 40/35/14 39/32/14
f 40/35/14 42/30/14 44/34/14
usemtl material_1_0
f 3//23 2//23 1//24
f 4//24 1//24 2//23
f 2//23 3//23 5//25
f 1//24 4//24 6//26
f 2//27 7//27 4//28
f 8//25 5//25 3//23
f 5//29 9//29 2//27
f 10//26 6//26 4//24
f 11//28 4//28 7//27
f 7//27 2//27 9//29
f 8//25 12//30 5//25
f 9//29 5//29 13//31
f 6//26 10//26 14//32
f 10//33 4//28 15//33
f 11//28 15//33 4//28
f 11//28 7//27 16//28
f 7//27 9//29 17//27
f 18//30 5//25 12//30
f 18//31 13//31 5//29
f 13//31 19//31 9//29
f 20//32 14//32 10//26
f 15//33 21//34 10//33
f 15//33 11//28 22//33
f 17//27 16//28 7//27
f 16//28 22//33 11//28
f 23//29 17//27 9//29
f 12//14 24//14 18//14
f 13//14 18//14 25//14
f 23//29 9//29 19//31
f 13//14 25//14 19//14
f 20//13 26//13 14//13
f 20//34 10//33 21//34
f 21//34 15//33 27//34
f 22//33 27//34 15//33
f 25//14 18//14 24//14
f 28//14 19//14 25//14
f 29//13 14//13 26//13
f 21//13 26//13 20//13
f 21//13 27//13 26//13
f 24//35 30//36 25//35
f 25//37 31//38 28//37
f 26//39 32//39 29//39
f 33//13 26//13 27//13
f 31//36 25//35 30//36
f 34//38 28//37 31//38
f 35//39 29//39 32//39
f 32//40 26//40 36//40
f 33//40 36//40 26//40
f 30//36 37//41 31//36
f 31//38 38//42 34//38
f 32//41 39//41 35//41
f 36//42 40//42 32//42
f 38//41 31//36 37//41
f 41//42 34//38 38//42
f 42//41 35//41 39//41
f 39//42 32//42 40//42
f 37//14 43//14 38//14
f 41//14 38//14 43//14
f 39//13 40//13 42//13
f 44//13 42//13 40//13
