# SSTK version 0.8.0
# 25
mtllib original-25.mtl
o DF_12_TL1/DF_12_TL/mesh18/mesh18-geometry#mesh18-geometry
v -0.392253 0.725482 0.517448
v -0.391776 0.697640 0.520146
v -0.391776 0.725005 0.520146
v -0.392253 0.697640 0.517448
v -0.390404 0.697640 0.522517
v -0.327531 0.725482 0.517448
v -0.392253 0.725482 0.512884
v -0.390404 0.723633 0.522517
v -0.327531 0.725005 0.520146
v -0.392253 0.697640 0.512884
v -0.388303 0.721531 0.524275
v -0.327531 0.725482 0.512884
v -0.386889 0.720118 0.492866
v -0.388303 0.697640 0.524275
v -0.327531 0.723633 0.522517
v -0.386889 0.697640 0.492866
v -0.327531 0.721531 0.524275
v -0.327531 0.720118 0.492866
v -0.327531 0.697640 0.492866
v -0.327531 0.697640 0.524275
vt 0.66604 0.745536
vt 0.65219 0.745299
vt 0.665803 0.745299
vt 0.65219 0.745536
vt 0.65219 0.744617
vt 0.66604 0.713339
vt 0.665121 0.744617
vt 0.665803 0.713339
vt 0.664075 0.743571
vt 0.663372 0.742868
vt 0.65219 0.743571
vt 0.665121 0.713339
vt 0.65219 0.742868
vt 0.664075 0.713339
vt 0.663372 0.713339
vt 0.65219 0.713339
vn -0.9961802244190083 0 0.08732101967163788
vn -0.9394649613645042 0 0.3426449859087252
vn -0.7651888579208939 0 0.6438058804591009
vn 0 0.9394649613645041 0.34264498590872544
vn 0 0.9961802244190081 0.08732101967163808
vn -0.9914448886106773 0 -0.1305259853353411
vn 0 0.9914448886106773 -0.13052598533534088
vn -0.6415130802811972 0 0.7671120959990987
vn 0 0.7651888579208938 0.6438058804591011
vn -0.965925849201117 0 -0.2588189595935754
vn 0 0.641513080281197 0.7671120959990988
vn 0 0.9659258492011171 -0.2588189595935752
vn 0 0 1
vn 0 0 -1
vn 0.9394649613645042 0 -0.3426449859087252
vn 0.9961802244190083 0 -0.08732101967163788
vn 0.7651888579208939 0 -0.6438058804591009
vn 0 -0.9961802244190081 -0.08732101967163808
vn 0 -0.9394649613645041 -0.34264498590872544
vn 0.9914448886106773 0 0.1305259853353411
vn 0 -0.9914448886106773 0.13052598533534088
vn 0.6415130802811972 0 -0.7671120959990987
vn 0 -0.7651888579208938 -0.6438058804591011
vn 0.965925849201117 0 0.2588189595935754
vn 0 -0.641513080281197 -0.7671120959990988
vn 0 -0.9659258492011171 0.2588189595935752
usemtl material_0_0
f 1/1/1 2/2/2 3/3/2
f 2/2/2 1/1/1 4/4/1
f 5/5/3 3/3/2 2/2/2
f 3/3/4 6/6/5 1/1/5
f 7/1/6 4/4/1 1/1/1
f 3/3/2 5/5/3 8/7/3
f 6/6/5 3/3/4 9/8/4
f 6/6/5 7/1/7 1/1/5
f 4/4/1 7/1/6 10/4/6
f 5/5/3 11/9/8 8/7/3
f 8/7/9 9/8/4 3/3/4
f 7/1/7 6/6/5 12/6/7
f 13/10/10 10/4/6 7/1/6
f 11/9/8 5/5/3 14/11/8
f 11/9/11 15/12/9 8/7/9
f 9/8/4 8/7/9 15/12/9
f 12/6/7 13/10/12 7/1/7
f 10/4/6 13/10/10 16/13/10
f 14/11/13 17/14/13 11/9/13
f 15/12/9 11/9/11 17/14/11
f 13/10/12 12/6/7 18/15/12
f 13/10/14 19/16/14 16/13/14
f 17/14/13 14/11/13 20/16/13
f 19/16/14 13/10/14 18/15/14
usemtl material_1_0
f 3//15 2//15 1//16
f 4//16 1//16 2//15
f 2//15 3//15 5//17
f 1//18 6//18 3//19
f 1//16 4//16 7//20
f 8//17 5//17 3//15
f 9//19 3//19 6//18
f 1//18 7//21 6//18
f 10//20 7//20 4//16
f 8//17 11//22 5//17
f 3//19 9//19 8//23
f 12//21 6//18 7//21
f 7//20 10//20 13//24
f 14//22 5//17 11//22
f 8//23 15//23 11//25
f 15//23 8//23 9//19
f 7//21 13//26 12//21
f 16//24 13//24 10//20
f 11//14 17//14 14//14
f 17//25 11//25 15//23
f 18//26 12//21 13//26
f 16//13 19//13 13//13
f 20//14 14//14 17//14
f 18//13 13//13 19//13
