# SSTK version 0.8.0
# 26
mtllib original-26.mtl
o DF_12_TR1/DF_12_TR/mesh19/mesh19-geometry#mesh19-geometry
v 0.413905 0.697640 0.512884
v 0.413905 0.725482 0.517448
v 0.413905 0.697640 0.517448
v 0.413905 0.725482 0.512884
v 0.413429 0.725005 0.520146
v 0.408542 0.697640 0.492866
v 0.349183 0.725482 0.512884
v 0.413429 0.697640 0.520146
v 0.349183 0.725482 0.517448
v 0.408542 0.720118 0.492866
v 0.349183 0.720118 0.492866
v 0.412057 0.723633 0.522517
v 0.349183 0.725005 0.520146
v 0.412057 0.697640 0.522517
v 0.349183 0.697640 0.492866
v 0.409955 0.697640 0.524275
v 0.349183 0.723633 0.522517
v 0.409955 0.721531 0.524275
v 0.349183 0.721531 0.524275
v 0.349183 0.697640 0.524275
vt 0.65219 0.128349
vt 0.66604 0.128349
vt 0.665803 0.128586
vt 0.65219 0.131017
vt 0.66604 0.160546
vt 0.65219 0.128586
vt 0.663372 0.131017
vt 0.663372 0.160546
vt 0.66512 0.129269
vt 0.665803 0.160546
vt 0.65219 0.129269
vt 0.65219 0.160546
vt 0.65219 0.130314
vt 0.66512 0.160546
vt 0.664075 0.130314
vt 0.664075 0.160546
vn 0.9914448886106773 0 -0.1305259853353411
vn 0.9961802244190083 0 0.08732101967163788
vn 0.9394649613645042 0 0.3426449859087252
vn 0.965925849201117 0 -0.2588189595935754
vn 0 0.9914448886106773 -0.13052598533534088
vn 0 0.9961802244190081 0.08732101967163808
vn 0 0.9394649613645041 0.34264498590872544
vn 0 0.9659258492011171 -0.2588189595935752
vn 0.7651888579208939 0 0.6438058804591009
vn 0 0 -1
vn 0 0.7651888579208938 0.6438058804591011
vn 0.6415130802811972 0 0.7671120959990987
vn 0 0.641513080281197 0.7671120959990988
vn 0 0 1
vn -0.9961802244190083 0 -0.08732101967163788
vn -0.9914448886106773 0 0.1305259853353411
vn -0.9394649613645042 0 -0.3426449859087252
vn -0.965925849201117 0 0.2588189595935754
vn 0 -0.9914448886106773 0.13052598533534088
vn 0 -0.9961802244190081 -0.08732101967163808
vn 0 -0.9394649613645041 -0.34264498590872544
vn 0 -0.9659258492011171 0.2588189595935752
vn -0.7651888579208939 0 -0.6438058804591009
vn 0 -0.7651888579208938 -0.6438058804591011
vn -0.6415130802811972 0 -0.7671120959990987
vn 0 -0.641513080281197 -0.7671120959990988
usemtl material_0_0
f 1/1/1 2/2/2 3/1/2
f 2/2/2 1/1/1 4/2/1
f 5/3/3 3/1/2 2/2/2
f 6/4/4 4/2/1 1/1/1
f 7/5/5 2/2/6 4/2/5
f 3/1/2 5/3/3 8/6/3
f 9/5/6 5/3/7 2/2/6
f 4/2/1 6/4/4 10/7/4
f 2/2/6 7/5/5 9/5/6
f 4/2/5 11/8/8 7/5/5
f 12/9/9 8/6/3 5/3/3
f 5/3/7 9/5/6 13/10/7
f 6/4/10 11/8/10 10/7/10
f 11/8/8 4/2/5 10/7/8
f 8/6/3 12/9/9 14/11/9
f 13/10/7 12/9/11 5/3/7
f 11/8/10 6/4/10 15/12/10
f 12/9/9 16/13/12 14/11/9
f 12/9/11 13/10/7 17/14/11
f 16/13/12 12/9/9 18/15/12
f 19/16/13 12/9/11 17/14/11
f 12/9/11 19/16/13 18/15/13
f 18/15/14 20/12/14 16/13/14
f 20/12/14 18/15/14 19/16/14
usemtl material_1_0
f 3//15 2//15 1//16
f 4//16 1//16 2//15
f 2//15 3//15 5//17
f 1//16 4//16 6//18
f 4//19 2//20 7//19
f 8//17 5//17 3//15
f 2//20 5//21 9//20
f 10//18 6//18 4//16
f 9//20 7//19 2//20
f 7//19 11//22 4//19
f 5//17 8//17 12//23
f 13//21 9//20 5//21
f 10//14 11//14 6//14
f 10//22 4//19 11//22
f 14//23 12//23 8//17
f 5//21 12//24 13//21
f 15//14 6//14 11//14
f 14//23 16//25 12//23
f 17//24 13//21 12//24
f 18//25 12//23 16//25
f 17//24 12//24 19//26
f 18//26 19//26 12//24
f 16//10 20//10 18//10
f 19//10 18//10 20//10
