# SSTK version 0.8.0
# 41
mtllib original-41.mtl
o RT_11_TC1/RT_11_TC/mesh32/mesh32-geometry#mesh32-geometry
v -0.262094 0.369521 0.504613
v 0.283747 0.297437 0.504613
v -0.262094 0.297437 0.504613
v 0.283747 0.369521 0.504613
v 0.283747 0.369521 0.500971
v -0.262094 0.369521 0.500971
v 0.283747 0.373301 0.492866
v -0.262094 0.373301 0.492866
v -0.262094 0.447909 0.492866
v 0.283747 0.447909 0.492866
v 0.283747 0.453272 0.512884
v -0.262094 0.453272 0.512884
v 0.283747 0.453272 0.517448
v -0.262094 0.453272 0.517448
v 0.283747 0.452796 0.520146
v -0.262094 0.452796 0.520146
v 0.283747 0.451424 0.522517
v -0.262094 0.451424 0.522517
v -0.262094 0.449322 0.524275
v 0.283747 0.449322 0.524275
v -0.262094 0.373301 0.524275
v 0.283747 0.373301 0.524275
v 0.283747 0.369521 0.516169
v -0.262094 0.369521 0.516169
v 0.283747 0.369521 0.512528
v -0.262094 0.369521 0.512528
v -0.262094 0.297437 0.512528
v 0.283747 0.297437 0.512528
vt 0.464654 0.440107
vt 0.674997 0.404247
vt 0.464654 0.404247
vt 0.674997 0.440107
vt 0.472402 0.280882
vt 0.472402 0.070539
vt 0.474282 0.070539
vt 0.474282 0.280882
vt 0.511397 0.280882
vt 0.511397 0.070539
vt 0.514066 0.070539
vt 0.514066 0.280882
vt 0.513829 0.070539
vt 0.513829 0.280882
vt 0.513146 0.070539
vt 0.513146 0.280882
vt 0.512101 0.280882
vt 0.512101 0.070539
vn 0 0 -1
vn 0 -1 0
vn 0 -0.9063079253256678 -0.42261796517881706
vn 0 0.9659258492011171 -0.2588189595935752
vn 0 0.9914448886106773 -0.13052598533534088
vn 0 0.9961802244190081 0.08732101967163808
vn 0 0.9394649613645041 0.34264498590872544
vn 0 0.7651888579208938 0.6438058804591011
vn 0 0.641513080281197 0.7671120959990988
vn 0 0 1
vn 0 -0.9063079253256678 0.4226179651788165
vn 0 -0.9762959252079247 0.21643998341896617
vn 0 1 0
vn 0 0.9063079253256678 0.42261796517881706
vn 0 -0.9659258492011171 0.2588189595935752
vn 0 -0.9914448886106773 0.13052598533534088
vn 0 -0.9961802244190081 -0.08732101967163808
vn 0 -0.9394649613645041 -0.34264498590872544
vn 0 -0.7651888579208938 -0.6438058804591011
vn 0 -0.641513080281197 -0.7671120959990988
vn 0 0.9063079253256678 -0.4226179651788165
vn 0 0.9762959252079247 -0.21643998341896617
usemtl material_0_0
f 1/1/1 2/2/1 3/3/1
f 2/2/1 1/1/1 4/4/1
f 1/5/2 5/6/2 4/6/2
f 5/6/2 1/5/2 6/5/2
f 6/5/3 7/7/3 5/6/3
f 7/7/3 6/5/3 8/8/3
f 9/9/1 7/7/1 8/8/1
f 7/7/1 9/9/1 10/10/1
f 9/9/4 11/11/5 10/10/4
f 11/11/5 9/9/4 12/12/5
f 12/12/5 13/11/6 11/11/5
f 13/11/6 12/12/5 14/12/6
f 14/12/6 15/13/7 13/11/6
f 15/13/7 14/12/6 16/14/7
f 16/14/7 17/15/8 15/13/7
f 17/15/8 16/14/7 18/16/8
f 19/17/9 17/15/8 18/16/8
f 17/15/8 19/17/9 20/18/9
f 21/8/10 20/18/10 19/17/10
f 20/18/10 21/8/10 22/7/10
f 21/8/11 23/6/12 22/7/11
f 23/6/12 21/8/11 24/5/12
f 24/5/12 25/6/2 23/6/12
f 25/6/2 24/5/12 26/5/2
f 27/3/10 25/4/10 26/1/10
f 25/4/10 27/3/10 28/2/10
usemtl material_1_0
f 3//10 2//10 1//10
f 4//10 1//10 2//10
f 4//13 5//13 1//13
f 6//13 1//13 5//13
f 5//14 7//14 6//14
f 8//14 6//14 7//14
f 8//10 7//10 9//10
f 10//10 9//10 7//10
f 10//15 11//16 9//15
f 12//16 9//15 11//16
f 11//16 13//17 12//16
f 14//17 12//16 13//17
f 13//17 15//18 14//17
f 16//18 14//17 15//18
f 15//18 17//19 16//18
f 18//19 16//18 17//19
f 18//19 17//19 19//20
f 20//20 19//20 17//19
f 19//1 20//1 21//1
f 22//1 21//1 20//1
f 22//21 23//22 21//21
f 24//22 21//21 23//22
f 23//22 25//13 24//22
f 26//13 24//22 25//13
f 26//1 25//1 27//1
f 28//1 27//1 25//1
