# SSTK version 0.8.0
# 36
mtllib original-36.mtl
o DF_12_BR1/DF_12_BR/mesh24/mesh24-geometry#mesh24-geometry
v 0.345192 0.513302 0.430695
v 0.333012 0.514134 0.432463
v 0.333012 0.513302 0.430695
v 0.344357 0.514134 0.432463
v 0.346443 0.512054 0.429032
v 0.344357 0.521657 0.432463
v 0.333012 0.514134 0.436102
v 0.333012 0.512054 0.429032
v 0.345192 0.521657 0.430695
v 0.344357 0.521657 0.436102
v 0.344357 0.514134 0.436102
v 0.333012 0.510287 0.427992
v 0.346443 0.521657 0.429032
v 0.333012 0.514549 0.436622
v 0.348216 0.510287 0.427992
v 0.348216 0.521657 0.427992
v 0.343940 0.521657 0.436622
v 0.343940 0.514549 0.436622
v 0.333012 0.501137 0.427160
v 0.343106 0.515381 0.437349
v 0.357395 0.501137 0.427160
v 0.357395 0.521657 0.427160
v 0.333012 0.515381 0.437349
v 0.333012 0.482215 0.420298
v 0.343106 0.521657 0.437349
v 0.341541 0.516941 0.437765
v 0.376377 0.482215 0.420298
v 0.376377 0.521657 0.420298
v 0.333012 0.516941 0.437765
v 0.333012 0.476600 0.419907
v 0.341541 0.521657 0.437765
v 0.382009 0.476600 0.419907
v 0.382009 0.521657 0.419907
v 0.333012 0.521657 0.437765
v 0.382113 0.476496 0.425809
v 0.333012 0.476496 0.425809
v 0.382113 0.521657 0.425809
v 0.383365 0.475249 0.429448
v 0.383365 0.521657 0.429448
v 0.333012 0.475249 0.429448
v 0.385660 0.472961 0.432359
v 0.385660 0.521657 0.432359
v 0.333012 0.472961 0.432359
v 0.333012 0.471402 0.433502
v 0.387224 0.521657 0.433502
v 0.387224 0.471402 0.433502
v 0.333012 0.467971 0.434854
v 0.390666 0.521657 0.434854
v 0.390666 0.467971 0.434854
v 0.390666 0.467971 0.437765
v 0.390666 0.521657 0.437765
v 0.333012 0.467971 0.437765
v 0.333012 0.414426 0.437765
v 0.470559 0.521657 0.437765
v 0.390666 0.414426 0.437765
v 0.390144 0.413906 0.437661
v 0.470559 0.414426 0.437765
v 0.333012 0.413906 0.437661
v 0.471080 0.521657 0.437661
v 0.333012 0.413698 0.437557
v 0.471080 0.413906 0.437661
v 0.389936 0.413698 0.437557
v 0.471289 0.521657 0.437557
v 0.333012 0.413178 0.437037
v 0.471289 0.413698 0.437557
v 0.389414 0.413178 0.437037
v 0.471810 0.521657 0.437037
v 0.389310 0.413074 0.436726
v 0.471810 0.413178 0.437037
v 0.333012 0.413074 0.436726
v 0.471915 0.413074 0.436726
v 0.389206 0.412970 0.436206
v 0.472019 0.412970 0.436206
v 0.471915 0.521657 0.436726
v 0.333012 0.412970 0.436206
v 0.389206 0.412970 0.433398
v 0.472019 0.521657 0.436206
v 0.333012 0.412970 0.433398
v 0.472019 0.412970 0.433398
v 0.333012 0.410683 0.432879
v 0.386911 0.410683 0.432879
v 0.472019 0.521657 0.433398
v 0.474314 0.410683 0.432879
v 0.474314 0.521657 0.432879
v 0.382635 0.406420 0.430695
v 0.333012 0.406420 0.430695
v 0.478590 0.406420 0.430695
v 0.478590 0.521657 0.430695
v 0.379506 0.403301 0.427160
v 0.481719 0.403301 0.427160
v 0.333012 0.403301 0.427160
v 0.378463 0.402261 0.425081
v 0.482762 0.402261 0.425081
v 0.481719 0.521657 0.427160
v 0.333012 0.402261 0.425081
v 0.377733 0.401533 0.422689
v 0.483492 0.401533 0.422689
v 0.482762 0.521657 0.425081
v 0.333012 0.401533 0.422689
v 0.377733 0.401533 0.406470
v 0.483492 0.401533 0.406470
v 0.483492 0.521657 0.422689
v 0.333012 0.401533 0.406470
v 0.378359 0.402157 0.404911
v 0.483492 0.521657 0.406470
v 0.333012 0.402157 0.404911
v 0.482866 0.402157 0.404911
v 0.378880 0.402677 0.404287
v 0.482866 0.521657 0.404911
v 0.333012 0.402677 0.404287
v 0.482345 0.402677 0.404287
v 0.333012 0.403301 0.403767
v 0.379506 0.403301 0.403767
v 0.482345 0.521657 0.404287
v 0.481719 0.403301 0.403767
v 0.381175 0.404964 0.403039
v 0.481719 0.521657 0.403767
v 0.333012 0.404964 0.403039
v 0.480050 0.404964 0.403039
v 0.333012 0.521657 0.403039
v 0.381175 0.521657 0.403039
v 0.480050 0.521657 0.403039
vn 0 -0.8568480476129053 0.5155690286488827
vn 0 -0.9759146005416452 0.21815291070632314
vn 0 -0.6665042256060535 0.7455012523458798
vn 0.8561436963344461 0 0.5167378167182962
vn 0.9757818419038387 0 0.21874596455878165
vn 0 -0.943628265898913 0.3310070932723502
vn 0.665425911906931 0 0.7464639011786365
vn 0.9433732828148622 0 0.3317330994506125
vn 0 -0.306194039407635 0.9519691225198619
vn 0 -0.7225219647452642 0.691347966266368
vn 0.30540305586769156 0 0.9522231741911535
vn 0.7214492865272482 0 0.6924672750168952
vn 0 -0.21752092380493543 0.9760556580989874
vn 0 -0.47037526299135185 0.8824664933955377
vn 0.21689001057165314 0 0.9761960475817488
vn 0.4693402210853445 0 0.8830174159503084
vn 0 -0.2072110557255877 0.9782962630947167
vn 0 -0.2576629617635925 0.9662348566136565
vn 0.20661103385838592 0 0.9784231603391085
vn 0.25690491599287696 0 0.9664366839781554
vn 0 -0.06950198697783115 0.9975818130890988
vn 0 0 1
vn 0.06928399836957433 0 0.9975969765240493
vn 0 0.999844843899236 0.01761499724985899
vn 0 0.9849077760004802 0.1730799606360831
vn -0.9848188941388683 0 0.17358498134083059
vn -0.9998438734017765 0 0.01766999776266037
vn 0 0.8784757804052404 0.4777868805664342
vn -0.877878145578545 0 0.4788840794133534
vn 0 0.6952647452755543 0.7187537366698825
vn -0.6941731003798672 0 0.7198081040867788
vn 0 0.4829409551130548 0.8756529186124434
vn -0.4818122586320718 0 0.8762744703754993
vn 0 0.366525069256934 0.9304081758057586
vn -0.3655251777867379 0 0.9308014527298363
vn 0 1 0
vn -1 0 0
vn 0 -0.09853802832313467 0.9951332860346846
vn 0.09823601432944286 0 0.9951631451619706
vn 0 -0.32453610589209214 0.9458733086266875
vn 0.06573998127538241 -0.06593898121870179 0.9956557164089161
vn 0.32365415497519434 0 0.9461754530568276
vn 0 -0.5847101851590344 0.8112422568945036
vn 0.5835593526505672 0 0.8120704907420605
vn 0 -0.8506509114634073 0.5257309452814002
vn 0.8499868493037199 0 0.5268039066016267
vn 0 -0.966499655817936 0.2566679085974938
vn 0.9662998881213223 0 0.25741897019590465
vn 0 -0.9951332860346846 0.09853802832313423
vn 0.9951033352458921 0 0.09884003329876805
vn 0 -1 0
vn 1 0 0
vn 0 -0.341409830093173 0.9399145322399005
vn 0 -0.22162097392296987 0.9751328852609958
vn 0.2209580698390015 0 0.9752833082612573
vn 0.3404891599235399 0 0.9402484416230438
vn 0 -0.6135802724836967 0.789632350666329
vn 0.6124569538008426 0 0.7905039403703138
vn 0 -0.8290928702594126 0.5591109125075356
vn 0.8283019491720808 0 0.5602819656188585
vn 0 -0.9288337090126993 0.37049688392982794
vn 0.9284364785269614 0 0.3714911914708816
vn 0 -0.9891091267360441 0.14718401885891008
vn 0.9890442951817976 0 0.1476190440571317
vn 0 -0.9819562839817984 -0.18910805469005754
vn 0.9818532936856189 0 -0.1896420567245078
vn 0 -0.8589288642609054 -0.5120949190721102
vn 0.8582522250818252 0 -0.5132281345971754
vn 0 -0.7071067811865476 -0.7071067811865478
vn 0.7060099319039332 0 -0.7082019316925104
vn 0 -0.5257309452814002 -0.8506509114634073
vn 0.5245800711537835 0 -0.8513611154782039
vn 0 -0.20474698584850284 -0.9788149323472506
vn 0.13838304493920922 -0.13875004505839048 -0.9806113184486742
vn 0 0 -1
vn 0.20418103070372476 0 -0.978933147207083
vn 0 0.8568480476129053 -0.5155690286488827
vn 0 0.9759146005416452 -0.21815291070632314
vn 0 0.6665042256060535 -0.7455012523458798
vn -0.9757818419038387 0 -0.21874596455878165
vn -0.8561436963344461 0 -0.5167378167182962
vn 0 0.943628265898913 -0.3310070932723502
vn -0.665425911906931 0 -0.7464639011786365
vn -0.9433732828148622 0 -0.3317330994506125
vn 0 0.306194039407635 -0.9519691225198619
vn 0 0.7225219647452642 -0.691347966266368
vn -0.30540305586769156 0 -0.9522231741911535
vn -0.7214492865272482 0 -0.6924672750168952
vn 0 0.21752092380493543 -0.9760556580989874
vn 0 0.47037526299135185 -0.8824664933955377
vn -0.21689001057165314 0 -0.9761960475817488
vn -0.4693402210853445 0 -0.8830174159503084
vn 0 0.2072110557255877 -0.9782962630947167
vn 0 0.2576629617635925 -0.9662348566136565
vn -0.20661103385838592 0 -0.9784231603391085
vn -0.25690491599287696 0 -0.9664366839781554
vn 0 0.06950198697783115 -0.9975818130890988
vn -0.06928399836957433 0 -0.9975969765240493
vn 0 -0.999844843899236 -0.01761499724985899
vn 0 -0.9849077760004802 -0.1730799606360831
vn 0.9848188941388683 0 -0.17358498134083059
vn 0.9998438734017765 0 -0.01766999776266037
vn 0 -0.8784757804052404 -0.4777868805664342
vn 0.877878145578545 0 -0.4788840794133534
vn 0 -0.6952647452755543 -0.7187537366698825
vn 0.6941731003798672 0 -0.7198081040867788
vn 0 -0.4829409551130548 -0.8756529186124434
vn 0.4818122586320718 0 -0.8762744703754993
vn 0 -0.366525069256934 -0.9304081758057586
vn 0.3655251777867379 0 -0.9308014527298363
vn 0 0.09853802832313467 -0.9951332860346846
vn -0.09823601432944286 0 -0.9951631451619706
vn 0 0.32453610589209214 -0.9458733086266875
vn -0.06573998127538241 0.06593898121870179 -0.9956557164089161
vn -0.32365415497519434 0 -0.9461754530568276
vn 0 0.5847101851590344 -0.8112422568945036
vn -0.5835593526505672 0 -0.8120704907420605
vn 0 0.8506509114634073 -0.5257309452814002
vn -0.8499868493037199 0 -0.5268039066016267
vn 0 0.966499655817936 -0.2566679085974938
vn -0.9662998881213223 0 -0.25741897019590465
vn 0 0.9951332860346846 -0.09853802832313423
vn -0.9951033352458921 0 -0.09884003329876805
vn 0 0.22162097392296987 -0.9751328852609958
vn 0 0.341409830093173 -0.9399145322399005
vn -0.2209580698390015 0 -0.9752833082612573
vn -0.3404891599235399 0 -0.9402484416230438
vn 0 0.6135802724836967 -0.789632350666329
vn -0.6124569538008426 0 -0.7905039403703138
vn 0 0.8290928702594126 -0.5591109125075356
vn -0.8283019491720808 0 -0.5602819656188585
vn 0 0.9288337090126993 -0.37049688392982794
vn -0.9284364785269614 0 -0.3714911914708816
vn 0 0.9891091267360441 -0.14718401885891008
vn -0.9890442951817976 0 -0.1476190440571317
vn 0 0.9819562839817984 0.18910805469005754
vn -0.9818532936856189 0 0.1896420567245078
vn 0 0.8589288642609054 0.5120949190721102
vn -0.8582522250818252 0 0.5132281345971754
vn 0 0.7071067811865476 0.7071067811865478
vn -0.7060099319039332 0 0.7082019316925104
vn 0 0.5257309452814002 0.8506509114634073
vn -0.5245800711537835 0 0.8513611154782039
vn 0 0.20474698584850284 0.9788149323472506
vn -0.13838304493920922 0.13875004505839048 0.9806113184486742
vn -0.20418103070372476 0 0.978933147207083
usemtl material_0_0
f 1//1 2//2 3//1
f 2//2 1//1 4//2
f 3//1 5//3 1//1
f 1//4 6//5 4//5
f 4//2 7//6 2//2
f 5//3 3//1 8//3
f 5//7 9//4 1//4
f 6//5 1//4 9//4
f 10//8 4//5 6//5
f 7//6 4//2 11//6
f 12//9 5//3 8//3
f 9//4 5//7 13//7
f 4//5 10//8 11//8
f 11//6 14//10 7//6
f 5//3 12//9 15//9
f 5//7 16//11 13//7
f 17//12 11//8 10//8
f 14//10 11//6 18//10
f 19//13 15//9 12//9
f 16//11 5//7 15//11
f 11//8 17//12 18//12
f 20//14 14//10 18//10
f 15//9 19//13 21//13
f 15//11 22//15 16//11
f 17//12 20//16 18//12
f 14//10 20//14 23//14
f 24//17 21//13 19//13
f 22//15 15//11 21//15
f 20//16 17//12 25//16
f 26//18 23//14 20//14
f 21//13 24//17 27//17
f 21//15 28//19 22//15
f 25//16 26//20 20//16
f 23//14 26//18 29//18
f 30//21 27//17 24//17
f 28//19 21//15 27//19
f 26//20 25//16 31//20
f 31//22 29//22 26//22
f 27//17 30//21 32//21
f 27//19 33//23 28//19
f 29//22 31//22 34//22
f 30//24 35//25 32//24
f 33//23 27//19 32//23
f 35//25 30//24 36//25
f 37//26 32//27 35//26
f 32//27 37//26 33//27
f 36//25 38//28 35//25
f 35//26 39//29 37//26
f 38//28 36//25 40//28
f 39//29 35//26 38//29
f 40//28 41//30 38//28
f 38//29 42//31 39//29
f 41//30 40//28 43//30
f 42//31 38//29 41//31
f 44//32 41//30 43//30
f 41//31 45//33 42//31
f 41//30 44//32 46//32
f 45//33 41//31 46//33
f 47//34 46//32 44//32
f 46//33 48//35 45//33
f 46//32 47//34 49//34
f 48//35 46//33 49//35
f 47//36 50//36 49//36
f 49//37 51//37 48//37
f 50//36 47//36 52//36
f 51//37 49//37 50//37
f 53//38 50//22 52//22
f 50//22 54//39 51//22
f 50//22 53//38 55//38
f 55//38 54//39 50//22
f 53//38 56//40 55//38
f 54//39 55//38 57//41
f 56//40 53//38 58//40
f 56//40 57//41 55//38
f 57//41 59//42 54//39
f 60//43 56//40 58//40
f 57//41 56//40 61//40
f 59//42 57//41 61//42
f 56//40 60//43 62//43
f 62//43 61//40 56//40
f 61//42 63//44 59//42
f 64//45 62//43 60//43
f 61//40 62//43 65//43
f 63//44 61//42 65//44
f 62//43 64//45 66//45
f 66//45 65//43 62//43
f 65//44 67//46 63//44
f 64//45 68//47 66//45
f 65//43 66//45 69//45
f 67//46 65//44 69//46
f 68//47 64//45 70//47
f 71//47 66//45 68//47
f 66//45 71//47 69//45
f 71//48 67//46 69//46
f 70//47 72//49 68//47
f 68//47 73//49 71//47
f 67//46 71//48 74//48
f 72//49 70//47 75//49
f 73//49 68//47 72//49
f 73//50 74//48 71//48
f 75//49 76//51 72//49
f 76//51 73//49 72//49
f 74//48 73//50 77//50
f 76//51 75//49 78//51
f 73//49 76//51 79//51
f 79//52 77//50 73//50
f 80//53 76//54 78//54
f 81//53 79//54 76//54
f 77//50 79//52 82//52
f 76//54 80//53 81//53
f 79//54 81//53 83//53
f 79//55 84//56 82//55
f 80//53 85//57 81//53
f 85//57 83//53 81//53
f 84//56 79//55 83//56
f 85//57 80//53 86//57
f 83//53 85//57 87//57
f 83//56 88//58 84//56
f 86//57 89//59 85//57
f 85//57 90//59 87//57
f 88//58 83//56 87//58
f 89//59 86//57 91//59
f 90//59 85//57 89//59
f 90//60 88//58 87//58
f 91//59 92//61 89//59
f 89//59 93//61 90//59
f 88//58 90//60 94//60
f 92//61 91//59 95//61
f 93//61 89//59 92//61
f 93//62 94//60 90//60
f 95//61 96//63 92//61
f 92//61 97//63 93//61
f 94//60 93//62 98//62
f 96//63 95//61 99//63
f 97//63 92//61 96//63
f 97//64 98//62 93//62
f 99//63 100//65 96//63
f 96//63 101//65 97//63
f 98//62 97//64 102//64
f 100//65 99//63 103//65
f 101//65 96//63 100//65
f 101//66 102//64 97//64
f 103//65 104//67 100//65
f 104//67 101//65 100//65
f 102//64 101//66 105//66
f 104//67 103//65 106//67
f 101//65 104//67 107//67
f 107//68 105//66 101//66
f 106//67 108//69 104//67
f 108//69 107//67 104//67
f 105//66 107//68 109//68
f 108//69 106//67 110//69
f 107//67 108//69 111//69
f 111//70 109//68 107//68
f 112//71 108//69 110//69
f 113//71 111//69 108//69
f 109//68 111//70 114//70
f 108//69 112//71 113//71
f 111//69 113//71 115//71
f 115//72 114//70 111//70
f 112//71 116//73 113//71
f 116//73 115//71 113//71
f 114//70 115//72 117//72
f 116//73 112//71 118//73
f 115//71 116//73 119//74
f 119//74 117//72 115//72
f 120//75 116//73 118//73
f 121//75 119//74 116//73
f 117//72 119//74 122//76
f 116//73 120//75 121//75
f 119//74 121//75 122//76
usemtl material_1_0
f 3//77 2//78 1//77
f 4//78 1//77 2//78
f 1//77 5//79 3//77
f 4//80 6//80 1//81
f 2//78 7//82 4//78
f 8//79 3//77 5//79
f 1//81 9//81 5//83
f 9//81 1//81 6//80
f 6//80 4//80 10//84
f 11//82 4//78 7//82
f 8//79 5//79 12//85
f 13//83 5//83 9//81
f 11//84 10//84 4//80
f 7//82 14//86 11//82
f 15//85 12//85 5//79
f 13//83 16//87 5//83
f 10//84 11//84 17//88
f 18//86 11//82 14//86
f 12//85 15//85 19//89
f 15//87 5//83 16//87
f 18//88 17//88 11//84
f 18//86 14//86 20//90
f 21//89 19//89 15//85
f 16//87 22//91 15//87
f 18//88 20//92 17//88
f 23//90 20//90 14//86
f 19//89 21//89 24//93
f 21//91 15//87 22//91
f 25//92 17//88 20//92
f 20//90 23//90 26//94
f 27//93 24//93 21//89
f 22//91 28//95 21//91
f 20//92 26//96 25//92
f 29//94 26//94 23//90
f 24//93 27//93 30//97
f 27//95 21//91 28//95
f 31//96 25//92 26//96
f 26//75 29//75 31//75
f 32//97 30//97 27//93
f 28//95 33//98 27//95
f 34//75 31//75 29//75
f 32//99 35//100 30//99
f 32//98 27//95 33//98
f 36//100 30//99 35//100
f 35//101 32//102 37//101
f 33//102 37//101 32//102
f 35//100 38//103 36//100
f 37//101 39//104 35//101
f 40//103 36//100 38//103
f 38//104 35//101 39//104
f 38//103 41//105 40//103
f 39//104 42//106 38//104
f 43//105 40//103 41//105
f 41//106 38//104 42//106
f 43//105 41//105 44//107
f 42//106 45//108 41//106
f 46//107 44//107 41//105
f 46//108 41//106 45//108
f 44//107 46//107 47//109
f 45//108 48//110 46//108
f 49//109 47//109 46//107
f 49//110 46//108 48//110
f 49//51 50//51 47//51
f 48//52 51//52 49//52
f 52//51 47//51 50//51
f 50//52 49//52 51//52
f 52//75 50//75 53//111
f 51//75 54//112 50//75
f 55//111 53//111 50//75
f 50//75 54//112 55//111
f 55//111 56//113 53//111
f 57//114 55//111 54//112
f 58//113 53//111 56//113
f 55//111 57//114 56//113
f 54//112 59//115 57//114
f 58//113 56//113 60//116
f 61//113 56//113 57//114
f 61//115 57//114 59//115
f 62//116 60//116 56//113
f 56//113 61//113 62//116
f 59//115 63//117 61//115
f 60//116 62//116 64//118
f 65//116 62//116 61//113
f 65//117 61//115 63//117
f 66//118 64//118 62//116
f 62//116 65//116 66//118
f 63//117 67//119 65//117
f 66//118 68//120 64//118
f 69//118 66//118 65//116
f 69//119 65//117 67//119
f 70//120 64//118 68//120
f 68//120 66//118 71//120
f 69//118 71//120 66//118
f 69//119 67//119 71//121
f 68//120 72//122 70//120
f 71//120 73//122 68//120
f 74//121 71//121 67//119
f 75//122 70//120 72//122
f 72//122 68//120 73//122
f 71//121 74//121 73//123
f 72//122 76//36 75//122
f 72//122 73//122 76//36
f 77//123 73//123 74//121
f 78//36 75//122 76//36
f 79//36 76//36 73//122
f 73//123 77//123 79//37
f 78//124 76//124 80//125
f 76//124 79//124 81//125
f 82//37 79//37 77//123
f 81//125 80//125 76//124
f 83//125 81//125 79//124
f 82//126 84//127 79//126
f 81//125 85//128 80//125
f 81//125 83//125 85//128
f 83//127 79//126 84//127
f 86//128 80//125 85//128
f 87//128 85//128 83//125
f 84//127 88//129 83//127
f 85//128 89//130 86//128
f 87//128 90//130 85//128
f 87//129 83//127 88//129
f 91//130 86//128 89//130
f 89//130 85//128 90//130
f 87//129 88//129 90//131
f 89//130 92//132 91//130
f 90//130 93//132 89//130
f 94//131 90//131 88//129
f 95//132 91//130 92//132
f 92//132 89//130 93//132
f 90//131 94//131 93//133
f 92//132 96//134 95//132
f 93//132 97//134 92//132
f 98//133 93//133 94//131
f 99//134 95//132 96//134
f 96//134 92//132 97//134
f 93//133 98//133 97//135
f 96//134 100//136 99//134
f 97//134 101//136 96//134
f 102//135 97//135 98//133
f 103//136 99//134 100//136
f 100//136 96//134 101//136
f 97//135 102//135 101//137
f 100//136 104//138 103//136
f 100//136 101//136 104//138
f 105//137 101//137 102//135
f 106//138 103//136 104//138
f 107//138 104//138 101//136
f 101//137 105//137 107//139
f 104//138 108//140 106//138
f 104//138 107//138 108//140
f 109//139 107//139 105//137
f 110//140 106//138 108//140
f 111//140 108//140 107//138
f 107//139 109//139 111//141
f 110//140 108//140 112//142
f 108//140 111//140 113//142
f 114//141 111//141 109//139
f 113//142 112//142 108//140
f 115//142 113//142 111//140
f 111//141 114//141 115//143
f 113//142 116//144 112//142
f 113//142 115//142 116//144
f 117//143 115//143 114//141
f 118//144 112//142 116//144
f 119//145 116//144 115//142
f 115//143 117//143 119//145
f 118//144 116//144 120//22
f 116//144 119//145 121//22
f 122//146 119//145 117//143
f 121//22 120//22 116//144
f 122//146 121//22 119//145
