# SSTK version 0.8.0
# 55
mtllib original-55.mtl
o RT_11_BC1/RT_11_BC/mesh40/mesh40-geometry#mesh40-geometry
v 0.315649 -0.492595 0.430518
v -0.303635 -0.491776 0.432364
v -0.303635 -0.492595 0.430518
v 0.315649 -0.491776 0.432364
v 0.315649 -0.493209 0.429630
v -0.303635 -0.491778 0.435440
v -0.303635 -0.493209 0.429630
v 0.315649 -0.491778 0.435440
v 0.315649 -0.493892 0.428946
v -0.303635 -0.491027 0.436944
v -0.303635 -0.493892 0.428946
v 0.315649 -0.491027 0.436944
v -0.303635 -0.494712 0.428398
v 0.315649 -0.490549 0.437286
v 0.315649 -0.494712 0.428398
v -0.303635 -0.490549 0.437286
v -0.303635 -0.496625 0.427713
v 0.315649 -0.489524 0.437765
v 0.315649 -0.496625 0.427713
v -0.303635 -0.489524 0.437765
v -0.303635 -0.513033 0.425105
v 0.315649 -0.483984 0.437765
v 0.315649 -0.513033 0.425105
v -0.303635 -0.483984 0.437765
v -0.303635 -0.525194 0.420039
v 0.315649 -0.525194 0.420039
v -0.303635 -0.549890 0.419349
v 0.315649 -0.549890 0.419349
v 0.315649 -0.549896 0.426788
v -0.303635 -0.549896 0.426788
v 0.315649 -0.550854 0.428701
v -0.303635 -0.550854 0.428701
v 0.315649 -0.552142 0.430477
v -0.303635 -0.552142 0.430477
v -0.303635 -0.555082 0.433346
v 0.315649 -0.555082 0.433346
v -0.303635 -0.556928 0.434301
v 0.315649 -0.556928 0.434301
v -0.303635 -0.558910 0.434847
v 0.315649 -0.558910 0.434847
v 0.315649 -0.558912 0.437730
v -0.303635 -0.558912 0.437730
v -0.303635 -0.638853 0.437730
v 0.315649 -0.638853 0.437730
v 0.315649 -0.639400 0.437661
v -0.303635 -0.639400 0.437661
v -0.303635 -0.639673 0.437524
v 0.315649 -0.639673 0.437524
v 0.315649 -0.640015 0.437182
v -0.303635 -0.640015 0.437182
v 0.315649 -0.640151 0.436977
v -0.303635 -0.640151 0.436977
v 0.315649 -0.640356 0.436499
v -0.303635 -0.640356 0.436499
v 0.315649 -0.640354 0.433355
v -0.303635 -0.640354 0.433355
v -0.303635 -0.642745 0.432875
v 0.315649 -0.642745 0.432875
v -0.303635 -0.644932 0.431985
v 0.315649 -0.644932 0.431985
v 0.315649 -0.646912 0.430685
v -0.303635 -0.646912 0.430685
v 0.315649 -0.650054 0.427129
v -0.303635 -0.650054 0.427129
v 0.315649 -0.651827 0.422617
v -0.303635 -0.651827 0.422617
v 0.315649 -0.651816 0.406419
v -0.303635 -0.651816 0.406419
v 0.315649 -0.651610 0.405599
v -0.303635 -0.651610 0.405599
v 0.315649 -0.651268 0.404847
v -0.303635 -0.651268 0.404847
v -0.303635 -0.650037 0.403686
v 0.315649 -0.650037 0.403686
v -0.303635 -0.649285 0.403277
v 0.315649 -0.649285 0.403277
v 0.315649 -0.648397 0.403004
v -0.303635 -0.648397 0.403004
v 0.315649 -0.549879 0.403004
v -0.303635 -0.549879 0.403004
v 0.315649 -0.549883 0.408676
v -0.303635 -0.549883 0.408676
v -0.303635 -0.483984 0.408676
v 0.315649 -0.483984 0.408676
vn 0 -0.8721831972084215 0.4891793847938566
vn 0 -0.9783634361470221 0.20689366063413284
vn 0 -0.7682267262152868 0.6401778636664526
vn 0 -0.9734130716837249 0.22905674378907903
vn 0 -0.6345623143206741 0.7728717029649812
vn 0 -0.7607326317288206 0.6490653765399467
vn 0 -0.4495360838327162 0.8932621727871078
vn 0 -0.5048211647322968 0.8632239521922032
vn 0 -0.24808485422443594 0.9687383057897732
vn 0 -0.4235478929414634 0.9058737121612739
vn 0 -0.2726918600381831 0.9621014236913465
vn 0 0 1
vn 0 -0.20975661873917592 0.9777536299575205
vn 0 -0.02792373810161503 0.9996100563972095
vn 0 0.9999997592292849 0.000693931820921721
vn 0 0.9730944208367822 0.23040670158727536
vn 0 0.8546667734045968 0.5191769509889428
vn 0 0.7566386529589962 0.6538332729743843
vn 0 0.5853776828728966 0.8107607343688756
vn 0 0.36450396108060945 0.9312018376037202
vn 0 0.26528414793218325 0.9641702758620468
vn 0 0.9999997501245764 0.0007069305373556102
vn 0 -0.062490097982614984 0.9980455839560252
vn 0 -0.29047400296412784 0.9568828839528878
vn 0 -0.585310856626637 0.8108089794242491
vn 0 -0.7738124205415152 0.6334148228575656
vn 0 -0.8796299586420486 0.47565863374839307
vn 0 -0.979720880104524 0.20036715570975436
vn 0 -0.9999997592292849 -0.000693931820921721
vn 0 -0.288212940411251 0.9575663428606399
vn 0 -0.1968146290932009 0.980440718133894
vn 0 -0.46503756651068884 0.8852909475047267
vn 0 -0.6548747917416337 0.7557373929754648
vn 0 -0.853034901701936 0.5218538650602947
vn 0 -0.9825805019045484 0.18583744853232856
vn 0 -0.9924240021788286 -0.1228600826117106
vn 0 -0.9439273412007088 -0.3301532591596826
vn 0 -0.8133309752155593 -0.5818012759997243
vn 0 -0.5870776716451462 -0.8095306093383462
vn 0 -0.387819295295746 -0.921735425269264
vn 0 -0.14836728903455404 -0.9889323270803401
vn 0 0 -1
vn 0 0.8721831972084215 -0.4891793847938566
vn 0 0.9783634361470221 -0.20689366063413284
vn 0 0.7682267262152868 -0.6401778636664526
vn 0 0.9734130716837249 -0.22905674378907903
vn 0 0.6345623143206741 -0.7728717029649812
vn 0 0.7607326317288206 -0.6490653765399467
vn 0 0.4495360838327162 -0.8932621727871078
vn 0 0.5048211647322968 -0.8632239521922032
vn 0 0.24808485422443594 -0.9687383057897732
vn 0 0.4235478929414634 -0.9058737121612739
vn 0 0.2726918600381831 -0.9621014236913465
vn 0 0.20975661873917592 -0.9777536299575205
vn 0 0.02792373810161503 -0.9996100563972095
vn 0 -0.9730944208367822 -0.23040670158727536
vn 0 -0.8546667734045968 -0.5191769509889428
vn 0 -0.7566386529589962 -0.6538332729743843
vn 0 -0.5853776828728966 -0.8107607343688756
vn 0 -0.36450396108060945 -0.9312018376037202
vn 0 -0.26528414793218325 -0.9641702758620468
vn 0 -0.9999997501245764 -0.0007069305373556102
vn 0 0.062490097982614984 -0.9980455839560252
vn 0 0.29047400296412784 -0.9568828839528878
vn 0 0.585310856626637 -0.8108089794242491
vn 0 0.7738124205415152 -0.6334148228575656
vn 0 0.8796299586420486 -0.47565863374839307
vn 0 0.979720880104524 -0.20036715570975436
vn 0 0.1968146290932009 -0.980440718133894
vn 0 0.288212940411251 -0.9575663428606399
vn 0 0.46503756651068884 -0.8852909475047267
vn 0 0.6548747917416337 -0.7557373929754648
vn 0 0.853034901701936 -0.5218538650602947
vn 0 0.9825805019045484 -0.18583744853232856
vn 0 0.9924240021788286 0.1228600826117106
vn 0 0.9439273412007088 0.3301532591596826
vn 0 0.8133309752155593 0.5818012759997243
vn 0 0.5870776716451462 0.8095306093383462
vn 0 0.387819295295746 0.921735425269264
vn 0 0.14836728903455404 0.9889323270803401
usemtl material_0_0
f 1//1 2//2 3//1
f 2//2 1//1 4//2
f 3//1 5//3 1//1
f 4//2 6//4 2//2
f 5//3 3//1 7//3
f 6//4 4//2 8//4
f 7//3 9//5 5//3
f 8//4 10//6 6//4
f 9//5 7//3 11//5
f 10//6 8//4 12//6
f 13//7 9//5 11//5
f 14//8 10//6 12//6
f 9//5 13//7 15//7
f 10//6 14//8 16//8
f 17//9 15//7 13//7
f 18//10 16//8 14//8
f 15//7 17//9 19//9
f 16//8 18//10 20//10
f 21//11 19//9 17//9
f 22//12 20//12 18//12
f 19//9 21//11 23//11
f 20//12 22//12 24//12
f 25//13 23//11 21//11
f 23//11 25//13 26//13
f 27//14 26//13 25//13
f 26//13 27//14 28//14
f 27//15 29//16 28//15
f 29//16 27//15 30//16
f 30//16 31//17 29//16
f 31//17 30//16 32//17
f 32//17 33//18 31//17
f 33//18 32//17 34//18
f 35//19 33//18 34//18
f 33//18 35//19 36//19
f 37//20 36//19 35//19
f 36//19 37//20 38//20
f 39//21 38//20 37//20
f 38//20 39//21 40//21
f 39//22 41//22 40//22
f 41//22 39//22 42//22
f 43//23 41//12 42//12
f 41//12 43//23 44//23
f 43//23 45//24 44//23
f 45//24 43//23 46//24
f 47//25 45//24 46//24
f 45//24 47//25 48//25
f 47//25 49//26 48//25
f 49//26 47//25 50//26
f 50//26 51//27 49//26
f 51//27 50//26 52//27
f 52//27 53//28 51//27
f 53//28 52//27 54//28
f 54//28 55//29 53//28
f 55//29 54//28 56//29
f 57//30 55//31 56//31
f 55//31 57//30 58//30
f 59//32 58//30 57//30
f 58//30 59//32 60//32
f 59//32 61//33 60//32
f 61//33 59//32 62//33
f 62//33 63//34 61//33
f 63//34 62//33 64//34
f 64//34 65//35 63//34
f 65//35 64//34 66//35
f 66//35 67//36 65//35
f 67//36 66//35 68//36
f 68//36 69//37 67//36
f 69//37 68//36 70//37
f 70//37 71//38 69//37
f 71//38 70//37 72//38
f 73//39 71//38 72//38
f 71//38 73//39 74//39
f 75//40 74//39 73//39
f 74//39 75//40 76//40
f 75//40 77//41 76//40
f 77//41 75//40 78//41
f 78//41 79//42 77//41
f 79//42 78//41 80//42
f 80//15 81//15 79//15
f 81//15 80//15 82//15
f 83//42 81//42 82//42
f 81//42 83//42 84//42
usemtl material_1_0
f 3//43 2//44 1//43
f 4//44 1//43 2//44
f 1//43 5//45 3//43
f 2//44 6//46 4//44
f 7//45 3//43 5//45
f 8//46 4//44 6//46
f 5//45 9//47 7//45
f 6//46 10//48 8//46
f 11//47 7//45 9//47
f 12//48 8//46 10//48
f 11//47 9//47 13//49
f 12//48 10//48 14//50
f 15//49 13//49 9//47
f 16//50 14//50 10//48
f 13//49 15//49 17//51
f 14//50 16//50 18//52
f 19//51 17//51 15//49
f 20//52 18//52 16//50
f 17//51 19//51 21//53
f 18//42 20//42 22//42
f 23//53 21//53 19//51
f 24//42 22//42 20//42
f 21//53 23//53 25//54
f 26//54 25//54 23//53
f 25//54 26//54 27//55
f 28//55 27//55 26//54
f 28//29 29//56 27//29
f 30//56 27//29 29//56
f 29//56 31//57 30//56
f 32//57 30//56 31//57
f 31//57 33//58 32//57
f 34//58 32//57 33//58
f 34//58 33//58 35//59
f 36//59 35//59 33//58
f 35//59 36//59 37//60
f 38//60 37//60 36//59
f 37//60 38//60 39//61
f 40//61 39//61 38//60
f 40//62 41//62 39//62
f 42//62 39//62 41//62
f 42//42 41//42 43//63
f 44//63 43//63 41//42
f 44//63 45//64 43//63
f 46//64 43//63 45//64
f 46//64 45//64 47//65
f 48//65 47//65 45//64
f 48//65 49//66 47//65
f 50//66 47//65 49//66
f 49//66 51//67 50//66
f 52//67 50//66 51//67
f 51//67 53//68 52//67
f 54//68 52//67 53//68
f 53//68 55//15 54//68
f 56//15 54//68 55//15
f 56//69 55//69 57//70
f 58//70 57//70 55//69
f 57//70 58//70 59//71
f 60//71 59//71 58//70
f 60//71 61//72 59//71
f 62//72 59//71 61//72
f 61//72 63//73 62//72
f 64//73 62//72 63//73
f 63//73 65//74 64//73
f 66//74 64//73 65//74
f 65//74 67//75 66//74
f 68//75 66//74 67//75
f 67//75 69//76 68//75
f 70//76 68//75 69//76
f 69//76 71//77 70//76
f 72//77 70//76 71//77
f 72//77 71//77 73//78
f 74//78 73//78 71//77
f 73//78 74//78 75//79
f 76//79 75//79 74//78
f 76//79 77//80 75//79
f 78//80 75//79 77//80
f 77//80 79//12 78//80
f 80//12 78//80 79//12
f 79//29 81//29 80//29
f 82//29 80//29 81//29
f 82//12 81//12 83//12
f 84//12 83//12 81//12
