# SSTK version 0.8.0
# 35
mtllib original-35.mtl
o DF_12_TR1/DF_12_TR/mesh23/mesh23-geometry#mesh23-geometry
v 0.382635 0.714970 0.430695
v 0.481719 0.718089 0.427160
v 0.379506 0.718089 0.427160
v 0.478590 0.714970 0.430695
v 0.482762 0.719129 0.425081
v 0.333012 0.718089 0.427160
v 0.386911 0.710707 0.432879
v 0.481719 0.599733 0.427160
v 0.378463 0.719129 0.425081
v 0.482762 0.599733 0.425081
v 0.333012 0.714970 0.430695
v 0.333012 0.719129 0.425081
v 0.474314 0.710707 0.432879
v 0.333012 0.710707 0.432879
v 0.478590 0.599733 0.430695
v 0.483492 0.719857 0.422689
v 0.483492 0.599733 0.422689
v 0.389206 0.708420 0.433398
v 0.474314 0.599733 0.432879
v 0.333012 0.708420 0.433398
v 0.377733 0.719857 0.422689
v 0.333012 0.719857 0.422689
v 0.472019 0.708420 0.433398
v 0.472019 0.599733 0.433398
v 0.377733 0.719857 0.406470
v 0.483492 0.599733 0.406470
v 0.472019 0.708420 0.436206
v 0.389206 0.708420 0.436206
v 0.483492 0.719857 0.406470
v 0.333012 0.719857 0.406470
v 0.333012 0.708420 0.436206
v 0.378359 0.719233 0.404911
v 0.333012 0.719233 0.404911
v 0.482866 0.599733 0.404911
v 0.389310 0.708316 0.436726
v 0.472019 0.599733 0.436206
v 0.482866 0.719233 0.404911
v 0.471915 0.708316 0.436726
v 0.333012 0.708316 0.436726
v 0.378880 0.718713 0.404287
v 0.333012 0.718713 0.404287
v 0.482345 0.599733 0.404287
v 0.389414 0.708212 0.437037
v 0.471915 0.599733 0.436726
v 0.482345 0.718713 0.404287
v 0.471810 0.708212 0.437037
v 0.333012 0.708212 0.437037
v 0.481719 0.718089 0.403767
v 0.379506 0.718089 0.403767
v 0.389936 0.707692 0.437557
v 0.471810 0.599733 0.437037
v 0.333012 0.707692 0.437557
v 0.333012 0.718089 0.403767
v 0.481719 0.599733 0.403767
v 0.471289 0.707692 0.437557
v 0.471289 0.599733 0.437557
v 0.480050 0.716426 0.403039
v 0.381175 0.716426 0.403039
v 0.390144 0.707484 0.437661
v 0.333012 0.707484 0.437661
v 0.333012 0.716426 0.403039
v 0.480050 0.599733 0.403039
v 0.471080 0.707484 0.437661
v 0.471080 0.599733 0.437661
v 0.381175 0.599733 0.403039
v 0.390666 0.706964 0.437765
v 0.333012 0.706964 0.437765
v 0.333012 0.599733 0.403039
v 0.470559 0.706964 0.437765
v 0.470559 0.599733 0.437765
v 0.390666 0.653420 0.437765
v 0.333012 0.653420 0.437765
v 0.390666 0.599733 0.437765
v 0.390666 0.599733 0.434854
v 0.390666 0.653420 0.434854
v 0.333012 0.653420 0.434854
v 0.387224 0.599733 0.433502
v 0.333012 0.649988 0.433502
v 0.387224 0.649988 0.433502
v 0.385660 0.599733 0.432359
v 0.333012 0.648429 0.432359
v 0.385660 0.648429 0.432359
v 0.383365 0.599733 0.429448
v 0.383365 0.646142 0.429448
v 0.333012 0.646142 0.429448
v 0.382113 0.599733 0.425809
v 0.382113 0.644894 0.425809
v 0.333012 0.644894 0.425809
v 0.382009 0.599733 0.419907
v 0.382009 0.644790 0.419907
v 0.333012 0.644790 0.419907
v 0.376377 0.599733 0.420298
v 0.333012 0.639176 0.420298
v 0.376377 0.639176 0.420298
v 0.357395 0.599733 0.427160
v 0.333012 0.620253 0.427160
v 0.357395 0.620253 0.427160
v 0.348216 0.599733 0.427992
v 0.333012 0.611103 0.427992
v 0.348216 0.611103 0.427992
v 0.346443 0.599733 0.429032
v 0.333012 0.609336 0.429032
v 0.346443 0.609336 0.429032
v 0.345192 0.608088 0.430695
v 0.345192 0.599733 0.430695
v 0.333012 0.608088 0.430695
v 0.344357 0.607257 0.432463
v 0.344357 0.599733 0.432463
v 0.333012 0.607257 0.432463
v 0.344357 0.607257 0.436102
v 0.344357 0.599733 0.436102
v 0.333012 0.607257 0.436102
v 0.343940 0.606841 0.436622
v 0.343940 0.599733 0.436622
v 0.333012 0.606841 0.436622
v 0.343106 0.599733 0.437349
v 0.333012 0.606009 0.437349
v 0.343106 0.606009 0.437349
v 0.341541 0.599733 0.437765
v 0.333012 0.604449 0.437765
v 0.341541 0.604449 0.437765
v 0.333012 0.599733 0.437765
vn 0 0.6135802724836964 0.7896323506663294
vn 0 0.8290928702594121 0.559110912507536
vn 0 0.9288337090126991 0.3704968839298284
vn 0 0.3414098300931725 0.9399145322399005
vn 0.6124569538008426 0 0.7905039403703138
vn 0.8283019491720808 0 0.5602819656188585
vn 0.9284364785269614 0 0.3714911914708816
vn 0 0.9891091267360441 0.14718401885891053
vn 0.9890442951817976 0 0.1476190440571317
vn 0 0.22162097392296942 0.9751328852609958
vn 0.3404891599235399 0 0.9402484416230438
vn 0.2209580698390015 0 0.9752833082612573
vn 0 0.9819562839817984 -0.1891080546900571
vn 0.9818532936856189 0 -0.1896420567245078
vn 0 1 0
vn 0 0.9951332860346846 0.09853802832313467
vn 0.9951033352458921 0 0.09884003329876805
vn 1 0 0
vn 0 0.8589288642609056 -0.5120949190721098
vn 0.8582522250818252 0 -0.5132281345971754
vn 0 0.9664996558179357 0.2566679085974942
vn 0.9662998881213223 0 0.25741897019590465
vn 0 0.7071067811865478 -0.7071067811865476
vn 0.7060099319039332 0 -0.7082019316925104
vn 0 0.850650911463407 0.5257309452814004
vn 0.8499868493037199 0 0.5268039066016267
vn 0 0.5257309452814004 -0.850650911463407
vn 0.5245800711537835 0 -0.8513611154782039
vn 0 0.5847101851590341 0.8112422568945039
vn 0.5835593526505672 0 0.8120704907420605
vn 0.13838304493920922 0.13875004505839092 -0.9806113184486742
vn 0 0.2047469858485033 -0.9788149323472506
vn 0 0.32453610589209164 0.9458733086266875
vn 0.20418103070372476 0 -0.978933147207083
vn 0.32365415497519434 0 0.9461754530568276
vn 0 0 -1
vn 0 0.09853802832313423 0.9951332860346846
vn 0.06573998127538241 0.06593898121870134 0.9956557164089161
vn 0.09823601432944286 0 0.9951631451619706
vn 0 0 1
vn -1 0 0
vn 0 -1 0
vn -0.3655251777867379 0 0.9308014527298363
vn -0.4818122586320718 0 0.8762744703754993
vn 0 -0.48294095511305524 0.8756529186124432
vn 0 -0.3665250692569345 0.9304081758057586
vn -0.6941731003798672 0 0.7198081040867788
vn 0 -0.6952647452755545 0.7187537366698823
vn -0.877878145578545 0 0.4788840794133534
vn 0 -0.8784757804052407 0.47778688056643376
vn -0.9848188941388683 0 0.17358498134083059
vn 0 -0.9849077760004802 0.17307996063608266
vn -0.9998438734017765 0 0.01766999776266037
vn 0 -0.999844843899236 0.017614997249858547
vn 0.06928399836957433 0 0.9975969765240493
vn 0.20661103385838592 0 0.9784231603391085
vn 0 0.20721105572558732 0.978296263094717
vn 0 0.06950198697783071 0.9975818130890988
vn 0.21689001057165314 0 0.9761960475817488
vn 0 0.21752092380493498 0.9760556580989874
vn 0.30540305586769156 0 0.9522231741911535
vn 0 0.30619403940763457 0.9519691225198621
vn 0.665425911906931 0 0.7464639011786365
vn 0 0.6665042256060533 0.74550125234588
vn 0.8561436963344461 0 0.5167378167182962
vn 0 0.8568480476129051 0.5155690286488831
vn 0.9757818419038387 0 0.21874596455878165
vn 0 0.975914600541645 0.21815291070632353
vn 0.9433732828148622 0 0.3317330994506125
vn 0 0.9436282658989128 0.3310070932723506
vn 0.7214492865272482 0 0.6924672750168952
vn 0 0.722521964745264 0.6913479662663682
vn 0.4693402210853445 0 0.8830174159503084
vn 0 0.4703752629913514 0.882466493395538
vn 0.25690491599287696 0 0.9664366839781554
vn 0 0.25766296176359205 0.9662348566136567
vn 0 -0.8290928702594121 -0.559110912507536
vn 0 -0.6135802724836964 -0.7896323506663294
vn 0 -0.9288337090126991 -0.3704968839298284
vn 0 -0.3414098300931725 -0.9399145322399005
vn -0.8283019491720808 0 -0.5602819656188585
vn -0.6124569538008426 0 -0.7905039403703138
vn -0.9284364785269614 0 -0.3714911914708816
vn 0 -0.9891091267360441 -0.14718401885891053
vn -0.9890442951817976 0 -0.1476190440571317
vn 0 -0.22162097392296942 -0.9751328852609958
vn -0.3404891599235399 0 -0.9402484416230438
vn -0.2209580698390015 0 -0.9752833082612573
vn 0 -0.9819562839817984 0.1891080546900571
vn -0.9818532936856189 0 0.1896420567245078
vn 0 -0.9951332860346846 -0.09853802832313467
vn -0.9951033352458921 0 -0.09884003329876805
vn 0 -0.8589288642609056 0.5120949190721098
vn -0.8582522250818252 0 0.5132281345971754
vn 0 -0.9664996558179357 -0.2566679085974942
vn -0.9662998881213223 0 -0.25741897019590465
vn 0 -0.7071067811865478 0.7071067811865476
vn -0.7060099319039332 0 0.7082019316925104
vn 0 -0.850650911463407 -0.5257309452814004
vn -0.8499868493037199 0 -0.5268039066016267
vn 0 -0.5257309452814004 0.850650911463407
vn -0.5245800711537835 0 0.8513611154782039
vn 0 -0.5847101851590341 -0.8112422568945039
vn -0.5835593526505672 0 -0.8120704907420605
vn -0.13838304493920922 -0.13875004505839092 0.9806113184486742
vn 0 -0.2047469858485033 0.9788149323472506
vn 0 -0.32453610589209164 -0.9458733086266875
vn -0.20418103070372476 0 0.978933147207083
vn -0.32365415497519434 0 -0.9461754530568276
vn 0 -0.09853802832313423 -0.9951332860346846
vn -0.06573998127538241 -0.06593898121870134 -0.9956557164089161
vn -0.09823601432944286 0 -0.9951631451619706
vn 0.3655251777867379 0 -0.9308014527298363
vn 0.4818122586320718 0 -0.8762744703754993
vn 0 0.3665250692569345 -0.9304081758057586
vn 0 0.48294095511305524 -0.8756529186124432
vn 0.6941731003798672 0 -0.7198081040867788
vn 0 0.6952647452755545 -0.7187537366698823
vn 0.877878145578545 0 -0.4788840794133534
vn 0 0.8784757804052407 -0.47778688056643376
vn 0.9848188941388683 0 -0.17358498134083059
vn 0 0.9849077760004802 -0.17307996063608266
vn 0.9998438734017765 0 -0.01766999776266037
vn 0 0.999844843899236 -0.017614997249858547
vn -0.06928399836957433 0 -0.9975969765240493
vn -0.20661103385838592 0 -0.9784231603391085
vn 0 -0.06950198697783071 -0.9975818130890988
vn 0 -0.20721105572558732 -0.978296263094717
vn -0.21689001057165314 0 -0.9761960475817488
vn 0 -0.21752092380493498 -0.9760556580989874
vn -0.30540305586769156 0 -0.9522231741911535
vn 0 -0.30619403940763457 -0.9519691225198621
vn -0.665425911906931 0 -0.7464639011786365
vn 0 -0.6665042256060533 -0.74550125234588
vn -0.8561436963344461 0 -0.5167378167182962
vn 0 -0.8568480476129051 -0.5155690286488831
vn -0.9757818419038387 0 -0.21874596455878165
vn 0 -0.975914600541645 -0.21815291070632353
vn -0.9433732828148622 0 -0.3317330994506125
vn 0 -0.9436282658989128 -0.3310070932723506
vn -0.7214492865272482 0 -0.6924672750168952
vn 0 -0.722521964745264 -0.6913479662663682
vn -0.4693402210853445 0 -0.8830174159503084
vn 0 -0.4703752629913514 -0.882466493395538
vn -0.25690491599287696 0 -0.9664366839781554
vn 0 -0.25766296176359205 -0.9662348566136567
usemtl material_0_0
f 1//1 2//2 3//2
f 2//2 1//1 4//1
f 5//3 3//2 2//2
f 6//2 1//1 3//2
f 7//4 4//1 1//1
f 4//5 8//6 2//6
f 3//2 5//3 9//3
f 2//6 10//7 5//7
f 1//1 6//2 11//1
f 3//2 12//3 6//2
f 4//1 7//4 13//4
f 1//1 14//4 7//4
f 8//6 4//5 15//5
f 10//7 2//6 8//6
f 16//8 9//3 5//3
f 12//3 3//2 9//3
f 17//9 5//7 10//7
f 14//4 1//1 11//1
f 18//10 13//4 7//4
f 19//11 4//5 13//11
f 20//10 7//4 14//4
f 4//5 19//11 15//5
f 9//3 16//8 21//8
f 5//7 17//9 16//9
f 9//3 22//8 12//3
f 13//4 18//10 23//10
f 7//4 20//10 18//10
f 13//11 24//12 19//11
f 16//8 25//13 21//8
f 22//8 9//3 21//8
f 26//14 16//9 17//9
f 18//15 27//16 23//15
f 24//12 13//11 23//12
f 20//15 28//16 18//15
f 25//13 16//8 29//13
f 30//13 21//8 25//13
f 21//8 30//13 22//8
f 16//9 26//14 29//14
f 27//16 18//15 28//16
f 27//17 24//18 23//18
f 28//16 20//15 31//16
f 29//13 32//19 25//13
f 25//13 33//19 30//13
f 34//20 29//14 26//14
f 35//21 27//16 28//16
f 24//18 27//17 36//17
f 31//16 35//21 28//16
f 32//19 29//13 37//19
f 33//19 25//13 32//19
f 29//14 34//20 37//20
f 27//16 35//21 38//21
f 38//22 36//17 27//17
f 35//21 31//16 39//21
f 37//19 40//23 32//19
f 32//19 41//23 33//19
f 42//24 37//20 34//20
f 43//25 38//21 35//21
f 36//17 38//22 44//22
f 39//21 43//25 35//21
f 40//23 37//19 45//23
f 41//23 32//19 40//23
f 37//20 42//24 45//24
f 38//21 43//25 46//25
f 46//26 44//22 38//22
f 43//25 39//21 47//25
f 48//27 40//23 45//23
f 49//27 41//23 40//23
f 42//24 48//28 45//24
f 50//29 46//25 43//25
f 44//22 46//26 51//26
f 52//29 43//25 47//25
f 40//23 48//27 49//27
f 41//23 49//27 53//27
f 48//28 42//24 54//28
f 46//25 50//29 55//29
f 43//25 52//29 50//29
f 46//26 56//30 51//26
f 57//31 49//27 48//27
f 58//32 53//27 49//27
f 54//28 57//31 48//28
f 59//33 55//29 50//29
f 56//30 46//26 55//30
f 60//33 50//29 52//29
f 49//27 57//31 58//32
f 53//27 58//32 61//32
f 57//31 54//28 62//34
f 55//29 59//33 63//33
f 50//29 60//33 59//33
f 55//30 64//35 56//30
f 62//34 58//32 57//31
f 65//36 61//32 58//32
f 66//37 63//33 59//33
f 64//35 55//30 63//35
f 67//37 59//33 60//33
f 58//32 62//34 65//36
f 61//32 65//36 68//36
f 63//33 66//37 69//38
f 59//33 67//37 66//37
f 63//35 70//39 64//35
f 71//40 69//38 66//37
f 70//39 63//35 69//38
f 72//40 66//37 67//37
f 73//40 69//38 71//40
f 66//37 72//40 71//40
f 69//38 73//40 70//39
f 71//41 74//41 73//41
f 72//42 75//42 71//42
f 74//41 71//41 75//41
f 75//42 72//42 76//42
f 75//43 77//44 74//43
f 78//45 75//46 76//46
f 77//44 75//43 79//44
f 75//46 78//45 79//45
f 79//44 80//47 77//44
f 81//48 79//45 78//45
f 80//47 79//44 82//47
f 79//45 81//48 82//48
f 82//47 83//49 80//47
f 81//48 84//50 82//48
f 83//49 82//47 84//49
f 84//50 81//48 85//50
f 84//49 86//51 83//49
f 85//50 87//52 84//50
f 86//51 84//49 87//51
f 87//52 85//50 88//52
f 87//51 89//53 86//51
f 88//52 90//54 87//52
f 89//53 87//51 90//53
f 90//54 88//52 91//54
f 90//55 92//56 89//55
f 93//57 90//58 91//58
f 92//56 90//55 94//56
f 90//58 93//57 94//57
f 94//56 95//59 92//56
f 96//60 94//57 93//57
f 95//59 94//56 97//59
f 94//57 96//60 97//60
f 97//59 98//61 95//59
f 99//62 97//60 96//60
f 98//61 97//59 100//61
f 97//60 99//62 100//62
f 100//61 101//63 98//61
f 102//64 100//62 99//62
f 101//63 100//61 103//63
f 100//62 102//64 103//64
f 104//65 101//63 103//63
f 102//64 104//66 103//64
f 101//63 104//65 105//65
f 104//66 102//64 106//66
f 107//67 105//65 104//65
f 106//66 107//68 104//66
f 105//65 107//67 108//67
f 107//68 106//66 109//68
f 110//69 108//67 107//67
f 109//68 110//70 107//68
f 108//67 110//69 111//69
f 110//70 109//68 112//70
f 113//71 111//69 110//69
f 112//70 113//72 110//70
f 111//69 113//71 114//71
f 113//72 112//70 115//72
f 113//71 116//73 114//71
f 117//74 113//72 115//72
f 116//73 113//71 118//73
f 113//72 117//74 118//74
f 118//73 119//75 116//73
f 120//76 118//74 117//74
f 119//75 118//73 121//75
f 118//74 120//76 121//76
f 121//40 122//40 119//40
f 122//40 121//40 120//40
usemtl material_1_0
f 3//77 2//77 1//78
f 4//78 1//78 2//77
f 2//77 3//77 5//79
f 3//77 1//78 6//77
f 1//78 4//78 7//80
f 2//81 8//81 4//82
f 9//79 5//79 3//77
f 5//83 10//83 2//81
f 11//78 6//77 1//78
f 6//77 12//79 3//77
f 13//80 7//80 4//78
f 7//80 14//80 1//78
f 15//82 4//82 8//81
f 8//81 2//81 10//83
f 5//79 9//79 16//84
f 9//79 3//77 12//79
f 10//83 5//83 17//85
f 11//78 1//78 14//80
f 7//80 13//80 18//86
f 13//87 4//82 19//87
f 14//80 7//80 20//86
f 15//82 19//87 4//82
f 21//84 16//84 9//79
f 16//85 17//85 5//83
f 12//79 22//84 9//79
f 23//86 18//86 13//80
f 18//86 20//86 7//80
f 19//87 24//88 13//87
f 21//84 25//89 16//84
f 21//84 9//79 22//84
f 17//85 16//85 26//90
f 23//42 27//91 18//42
f 23//88 13//87 24//88
f 18//42 28//91 20//42
f 29//89 16//84 25//89
f 25//89 21//84 30//89
f 22//84 30//89 21//84
f 29//90 26//90 16//85
f 28//91 18//42 27//91
f 23//41 24//41 27//92
f 31//91 20//42 28//91
f 25//89 32//93 29//89
f 30//89 33//93 25//89
f 26//90 29//90 34//94
f 28//91 27//91 35//95
f 36//92 27//92 24//41
f 28//91 35//95 31//91
f 37//93 29//89 32//93
f 32//93 25//89 33//93
f 37//94 34//94 29//90
f 38//95 35//95 27//91
f 27//92 36//92 38//96
f 39//95 31//91 35//95
f 32//93 40//97 37//93
f 33//93 41//97 32//93
f 34//94 37//94 42//98
f 35//95 38//95 43//99
f 44//96 38//96 36//92
f 35//95 43//99 39//95
f 45//97 37//93 40//97
f 40//97 32//93 41//97
f 45//98 42//98 37//94
f 46//99 43//99 38//95
f 38//96 44//96 46//100
f 47//99 39//95 43//99
f 45//97 40//97 48//101
f 40//97 41//97 49//101
f 45//98 48//102 42//98
f 43//99 46//99 50//103
f 51//100 46//100 44//96
f 47//99 43//99 52//103
f 49//101 48//101 40//97
f 53//101 49//101 41//97
f 54//102 42//98 48//102
f 55//103 50//103 46//99
f 50//103 52//103 43//99
f 51//100 56//104 46//100
f 48//101 49//101 57//105
f 49//101 53//101 58//106
f 48//102 57//105 54//102
f 50//103 55//103 59//107
f 55//104 46//100 56//104
f 52//103 50//103 60//107
f 58//106 57//105 49//101
f 61//106 58//106 53//101
f 62//108 54//102 57//105
f 63//107 59//107 55//103
f 59//107 60//107 50//103
f 56//104 64//109 55//104
f 57//105 58//106 62//108
f 58//106 61//106 65//40
f 59//107 63//107 66//110
f 63//109 55//104 64//109
f 60//107 59//107 67//110
f 65//40 62//108 58//106
f 68//40 65//40 61//106
f 69//111 66//110 63//107
f 66//110 67//110 59//107
f 64//109 70//112 63//109
f 66//110 69//111 71//36
f 69//111 63//109 70//112
f 67//110 66//110 72//36
f 71//36 69//111 73//36
f 71//36 72//36 66//110
f 70//112 73//36 69//111
f 73//18 74//18 71//18
f 71//15 75//15 72//15
f 75//18 71//18 74//18
f 76//15 72//15 75//15
f 74//113 77//114 75//113
f 76//115 75//115 78//116
f 79//114 75//113 77//114
f 79//116 78//116 75//115
f 77//114 80//117 79//114
f 78//116 79//116 81//118
f 82//117 79//114 80//117
f 82//118 81//118 79//116
f 80//117 83//119 82//117
f 82//118 84//120 81//118
f 84//119 82//117 83//119
f 85//120 81//118 84//120
f 83//119 86//121 84//119
f 84//120 87//122 85//120
f 87//121 84//119 86//121
f 88//122 85//120 87//122
f 86//121 89//123 87//121
f 87//122 90//124 88//122
f 90//123 87//121 89//123
f 91//124 88//122 90//124
f 89//125 92//126 90//125
f 91//127 90//127 93//128
f 94//126 90//125 92//126
f 94//128 93//128 90//127
f 92//126 95//129 94//126
f 93//128 94//128 96//130
f 97//129 94//126 95//129
f 97//130 96//130 94//128
f 95//129 98//131 97//129
f 96//130 97//130 99//132
f 100//131 97//129 98//131
f 100//132 99//132 97//130
f 98//131 101//133 100//131
f 99//132 100//132 102//134
f 103//133 100//131 101//133
f 103//134 102//134 100//132
f 103//133 101//133 104//135
f 103//134 104//136 102//134
f 105//135 104//135 101//133
f 106//136 102//134 104//136
f 104//135 105//135 107//137
f 104//136 107//138 106//136
f 108//137 107//137 105//135
f 109//138 106//136 107//138
f 107//137 108//137 110//139
f 107//138 110//140 109//138
f 111//139 110//139 108//137
f 112//140 109//138 110//140
f 110//139 111//139 113//141
f 110//140 113//142 112//140
f 114//141 113//141 111//139
f 115//142 112//140 113//142
f 114//141 116//143 113//141
f 115//142 113//142 117//144
f 118//143 113//141 116//143
f 118//144 117//144 113//142
f 116//143 119//145 118//143
f 117//144 118//144 120//146
f 121//145 118//143 119//145
f 121//146 120//146 118//144
f 119//36 122//36 121//36
f 120//36 121//36 122//36
