# SSTK version 0.8.0
# 50
mtllib original-50.mtl
o RT_11_TL1/RT_11_TL/mesh35/mesh35-geometry#mesh35-geometry
v -0.371783 0.216327 0.430477
v -0.370494 0.283201 0.428701
v -0.371783 0.284489 0.430477
v -0.370494 0.216327 0.428701
v -0.303629 0.284483 0.430477
v -0.374724 0.216327 0.433346
v -0.369536 0.282243 0.426788
v -0.303629 0.283195 0.428701
v -0.303629 0.287424 0.433346
v -0.374724 0.287430 0.433346
v -0.369536 0.216327 0.426788
v -0.376570 0.216327 0.434301
v -0.369531 0.282238 0.419349
v -0.303629 0.282237 0.426788
v -0.303629 0.289270 0.434301
v -0.376570 0.289276 0.434301
v -0.369531 0.216327 0.419349
v -0.378552 0.216327 0.434847
v -0.344832 0.257539 0.420039
v -0.303629 0.282231 0.419349
v -0.303629 0.291252 0.434847
v -0.378552 0.291259 0.434847
v -0.344832 0.216327 0.420039
v -0.378554 0.216327 0.437730
v -0.332670 0.245377 0.425105
v -0.303629 0.257532 0.420039
v -0.303629 0.291254 0.437730
v -0.378554 0.291261 0.437730
v -0.332670 0.216327 0.425105
v -0.458503 0.216327 0.437730
v -0.316260 0.228967 0.427713
v -0.303629 0.245370 0.425105
v -0.303629 0.371203 0.437730
v -0.458503 0.371210 0.437730
v -0.316260 0.216327 0.427713
v -0.378554 0.371210 0.437730
v -0.459050 0.216327 0.437661
v -0.314347 0.227054 0.428398
v -0.303629 0.228960 0.427713
v -0.303629 0.371750 0.437661
v -0.378007 0.371756 0.437661
v -0.459050 0.371756 0.437661
v -0.314347 0.216327 0.428398
v -0.459323 0.216327 0.437524
v -0.313527 0.226234 0.428946
v -0.303629 0.227047 0.428398
v -0.303629 0.372023 0.437524
v -0.377734 0.372030 0.437524
v -0.459323 0.372030 0.437524
v -0.313527 0.216327 0.428946
v -0.459664 0.372371 0.437182
v -0.312844 0.216327 0.429630
v -0.303629 0.226227 0.428946
v -0.377392 0.372371 0.437182
v -0.459664 0.216327 0.437182
v -0.312844 0.225551 0.429630
v -0.303629 0.372365 0.437182
v -0.459801 0.372508 0.436977
v -0.377256 0.372508 0.436977
v -0.312230 0.216327 0.430518
v -0.303629 0.225544 0.429630
v -0.459801 0.216327 0.436977
v -0.312230 0.224936 0.430518
v -0.303629 0.372501 0.436977
v -0.460006 0.372712 0.436499
v -0.377051 0.372712 0.436499
v -0.311411 0.216327 0.432364
v -0.303629 0.224930 0.430518
v -0.460006 0.216327 0.436499
v -0.311411 0.224117 0.432364
v -0.303629 0.372706 0.436499
v -0.460003 0.372710 0.433355
v -0.311413 0.216327 0.435440
v -0.303629 0.224111 0.432364
v -0.303629 0.372704 0.433355
v -0.460003 0.216327 0.433355
v -0.377053 0.372710 0.433355
v -0.311413 0.224120 0.435440
v -0.303629 0.224113 0.435440
v -0.462395 0.216327 0.432875
v -0.374662 0.375102 0.432875
v -0.310662 0.216327 0.436944
v -0.303629 0.375095 0.432875
v -0.462395 0.375102 0.432875
v -0.310662 0.223369 0.436944
v -0.464582 0.216327 0.431985
v -0.372475 0.377288 0.431985
v -0.303629 0.377282 0.431985
v -0.310184 0.222891 0.437286
v -0.303629 0.223362 0.436944
v -0.464582 0.377288 0.431985
v -0.310184 0.216327 0.437286
v -0.466563 0.216327 0.430685
v -0.466563 0.379269 0.430685
v -0.303629 0.379263 0.430685
v -0.309159 0.221866 0.437765
v -0.303629 0.222884 0.437286
v -0.370494 0.379269 0.430685
v -0.309159 0.216327 0.437765
v -0.469704 0.382411 0.427129
v -0.367353 0.382411 0.427129
v -0.303629 0.221859 0.437765
v -0.469704 0.216327 0.427129
v -0.303629 0.382404 0.427129
v -0.303629 0.216327 0.437765
v -0.471478 0.384185 0.422617
v -0.365579 0.384185 0.422617
v -0.471478 0.216327 0.422617
v -0.303629 0.384178 0.422617
v -0.471467 0.384173 0.406419
v -0.303629 0.384167 0.406419
v -0.471467 0.216327 0.406419
v -0.365590 0.384173 0.406419
v -0.471261 0.383968 0.405599
v -0.303629 0.383961 0.405599
v -0.471261 0.216327 0.405599
v -0.365796 0.383968 0.405599
v -0.470919 0.383626 0.404847
v -0.303629 0.383619 0.404847
v -0.470919 0.216327 0.404847
v -0.366138 0.383626 0.404847
v -0.469688 0.216327 0.403686
v -0.367369 0.382395 0.403686
v -0.469688 0.382395 0.403686
v -0.303629 0.382388 0.403686
v -0.468936 0.216327 0.403277
v -0.468936 0.381642 0.403277
v -0.368121 0.381642 0.403277
v -0.303629 0.381636 0.403277
v -0.468047 0.216327 0.403004
v -0.468047 0.380754 0.403004
v -0.369520 0.380754 0.403004
v -0.303629 0.380747 0.403004
v -0.369520 0.216327 0.403004
v -0.369520 0.282226 0.403004
v -0.303629 0.282220 0.403004
v -0.369524 0.216327 0.408676
v -0.303629 0.282224 0.408676
v -0.369524 0.282230 0.408676
v -0.303629 0.216327 0.408676
vn 0.7566069510668253 0 0.6538699577112888
vn 0.8546441946315632 0 0.5192141182427215
vn -0.00008200001385123852 -0.8546551443662227 0.5191960877013123
vn -0.00007099997864555265 -0.7566217724331739 0.6538528033426834
vn 0.5853399717444695 0 0.8107879608616444
vn 0.9730893575593176 0 0.23042808467023923
vn -0.00005299998562550484 -0.5853568412412953 0.810775780103855
vn -0.00009399995465156583 -0.9730915305510798 0.2304188888389269
vn 0.3644729851431702 0 0.9312139620413916
vn 0.9999997591820871 0 0.0006939998328723683
vn -0.000031999996049584734 -0.36448595500402964 0.9312088850418045
vn -0.00009699997618432627 -0.9999997544775904 0.0006939998296072256
vn 0.26525997945176916 0 0.9641769253105196
vn -0.027921003708733204 0 0.9996101327777227
vn -0.20973696688956175 0 0.9777578456448033
vn -0.00002299999762817137 -0.26527097264446314 0.9641739005715
vn 0.000036000014277230495 0.20975308318588665 0.9777543877672007
vn 0.0000030000002309430266 0.02792300214954049 0.9996100769509864
vn 0.9999997500755938 0 0.0007069998233034448
vn -0.27266712317017505 0 0.9621084346070876
vn -0.0000849999784493632 -0.9999997464630964 0.0007069998207491871
vn 0.00005500002023753616 0.27269210033844 0.9621013540100688
vn 0 0 1
vn -0.06248399786392209 0 0.9980459658808013
vn -0.24806203803039392 0 0.9687441485181767
vn 0.000005000000766245176 0.06248100957515275 0.9980461529495867
vn -0.04171900032361429 0.041719000323614065 0.9982580077434874
vn 0.00011299998191288536 0.24811396028613816 0.9687308449420473
vn 0 0.06248399786392187 0.9980459658808013
vn -0.29044793804963975 0 0.9568907959023918
vn -0.4495009309114875 0 0.8932798627024491
vn 0.000025000002764625457 0.2904370321179807 0.9568941058181406
vn 0 0.2904479380496395 0.9568907959023917
vn 0.0002659999883550528 0.44960398031723714 0.8932279608962673
vn -0.5852731453160241 0 0.8108362013205184
vn -0.6345251658556994 0 0.7729022020254549
vn 0.00005099999393727408 0.5852569304264158 0.8108479036088396
vn 0 0.5852731453160239 0.8108362013205185
vn 0.00041099990395714265 0.6346448516955735 0.7728038194104518
vn -0.7737819923287252 0 0.6334519937199569
vn -0.7681958691605065 0 0.6402148909582889
vn 0.00006699999407472178 0.7737689315701999 0.6334679439779981
vn 0 0.7737819923287251 0.6334519937199571
vn 0.0005340000340796162 0.7683030490327177 0.6400860408499726
vn -0.8796104527302961 0 0.47569470403569103
vn 0 0.879610452730296 0.47569470403569125
vn -0.8721627413056673 0 0.48921585489248376
vn 0.00007600001184536278 0.8796021370947996 0.47571007414417815
vn 0.0006539998210535744 0.872238761339371 0.4890798661787191
vn -0.9797170249411464 0 0.20038600510132681
vn 0 0.9797170249411464 0.20038600510132704
vn -0.9783593314437387 0 0.2069130700969872
vn 0.00008500003214336323 0.9797153704862953 0.20039407578043705
vn 0.0007850000341219898 0.9783740425274747 0.20684200899090546
vn -0.9999997591820871 0 -0.0006939998328723683
vn 0 0.9999997591820871 -0.0006939998328721463
vn -0.9734080659250369 0 0.22907801551453819
vn 0.00008699997871959032 0.9999997553975898 -0.0006939998302457052
vn 0.0008190003902021818 0.9734274637769711 0.22899410910129256
vn -0.1967960882874681 0 0.980444439851005
vn -0.2881870414348153 0 0.9575741376776254
vn 0 0.2881870414348151 0.9575741376776256
vn 0 0.1967960882874679 0.980444439851005
vn -0.760701221438256 0 0.649102188952052
vn 0.000025999994053997038 0.2881749340965612 0.9575777810091685
vn 0.0000170000010527336 0.1967880121861962 0.9804460607146145
vn 0.0006790000249240545 0.7608290279277515 0.6489520238210826
vn -0.4650018474552389 0 0.8853097095724267
vn 0 0.4650018474552387 0.8853097095724268
vn 0.00004299998314755741 0.46498481776434814 0.8853186530281948
vn -0.5047842986605142 0 0.8632455107475585
vn 0.0004990002177802095 0.5049672203844068 0.8631383767021534
vn -0.6548381350260002 0 0.7557691558377265
vn 0 0.654838135026 0.7557691558377266
vn 0.00006299999997902101 0.6548209997819445 0.7557839997483241
vn -0.4235138305318217 0 0.9058896375101458
vn 0.00044599994800956607 0.42369695060943724 0.9058038944099933
vn -0.8530121330592406 0 0.5218910814084915
vn 0 0.8530121330592405 0.5218910814084917
vn 0.00008500001200595503 0.853001120483431 0.5219090737178353
vn -0.9825771759039295 0 0.18585503327232858
vn 0 0.9825771759039295 0.1858550332723288
vn 0.00010099996663234353 0.98257567538358 0.18586293859591374
vn -0.9924225339024156 0 -0.12287194229240718
vn 0 0.9924225339024156 -0.12287194229240696
vn 0.00010199997759203538 0.9924217819788524 -0.12287797300543238
vn -0.9439172567393933 0 -0.33018208980739444
vn 0 0.9439172567393934 -0.3301820898073942
vn 0.00009700000329984317 0.9439120321109441 -0.3301970112329721
vn -0.8133039925432224 0 -0.5818389946654092
vn 0 0.8133039925432225 -0.581838994665409
vn 0.00008300000722021245 0.8132910707486002 -0.5818570506160378
vn -0.5870399656687297 0 -0.8095579526554332
vn 0 0.58703996566873 -0.8095579526554331
vn 0.000058999985807378114 0.5870208587903886 -0.8095718052550968
vn -0.3877870045817035 0 -0.9217490108904648
vn 0 0.38778700458170373 -0.9217490108904647
vn 0.00003800001491915078 0.3877671522409039 -0.921757361890307
vn -0.1483530690609659 0 -0.9889344603664046
vn -0.09975695320906196 0.09975695320906218 -0.9899985356417907
vn 0.000015000001790362821 0.14834201770573366 -0.9889361180369498
vn 0 0.14835306906096613 -0.9889344603664046
vn 0 0 -1
vn -0.7566069510668253 0 -0.6538699577112888
vn -0.8546441946315632 0 -0.5192141182427215
vn 0.00007099997864555265 0.7566217724331739 -0.6538528033426834
vn 0.00008200001385123852 0.8546551443662227 -0.5191960877013123
vn -0.5853399717444695 0 -0.8107879608616444
vn -0.9730893575593176 0 -0.23042808467023923
vn 0.00005299998562550484 0.5853568412412953 -0.810775780103855
vn 0.00009399995465156583 0.9730915305510798 -0.2304188888389269
vn -0.3644729851431702 0 -0.9312139620413916
vn 0.000031999996049584734 0.36448595500402964 -0.9312088850418045
vn 0.00009699997618432627 0.9999997544775904 -0.0006939998296072256
vn -0.26525997945176916 0 -0.9641769253105196
vn 0.027921003708733204 0 -0.9996101327777227
vn 0.20973696688956175 0 -0.9777578456448033
vn 0.00002299999762817137 0.26527097264446314 -0.9641739005715
vn -0.0000030000002309430266 -0.02792300214954049 -0.9996100769509864
vn -0.000036000014277230495 -0.20975308318588665 -0.9777543877672007
vn -0.9999997500755938 0 -0.0007069998233034448
vn 0.27266712317017505 0 -0.9621084346070876
vn 0.0000849999784493632 0.9999997464630964 -0.0007069998207491871
vn -0.00005500002023753616 -0.27269210033844 -0.9621013540100688
vn 0.06248399786392209 0 -0.9980459658808013
vn 0.24806203803039392 0 -0.9687441485181767
vn -0.000005000000766245176 -0.06248100957515275 -0.9980461529495867
vn 0.04171900032361429 -0.041719000323614065 -0.9982580077434874
vn -0.00011299998191288536 -0.24811396028613816 -0.9687308449420473
vn 0 -0.06248399786392187 -0.9980459658808013
vn 0.29044793804963975 0 -0.9568907959023918
vn 0.4495009309114875 0 -0.8932798627024491
vn -0.000025000002764625457 -0.2904370321179807 -0.9568941058181406
vn 0 -0.2904479380496395 -0.9568907959023917
vn -0.0002659999883550528 -0.44960398031723714 -0.8932279608962673
vn 0.5852731453160241 0 -0.8108362013205184
vn 0.6345251658556994 0 -0.7729022020254549
vn -0.00005099999393727408 -0.5852569304264158 -0.8108479036088396
vn 0 -0.5852731453160239 -0.8108362013205185
vn -0.00041099990395714265 -0.6346448516955735 -0.7728038194104518
vn 0.7737819923287252 0 -0.6334519937199569
vn 0.7681958691605065 0 -0.6402148909582889
vn -0.00006699999407472178 -0.7737689315701999 -0.6334679439779981
vn 0 -0.7737819923287251 -0.6334519937199571
vn -0.0005340000340796162 -0.7683030490327177 -0.6400860408499726
vn 0.8796104527302961 0 -0.47569470403569103
vn 0 -0.879610452730296 -0.47569470403569125
vn 0.8721627413056673 0 -0.48921585489248376
vn -0.00007600001184536278 -0.8796021370947996 -0.47571007414417815
vn -0.0006539998210535744 -0.872238761339371 -0.4890798661787191
vn 0.9797170249411464 0 -0.20038600510132681
vn 0 -0.9797170249411464 -0.20038600510132704
vn 0.9783593314437387 0 -0.2069130700969872
vn -0.00008500003214336323 -0.9797153704862953 -0.20039407578043705
vn -0.0007850000341219898 -0.9783740425274747 -0.20684200899090546
vn 0 -0.9999997591820871 0.0006939998328721463
vn 0.9734080659250369 0 -0.22907801551453819
vn -0.00008699997871959032 -0.9999997553975898 0.0006939998302457052
vn -0.0008190003902021818 -0.9734274637769711 -0.22899410910129256
vn 0.1967960882874681 0 -0.980444439851005
vn 0.2881870414348153 0 -0.9575741376776254
vn 0 -0.1967960882874679 -0.980444439851005
vn 0 -0.2881870414348151 -0.9575741376776256
vn 0.760701221438256 0 -0.649102188952052
vn -0.0000170000010527336 -0.1967880121861962 -0.9804460607146145
vn -0.000025999994053997038 -0.2881749340965612 -0.9575777810091685
vn -0.0006790000249240545 -0.7608290279277515 -0.6489520238210826
vn 0.4650018474552389 0 -0.8853097095724267
vn 0 -0.4650018474552387 -0.8853097095724268
vn -0.00004299998314755741 -0.46498481776434814 -0.8853186530281948
vn 0.5047842986605142 0 -0.8632455107475585
vn -0.0004990002177802095 -0.5049672203844068 -0.8631383767021534
vn 0.6548381350260002 0 -0.7557691558377265
vn 0 -0.654838135026 -0.7557691558377266
vn -0.00006299999997902101 -0.6548209997819445 -0.7557839997483241
vn 0.4235138305318217 0 -0.9058896375101458
vn -0.00044599994800956607 -0.42369695060943724 -0.9058038944099933
vn 0.8530121330592406 0 -0.5218910814084915
vn 0 -0.8530121330592405 -0.5218910814084917
vn -0.00008500001200595503 -0.853001120483431 -0.5219090737178353
vn 0.9825771759039295 0 -0.18585503327232858
vn 0 -0.9825771759039295 -0.1858550332723288
vn -0.00010099996663234353 -0.98257567538358 -0.18586293859591374
vn 0.9924225339024156 0 0.12287194229240718
vn 0 -0.9924225339024156 0.12287194229240696
vn -0.00010199997759203538 -0.9924217819788524 0.12287797300543238
vn 0.9439172567393933 0 0.33018208980739444
vn 0 -0.9439172567393934 0.3301820898073942
vn -0.00009700000329984317 -0.9439120321109441 0.3301970112329721
vn 0.8133039925432224 0 0.5818389946654092
vn 0 -0.8133039925432225 0.581838994665409
vn -0.00008300000722021245 -0.8132910707486002 0.5818570506160378
vn 0.5870399656687297 0 0.8095579526554332
vn 0 -0.58703996566873 0.8095579526554331
vn -0.000058999985807378114 -0.5870208587903886 0.8095718052550968
vn 0.3877870045817035 0 0.9217490108904648
vn 0 -0.38778700458170373 0.9217490108904647
vn -0.00003800001491915078 -0.3877671522409039 0.921757361890307
vn 0.1483530690609659 0 0.9889344603664046
vn 0.09975695320906196 -0.09975695320906218 0.9899985356417907
vn -0.000015000001790362821 -0.14834201770573366 0.9889361180369498
vn 0 -0.14835306906096613 0.9889344603664046
usemtl material_0_0
f 1//1 2//2 3//1
f 2//2 1//1 4//2
f 2//3 5//4 3//4
f 3//1 6//5 1//1
f 4//2 7//6 2//2
f 5//4 2//3 8//3
f 9//7 3//4 5//4
f 6//5 3//1 10//5
f 7//6 4//2 11//6
f 7//8 8//3 2//3
f 3//4 9//7 10//7
f 10//5 12//9 6//5
f 11//6 13//10 7//6
f 8//3 7//8 14//8
f 15//11 10//7 9//7
f 12//9 10//5 16//9
f 13//10 11//6 17//10
f 13//12 14//8 7//8
f 10//7 15//11 16//11
f 16//9 18//13 12//9
f 17//14 19//15 13//14
f 14//8 13//12 20//12
f 21//16 16//11 15//11
f 18//13 16//9 22//13
f 19//15 17//14 23//15
f 19//17 20//18 13//18
f 16//11 21//16 22//16
f 22//19 24//19 18//19
f 23//15 25//20 19//15
f 20//18 19//17 26//17
f 27//21 22//21 21//21
f 24//19 22//19 28//19
f 25//20 23//15 29//20
f 25//22 26//17 19//17
f 22//21 27//21 28//21
f 28//23 30//24 24//23
f 29//20 31//25 25//20
f 26//17 25//22 32//22
f 33//26 28//23 27//23
f 30//24 28//23 34//27
f 31//25 29//20 35//25
f 31//28 32//22 25//22
f 28//23 33//26 36//26
f 34//27 28//23 36//29
f 34//27 37//30 30//24
f 35//25 38//31 31//25
f 32//22 31//28 39//28
f 40//32 36//26 33//26
f 41//33 34//27 36//29
f 37//30 34//27 42//30
f 38//31 35//25 43//31
f 38//34 39//28 31//28
f 36//26 40//32 41//32
f 34//27 41//33 42//33
f 42//30 44//35 37//30
f 43//31 45//36 38//31
f 39//28 38//34 46//34
f 47//37 41//32 40//32
f 48//38 42//33 41//33
f 44//35 42//30 49//35
f 45//36 43//31 50//36
f 45//39 46//34 38//34
f 41//32 47//37 48//37
f 42//33 48//38 49//38
f 51//40 44//35 49//35
f 52//41 45//36 50//36
f 46//34 45//39 53//39
f 47//37 54//42 48//37
f 54//43 49//38 48//38
f 44//35 51//40 55//40
f 49//38 54//43 51//43
f 45//36 52//41 56//41
f 56//44 53//39 45//39
f 54//42 47//37 57//42
f 58//45 55//40 51//40
f 59//46 51//43 54//43
f 60//47 56//41 52//41
f 53//39 56//44 61//44
f 57//42 59//48 54//42
f 55//40 58//45 62//45
f 51//43 59//46 58//46
f 56//41 60//47 63//47
f 63//49 61//44 56//44
f 59//48 57//42 64//48
f 65//50 62//45 58//45
f 66//51 58//46 59//46
f 67//52 63//47 60//47
f 61//44 63//49 68//49
f 64//48 66//53 59//48
f 62//45 65//50 69//50
f 58//46 66//51 65//51
f 63//47 67//52 70//52
f 70//54 68//49 63//49
f 66//53 64//48 71//53
f 72//55 69//50 65//50
f 66//51 72//56 65//51
f 73//57 70//52 67//52
f 68//49 70//54 74//54
f 75//58 66//53 71//53
f 69//50 72//55 76//55
f 72//56 66//51 77//56
f 70//52 73//57 78//57
f 70//54 79//59 74//54
f 66//53 75//58 77//58
f 72//60 80//61 76//60
f 81//62 72//63 77//63
f 82//64 78//57 73//57
f 79//59 70//54 78//59
f 83//65 77//66 75//66
f 80//61 72//60 84//61
f 72//63 81//62 84//62
f 77//66 83//65 81//65
f 78//57 82//64 85//64
f 85//67 79//59 78//59
f 84//61 86//68 80//61
f 87//69 84//62 81//62
f 88//70 81//65 83//65
f 82//64 89//71 85//64
f 79//59 85//67 90//67
f 86//68 84//61 91//68
f 84//62 87//69 91//69
f 81//65 88//70 87//70
f 89//71 82//64 92//71
f 89//72 90//67 85//67
f 91//68 93//73 86//68
f 87//69 94//74 91//69
f 95//75 87//70 88//70
f 92//71 96//76 89//71
f 90//67 89//72 97//72
f 93//73 91//68 94//73
f 94//74 87//69 98//74
f 87//70 95//75 98//75
f 96//76 92//71 99//76
f 96//77 97//72 89//72
f 100//78 93//73 94//73
f 101//79 94//74 98//74
f 95//75 101//80 98//75
f 99//23 102//23 96//23
f 97//72 96//77 102//77
f 93//73 100//78 103//78
f 94//74 101//79 100//79
f 101//80 95//75 104//80
f 102//23 99//23 105//23
f 106//81 103//78 100//78
f 107//82 100//79 101//79
f 104//80 107//83 101//80
f 103//78 106//81 108//81
f 100//79 107//82 106//82
f 107//83 104//80 109//83
f 110//84 108//81 106//81
f 107//82 110//85 106//82
f 111//86 107//83 109//83
f 108//81 110//84 112//84
f 110//85 107//82 113//85
f 107//83 111//86 113//86
f 114//87 112//84 110//84
f 113//85 114//88 110//85
f 115//89 113//86 111//86
f 112//84 114//87 116//87
f 114//88 113//85 117//88
f 113//86 115//89 117//89
f 118//90 116//87 114//87
f 117//88 118//91 114//88
f 119//92 117//89 115//89
f 116//87 118//90 120//90
f 118//91 117//88 121//91
f 117//89 119//92 121//92
f 118//90 122//93 120//90
f 123//94 118//91 121//91
f 119//92 123//95 121//92
f 122//93 118//90 124//93
f 118//91 123//94 124//94
f 123//95 119//92 125//95
f 124//93 126//96 122//93
f 123//94 127//97 124//94
f 125//95 128//98 123//95
f 126//96 124//93 127//96
f 127//97 123//94 128//97
f 128//98 125//95 129//98
f 127//96 130//99 126//96
f 128//97 131//100 127//97
f 129//98 132//101 128//98
f 130//99 127//96 131//100
f 131//100 128//97 132//102
f 132//101 129//98 133//101
f 131//100 134//103 130//99
f 135//103 131//100 132//102
f 133//101 135//103 132//101
f 134//103 131//100 135//103
f 135//103 133//101 136//103
f 135//10 137//10 134//10
f 138//12 135//12 136//12
f 137//10 135//10 139//10
f 135//12 138//12 139//12
f 139//103 140//103 137//103
f 140//103 139//103 138//103
usemtl material_1_0
f 3//104 2//105 1//104
f 4//105 1//104 2//105
f 3//106 5//106 2//107
f 1//104 6//108 3//104
f 2//105 7//109 4//105
f 8//107 2//107 5//106
f 5//106 3//106 9//110
f 10//108 3//104 6//108
f 11//109 4//105 7//109
f 2//107 8//107 7//111
f 10//110 9//110 3//106
f 6//108 12//112 10//108
f 7//109 13//55 11//109
f 14//111 7//111 8//107
f 9//110 10//110 15//113
f 16//112 10//108 12//112
f 17//55 11//109 13//55
f 7//111 14//111 13//114
f 16//113 15//113 10//110
f 12//112 18//115 16//112
f 13//116 19//117 17//116
f 20//114 13//114 14//111
f 15//113 16//113 21//118
f 22//115 16//112 18//115
f 23//117 17//116 19//117
f 13//119 20//119 19//120
f 22//118 21//118 16//113
f 18//121 24//121 22//121
f 19//117 25//122 23//117
f 26//120 19//120 20//119
f 21//123 22//123 27//123
f 28//121 22//121 24//121
f 29//122 23//117 25//122
f 19//120 26//120 25//124
f 28//123 27//123 22//123
f 24//103 30//125 28//103
f 25//122 31//126 29//122
f 32//124 25//124 26//120
f 27//103 28//103 33//127
f 34//128 28//103 30//125
f 35//126 29//122 31//126
f 25//124 32//124 31//129
f 36//127 33//127 28//103
f 36//130 28//103 34//128
f 30//125 37//131 34//128
f 31//126 38//132 35//126
f 39//129 31//129 32//124
f 33//127 36//127 40//133
f 36//130 34//128 41//134
f 42//131 34//128 37//131
f 43//132 35//126 38//132
f 31//129 39//129 38//135
f 41//133 40//133 36//127
f 42//134 41//134 34//128
f 37//131 44//136 42//131
f 38//132 45//137 43//132
f 46//135 38//135 39//129
f 40//133 41//133 47//138
f 41//134 42//134 48//139
f 49//136 42//131 44//136
f 50//137 43//132 45//137
f 38//135 46//135 45//140
f 48//138 47//138 41//133
f 49//139 48//139 42//134
f 49//136 44//136 51//141
f 50//137 45//137 52//142
f 53//140 45//140 46//135
f 48//138 54//143 47//138
f 48//139 49//139 54//144
f 55//141 51//141 44//136
f 51//144 54//144 49//139
f 56//142 52//142 45//137
f 45//140 53//140 56//145
f 57//143 47//138 54//143
f 51//141 55//141 58//146
f 54//144 51//144 59//147
f 52//142 56//142 60//148
f 61//145 56//145 53//140
f 54//143 59//149 57//143
f 62//146 58//146 55//141
f 58//147 59//147 51//144
f 63//148 60//148 56//142
f 56//145 61//145 63//150
f 64//149 57//143 59//149
f 58//146 62//146 65//151
f 59//147 58//147 66//152
f 60//148 63//148 67//153
f 68//150 63//150 61//145
f 59//149 66//154 64//149
f 69//151 65//151 62//146
f 65//152 66//152 58//147
f 70//153 67//153 63//148
f 63//150 68//150 70//155
f 71//154 64//149 66//154
f 65//151 69//151 72//10
f 65//152 72//156 66//152
f 67//153 70//153 73//157
f 74//155 70//155 68//150
f 71//154 66//154 75//158
f 76//10 72//10 69//151
f 77//156 66//152 72//156
f 78//157 73//157 70//153
f 74//155 79//159 70//155
f 77//158 75//158 66//154
f 76//160 80//161 72//160
f 77//162 72//162 81//163
f 73//157 78//157 82//164
f 78//159 70//155 79//159
f 75//165 77//165 83//166
f 84//161 72//160 80//161
f 84//163 81//163 72//162
f 81//166 83//166 77//165
f 85//164 82//164 78//157
f 78//159 79//159 85//167
f 80//161 86//168 84//161
f 81//163 84//163 87//169
f 83//166 81//166 88//170
f 85//164 89//171 82//164
f 90//167 85//167 79//159
f 91//168 84//161 86//168
f 91//169 87//169 84//163
f 87//170 88//170 81//166
f 92//171 82//164 89//171
f 85//167 90//167 89//172
f 86//168 93//173 91//168
f 91//169 94//174 87//169
f 88//170 87//170 95//175
f 89//171 96//176 92//171
f 97//172 89//172 90//167
f 94//173 91//168 93//173
f 98//174 87//169 94//174
f 98//175 95//175 87//170
f 99//176 92//171 96//176
f 89//172 97//172 96//177
f 94//173 93//173 100//178
f 98//174 94//174 101//179
f 98//175 101//180 95//175
f 96//103 102//103 99//103
f 102//177 96//177 97//172
f 103//178 100//178 93//173
f 100//179 101//179 94//174
f 104//180 95//175 101//180
f 105//103 99//103 102//103
f 100//178 103//178 106//181
f 101//179 100//179 107//182
f 101//180 107//183 104//180
f 108//181 106//181 103//178
f 106//182 107//182 100//179
f 109//183 104//180 107//183
f 106//181 108//181 110//184
f 106//182 110//185 107//182
f 109//183 107//183 111//186
f 112//184 110//184 108//181
f 113//185 107//182 110//185
f 113//186 111//186 107//183
f 110//184 112//184 114//187
f 110//185 114//188 113//185
f 111//186 113//186 115//189
f 116//187 114//187 112//184
f 117//188 113//185 114//188
f 117//189 115//189 113//186
f 114//187 116//187 118//190
f 114//188 118//191 117//188
f 115//189 117//189 119//192
f 120//190 118//190 116//187
f 121//191 117//188 118//191
f 121//192 119//192 117//189
f 120//190 122//193 118//190
f 121//191 118//191 123//194
f 121//192 123//195 119//192
f 124//193 118//190 122//193
f 124//194 123//194 118//191
f 125//195 119//192 123//195
f 122//193 126//196 124//193
f 124//194 127//197 123//194
f 123//195 128//198 125//195
f 127//196 124//193 126//196
f 128//197 123//194 127//197
f 129//198 125//195 128//198
f 126//196 130//199 127//196
f 127//197 131//200 128//197
f 128//198 132//201 129//198
f 131//200 127//196 130//199
f 132//202 128//197 131//200
f 133//201 129//198 132//201
f 130//199 134//23 131//200
f 132//202 131//200 135//23
f 132//201 135//23 133//201
f 135//23 131//200 134//23
f 136//23 133//201 135//23
f 134//55 137//55 135//55
f 136//114 135//114 138//114
f 139//55 135//55 137//55
f 139//114 138//114 135//114
f 137//23 140//23 139//23
f 138//23 139//23 140//23
