# SSTK version 0.8.0
# 54
mtllib original-54.mtl
o RT_11_TC1/RT_11_TC/mesh39/mesh39-geometry#mesh39-geometry
v 0.315649 0.287419 0.433346
v -0.303635 0.284479 0.430477
v 0.315649 0.284479 0.430477
v -0.303635 0.287419 0.433346
v 0.315649 0.283190 0.428701
v 0.315649 0.289265 0.434301
v -0.303635 0.283190 0.428701
v -0.303635 0.289265 0.434301
v 0.315649 0.282232 0.426788
v 0.315649 0.291248 0.434847
v -0.303635 0.282232 0.426788
v -0.303635 0.291248 0.434847
v 0.315649 0.282227 0.419349
v -0.303635 0.291250 0.437730
v -0.303635 0.282227 0.419349
v 0.315649 0.291250 0.437730
v -0.303635 0.257529 0.420039
v -0.303635 0.371196 0.437730
v 0.315649 0.257529 0.420039
v 0.315649 0.371196 0.437730
v 0.315649 0.245367 0.425105
v 0.315649 0.371742 0.437661
v -0.303635 0.245367 0.425105
v -0.303635 0.371742 0.437661
v -0.303635 0.228958 0.427713
v 0.315649 0.372016 0.437524
v 0.315649 0.228958 0.427713
v -0.303635 0.372016 0.437524
v -0.303635 0.227045 0.428398
v -0.303635 0.372357 0.437182
v 0.315649 0.227045 0.428398
v 0.315649 0.372357 0.437182
v -0.303635 0.226225 0.428946
v -0.303635 0.372494 0.436977
v 0.315649 0.226225 0.428946
v 0.315649 0.372494 0.436977
v 0.315649 0.225542 0.429630
v -0.303635 0.372698 0.436499
v -0.303635 0.225542 0.429630
v 0.315649 0.372698 0.436499
v 0.315649 0.224928 0.430518
v -0.303635 0.372696 0.433355
v -0.303635 0.224928 0.430518
v 0.315649 0.372696 0.433355
v 0.315649 0.224109 0.432364
v 0.315649 0.375088 0.432875
v -0.303635 0.224109 0.432364
v -0.303635 0.375088 0.432875
v 0.315649 0.224111 0.435440
v 0.315649 0.377274 0.431985
v -0.303635 0.224111 0.435440
v -0.303635 0.377274 0.431985
v 0.315649 0.223360 0.436944
v -0.303635 0.379255 0.430685
v -0.303635 0.223360 0.436944
v 0.315649 0.379255 0.430685
v -0.303635 0.222882 0.437286
v -0.303635 0.382397 0.427129
v 0.315649 0.222882 0.437286
v 0.315649 0.382397 0.427129
v -0.303635 0.221857 0.437765
v -0.303635 0.384170 0.422617
v 0.315649 0.221857 0.437765
v 0.315649 0.384170 0.422617
v -0.303635 0.216327 0.437765
v -0.303635 0.384159 0.406419
v 0.315649 0.216327 0.437765
v 0.315649 0.384159 0.406419
v -0.303635 0.383953 0.405599
v 0.315649 0.383953 0.405599
v -0.303635 0.383611 0.404847
v 0.315649 0.383611 0.404847
v -0.303635 0.382380 0.403686
v 0.315649 0.382380 0.403686
v -0.303635 0.381628 0.403277
v 0.315649 0.381628 0.403277
v 0.315649 0.380740 0.403004
v -0.303635 0.380740 0.403004
v 0.315649 0.282216 0.403004
v -0.303635 0.282216 0.403004
v -0.303635 0.282220 0.408676
v 0.315649 0.282220 0.408676
v 0.315649 0.216327 0.408676
v -0.303635 0.216327 0.408676
vn 0 -0.5853538243945873 0.8107779599043322
vn 0 -0.7566185965578511 0.6538564822213111
vn 0 -0.854652488923909 0.5192004653081195
vn 0 -0.3644843634940384 0.9312095085255229
vn 0 -0.9730912175872722 0.23042022969895729
vn 0 -0.26526885717669835 0.9641744828671667
vn 0 -0.9999997591994255 0.0006939748488901954
vn 0 -0.999999750093588 0.0007069743713223053
vn 0 0.20974418551829815 0.9777562971626752
vn 0 0.027922008117380846 0.9996101047221827
vn 0 0 1
vn 0 0.0624862385857252 0.9980458255949012
vn 0 0.2726762096823346 0.9621058593903664
vn 0 0.29045751239765066 0.9568878897194637
vn 0 0.2480704190177305 0.9687420023971126
vn 0 0.5852869980329639 0.8108262020516861
vn 0 0.4495138436715105 0.8932733648484459
vn 0 0.7737931699689519 0.633438339626992
vn 0 0.634538811895499 0.7728909989113916
vn 0 0.8796176182386151 0.47568145400491074
vn 0 0.76820720432445 0.640201289614456
vn 0 0.979718441162227 0.20037908086089193
vn 0 0.87217025578463 0.4892024580115817
vn 0 0.9999997591994255 -0.0006939748488901954
vn 0 0.9783608393346664 0.2069059401186124
vn 0 0.2881965548281342 0.9575712745196538
vn 0 0.19680289879793875 0.9804430728118426
vn 0 0.9734099048232001 0.22907020144944246
vn 0 0.4650149681912485 0.8853028178866776
vn 0 0.7607127598179287 0.6490886665550326
vn 0 0.6548516004604211 0.7557574884673157
vn 0 0.504797840780406 0.8632375918270935
vn 0 0.8530204970978706 0.5218774104432014
vn 0 0.4235263426866581 0.9058837878284739
vn 0 0.982578397734028 0.18584857359267112
vn 0 0.9924230732852252 -0.12286758568112487
vn 0 0.9439209613126734 -0.33017149906458976
vn 0 0.8133139045405272 -0.5818251392652626
vn 0 0.5870538164288966 -0.8095479087838269
vn 0 0.3877988659071029 -0.9217440206484472
vn 0 0.1483582924115475 -0.9889336767815776
vn 0 0 -1
vn 0 0.7566185965578511 -0.6538564822213111
vn 0 0.5853538243945873 -0.8107779599043322
vn 0 0.854652488923909 -0.5192004653081195
vn 0 0.3644843634940384 -0.9312095085255229
vn 0 0.9730912175872722 -0.23042022969895729
vn 0 0.26526885717669835 -0.9641744828671667
vn 0 0.999999750093588 -0.0007069743713223053
vn 0 -0.027922008117380846 -0.9996101047221827
vn 0 -0.20974418551829815 -0.9777562971626752
vn 0 -0.0624862385857252 -0.9980458255949012
vn 0 -0.2726762096823346 -0.9621058593903664
vn 0 -0.29045751239765066 -0.9568878897194637
vn 0 -0.2480704190177305 -0.9687420023971126
vn 0 -0.5852869980329639 -0.8108262020516861
vn 0 -0.4495138436715105 -0.8932733648484459
vn 0 -0.7737931699689519 -0.633438339626992
vn 0 -0.634538811895499 -0.7728909989113916
vn 0 -0.8796176182386151 -0.47568145400491074
vn 0 -0.76820720432445 -0.640201289614456
vn 0 -0.979718441162227 -0.20037908086089193
vn 0 -0.87217025578463 -0.4892024580115817
vn 0 -0.9783608393346664 -0.2069059401186124
vn 0 -0.19680289879793875 -0.9804430728118426
vn 0 -0.2881965548281342 -0.9575712745196538
vn 0 -0.9734099048232001 -0.22907020144944246
vn 0 -0.4650149681912485 -0.8853028178866776
vn 0 -0.7607127598179287 -0.6490886665550326
vn 0 -0.6548516004604211 -0.7557574884673157
vn 0 -0.504797840780406 -0.8632375918270935
vn 0 -0.8530204970978706 -0.5218774104432014
vn 0 -0.4235263426866581 -0.9058837878284739
vn 0 -0.982578397734028 -0.18584857359267112
vn 0 -0.9924230732852252 0.12286758568112487
vn 0 -0.9439209613126734 0.33017149906458976
vn 0 -0.8133139045405272 0.5818251392652626
vn 0 -0.5870538164288966 0.8095479087838269
vn 0 -0.3877988659071029 0.9217440206484472
vn 0 -0.1483582924115475 0.9889336767815776
usemtl material_0_0
f 1//1 2//2 3//2
f 2//2 1//1 4//1
f 2//2 5//3 3//2
f 6//4 4//1 1//1
f 5//3 2//2 7//3
f 4//1 6//4 8//4
f 7//3 9//5 5//3
f 10//6 8//4 6//4
f 9//5 7//3 11//5
f 8//4 10//6 12//6
f 11//5 13//7 9//5
f 10//8 14//8 12//8
f 13//7 11//5 15//7
f 14//8 10//8 16//8
f 17//9 13//10 15//10
f 16//11 18//12 14//11
f 13//10 17//9 19//9
f 18//12 16//11 20//12
f 17//9 21//13 19//9
f 22//14 18//12 20//12
f 21//13 17//9 23//13
f 18//12 22//14 24//14
f 25//15 21//13 23//13
f 26//16 24//14 22//14
f 21//13 25//15 27//15
f 24//14 26//16 28//16
f 29//17 27//15 25//15
f 26//16 30//18 28//16
f 27//15 29//17 31//17
f 30//18 26//16 32//18
f 33//19 31//17 29//17
f 32//18 34//20 30//18
f 31//17 33//19 35//19
f 34//20 32//18 36//20
f 33//19 37//21 35//19
f 36//20 38//22 34//20
f 37//21 33//19 39//21
f 38//22 36//20 40//22
f 39//21 41//23 37//21
f 40//22 42//24 38//22
f 41//23 39//21 43//23
f 42//24 40//22 44//24
f 43//23 45//25 41//23
f 46//26 42//27 44//27
f 45//25 43//23 47//25
f 42//27 46//26 48//26
f 47//25 49//28 45//25
f 50//29 48//26 46//26
f 49//28 47//25 51//28
f 48//26 50//29 52//29
f 51//28 53//30 49//28
f 50//29 54//31 52//29
f 53//30 51//28 55//30
f 54//31 50//29 56//31
f 57//32 53//30 55//30
f 56//31 58//33 54//31
f 53//30 57//32 59//32
f 58//33 56//31 60//33
f 61//34 59//32 57//32
f 60//33 62//35 58//33
f 59//32 61//34 63//34
f 62//35 60//33 64//35
f 65//11 63//11 61//11
f 64//35 66//36 62//35
f 63//11 65//11 67//11
f 66//36 64//35 68//36
f 68//36 69//37 66//36
f 69//37 68//36 70//37
f 70//37 71//38 69//37
f 71//38 70//37 72//38
f 72//38 73//39 71//38
f 73//39 72//38 74//39
f 74//39 75//40 73//39
f 75//40 74//39 76//40
f 77//41 75//40 76//40
f 75//40 77//41 78//41
f 79//42 78//41 77//41
f 78//41 79//42 80//42
f 79//7 81//7 80//7
f 81//7 79//7 82//7
f 83//42 81//42 82//42
f 81//42 83//42 84//42
usemtl material_1_0
f 3//43 2//43 1//44
f 4//44 1//44 2//43
f 3//43 5//45 2//43
f 1//44 4//44 6//46
f 7//45 2//43 5//45
f 8//46 6//46 4//44
f 5//45 9//47 7//45
f 6//46 8//46 10//48
f 11//47 7//45 9//47
f 12//48 10//48 8//46
f 9//47 13//24 11//47
f 12//49 14//49 10//49
f 15//24 11//47 13//24
f 16//49 10//49 14//49
f 15//50 13//50 17//51
f 14//42 18//52 16//42
f 19//51 17//51 13//50
f 20//52 16//42 18//52
f 19//51 21//53 17//51
f 20//52 18//52 22//54
f 23//53 17//51 21//53
f 24//54 22//54 18//52
f 23//53 21//53 25//55
f 22//54 24//54 26//56
f 27//55 25//55 21//53
f 28//56 26//56 24//54
f 25//55 27//55 29//57
f 28//56 30//58 26//56
f 31//57 29//57 27//55
f 32//58 26//56 30//58
f 29//57 31//57 33//59
f 30//58 34//60 32//58
f 35//59 33//59 31//57
f 36//60 32//58 34//60
f 35//59 37//61 33//59
f 34//60 38//62 36//60
f 39//61 33//59 37//61
f 40//62 36//60 38//62
f 37//61 41//63 39//61
f 38//62 42//7 40//62
f 43//63 39//61 41//63
f 44//7 40//62 42//7
f 41//63 45//64 43//63
f 44//65 42//65 46//66
f 47//64 43//63 45//64
f 48//66 46//66 42//65
f 45//64 49//67 47//64
f 46//66 48//66 50//68
f 51//67 47//64 49//67
f 52//68 50//68 48//66
f 49//67 53//69 51//67
f 52//68 54//70 50//68
f 55//69 51//67 53//69
f 56//70 50//68 54//70
f 55//69 53//69 57//71
f 54//70 58//72 56//70
f 59//71 57//71 53//69
f 60//72 56//70 58//72
f 57//71 59//71 61//73
f 58//72 62//74 60//72
f 63//73 61//73 59//71
f 64//74 60//72 62//74
f 61//42 63//42 65//42
f 62//74 66//75 64//74
f 67//42 65//42 63//42
f 68//75 64//74 66//75
f 66//75 69//76 68//75
f 70//76 68//75 69//76
f 69//76 71//77 70//76
f 72//77 70//76 71//77
f 71//77 73//78 72//77
f 74//78 72//77 73//78
f 73//78 75//79 74//78
f 76//79 74//78 75//79
f 76//79 75//79 77//80
f 78//80 77//80 75//79
f 77//80 78//80 79//11
f 80//11 79//11 78//80
f 80//24 81//24 79//24
f 82//24 79//24 81//24
f 82//11 81//11 83//11
f 84//11 83//11 81//11
