# SSTK version 0.8.0
# 34
mtllib original-34.mtl
o DF_12_TL1/DF_12_TL/mesh22/mesh22-geometry#mesh22-geometry
v -0.364363 0.639176 0.420298
v -0.369995 0.599733 0.419907
v -0.364363 0.599733 0.420298
v -0.369995 0.644790 0.419907
v -0.345381 0.620253 0.427160
v -0.320998 0.639176 0.420298
v -0.370099 0.644894 0.425809
v -0.345381 0.599733 0.427160
v -0.320998 0.620253 0.427160
v -0.320998 0.644790 0.419907
v -0.370099 0.599733 0.425809
v -0.320998 0.644894 0.425809
v -0.336202 0.611103 0.427992
v -0.320998 0.611103 0.427992
v -0.371351 0.646142 0.429448
v -0.320998 0.646142 0.429448
v -0.336202 0.599733 0.427992
v -0.371351 0.599733 0.429448
v -0.334429 0.609336 0.429032
v -0.320998 0.609336 0.429032
v -0.373646 0.648429 0.432359
v -0.320998 0.648429 0.432359
v -0.334429 0.599733 0.429032
v -0.373646 0.599733 0.432359
v -0.333178 0.608088 0.430695
v -0.375210 0.599733 0.433502
v -0.375210 0.649988 0.433502
v -0.333178 0.599733 0.430695
v -0.320998 0.608088 0.430695
v -0.320998 0.649988 0.433502
v -0.332343 0.607257 0.432463
v -0.378652 0.653420 0.434854
v -0.332343 0.599733 0.432463
v -0.320998 0.607257 0.432463
v -0.378652 0.599733 0.434854
v -0.320998 0.653420 0.434854
v -0.332343 0.607257 0.436102
v -0.320998 0.607257 0.436102
v -0.378652 0.653420 0.437765
v -0.320998 0.653420 0.437765
v -0.332343 0.599733 0.436102
v -0.378652 0.599733 0.437765
v -0.331926 0.606841 0.436622
v -0.458545 0.599733 0.437765
v -0.378652 0.706964 0.437765
v -0.331926 0.599733 0.436622
v -0.320998 0.606841 0.436622
v -0.458545 0.706964 0.437765
v -0.320998 0.706964 0.437765
v -0.331092 0.606009 0.437349
v -0.320998 0.606009 0.437349
v -0.459066 0.599733 0.437661
v -0.378130 0.707484 0.437661
v -0.331092 0.599733 0.437349
v -0.459066 0.707484 0.437661
v -0.320998 0.707484 0.437661
v -0.329527 0.604449 0.437765
v -0.320998 0.604449 0.437765
v -0.459275 0.599733 0.437557
v -0.377922 0.707692 0.437557
v -0.329527 0.599733 0.437765
v -0.459275 0.707692 0.437557
v -0.320998 0.707692 0.437557
v -0.320998 0.599733 0.437765
v -0.459796 0.599733 0.437037
v -0.377400 0.708212 0.437037
v -0.459796 0.708212 0.437037
v -0.320998 0.708212 0.437037
v -0.459901 0.599733 0.436726
v -0.377296 0.708316 0.436726
v -0.459901 0.708316 0.436726
v -0.320998 0.708316 0.436726
v -0.460005 0.599733 0.436206
v -0.377192 0.708420 0.436206
v -0.460005 0.708420 0.436206
v -0.320998 0.708420 0.436206
v -0.460005 0.599733 0.433398
v -0.320998 0.708420 0.433398
v -0.460005 0.708420 0.433398
v -0.377192 0.708420 0.433398
v -0.462300 0.599733 0.432879
v -0.374897 0.710707 0.432879
v -0.462300 0.710707 0.432879
v -0.320998 0.710707 0.432879
v -0.466576 0.599733 0.430695
v -0.370621 0.714970 0.430695
v -0.466576 0.714970 0.430695
v -0.320998 0.714970 0.430695
v -0.469705 0.599733 0.427160
v -0.367492 0.718089 0.427160
v -0.469705 0.718089 0.427160
v -0.320998 0.718089 0.427160
v -0.470748 0.599733 0.425081
v -0.366449 0.719129 0.425081
v -0.470748 0.719129 0.425081
v -0.320998 0.719129 0.425081
v -0.471478 0.599733 0.422689
v -0.365719 0.719857 0.422689
v -0.471478 0.719857 0.422689
v -0.320998 0.719857 0.422689
v -0.471478 0.599733 0.406470
v -0.365719 0.719857 0.406470
v -0.471478 0.719857 0.406470
v -0.320998 0.719857 0.406470
v -0.470852 0.599733 0.404911
v -0.320998 0.719233 0.404911
v -0.470852 0.719233 0.404911
v -0.366345 0.719233 0.404911
v -0.470331 0.599733 0.404287
v -0.320998 0.718713 0.404287
v -0.470331 0.718713 0.404287
v -0.366866 0.718713 0.404287
v -0.469705 0.599733 0.403767
v -0.320998 0.718089 0.403767
v -0.469705 0.718089 0.403767
v -0.367492 0.718089 0.403767
v -0.468036 0.599733 0.403039
v -0.320998 0.716426 0.403039
v -0.369161 0.716426 0.403039
v -0.468036 0.716426 0.403039
v -0.369161 0.599733 0.403039
v -0.320998 0.599733 0.403039
vn -0.20661103385838592 0 0.9784231603391085
vn -0.06928399836957433 0 0.9975969765240493
vn -0.21689001057165314 0 0.9761960475817488
vn 0 0.20721105572558732 0.978296263094717
vn 0 0.06950198697783071 0.9975818130890988
vn 0.9848188941388683 0 0.17358498134083059
vn 0.9998438734017765 0 0.01766999776266037
vn 0 0.21752092380493498 0.9760556580989874
vn 0 -0.999844843899236 0.017614997249858547
vn 0 -0.9849077760004802 0.17307996063608266
vn -0.30540305586769156 0 0.9522231741911535
vn 0 0.3061931331618914 0.9519694140068284
vn 0.877878145578545 0 0.4788840794133534
vn 0 -0.8784757804052407 0.47778688056643376
vn -0.665425911906931 0 0.7464639011786365
vn -0.0000010000003384911719 0.66650422560572 0.7455012523455072
vn 0.6941731003798672 0 0.7198081040867788
vn 0 -0.6952647452755545 0.7187537366698823
vn -0.8561436963344461 0 0.5167378167182962
vn -0.0000010000000555670045 0.8568480476124767 0.5155690286486252
vn 0.4818122586320718 0 0.8762744703754993
vn 0 -0.48294095511305524 0.8756529186124432
vn -0.9757818419038387 0 0.21874596455878165
vn -9.999995906827513e-7 0.9759146005411573 0.21815291070621448
vn 0.3655251777867379 0 0.9308014527298363
vn 0 -0.36652420359692145 0.9304085168234665
vn -0.9433732828148622 0 0.3317330994506125
vn -0.0000010000002817831193 0.9436282658984412 0.3310070932721852
vn 1 0 0
vn 0 -1 0
vn -0.7214492865272482 0 0.6924672750168952
vn -9.999999823785004e-7 0.7225209872680964 0.6913489878173941
vn 0 0 1
vn -0.09823601432944286 0 0.9951631451619706
vn 0 0.09853802832313423 0.9951332860346846
vn -0.06573998127538241 0.06593898121870134 0.9956557164089161
vn -0.4693402210853445 0 0.8830174159503084
vn -0.0000010000005591094688 0.4703752629911162 0.8824664933950968
vn -0.32365415497519434 0 0.9461754530568276
vn 0 0.32453610589209164 0.9458733086266875
vn -0.25690491599287696 0 0.9664366839781554
vn 0 0.25766202815357164 0.9662351055761679
vn -0.5835593526505672 0 0.8120704907420605
vn 0 0.5847101851590341 0.8112422568945039
vn -0.8499868493037199 0 0.5268039066016267
vn 0 0.850650911463407 0.5257309452814004
vn -0.9662998881213223 0 0.25741897019590465
vn 0 0.9664996558179357 0.2566679085974942
vn -0.9951033352458921 0 0.09884003329876805
vn 0 0.9951332860346846 0.09853802832313467
vn -1 0 0
vn 0 1 0
vn -0.2209580698390015 0 0.9752833082612573
vn -0.3404891599235399 0 0.9402484416230438
vn 0 0.22162097392296942 0.9751328852609958
vn 0 0.3414098300931725 0.9399145322399005
vn -0.6124569538008426 0 0.7905039403703138
vn 0 0.6135802724836964 0.7896323506663294
vn -0.8283019491720808 0 0.5602819656188585
vn 0 0.8290928702594121 0.559110912507536
vn -0.9284364785269614 0 0.3714911914708816
vn 0 0.9288337090126991 0.3704968839298284
vn -0.9890442951817976 0 0.1476190440571317
vn 0 0.9891091267360441 0.14718401885891053
vn -0.9818532936856189 0 -0.1896420567245078
vn 0 0.9819564696772565 -0.18910709045136107
vn 0 0.9819562839817984 -0.1891080546900571
vn -0.8582522250818252 0 -0.5132281345971754
vn 0 0.8589288642609056 -0.5120949190721098
vn -0.7060099319039332 0 -0.7082019316925104
vn 0 0.7071067811865478 -0.7071067811865476
vn -0.5245800711537835 0 -0.8513611154782039
vn 0 0.5257309452814004 -0.850650911463407
vn -0.20418103070372476 0 -0.978933147207083
vn 0 0.2047469858485033 -0.9788149323472506
vn -0.13838304493920922 0.13875004505839092 -0.9806113184486742
vn 0 0 -1
vn 0.20661103385838592 0 -0.9784231603391085
vn 0.06928399836957433 0 -0.9975969765240493
vn 0.21689001057165314 0 -0.9761960475817488
vn 0 -0.20721105572558732 -0.978296263094717
vn 0 -0.06950198697783071 -0.9975818130890988
vn -0.9998438734017765 0 -0.01766999776266037
vn -0.9848188941388683 0 -0.17358498134083059
vn 0 -0.21752092380493498 -0.9760556580989874
vn 0 0.9849077760004802 -0.17307996063608266
vn 0 0.999844843899236 -0.017614997249858547
vn 0.30540305586769156 0 -0.9522231741911535
vn 0 -0.3061931331618914 -0.9519694140068284
vn -0.877878145578545 0 -0.4788840794133534
vn 0 0.8784757804052407 -0.47778688056643376
vn 0.665425911906931 0 -0.7464639011786365
vn 0.0000010000003384911719 -0.66650422560572 -0.7455012523455072
vn -0.6941731003798672 0 -0.7198081040867788
vn 0 0.6952647452755545 -0.7187537366698823
vn 0.8561436963344461 0 -0.5167378167182962
vn 0.0000010000000555670045 -0.8568480476124767 -0.5155690286486252
vn -0.4818122586320718 0 -0.8762744703754993
vn 0 0.48294095511305524 -0.8756529186124432
vn 0.9757818419038387 0 -0.21874596455878165
vn 9.999995906827513e-7 -0.9759146005411573 -0.21815291070621448
vn -0.3655251777867379 0 -0.9308014527298363
vn 0 0.36652420359692145 -0.9304085168234665
vn 0.9433732828148622 0 -0.3317330994506125
vn 0.0000010000002817831193 -0.9436282658984412 -0.3310070932721852
vn 0.7214492865272482 0 -0.6924672750168952
vn 9.999999823785004e-7 -0.7225209872680964 -0.6913489878173941
vn 0.09823601432944286 0 -0.9951631451619706
vn 0 -0.09853802832313423 -0.9951332860346846
vn 0.06573998127538241 -0.06593898121870134 -0.9956557164089161
vn 0.4693402210853445 0 -0.8830174159503084
vn 0.0000010000005591094688 -0.4703752629911162 -0.8824664933950968
vn 0.32365415497519434 0 -0.9461754530568276
vn 0 -0.32453610589209164 -0.9458733086266875
vn 0.25690491599287696 0 -0.9664366839781554
vn 0 -0.25766202815357164 -0.9662351055761679
vn 0.5835593526505672 0 -0.8120704907420605
vn 0 -0.5847101851590341 -0.8112422568945039
vn 0.8499868493037199 0 -0.5268039066016267
vn 0 -0.850650911463407 -0.5257309452814004
vn 0.9662998881213223 0 -0.25741897019590465
vn 0 -0.9664996558179357 -0.2566679085974942
vn 0.9951033352458921 0 -0.09884003329876805
vn 0 -0.9951332860346846 -0.09853802832313467
vn 0.2209580698390015 0 -0.9752833082612573
vn 0.3404891599235399 0 -0.9402484416230438
vn 0 -0.22162097392296942 -0.9751328852609958
vn 0 -0.3414098300931725 -0.9399145322399005
vn 0.6124569538008426 0 -0.7905039403703138
vn 0 -0.6135802724836964 -0.7896323506663294
vn 0.8283019491720808 0 -0.5602819656188585
vn 0 -0.8290928702594121 -0.559110912507536
vn 0.9284364785269614 0 -0.3714911914708816
vn 0 -0.9288337090126991 -0.3704968839298284
vn 0.9890442951817976 0 -0.1476190440571317
vn 0 -0.9891091267360441 -0.14718401885891053
vn 0.9818532936856189 0 0.1896420567245078
vn 0 -0.9819564696772565 0.18910709045136107
vn 0 -0.9819562839817984 0.1891080546900571
vn 0.8582522250818252 0 0.5132281345971754
vn 0 -0.8589288642609056 0.5120949190721098
vn 0.7060099319039332 0 0.7082019316925104
vn 0 -0.7071067811865478 0.7071067811865476
vn 0.5245800711537835 0 0.8513611154782039
vn 0 -0.5257309452814004 0.850650911463407
vn 0.20418103070372476 0 0.978933147207083
vn 0 -0.2047469858485033 0.9788149323472506
vn 0.13838304493920922 -0.13875004505839092 0.9806113184486742
usemtl material_0_0
f 1//1 2//2 3//1
f 2//2 1//1 4//2
f 3//1 5//3 1//1
f 6//4 4//5 1//4
f 7//6 2//7 4//7
f 5//3 3//1 8//3
f 9//8 1//4 5//8
f 4//5 6//4 10//5
f 1//4 9//8 6//4
f 2//7 7//6 11//6
f 4//9 12//10 7//10
f 8//3 13//11 5//3
f 5//8 14//12 9//8
f 12//10 4//9 10//9
f 15//13 11//6 7//6
f 16//14 7//10 12//10
f 13//11 8//3 17//11
f 14//12 5//8 13//12
f 11//6 15//13 18//13
f 7//10 16//14 15//14
f 17//11 19//15 13//11
f 13//12 20//16 14//12
f 21//17 18//13 15//13
f 22//18 15//14 16//14
f 19//15 17//11 23//15
f 20//16 13//12 19//16
f 18//13 21//17 24//17
f 15//14 22//18 21//18
f 23//15 25//19 19//15
f 25//20 20//16 19//16
f 21//17 26//21 24//17
f 22//18 27//22 21//18
f 25//19 23//15 28//19
f 20//16 25//20 29//20
f 26//21 21//17 27//21
f 27//22 22//18 30//22
f 28//19 31//23 25//19
f 31//24 29//20 25//20
f 32//25 26//21 27//21
f 30//22 32//26 27//22
f 31//23 28//19 33//23
f 29//20 31//24 34//24
f 26//21 32//25 35//25
f 32//26 30//22 36//26
f 33//23 37//27 31//23
f 31//24 38//28 34//24
f 39//29 35//29 32//29
f 40//30 32//30 36//30
f 37//27 33//23 41//27
f 38//28 31//24 37//28
f 35//29 39//29 42//29
f 32//30 40//30 39//30
f 41//27 43//31 37//27
f 43//32 38//28 37//28
f 39//33 44//34 42//33
f 40//33 45//35 39//33
f 43//31 41//27 46//31
f 38//28 43//32 47//32
f 44//34 39//33 48//36
f 45//35 40//33 49//35
f 48//36 39//33 45//35
f 46//31 50//37 43//31
f 43//32 51//38 47//32
f 48//36 52//39 44//34
f 49//35 53//40 45//35
f 53//40 48//36 45//35
f 50//37 46//31 54//37
f 51//38 43//32 50//38
f 52//39 48//36 55//39
f 53//40 49//35 56//40
f 48//36 53//40 55//40
f 54//37 57//41 50//37
f 50//38 58//42 51//38
f 55//39 59//43 52//39
f 56//40 60//44 53//40
f 60//44 55//40 53//40
f 57//41 54//37 61//41
f 58//42 50//38 57//42
f 59//43 55//39 62//43
f 60//44 56//40 63//44
f 55//40 60//44 62//44
f 64//33 57//33 61//33
f 57//33 64//33 58//33
f 62//43 65//45 59//43
f 63//44 66//46 60//44
f 66//46 62//44 60//44
f 65//45 62//43 67//45
f 66//46 63//44 68//46
f 62//44 66//46 67//46
f 67//45 69//47 65//45
f 68//46 70//48 66//46
f 70//48 67//46 66//46
f 69//47 67//45 71//47
f 70//48 68//46 72//48
f 67//46 70//48 71//48
f 71//47 73//49 69//47
f 72//48 74//50 70//48
f 74//50 71//48 70//48
f 73//49 71//47 75//49
f 74//50 72//48 76//50
f 71//48 74//50 75//50
f 75//49 77//51 73//49
f 78//52 74//50 76//50
f 74//50 79//52 75//50
f 77//51 75//49 79//51
f 74//50 78//52 80//52
f 79//52 74//50 80//52
f 79//53 81//54 77//53
f 78//55 82//56 80//55
f 82//56 79//55 80//55
f 81//54 79//53 83//54
f 82//56 78//55 84//56
f 79//55 82//56 83//56
f 83//54 85//57 81//54
f 84//56 86//58 82//56
f 86//58 83//56 82//56
f 85//57 83//54 87//57
f 86//58 84//56 88//58
f 83//56 86//58 87//58
f 87//57 89//59 85//57
f 88//58 90//60 86//58
f 90//60 87//58 86//58
f 89//59 87//57 91//59
f 90//60 88//58 92//60
f 87//58 90//60 91//60
f 91//59 93//61 89//59
f 92//60 94//62 90//60
f 94//62 91//60 90//60
f 93//61 91//59 95//61
f 94//62 92//60 96//62
f 91//60 94//62 95//62
f 95//61 97//63 93//61
f 96//62 98//64 94//62
f 98//64 95//62 94//62
f 97//63 95//61 99//63
f 98//64 96//62 100//64
f 95//62 98//64 99//64
f 99//63 101//65 97//63
f 100//64 102//66 98//64
f 98//64 103//67 99//64
f 101//65 99//63 103//65
f 102//66 100//64 104//66
f 103//67 98//64 102//67
f 103//65 105//68 101//65
f 106//69 102//66 104//66
f 102//67 107//69 103//67
f 105//68 103//65 107//68
f 102//66 106//69 108//69
f 107//69 102//67 108//69
f 107//68 109//70 105//68
f 110//71 108//69 106//69
f 108//69 111//71 107//69
f 109//70 107//68 111//70
f 108//69 110//71 112//71
f 111//71 108//69 112//71
f 111//70 113//72 109//70
f 114//73 112//71 110//71
f 112//71 115//73 111//71
f 113//72 111//70 115//72
f 112//71 114//73 116//73
f 115//73 112//71 116//73
f 115//72 117//74 113//72
f 118//75 116//73 114//73
f 119//75 115//73 116//73
f 117//74 115//72 120//76
f 116//73 118//75 119//75
f 115//73 119//75 120//76
f 120//76 121//77 117//74
f 122//77 119//75 118//75
f 121//77 120//76 119//75
f 119//75 122//77 121//77
usemtl material_1_0
f 3//78 2//79 1//78
f 4//79 1//78 2//79
f 1//78 5//80 3//78
f 1//81 4//82 6//81
f 4//83 2//83 7//84
f 8//80 3//78 5//80
f 5//85 1//81 9//85
f 10//82 6//81 4//82
f 6//81 9//85 1//81
f 11//84 7//84 2//83
f 7//86 12//86 4//87
f 5//80 13//88 8//80
f 9//85 14//89 5//85
f 10//87 4//87 12//86
f 7//84 11//84 15//90
f 12//86 7//86 16//91
f 17//88 8//80 13//88
f 13//89 5//85 14//89
f 18//90 15//90 11//84
f 15//91 16//91 7//86
f 13//88 19//92 17//88
f 14//89 20//93 13//89
f 15//90 18//90 21//94
f 16//91 15//91 22//95
f 23//92 17//88 19//92
f 19//93 13//89 20//93
f 24//94 21//94 18//90
f 21//95 22//95 15//91
f 19//92 25//96 23//92
f 19//93 20//93 25//97
f 24//94 26//98 21//94
f 21//95 27//99 22//95
f 28//96 23//92 25//96
f 29//97 25//97 20//93
f 27//98 21//94 26//98
f 30//99 22//95 27//99
f 25//96 31//100 28//96
f 25//97 29//97 31//101
f 27//98 26//98 32//102
f 27//99 32//103 30//99
f 33//100 28//96 31//100
f 34//101 31//101 29//97
f 35//102 32//102 26//98
f 36//103 30//99 32//103
f 31//100 37//104 33//100
f 34//101 38//105 31//101
f 32//51 35//51 39//51
f 36//52 32//52 40//52
f 41//104 33//100 37//104
f 37//105 31//101 38//105
f 42//51 39//51 35//51
f 39//52 40//52 32//52
f 37//104 43//106 41//104
f 37//105 38//105 43//107
f 42//77 44//108 39//77
f 39//77 45//109 40//77
f 46//106 41//104 43//106
f 47//107 43//107 38//105
f 48//110 39//77 44//108
f 49//109 40//77 45//109
f 45//109 39//77 48//110
f 43//106 50//111 46//106
f 47//107 51//112 43//107
f 44//108 52//113 48//110
f 45//109 53//114 49//109
f 45//109 48//110 53//114
f 54//111 46//106 50//111
f 50//112 43//107 51//112
f 55//113 48//110 52//113
f 56//114 49//109 53//114
f 55//114 53//114 48//110
f 50//111 57//115 54//111
f 51//112 58//116 50//112
f 52//113 59//117 55//113
f 53//114 60//118 56//114
f 53//114 55//114 60//118
f 61//115 54//111 57//115
f 57//116 50//112 58//116
f 62//117 55//113 59//117
f 63//118 56//114 60//118
f 62//118 60//118 55//114
f 61//77 57//77 64//77
f 58//77 64//77 57//77
f 59//117 65//119 62//117
f 60//118 66//120 63//118
f 60//118 62//118 66//120
f 67//119 62//117 65//119
f 68//120 63//118 66//120
f 67//120 66//120 62//118
f 65//119 69//121 67//119
f 66//120 70//122 68//120
f 66//120 67//120 70//122
f 71//121 67//119 69//121
f 72//122 68//120 70//122
f 71//122 70//122 67//120
f 69//121 73//123 71//121
f 70//122 74//124 72//122
f 70//122 71//122 74//124
f 75//123 71//121 73//123
f 76//124 72//122 74//124
f 75//124 74//124 71//122
f 73//123 77//29 75//123
f 76//124 74//124 78//30
f 75//124 79//30 74//124
f 79//29 75//123 77//29
f 80//30 78//30 74//124
f 80//30 74//124 79//30
f 77//125 81//126 79//125
f 80//127 82//128 78//127
f 80//127 79//127 82//128
f 83//126 79//125 81//126
f 84//128 78//127 82//128
f 83//128 82//128 79//127
f 81//126 85//129 83//126
f 82//128 86//130 84//128
f 82//128 83//128 86//130
f 87//129 83//126 85//129
f 88//130 84//128 86//130
f 87//130 86//130 83//128
f 85//129 89//131 87//129
f 86//130 90//132 88//130
f 86//130 87//130 90//132
f 91//131 87//129 89//131
f 92//132 88//130 90//132
f 91//132 90//132 87//130
f 89//131 93//133 91//131
f 90//132 94//134 92//132
f 90//132 91//132 94//134
f 95//133 91//131 93//133
f 96//134 92//132 94//134
f 95//134 94//134 91//132
f 93//133 97//135 95//133
f 94//134 98//136 96//134
f 94//134 95//134 98//136
f 99//135 95//133 97//135
f 100//136 96//134 98//136
f 99//136 98//136 95//134
f 97//135 101//137 99//135
f 98//136 102//138 100//136
f 99//136 103//139 98//136
f 103//137 99//135 101//137
f 104//138 100//136 102//138
f 102//139 98//136 103//139
f 101//137 105//140 103//137
f 104//138 102//138 106//141
f 103//139 107//141 102//139
f 107//140 103//137 105//140
f 108//141 106//141 102//138
f 108//141 102//139 107//141
f 105//140 109//142 107//140
f 106//141 108//141 110//143
f 107//141 111//143 108//141
f 111//142 107//140 109//142
f 112//143 110//143 108//141
f 112//143 108//141 111//143
f 109//142 113//144 111//142
f 110//143 112//143 114//145
f 111//143 115//145 112//143
f 115//144 111//142 113//144
f 116//145 114//145 112//143
f 116//145 112//143 115//145
f 113//144 117//146 115//144
f 114//145 116//145 118//147
f 116//145 115//145 119//147
f 120//148 115//144 117//146
f 119//147 118//147 116//145
f 120//148 119//147 115//145
f 117//146 121//33 120//148
f 118//147 119//147 122//33
f 119//147 120//148 121//33
f 121//33 122//33 119//147
