# SSTK version 0.8.0
# 38
mtllib original-38.mtl
o DF_12_TC1/DF_12_TC/mesh26/mesh26-geometry#mesh26-geometry
v 0.333012 0.714970 0.430695
v -0.320998 0.718089 0.427160
v -0.320998 0.714970 0.430695
v 0.333012 0.718089 0.427160
v -0.320998 0.710707 0.432879
v -0.320998 0.719129 0.425081
v 0.333012 0.710707 0.432879
v 0.333012 0.719129 0.425081
v -0.320998 0.708420 0.433398
v -0.320998 0.719857 0.422689
v 0.333012 0.708420 0.433398
v 0.333012 0.719857 0.422689
v 0.333012 0.708420 0.436206
v -0.320998 0.719857 0.406470
v -0.320998 0.708420 0.436206
v 0.333012 0.719857 0.406470
v 0.333012 0.708316 0.436726
v -0.320998 0.719233 0.404911
v -0.320998 0.708316 0.436726
v 0.333012 0.719233 0.404911
v 0.333012 0.708212 0.437037
v -0.320998 0.718713 0.404287
v -0.320998 0.708212 0.437037
v 0.333012 0.718713 0.404287
v -0.320998 0.707692 0.437557
v 0.333012 0.718089 0.403767
v 0.333012 0.707692 0.437557
v -0.320998 0.718089 0.403767
v -0.320998 0.707484 0.437661
v 0.333012 0.716426 0.403039
v 0.333012 0.707484 0.437661
v -0.320998 0.716426 0.403039
v -0.320998 0.706964 0.437765
v 0.333012 0.599733 0.403039
v 0.333012 0.706964 0.437765
v -0.320998 0.599733 0.403039
v -0.320998 0.653420 0.437765
v 0.333012 0.653420 0.437765
v 0.333012 0.653420 0.434854
v -0.320998 0.653420 0.434854
v -0.320998 0.649988 0.433502
v 0.333012 0.649988 0.433502
v -0.320998 0.648429 0.432359
v 0.333012 0.648429 0.432359
v 0.333012 0.646142 0.429448
v -0.320998 0.646142 0.429448
v 0.333012 0.644894 0.425809
v -0.320998 0.644894 0.425809
v 0.333012 0.644790 0.419907
v -0.320998 0.644790 0.419907
v -0.320998 0.639176 0.420298
v 0.333012 0.639176 0.420298
v -0.320998 0.620253 0.427160
v 0.333012 0.620253 0.427160
v -0.320998 0.611103 0.427992
v 0.333012 0.611103 0.427992
v -0.320998 0.609336 0.429032
v 0.333012 0.609336 0.429032
v 0.333012 0.608088 0.430695
v -0.320998 0.608088 0.430695
v 0.333012 0.607257 0.432463
v -0.320998 0.607257 0.432463
v 0.333012 0.607257 0.436102
v -0.320998 0.607257 0.436102
v 0.333012 0.606841 0.436622
v -0.320998 0.606841 0.436622
v -0.320998 0.606009 0.437349
v 0.333012 0.606009 0.437349
v -0.320998 0.604449 0.437765
v 0.333012 0.604449 0.437765
v -0.320998 0.599733 0.437765
v 0.333012 0.599733 0.437765
vn 0 0.6135802724836964 0.7896323506663294
vn 0 0.8290928702594121 0.559110912507536
vn 0 0.3414098300931725 0.9399145322399005
vn 0 0.9288337090126991 0.3704968839298284
vn 0 0.22162097392296942 0.9751328852609958
vn 0 0.9891091267360441 0.14718401885891053
vn 0 1 0
vn 0 0.9951332860346846 0.09853802832313467
vn 0 0.9819562839817984 -0.1891080546900571
vn 0 0.9664996558179357 0.2566679085974942
vn 0 0.8589288642609056 -0.5120949190721098
vn 0 0.850650911463407 0.5257309452814004
vn 0 0.7071067811865478 -0.7071067811865476
vn 0 0.5847101851590341 0.8112422568945039
vn 0 0.5257309452814004 -0.850650911463407
vn 0 0.32453610589209164 0.9458733086266875
vn 0 0.2047469858485033 -0.9788149323472506
vn 0 0.09853802832313423 0.9951332860346846
vn 0 0 -1
vn 0 0 1
vn 0 -1 0
vn 0 -0.48294095511305524 0.8756529186124432
vn 0 -0.3665250692569345 0.9304081758057586
vn 0 -0.6952647452755545 0.7187537366698823
vn 0 -0.8784757804052407 0.47778688056643376
vn 0 -0.9849077760004802 0.17307996063608266
vn 0 -0.999844843899236 0.017614997249858547
vn 0 0.20721105572558732 0.978296263094717
vn 0 0.06950198697783071 0.9975818130890988
vn 0 0.21752092380493498 0.9760556580989874
vn 0 0.30619403940763457 0.9519691225198621
vn 0 0.6665042256060533 0.74550125234588
vn 0 0.8568480476129051 0.5155690286488831
vn 0 0.975914600541645 0.21815291070632353
vn 0 0.9436282658989128 0.3310070932723506
vn 0 0.722521964745264 0.6913479662663682
vn 0 0.4703752629913514 0.882466493395538
vn 0 0.25766296176359205 0.9662348566136567
vn 0 -0.6135802724836964 -0.7896323506663294
vn 0 -0.8290928702594121 -0.559110912507536
vn 0 -0.3414098300931725 -0.9399145322399005
vn 0 -0.9288337090126991 -0.3704968839298284
vn 0 -0.22162097392296942 -0.9751328852609958
vn 0 -0.9891091267360441 -0.14718401885891053
vn 0 -0.9951332860346846 -0.09853802832313467
vn 0 -0.9819562839817984 0.1891080546900571
vn 0 -0.9664996558179357 -0.2566679085974942
vn 0 -0.8589288642609056 0.5120949190721098
vn 0 -0.850650911463407 -0.5257309452814004
vn 0 -0.7071067811865478 0.7071067811865476
vn 0 -0.5847101851590341 -0.8112422568945039
vn 0 -0.5257309452814004 0.850650911463407
vn 0 -0.32453610589209164 -0.9458733086266875
vn 0 -0.2047469858485033 0.9788149323472506
vn 0 -0.09853802832313423 -0.9951332860346846
vn 0 0.3665250692569345 -0.9304081758057586
vn 0 0.48294095511305524 -0.8756529186124432
vn 0 0.6952647452755545 -0.7187537366698823
vn 0 0.8784757804052407 -0.47778688056643376
vn 0 0.9849077760004802 -0.17307996063608266
vn 0 0.999844843899236 -0.017614997249858547
vn 0 -0.06950198697783071 -0.9975818130890988
vn 0 -0.20721105572558732 -0.978296263094717
vn 0 -0.21752092380493498 -0.9760556580989874
vn 0 -0.30619403940763457 -0.9519691225198621
vn 0 -0.6665042256060533 -0.74550125234588
vn 0 -0.8568480476129051 -0.5155690286488831
vn 0 -0.975914600541645 -0.21815291070632353
vn 0 -0.9436282658989128 -0.3310070932723506
vn 0 -0.722521964745264 -0.6913479662663682
vn 0 -0.4703752629913514 -0.882466493395538
vn 0 -0.25766296176359205 -0.9662348566136567
usemtl material_0_0
f 1//1 2//2 3//1
f 2//2 1//1 4//2
f 5//3 1//1 3//1
f 4//2 6//4 2//2
f 1//1 5//3 7//3
f 6//4 4//2 8//4
f 9//5 7//3 5//3
f 8//4 10//6 6//4
f 7//3 9//5 11//5
f 10//6 8//4 12//6
f 9//7 13//8 11//7
f 12//6 14//9 10//6
f 13//8 9//7 15//8
f 14//9 12//6 16//9
f 15//8 17//10 13//8
f 16//9 18//11 14//9
f 17//10 15//8 19//10
f 18//11 16//9 20//11
f 19//10 21//12 17//10
f 20//11 22//13 18//11
f 21//12 19//10 23//12
f 22//13 20//11 24//13
f 25//14 21//12 23//12
f 26//15 22//13 24//13
f 21//12 25//14 27//14
f 22//13 26//15 28//15
f 29//16 27//14 25//14
f 30//17 28//15 26//15
f 27//14 29//16 31//16
f 28//15 30//17 32//17
f 33//18 31//16 29//16
f 34//19 32//17 30//17
f 31//16 33//18 35//18
f 32//17 34//19 36//19
f 37//20 35//18 33//18
f 35//18 37//20 38//20
f 37//21 39//21 38//21
f 39//21 37//21 40//21
f 41//22 39//23 40//23
f 39//23 41//22 42//22
f 43//24 42//22 41//22
f 42//22 43//24 44//24
f 43//24 45//25 44//24
f 45//25 43//24 46//25
f 46//25 47//26 45//25
f 47//26 46//25 48//26
f 48//26 49//27 47//26
f 49//27 48//26 50//27
f 51//28 49//29 50//29
f 49//29 51//28 52//28
f 53//30 52//28 51//28
f 52//28 53//30 54//30
f 55//31 54//30 53//30
f 54//30 55//31 56//31
f 57//32 56//31 55//31
f 56//31 57//32 58//32
f 57//32 59//33 58//32
f 59//33 57//32 60//33
f 60//33 61//34 59//33
f 61//34 60//33 62//34
f 62//34 63//35 61//34
f 63//35 62//34 64//35
f 64//35 65//36 63//35
f 65//36 64//35 66//36
f 67//37 65//36 66//36
f 65//36 67//37 68//37
f 69//38 68//37 67//37
f 68//37 69//38 70//38
f 71//20 70//20 69//20
f 70//20 71//20 72//20
usemtl material_1_0
f 3//39 2//40 1//39
f 4//40 1//39 2//40
f 3//39 1//39 5//41
f 2//40 6//42 4//40
f 7//41 5//41 1//39
f 8//42 4//40 6//42
f 5//41 7//41 9//43
f 6//42 10//44 8//42
f 11//43 9//43 7//41
f 12//44 8//42 10//44
f 11//21 13//45 9//21
f 10//44 14//46 12//44
f 15//45 9//21 13//45
f 16//46 12//44 14//46
f 13//45 17//47 15//45
f 14//46 18//48 16//46
f 19//47 15//45 17//47
f 20//48 16//46 18//48
f 17//47 21//49 19//47
f 18//48 22//50 20//48
f 23//49 19//47 21//49
f 24//50 20//48 22//50
f 23//49 21//49 25//51
f 24//50 22//50 26//52
f 27//51 25//51 21//49
f 28//52 26//52 22//50
f 25//51 27//51 29//53
f 26//52 28//52 30//54
f 31//53 29//53 27//51
f 32//54 30//54 28//52
f 29//53 31//53 33//55
f 30//54 32//54 34//20
f 35//55 33//55 31//53
f 36//20 34//20 32//54
f 33//55 35//55 37//19
f 38//19 37//19 35//55
f 38//7 39//7 37//7
f 40//7 37//7 39//7
f 40//56 39//56 41//57
f 42//57 41//57 39//56
f 41//57 42//57 43//58
f 44//58 43//58 42//57
f 44//58 45//59 43//58
f 46//59 43//58 45//59
f 45//59 47//60 46//59
f 48//60 46//59 47//60
f 47//60 49//61 48//60
f 50//61 48//60 49//61
f 50//62 49//62 51//63
f 52//63 51//63 49//62
f 51//63 52//63 53//64
f 54//64 53//64 52//63
f 53//64 54//64 55//65
f 56//65 55//65 54//64
f 55//65 56//65 57//66
f 58//66 57//66 56//65
f 58//66 59//67 57//66
f 60//67 57//66 59//67
f 59//67 61//68 60//67
f 62//68 60//67 61//68
f 61//68 63//69 62//68
f 64//69 62//68 63//69
f 63//69 65//70 64//69
f 66//70 64//69 65//70
f 66//70 65//70 67//71
f 68//71 67//71 65//70
f 67//71 68//71 69//72
f 70//72 69//72 68//71
f 69//19 70//19 71//19
f 72//19 71//19 70//19
