# SSTK version 0.8.0
# 30
mtllib original-30.mtl
o LT_11_T1/LT_11_T/mesh23/mesh23-geometry#mesh23-geometry
v 0.269851 0.450886 0.523229
v -0.235652 0.450886 0.556197
v 0.269851 0.450886 0.556197
v -0.235652 0.450886 0.523229
v 0.269851 0.324511 0.556197
v -0.235652 0.324511 0.523229
v -0.235652 0.324511 0.556197
v 0.269851 0.324511 0.523229
vt 0.336949 1.444753
vt 0.336949 1.224701
vt 0.396845 1.444753
vt 0.396845 1.224701
vn 0 1 0
vn 0 0 1
vn 0 0 -1
vn 0 -1 0
usemtl material_0_0
f 1/1/1 2/2/1 3/1/1
f 2/2/1 1/1/1 4/2/1
f 2/2/2 5/3/2 3/1/2
f 1/1/3 6/4/3 4/2/3
f 5/3/2 2/2/2 7/4/2
f 6/4/3 1/1/3 8/3/3
f 6/4/4 5/3/4 7/4/4
f 5/3/4 6/4/4 8/3/4
usemtl material_1_0
f 3//4 2//4 1//4
f 4//4 1//4 2//4
f 3//3 5//3 2//3
f 4//2 6//2 1//2
f 7//3 2//3 5//3
f 8//2 1//2 6//2
f 7//1 5//1 6//1
f 8//1 6//1 5//1
