# SSTK version 0.8.0
# 85
mtllib original-85.mtl
o DF_11_CL3/DF_11_CL/mesh25/mesh25-geometry#mesh25-geometry
v -0.304352 0.291759 0.527270
v -0.298869 0.225740 0.527270
v -0.304352 0.225740 0.527270
v -0.298869 0.291759 0.527270
v -0.304352 0.225740 0.522163
v -0.304352 0.291759 0.522163
v -0.399791 0.291759 0.522163
v -0.399791 0.225740 0.522163
v -0.401511 0.291759 0.522371
v -0.401511 0.225740 0.522371
v -0.403044 0.291759 0.523175
v -0.403044 0.225740 0.523175
v -0.404194 0.225740 0.524470
v -0.404194 0.291759 0.524470
v -0.404811 0.225740 0.526088
v -0.404811 0.291759 0.526088
v -0.404815 0.225740 0.527819
v -0.404815 0.291759 0.527819
v -0.404815 0.225740 0.536409
v -0.404815 0.291759 0.536409
v -0.404380 0.225740 0.542207
v -0.404380 0.291759 0.542207
v -0.401630 0.225740 0.547329
v -0.401630 0.291759 0.547329
v -0.397038 0.291759 0.550894
v -0.397038 0.225740 0.550894
v -0.391393 0.291759 0.552288
v -0.391393 0.225740 0.552288
v -0.391393 0.225740 0.554870
v -0.391393 0.291759 0.554870
v -0.391191 0.225740 0.555734
v -0.391191 0.291759 0.555734
v -0.390575 0.225740 0.556373
v -0.390575 0.291759 0.556373
v -0.389719 0.291759 0.556608
v -0.389719 0.225740 0.556608
v -0.314305 0.291759 0.556608
v -0.314305 0.225740 0.556608
v -0.314305 0.225740 0.553730
v -0.314305 0.291759 0.553730
v -0.310223 0.291759 0.552410
v -0.310223 0.225740 0.552410
v -0.306920 0.291759 0.549673
v -0.306920 0.225740 0.549673
v -0.304865 0.225740 0.545907
v -0.304865 0.291759 0.545907
v -0.304352 0.225740 0.541647
v -0.304352 0.291759 0.541647
v -0.304352 0.225740 0.539133
v -0.304352 0.291759 0.539133
v -0.298869 0.291759 0.539133
v -0.298869 0.225740 0.539133
vt -0.066063 0.284639
vt -0.030907 0.287126
vt -0.030907 0.284639
vt -0.066063 0.287126
vt 0.451172 0.580078
vt 0.407878 0.615234
vt 0.451172 0.615234
vt 0.407878 0.580078
vt 0.407098 0.615234
vt 0.407098 0.580078
vt 0.406402 0.615234
vt 0.406402 0.580078
vt 0.405881 0.580078
vt 0.405881 0.615234
vt 0.405601 0.580078
vt 0.405601 0.615234
vt 0.405599 0.580078
vt 0.405599 0.615234
vt 0.405796 0.580078
vt 0.405796 0.615234
vt 0.407044 0.580078
vt 0.407044 0.615234
vt 0.409127 0.615234
vt 0.409127 0.580078
vt 0.411687 0.615234
vt 0.411687 0.580078
vt 0.41178 0.580078
vt 0.41178 0.615234
vt 0.412059 0.580078
vt 0.412059 0.615234
vt 0.412447 0.615234
vt 0.412447 0.580078
vt 0.446657 0.615234
vt 0.446657 0.580078
vt 0.448508 0.615234
vt 0.448508 0.580078
vt 0.450007 0.615234
vt 0.450007 0.580078
vt 0.450939 0.580078
vt 0.450939 0.615234
vn 0 0 -1
vn 1 0 0
vn -0.12015698830427979 0 -0.9927549033682206
vn -0.2969149752905883 0 -0.9549039205324216
vn -0.6158659605362344 0 -0.7878509495156946
vn -0.8549788298549549 0 -0.5186628967835004
vn -0.9832544340282681 0 -0.18223808044355125
vn -0.999999367186835 0 -0.0011250004130856023
vn -0.9992990646416606 0 0.03743500242155808
vn -0.9599883063591971 0 0.28004008936864794
vn -0.7637257763211729 0 0.6455408109350033
vn -0.43601797816247617 0 0.8999379549275087
vn -0.23985893850677217 0 0.9708077511116219
vn -0.9933549531603351 0 0.11509099457311446
vn -1 0 0
vn -0.8781981109107201 0 0.4782970604058136
vn -0.5107362628083495 0 0.8597374423930602
vn -0.13360901643143827 0 0.9910341218788704
vn 0 0 1
vn 0.3075990241377578 0 0.9515160746668967
vn 0.48148786630215307 0 0.8764527566297
vn 0.7718322552835607 0 0.6358262102995539
vn 0.9524214534017694 0 0.30478414509298396
vn 0.9981997002985706 0 0.059977981992093435
vn 0.12015698830427979 0 0.9927549033682206
vn 0.2969149752905883 0 0.9549039205324216
vn 0.6158659605362344 0 0.7878509495156946
vn 0.8549788298549549 0 0.5186628967835004
vn 0.9832544340282681 0 0.18223808044355125
vn 0.999999367186835 0 0.0011250004130856023
vn 0.9992990646416606 0 -0.03743500242155808
vn 0.9599883063591971 0 -0.28004008936864794
vn 0.7637257763211729 0 -0.6455408109350033
vn 0.43601797816247617 0 -0.8999379549275087
vn 0.23985893850677217 0 -0.9708077511116219
vn 0.9933549531603351 0 -0.11509099457311446
vn 0.8781981109107201 0 -0.4782970604058136
vn 0.5107362628083495 0 -0.8597374423930602
vn 0.13360901643143827 0 -0.9910341218788704
vn -0.3075990241377578 0 -0.9515160746668967
vn -0.48148786630215307 0 -0.8764527566297
vn -0.7718322552835607 0 -0.6358262102995539
vn -0.9524214534017694 0 -0.30478414509298396
vn -0.9981997002985706 0 -0.059977981992093435
usemtl material_0_0
f 1/1/1 2/2/1 3/3/1
f 2/2/1 1/1/1 4/4/1
f 5/3/2 1/1/2 3/3/2
f 1/1/2 5/3/2 6/1/2
f 5/5/1 7/6/1 6/7/1
f 7/6/1 5/5/1 8/8/1
f 8/8/3 9/9/4 7/6/3
f 9/9/4 8/8/3 10/10/4
f 10/10/4 11/11/5 9/9/4
f 11/11/5 10/10/4 12/12/5
f 13/13/6 11/11/5 12/12/5
f 11/11/5 13/13/6 14/14/6
f 15/15/7 14/14/6 13/13/6
f 14/14/6 15/15/7 16/16/7
f 17/17/8 16/16/7 15/15/7
f 16/16/7 17/17/8 18/18/8
f 19/17/9 18/18/8 17/17/8
f 18/18/8 19/17/9 20/18/9
f 21/19/10 20/18/9 19/17/9
f 20/18/9 21/19/10 22/20/10
f 23/21/11 22/20/10 21/19/10
f 22/20/10 23/21/11 24/22/11
f 23/21/11 25/23/12 24/22/11
f 25/23/12 23/21/11 26/24/12
f 26/24/12 27/25/13 25/23/12
f 27/25/13 26/24/12 28/26/13
f 29/26/14 27/25/15 28/26/15
f 27/25/15 29/26/14 30/25/14
f 31/27/16 30/25/14 29/26/14
f 30/25/14 31/27/16 32/28/16
f 33/29/17 32/28/16 31/27/16
f 32/28/16 33/29/17 34/30/17
f 33/29/17 35/31/18 34/30/17
f 35/31/18 33/29/17 36/32/18
f 36/32/18 37/33/19 35/31/18
f 37/33/19 36/32/18 38/34/19
f 39/34/2 37/33/2 38/34/2
f 37/33/2 39/34/2 40/33/2
f 39/34/20 41/35/21 40/33/20
f 41/35/21 39/34/20 42/36/21
f 42/36/21 43/37/22 41/35/21
f 43/37/22 42/36/21 44/38/22
f 45/39/23 43/37/22 44/38/22
f 43/37/22 45/39/23 46/40/23
f 47/5/24 46/40/23 45/39/23
f 46/40/23 47/5/24 48/7/24
f 49/5/2 48/7/24 47/5/24
f 48/7/24 49/5/2 50/7/2
f 49/3/19 51/4/19 50/1/19
f 51/4/19 49/3/19 52/2/19
usemtl material_1_0
f 3//19 2//19 1//19
f 4//19 1//19 2//19
f 3//15 1//15 5//15
f 6//15 5//15 1//15
f 6//19 7//19 5//19
f 8//19 5//19 7//19
f 7//25 9//26 8//25
f 10//26 8//25 9//26
f 9//26 11//27 10//26
f 12//27 10//26 11//27
f 12//27 11//27 13//28
f 14//28 13//28 11//27
f 13//28 14//28 15//29
f 16//29 15//29 14//28
f 15//29 16//29 17//30
f 18//30 17//30 16//29
f 17//30 18//30 19//31
f 20//31 19//31 18//30
f 19//31 20//31 21//32
f 22//32 21//32 20//31
f 21//32 22//32 23//33
f 24//33 23//33 22//32
f 24//33 25//34 23//33
f 26//34 23//33 25//34
f 25//34 27//35 26//34
f 28//35 26//34 27//35
f 28//2 27//2 29//36
f 30//36 29//36 27//2
f 29//36 30//36 31//37
f 32//37 31//37 30//36
f 31//37 32//37 33//38
f 34//38 33//38 32//37
f 34//38 35//39 33//38
f 36//39 33//38 35//39
f 35//39 37//1 36//39
f 38//1 36//39 37//1
f 38//15 37//15 39//15
f 40//15 39//15 37//15
f 40//40 41//41 39//40
f 42//41 39//40 41//41
f 41//41 43//42 42//41
f 44//42 42//41 43//42
f 44//42 43//42 45//43
f 46//43 45//43 43//42
f 45//43 46//43 47//44
f 48//44 47//44 46//43
f 47//44 48//44 49//15
f 50//15 49//15 48//44
f 50//1 51//1 49//1
f 52//1 49//1 51//1
