# SSTK version 0.8.0
# 86
mtllib original-86.mtl
o DF_11_TC1/DF_11_TC/mesh39/mesh39-geometry#mesh39-geometry
v -0.475456 0.690797 0.364008
v 0.486151 0.689338 0.363244
v -0.475456 0.689338 0.363244
v 0.486151 0.690797 0.364008
v 0.486151 0.687703 0.363046
v 0.486151 0.691891 0.365239
v -0.475456 0.687703 0.363046
v -0.475456 0.691891 0.365239
v 0.486151 0.596916 0.363046
v 0.486151 0.692478 0.366779
v -0.475456 0.596916 0.363046
v -0.475456 0.692478 0.366779
v -0.475456 0.596916 0.367904
v 0.486151 0.692482 0.368426
v 0.486151 0.596916 0.367904
v -0.475456 0.692482 0.368426
v 0.486151 0.595551 0.367904
v 0.486151 0.692482 0.376597
v -0.475456 0.595551 0.367904
v -0.475456 0.692482 0.376597
v -0.475456 0.692068 0.382112
v 0.486151 0.692068 0.382112
v 0.486151 0.689452 0.386984
v -0.475456 0.689452 0.386984
v -0.475456 0.685083 0.390375
v 0.486151 0.685083 0.390375
v -0.475456 0.679714 0.391702
v 0.486151 0.679714 0.391702
v 0.486151 0.679714 0.394157
v -0.475456 0.679714 0.394157
v 0.486151 0.679521 0.394979
v -0.475456 0.679521 0.394979
v 0.486151 0.678935 0.395587
v -0.475456 0.678935 0.395587
v -0.475456 0.678121 0.395811
v 0.486151 0.678121 0.395811
v -0.475456 0.606384 0.395811
v 0.486151 0.606384 0.395811
v 0.486151 0.606384 0.393073
v -0.475456 0.606384 0.393073
v -0.475456 0.602501 0.391818
v 0.486151 0.602501 0.391818
v -0.475456 0.599359 0.389214
v 0.486151 0.599359 0.389214
v 0.486151 0.597405 0.385631
v -0.475456 0.597405 0.385631
v 0.486151 0.596916 0.381580
v -0.475456 0.596916 0.381580
v 0.486151 0.596916 0.379188
v -0.475456 0.596916 0.379188
v -0.475456 0.595551 0.379188
v 0.486151 0.595551 0.379188
vt -0.111484 0.287126
vt -0.110788 0.589444
vt -0.110788 0.287126
vt -0.111484 0.589444
vt -0.110008 0.589444
vt -0.112006 0.589444
vt -0.110008 0.287126
vt -0.112006 0.287126
vt -0.066714 0.589444
vt -0.112286 0.589444
vt -0.066714 0.287126
vt -0.112286 0.287126
vt -0.112287 0.589444
vt -0.112287 0.287126
vt -0.066063 0.589444
vt -0.066063 0.287126
vt -0.11209 0.287126
vt -0.11209 0.589444
vt -0.110842 0.589444
vt -0.110842 0.287126
vt -0.108759 0.287126
vt -0.108759 0.589444
vt -0.106199 0.287126
vt -0.106199 0.589444
vt -0.106107 0.589444
vt -0.106107 0.287126
vt -0.105827 0.589444
vt -0.105827 0.287126
vt -0.105439 0.287126
vt -0.105439 0.589444
vt -0.07123 0.287126
vt -0.07123 0.589444
vt -0.069378 0.287126
vt -0.069378 0.589444
vt -0.067879 0.287126
vt -0.067879 0.589444
vt -0.066947 0.589444
vt -0.066947 0.287126
vn 0 0.6158659605362345 -0.7878509495156943
vn 0 0.2969149752905885 -0.9549039205324216
vn 0 0.12015698830428002 -0.9927549033682207
vn 0 0.8549788298549551 -0.5186628967835002
vn 0 0 -1
vn 0 0.9832544340282682 -0.18223808044355103
vn 0 -1 0
vn 0 0.9999993671868351 -0.0011250004130853803
vn 0 0.9992990646416605 0.0374350024215583
vn 0 0.9599883063591971 0.28004008936864816
vn 0 0.7637257763211729 0.6455408109350035
vn 0 0.4360179781624759 0.8999379549275087
vn 0 0.23985893850677198 0.970807751111622
vn 0 1 0
vn 0 0.9933549531603352 0.1150909945731147
vn 0 0.8781981109107199 0.47829706040581377
vn 0 0.5107362628083492 0.8597374423930602
vn 0 0.13360901643143805 0.9910341218788705
vn 0 0 1
vn 0 -0.48148786630215323 0.8764527566296998
vn 0 -0.30759902413775797 0.9515160746668965
vn 0 -0.7718322552835608 0.6358262102995537
vn 0 -0.9524214534017696 0.3047841450929838
vn 0 -0.9981997002985705 0.059977981992093206
vn 0 -0.2969149752905885 0.9549039205324216
vn 0 -0.6158659605362345 0.7878509495156943
vn 0 -0.12015698830428002 0.9927549033682207
vn 0 -0.8549788298549551 0.5186628967835002
vn 0 -0.9832544340282682 0.18223808044355103
vn 0 -0.9999993671868351 0.0011250004130853803
vn 0 -0.9992990646416605 -0.0374350024215583
vn 0 -0.9599883063591971 -0.28004008936864816
vn 0 -0.7637257763211729 -0.6455408109350035
vn 0 -0.4360179781624759 -0.8999379549275087
vn 0 -0.23985893850677198 -0.970807751111622
vn 0 -0.9933549531603352 -0.1150909945731147
vn 0 -0.8781981109107199 -0.47829706040581377
vn 0 -0.5107362628083492 -0.8597374423930602
vn 0 -0.13360901643143805 -0.9910341218788705
vn 0 0.30759902413775797 -0.9515160746668965
vn 0 0.48148786630215323 -0.8764527566296998
vn 0 0.7718322552835608 -0.6358262102995537
vn 0 0.9524214534017696 -0.3047841450929838
vn 0 0.9981997002985705 -0.059977981992093206
usemtl material_0_0
f 1/1/1 2/2/2 3/3/2
f 2/2/2 1/1/1 4/4/1
f 5/5/3 3/3/2 2/2/2
f 1/1/1 6/6/4 4/4/1
f 3/3/2 5/5/3 7/7/3
f 6/6/4 1/1/1 8/8/4
f 9/9/5 7/7/5 5/5/5
f 8/8/4 10/10/6 6/6/4
f 7/7/5 9/9/5 11/11/5
f 10/10/6 8/8/4 12/12/6
f 9/9/7 13/11/7 11/11/7
f 12/12/6 14/13/8 10/10/6
f 13/11/7 9/9/7 15/9/7
f 14/13/8 12/12/6 16/14/8
f 17/15/5 13/11/5 15/9/5
f 16/14/8 18/13/9 14/13/8
f 13/11/5 17/15/5 19/16/5
f 18/13/9 16/14/8 20/14/9
f 21/17/10 18/13/9 20/14/9
f 18/13/9 21/17/10 22/18/10
f 21/17/10 23/19/11 22/18/10
f 23/19/11 21/17/10 24/20/11
f 25/21/12 23/19/11 24/20/11
f 23/19/11 25/21/12 26/22/12
f 27/23/13 26/22/12 25/21/12
f 26/22/12 27/23/13 28/24/13
f 27/23/14 29/24/15 28/24/14
f 29/24/15 27/23/14 30/23/15
f 30/23/15 31/25/16 29/24/15
f 31/25/16 30/23/15 32/26/16
f 32/26/16 33/27/17 31/25/16
f 33/27/17 32/26/16 34/28/17
f 35/29/18 33/27/17 34/28/17
f 33/27/17 35/29/18 36/30/18
f 37/31/19 36/30/18 35/29/18
f 36/30/18 37/31/19 38/32/19
f 37/31/7 39/32/7 38/32/7
f 39/32/7 37/31/7 40/31/7
f 41/33/20 39/32/21 40/31/21
f 39/32/21 41/33/20 42/34/20
f 43/35/22 42/34/20 41/33/20
f 42/34/20 43/35/22 44/36/22
f 43/35/22 45/37/23 44/36/22
f 45/37/23 43/35/22 46/38/23
f 46/38/23 47/9/24 45/37/23
f 47/9/24 46/38/23 48/11/24
f 48/11/24 49/9/7 47/9/24
f 49/9/7 48/11/24 50/11/7
f 51/16/19 49/9/19 50/11/19
f 49/9/19 51/16/19 52/15/19
usemtl material_1_0
f 3//25 2//25 1//26
f 4//26 1//26 2//25
f 2//25 3//25 5//27
f 4//26 6//28 1//26
f 7//27 5//27 3//25
f 8//28 1//26 6//28
f 5//19 7//19 9//19
f 6//28 10//29 8//28
f 11//19 9//19 7//19
f 12//29 8//28 10//29
f 11//14 13//14 9//14
f 10//29 14//30 12//29
f 15//14 9//14 13//14
f 16//30 12//29 14//30
f 15//19 13//19 17//19
f 14//30 18//31 16//30
f 19//19 17//19 13//19
f 20//31 16//30 18//31
f 20//31 18//31 21//32
f 22//32 21//32 18//31
f 22//32 23//33 21//32
f 24//33 21//32 23//33
f 24//33 23//33 25//34
f 26//34 25//34 23//33
f 25//34 26//34 27//35
f 28//35 27//35 26//34
f 28//7 29//36 27//7
f 30//36 27//7 29//36
f 29//36 31//37 30//36
f 32//37 30//36 31//37
f 31//37 33//38 32//37
f 34//38 32//37 33//38
f 34//38 33//38 35//39
f 36//39 35//39 33//38
f 35//39 36//39 37//5
f 38//5 37//5 36//39
f 38//14 39//14 37//14
f 40//14 37//14 39//14
f 40//40 39//40 41//41
f 42//41 41//41 39//40
f 41//41 42//41 43//42
f 44//42 43//42 42//41
f 44//42 45//43 43//42
f 46//43 43//42 45//43
f 45//43 47//44 46//43
f 48//44 46//43 47//44
f 47//44 49//14 48//44
f 50//14 48//44 49//14
f 50//5 49//5 51//5
f 52//5 51//5 49//5
