# SSTK version 0.8.0
# 62
mtllib original-62.mtl
o DF_21_CR2/DF_21_CR/mesh26/mesh26-geometry#mesh26-geometry
v 0.500834 0.278820 0.393073
v 0.496951 0.008506 0.391818
v 0.500834 0.008506 0.393073
v 0.496951 0.278820 0.391818
v 0.500834 0.008506 0.395811
v 0.493809 0.008506 0.389214
v 0.500834 0.278820 0.395811
v 0.493809 0.278820 0.389214
v 0.572571 0.278820 0.395811
v 0.491855 0.278820 0.385631
v 0.572571 0.008506 0.395811
v 0.491855 0.008506 0.385631
v 0.573386 0.278820 0.395587
v 0.491366 0.278820 0.381580
v 0.573386 0.008506 0.395587
v 0.491366 0.008506 0.381580
v 0.573971 0.008506 0.394979
v 0.491366 0.278820 0.379188
v 0.573971 0.278820 0.394979
v 0.491366 0.008506 0.379188
v 0.574164 0.008506 0.394157
v 0.486151 0.008506 0.379188
v 0.574164 0.278820 0.394157
v 0.486151 0.278820 0.379188
v 0.574164 0.008506 0.391702
v 0.574164 0.278820 0.391702
v 0.579533 0.278820 0.390375
v 0.579533 0.008506 0.390375
v 0.583902 0.278820 0.386984
v 0.583902 0.008506 0.386984
v 0.586518 0.008506 0.382112
v 0.586518 0.278820 0.382112
v 0.586932 0.008506 0.376597
v 0.586932 0.278820 0.376597
v 0.586932 0.008506 0.368426
v 0.586932 0.278820 0.368426
v 0.586928 0.008506 0.366779
v 0.586928 0.278820 0.366779
v 0.586341 0.008506 0.365239
v 0.586341 0.278820 0.365239
v 0.585247 0.008506 0.364008
v 0.585247 0.278820 0.364008
v 0.583788 0.278820 0.363244
v 0.583788 0.008506 0.363244
v 0.582153 0.278820 0.363046
v 0.582153 0.008506 0.363046
v 0.491366 0.278820 0.363046
v 0.491366 0.008506 0.363046
v 0.491366 0.008506 0.367904
v 0.491366 0.278820 0.367904
v 0.486151 0.278820 0.367904
v 0.486151 0.008506 0.367904
vt 0.762979 0.745443
vt 0.761127 0.580078
vt 0.762979 0.580078
vt 0.761127 0.745443
vt 0.759629 0.580078
vt 0.759629 0.745443
vt 0.797188 0.745443
vt 0.758697 0.745443
vt 0.797188 0.580078
vt 0.758697 0.580078
vt 0.797577 0.745443
vt 0.758464 0.745443
vt 0.797577 0.580078
vt 0.758464 0.580078
vt 0.797856 0.580078
vt 0.797856 0.745443
vt 0.797948 0.580078
vt -0.196272 0.591931
vt -0.030907 0.589444
vt -0.030907 0.591931
vt 0.797948 0.745443
vt -0.196272 0.589444
vt 0.800508 0.745443
vt 0.800508 0.580078
vt 0.802592 0.745443
vt 0.802592 0.580078
vt 0.803839 0.580078
vt 0.803839 0.745443
vt 0.804036 0.580078
vt 0.804036 0.745443
vt 0.804035 0.580078
vt 0.804035 0.745443
vt 0.803755 0.580078
vt 0.803755 0.745443
vt 0.803233 0.580078
vt 0.803233 0.745443
vt 0.802537 0.745443
vt 0.802537 0.580078
vt 0.801758 0.745443
vt 0.801758 0.580078
vn -0.3075990241377578 0 0.9515160746668967
vn -0.48148786630215307 0 0.8764527566297
vn -1 0 0
vn -0.7718322552835607 0 0.6358262102995539
vn 0 0 1
vn 0.13360901643143827 0 0.9910341218788704
vn -0.9524214534017694 0 0.30478414509298396
vn 0.5107362628083495 0 0.8597374423930602
vn -0.9981997002985706 0 0.059977981992093435
vn 0.8781981109107201 0 0.4782970604058136
vn 0.9933549531603351 0 0.11509099457311446
vn 1 0 0
vn 0.23985893850677217 0 0.9708077511116219
vn 0.43601797816247617 0 0.8999379549275087
vn 0.7637257763211729 0 0.6455408109350033
vn 0.9599883063591971 0 0.28004008936864794
vn 0.9992990646416606 0 0.03743500242155808
vn 0.999999367186835 0 -0.0011250004130856023
vn 0.9832544340282681 0 -0.18223808044355125
vn 0.8549788298549549 0 -0.5186628967835004
vn 0.6158659605362344 0 -0.7878509495156946
vn 0.2969149752905883 0 -0.9549039205324216
vn 0.12015698830427979 0 -0.9927549033682206
vn 0 0 -1
vn 0.3075990241377578 0 -0.9515160746668967
vn 0.48148786630215307 0 -0.8764527566297
vn 0.7718322552835607 0 -0.6358262102995539
vn -0.13360901643143827 0 -0.9910341218788704
vn 0.9524214534017694 0 -0.30478414509298396
vn -0.5107362628083495 0 -0.8597374423930602
vn 0.9981997002985706 0 -0.059977981992093435
vn -0.8781981109107201 0 -0.4782970604058136
vn -0.9933549531603351 0 -0.11509099457311446
vn -0.23985893850677217 0 -0.9708077511116219
vn -0.43601797816247617 0 -0.8999379549275087
vn -0.7637257763211729 0 -0.6455408109350033
vn -0.9599883063591971 0 -0.28004008936864794
vn -0.9992990646416606 0 -0.03743500242155808
vn -0.999999367186835 0 0.0011250004130856023
vn -0.9832544340282681 0 0.18223808044355125
vn -0.8549788298549549 0 0.5186628967835004
vn -0.6158659605362344 0 0.7878509495156946
vn -0.2969149752905883 0 0.9549039205324216
vn -0.12015698830427979 0 0.9927549033682206
usemtl material_0_0
f 1/1/1 2/2/2 3/3/1
f 2/2/2 1/1/1 4/4/2
f 5/3/3 1/1/3 3/3/3
f 4/4/2 6/5/4 2/2/2
f 1/1/3 5/3/3 7/1/3
f 6/5/4 4/4/2 8/6/4
f 5/3/5 9/7/6 7/1/5
f 10/8/7 6/5/4 8/6/4
f 9/7/6 5/3/5 11/9/6
f 6/5/4 10/8/7 12/10/7
f 11/9/6 13/11/8 9/7/6
f 14/12/9 12/10/7 10/8/7
f 13/11/8 11/9/6 15/13/8
f 12/10/7 14/12/9 16/14/9
f 17/15/10 13/11/8 15/13/8
f 18/12/3 16/14/9 14/12/9
f 13/11/8 17/15/10 19/16/10
f 16/14/9 18/12/3 20/14/3
f 21/17/11 19/16/10 17/15/10
f 18/18/5 22/19/5 20/20/5
f 19/16/10 21/17/11 23/21/11
f 22/19/5 18/18/5 24/22/5
f 25/17/12 23/21/11 21/17/11
f 23/21/11 25/17/12 26/21/12
f 25/17/13 27/23/14 26/21/13
f 27/23/14 25/17/13 28/24/14
f 28/24/14 29/25/15 27/23/14
f 29/25/15 28/24/14 30/26/15
f 31/27/16 29/25/15 30/26/15
f 29/25/15 31/27/16 32/28/16
f 33/29/17 32/28/16 31/27/16
f 32/28/16 33/29/17 34/30/17
f 35/29/18 34/30/17 33/29/17
f 34/30/17 35/29/18 36/30/18
f 37/31/19 36/30/18 35/29/18
f 36/30/18 37/31/19 38/32/19
f 39/33/20 38/32/19 37/31/19
f 38/32/19 39/33/20 40/34/20
f 41/35/21 40/34/20 39/33/20
f 40/34/20 41/35/21 42/36/21
f 41/35/21 43/37/22 42/36/21
f 43/37/22 41/35/21 44/38/22
f 44/38/22 45/39/23 43/37/22
f 45/39/23 44/38/22 46/40/23
f 46/40/24 47/12/24 45/39/24
f 47/12/24 46/40/24 48/14/24
f 49/14/3 47/12/3 48/14/3
f 47/12/3 49/14/3 50/12/3
f 49/20/24 51/22/24 50/18/24
f 51/22/24 49/20/24 52/19/24
usemtl material_1_0
f 3//25 2//26 1//25
f 4//26 1//25 2//26
f 3//12 1//12 5//12
f 2//26 6//27 4//26
f 7//12 5//12 1//12
f 8//27 4//26 6//27
f 7//24 9//28 5//24
f 8//27 6//27 10//29
f 11//28 5//24 9//28
f 12//29 10//29 6//27
f 9//28 13//30 11//28
f 10//29 12//29 14//31
f 15//30 11//28 13//30
f 16//31 14//31 12//29
f 15//30 13//30 17//32
f 14//31 16//31 18//12
f 19//32 17//32 13//30
f 20//12 18//12 16//31
f 17//32 19//32 21//33
f 20//24 22//24 18//24
f 23//33 21//33 19//32
f 24//24 18//24 22//24
f 21//33 23//33 25//3
f 26//3 25//3 23//33
f 26//34 27//35 25//34
f 28//35 25//34 27//35
f 27//35 29//36 28//35
f 30//36 28//35 29//36
f 30//36 29//36 31//37
f 32//37 31//37 29//36
f 31//37 32//37 33//38
f 34//38 33//38 32//37
f 33//38 34//38 35//39
f 36//39 35//39 34//38
f 35//39 36//39 37//40
f 38//40 37//40 36//39
f 37//40 38//40 39//41
f 40//41 39//41 38//40
f 39//41 40//41 41//42
f 42//42 41//42 40//41
f 42//42 43//43 41//42
f 44//43 41//42 43//43
f 43//43 45//44 44//43
f 46//44 44//43 45//44
f 45//5 47//5 46//5
f 48//5 46//5 47//5
f 48//12 47//12 49//12
f 50//12 49//12 47//12
f 50//5 51//5 49//5
f 52//5 49//5 51//5
