# SSTK version 0.8.0
# 58
mtllib original-58.mtl
o DF_21_TL2/DF_21_TL/mesh22/mesh22-geometry#mesh22-geometry
v -0.576237 0.375750 0.376597
v -0.575823 0.278820 0.382112
v -0.575823 0.375336 0.382112
v -0.576237 0.278820 0.376597
v -0.573207 0.278820 0.386984
v -0.475779 0.375750 0.376597
v -0.576237 0.375750 0.368426
v -0.573207 0.372720 0.386984
v -0.476193 0.375336 0.382112
v -0.576237 0.278820 0.368426
v -0.568838 0.368352 0.390375
v -0.475456 0.375336 0.382112
v -0.475779 0.375750 0.368426
v -0.576233 0.375747 0.366779
v -0.568838 0.278820 0.390375
v -0.483178 0.368352 0.390375
v -0.478809 0.372720 0.386984
v -0.475456 0.375750 0.376597
v -0.475456 0.372720 0.386984
v -0.576233 0.278820 0.366779
v -0.563469 0.362983 0.391702
v -0.475456 0.375750 0.368426
v -0.475783 0.375747 0.366779
v -0.575646 0.375160 0.365239
v -0.563469 0.278820 0.391702
v -0.488547 0.362983 0.391702
v -0.475456 0.375747 0.366779
v -0.575646 0.278820 0.365239
v -0.563469 0.278820 0.394157
v -0.475456 0.368352 0.390375
v -0.488547 0.362983 0.394157
v -0.475456 0.375160 0.365239
v -0.476370 0.375160 0.365239
v -0.574552 0.374066 0.364008
v -0.563469 0.362983 0.394157
v -0.475456 0.362983 0.394157
v -0.475456 0.362983 0.391702
v -0.574552 0.278820 0.364008
v -0.563276 0.278820 0.394979
v -0.563276 0.362790 0.394979
v -0.475456 0.362790 0.394979
v -0.475456 0.374066 0.364008
v -0.477464 0.374066 0.364008
v -0.573093 0.278820 0.363244
v -0.488740 0.362790 0.394979
v -0.478923 0.372607 0.363244
v -0.573093 0.372607 0.363244
v -0.562691 0.278820 0.395587
v -0.562691 0.362204 0.395587
v -0.475456 0.362204 0.395587
v -0.475456 0.372607 0.363244
v -0.571458 0.278820 0.363046
v -0.489325 0.362204 0.395587
v -0.480558 0.370971 0.363046
v -0.475456 0.370971 0.363046
v -0.571458 0.370971 0.363046
v -0.561877 0.361390 0.395811
v -0.490140 0.361390 0.395811
v -0.480671 0.370971 0.363046
v -0.480671 0.278820 0.363046
v -0.561877 0.278820 0.395811
v -0.475456 0.361390 0.395811
v -0.480671 0.370858 0.363046
v -0.480671 0.280185 0.363046
v -0.490140 0.289653 0.395811
v -0.475456 0.280185 0.363046
v -0.480671 0.280185 0.367904
v -0.490140 0.278820 0.395811
v -0.475456 0.289653 0.395811
v -0.480671 0.278820 0.367904
v -0.490140 0.278820 0.393073
v -0.475456 0.289653 0.393073
v -0.475456 0.278820 0.367904
v -0.475456 0.280185 0.367904
v -0.490140 0.289653 0.393073
v -0.486256 0.285770 0.391818
v -0.486256 0.278820 0.391818
v -0.475456 0.285770 0.391818
v -0.483114 0.282628 0.389214
v -0.483114 0.278820 0.389214
v -0.475456 0.282628 0.389214
v -0.481160 0.278820 0.385631
v -0.481160 0.280673 0.385631
v -0.475456 0.280673 0.385631
v -0.480671 0.278820 0.381580
v -0.480671 0.280185 0.381580
v -0.475456 0.280185 0.381580
v -0.480671 0.278820 0.379188
v -0.475456 0.280185 0.379188
v -0.480671 0.280185 0.379188
v -0.475456 0.278820 0.379188
vt 0.405599 0.791667
vt 0.405796 0.745443
vt 0.405796 0.791469
vt 0.405599 0.745443
vt 0.407044 0.745443
vt 0.453505 0.791667
vt 0.407044 0.790222
vt 0.453308 0.791469
vt 0.409127 0.788138
vt -0.242298 0.287126
vt -0.242496 0.286972
vt -0.242298 0.286775
vt 0.405601 0.791665
vt 0.409127 0.745443
vt 0.449977 0.788138
vt 0.45206 0.790222
vt -0.242496 0.287126
vt -0.241051 0.287126
vt 0.405601 0.745443
vt 0.411687 0.785578
vt -0.241051 0.285527
vt 0.453503 0.791665
vt 0.405881 0.791385
vt 0.411687 0.745443
vt -0.238967 0.283444
vt 0.447416 0.785578
vt -0.242494 0.287126
vt -0.242494 0.286971
vt 0.405881 0.745443
vt -0.238967 0.287126
vt -0.236407 0.280884
vt -0.242214 0.287126
vt 0.453223 0.791385
vt 0.406402 0.790863
vt -0.236407 0.287126
vt -0.242214 0.286691
vt 0.406402 0.745443
vt 0.41178 0.745443
vt 0.41178 0.785486
vt -0.236315 0.287126
vt -0.241692 0.287126
vt 0.452702 0.790863
vt 0.407098 0.745443
vt 0.447324 0.785486
vt -0.236315 0.280792
vt -0.241692 0.286169
vt 0.452006 0.790168
vt 0.407098 0.790168
vt 0.412059 0.745443
vt 0.412059 0.785207
vt -0.236036 0.287126
vt -0.240997 0.287126
vt -0.240997 0.285473
vt 0.407878 0.745443
vt 0.447045 0.785207
vt -0.236036 0.280512
vt 0.451226 0.789388
vt -0.240217 0.287126
vt 0.407878 0.789388
vt 0.412447 0.784819
vt -0.235648 0.280124
vt 0.451172 0.789388
vt -0.240217 0.284693
vt 0.451172 0.745443
vt 0.412447 0.745443
vt 0.446657 0.784819
vt -0.235648 0.287126
vt 0.451172 0.789334
vt -0.240163 0.284639
vt 0.451172 0.746094
vt 0.446657 0.750609
vt -0.201438 0.280124
vt -0.196923 0.287126
vt 0.446657 0.745443
vt -0.201438 0.287126
vt -0.196923 0.284639
vt -0.196272 0.287126
vt -0.196272 0.284639
vt 0.448508 0.748757
vt -0.199586 0.281976
vt 0.448508 0.745443
vt -0.199586 0.287126
vt 0.450007 0.747259
vt -0.198088 0.283474
vt 0.450007 0.745443
vt -0.198088 0.287126
vt 0.450939 0.745443
vt -0.197156 0.284406
vt 0.450939 0.746327
vt -0.197156 0.287126
vn -0.9992990646416606 0 0.03743500242155808
vn -0.9599883063591971 0 0.28004008936864794
vn -0.7637257763211729 0 0.6455408109350033
vn 0 0.959988306359197 0.28004008936864816
vn 0 0.9992990646416606 0.037435002421558304
vn -0.999999367186835 0 -0.0011250004130856023
vn 0 0.999999367186835 -0.0011250004130853803
vn -0.43601797816247617 0 0.8999379549275087
vn 0 0.7637257763211728 0.6455408109350035
vn -0.9832544340282681 0 -0.18223808044355125
vn 0 0.43601797816247595 0.8999379549275088
vn 0 0.9832544340282683 -0.18223808044355105
vn -0.23985893850677217 0 0.9708077511116219
vn 0 0.23985893850677195 0.9708077511116219
vn -0.8549788298549549 0 -0.5186628967835004
vn 0 0.854978829854955 -0.5186628967835002
vn -0.9933549531603351 0 0.11509099457311446
vn -1 0 0
vn 0 1 0
vn 0 0.9933549531603351 0.11509099457311468
vn -0.6158659605362344 0 -0.7878509495156946
vn 0 0.6158659605362344 -0.7878509495156943
vn -0.8781981109107201 0 0.4782970604058136
vn 0 0.87819811091072 0.4782970604058138
vn -0.2969149752905883 0 -0.9549039205324216
vn 0 0.2969149752905885 -0.9549039205324215
vn -0.5107362628083495 0 0.8597374423930602
vn 0 0.5107362628083493 0.8597374423930603
vn -0.12015698830427979 0 -0.9927549033682206
vn 0 0.12015698830428001 -0.9927549033682206
vn -0.08969600004861523 0.08969600004861501 0.9919220005376217
vn 0 0.13360901643143805 0.9910341218788704
vn 0 0 -1
vn -0.13360901643143827 0 0.9910341218788704
vn 0 0 1
vn 1 0 0
vn 0 -1 0
vn 0.3075990241377578 0 0.9515160746668967
vn 0.48148786630215307 0 0.8764527566297
vn 0 -0.4814878663021533 0.8764527566296999
vn 0 -0.307599024137758 0.9515160746668966
vn 0.7718322552835607 0 0.6358262102995539
vn 0 -0.7718322552835608 0.6358262102995537
vn 0.9524214534017694 0 0.30478414509298396
vn 0 -0.9524214534017695 0.30478414509298374
vn 0.9981997002985706 0 0.059977981992093435
vn 0 -0.9981997002985706 0.05997798199209321
vn 0.9599883063591971 0 -0.28004008936864794
vn 0.9992990646416606 0 -0.03743500242155808
vn 0.7637257763211729 0 -0.6455408109350033
vn 0 -0.9992990646416606 -0.037435002421558304
vn 0 -0.959988306359197 -0.28004008936864816
vn 0.999999367186835 0 0.0011250004130856023
vn 0 -0.999999367186835 0.0011250004130853803
vn 0.43601797816247617 0 -0.8999379549275087
vn 0 -0.7637257763211728 -0.6455408109350035
vn 0.9832544340282681 0 0.18223808044355125
vn 0 -0.43601797816247595 -0.8999379549275088
vn 0 -0.9832544340282683 0.18223808044355105
vn 0.23985893850677217 0 -0.9708077511116219
vn 0 -0.23985893850677195 -0.9708077511116219
vn 0.8549788298549549 0 0.5186628967835004
vn 0 -0.854978829854955 0.5186628967835002
vn 0.9933549531603351 0 -0.11509099457311446
vn 0 -0.9933549531603351 -0.11509099457311468
vn 0.6158659605362344 0 0.7878509495156946
vn 0 -0.6158659605362344 0.7878509495156943
vn 0.8781981109107201 0 -0.4782970604058136
vn 0 -0.87819811091072 -0.4782970604058138
vn 0.2969149752905883 0 0.9549039205324216
vn 0 -0.2969149752905885 0.9549039205324215
vn 0.5107362628083495 0 -0.8597374423930602
vn 0 -0.5107362628083493 -0.8597374423930603
vn 0.12015698830427979 0 0.9927549033682206
vn 0 -0.12015698830428001 0.9927549033682206
vn 0.08969600004861523 -0.08969600004861501 -0.9919220005376217
vn 0 -0.13360901643143805 -0.9910341218788704
vn 0.13360901643143827 0 -0.9910341218788704
vn -0.3075990241377578 0 -0.9515160746668967
vn -0.48148786630215307 0 -0.8764527566297
vn 0 0.307599024137758 -0.9515160746668966
vn 0 0.4814878663021533 -0.8764527566296999
vn -0.7718322552835607 0 -0.6358262102995539
vn 0 0.7718322552835608 -0.6358262102995537
vn -0.9524214534017694 0 -0.30478414509298396
vn 0 0.9524214534017695 -0.30478414509298374
vn -0.9981997002985706 0 -0.059977981992093435
vn 0 0.9981997002985706 -0.05997798199209321
usemtl material_0_0
f 1/1/1 2/2/2 3/3/2
f 2/2/2 1/1/1 4/4/1
f 5/5/3 3/3/2 2/2/2
f 3/3/4 6/6/5 1/1/5
f 7/1/6 4/4/1 1/1/1
f 3/3/2 5/5/3 8/7/3
f 6/6/5 3/3/4 9/8/4
f 6/6/5 7/1/7 1/1/5
f 4/4/1 7/1/6 10/4/6
f 5/5/3 11/9/8 8/7/3
f 8/7/9 9/8/4 3/3/4
f 12/10/4 6/11/5 9/12/4
f 7/1/7 6/6/5 13/6/7
f 14/13/10 10/4/6 7/1/6
f 11/9/8 5/5/3 15/14/8
f 16/15/11 8/7/9 11/9/11
f 9/8/4 8/7/9 17/16/9
f 6/11/5 12/10/4 18/17/5
f 9/12/4 19/18/9 12/10/4
f 18/17/5 13/11/7 6/11/5
f 13/6/7 14/13/12 7/1/7
f 10/4/6 14/13/10 20/19/10
f 15/14/8 21/20/13 11/9/8
f 8/7/9 16/15/11 17/16/9
f 21/20/14 16/15/11 11/9/11
f 19/18/9 9/12/4 17/21/9
f 13/11/7 18/17/5 22/17/7
f 14/13/12 13/6/7 23/22/12
f 24/23/15 20/19/10 14/13/10
f 21/20/13 15/14/8 25/24/13
f 16/25/11 19/18/9 17/21/9
f 16/15/11 21/20/14 26/26/14
f 27/27/12 13/11/7 22/17/7
f 13/11/7 27/27/12 23/28/12
f 23/22/12 24/23/16 14/13/12
f 20/19/10 24/23/15 28/29/15
f 29/24/17 21/20/18 25/24/18
f 19/18/9 16/25/11 30/30/11
f 21/20/19 31/26/20 26/26/19
f 26/31/14 30/30/11 16/25/11
f 32/32/16 23/28/12 27/27/12
f 24/23/16 23/22/12 33/33/16
f 34/34/21 28/29/15 24/23/15
f 21/20/18 29/24/17 35/20/17
f 31/26/20 21/20/19 35/20/20
f 36/35/20 26/31/19 31/31/20
f 30/30/11 26/31/14 37/35/14
f 23/28/12 32/32/16 33/36/16
f 33/33/16 34/34/22 24/23/16
f 28/29/15 34/34/21 38/37/21
f 39/38/23 35/20/17 29/24/17
f 40/39/24 31/26/20 35/20/20
f 26/31/19 36/35/20 37/35/19
f 31/31/20 41/40/24 36/35/20
f 42/41/22 33/36/16 32/32/16
f 34/34/22 33/33/16 43/42/22
f 34/34/21 44/43/25 38/37/21
f 35/20/17 39/38/23 40/39/23
f 31/26/20 40/39/24 45/44/24
f 41/40/24 31/31/20 45/45/24
f 33/36/16 42/41/22 43/46/22
f 46/47/26 34/34/22 43/42/22
f 44/43/25 34/34/21 47/48/25
f 48/49/27 40/39/23 39/38/23
f 49/50/28 45/44/24 40/39/24
f 45/45/24 50/51/28 41/40/24
f 51/52/26 43/46/22 42/41/22
f 34/34/22 46/47/26 47/48/26
f 43/46/22 51/52/26 46/53/26
f 47/48/25 52/54/29 44/43/25
f 40/39/23 48/49/27 49/50/27
f 45/44/24 49/50/28 53/55/28
f 50/51/28 45/45/24 53/56/28
f 54/57/30 47/48/26 46/47/26
f 55/58/30 46/53/26 51/52/26
f 52/54/29 47/48/25 56/59/29
f 48/49/27 57/60/31 49/50/27
f 57/60/31 53/55/28 49/50/28
f 58/61/32 50/51/28 53/56/28
f 59/62/30 47/48/26 54/57/30
f 46/53/26 55/58/30 54/63/30
f 47/48/26 59/62/30 56/59/30
f 56/59/33 60/64/33 52/54/33
f 57/60/31 48/49/27 61/65/34
f 53/55/28 57/60/31 58/66/32
f 50/51/28 58/61/32 62/67/32
f 54/57/33 63/68/33 59/62/33
f 55/58/33 63/69/33 54/63/33
f 63/68/33 56/59/33 59/62/33
f 60/64/33 56/59/33 64/70/33
f 61/65/34 65/71/35 57/60/31
f 57/60/31 65/71/35 58/66/32
f 65/72/35 62/67/32 58/61/32
f 66/73/33 63/69/33 55/58/33
f 64/70/33 56/59/33 63/68/33
f 67/70/36 60/64/36 64/70/36
f 65/71/35 61/65/34 68/74/35
f 62/67/32 65/72/35 69/75/35
f 63/69/33 66/73/33 64/76/33
f 60/64/36 67/70/36 70/64/36
f 66/73/37 67/76/37 64/76/37
f 71/74/36 65/71/36 68/74/36
f 65/72/37 72/75/37 69/75/37
f 67/76/33 73/77/33 70/78/33
f 67/76/37 66/73/37 74/73/37
f 65/71/36 71/74/36 75/71/36
f 72/75/37 65/72/37 75/72/37
f 73/77/33 67/76/33 74/73/33
f 71/74/38 76/79/39 75/71/38
f 76/80/40 72/75/41 75/72/41
f 76/79/39 71/74/38 77/81/39
f 72/75/41 76/80/40 78/82/40
f 77/81/39 79/83/42 76/79/39
f 79/84/43 78/82/40 76/80/40
f 79/83/42 77/81/39 80/85/42
f 78/82/40 79/84/43 81/86/43
f 82/87/44 79/83/42 80/85/42
f 83/88/45 81/86/43 79/84/43
f 79/83/42 82/87/44 83/89/44
f 81/86/43 83/88/45 84/90/45
f 85/64/46 83/89/44 82/87/44
f 86/76/47 84/90/45 83/88/45
f 83/89/44 85/64/46 86/70/46
f 84/90/45 86/76/47 87/73/47
f 88/64/36 86/70/46 85/64/46
f 86/76/47 89/73/37 87/73/47
f 86/70/46 88/64/36 90/70/36
f 89/73/37 86/76/47 90/76/37
f 88/78/35 89/73/35 90/76/35
f 89/73/35 88/78/35 91/77/35
usemtl material_1_0
f 3//48 2//48 1//49
f 4//49 1//49 2//48
f 2//48 3//48 5//50
f 1//51 6//51 3//52
f 1//49 4//49 7//53
f 8//50 5//50 3//48
f 9//52 3//52 6//51
f 1//51 7//54 6//51
f 10//53 7//53 4//49
f 8//50 11//55 5//50
f 3//52 9//52 8//56
f 9//52 6//51 12//52
f 13//54 6//51 7//54
f 7//53 10//53 14//57
f 15//55 5//50 11//55
f 11//58 8//56 16//58
f 17//56 8//56 9//52
f 18//51 12//52 6//51
f 12//52 19//56 9//52
f 6//51 13//54 18//51
f 7//54 14//59 13//54
f 20//57 14//57 10//53
f 11//55 21//60 15//55
f 17//56 16//58 8//56
f 11//58 16//58 21//61
f 17//56 9//52 19//56
f 22//54 18//51 13//54
f 23//59 13//54 14//59
f 14//57 20//57 24//62
f 25//60 15//55 21//60
f 17//56 19//56 16//58
f 26//61 21//61 16//58
f 22//54 13//54 27//59
f 23//59 27//59 13//54
f 14//59 24//63 23//59
f 28//62 24//62 20//57
f 25//36 21//36 29//64
f 30//58 16//58 19//56
f 26//37 31//65 21//37
f 16//58 30//58 26//61
f 27//59 23//59 32//63
f 33//63 23//59 24//63
f 24//62 28//62 34//66
f 35//64 29//64 21//36
f 35//65 21//37 31//65
f 31//65 26//37 36//65
f 37//61 26//61 30//58
f 33//63 32//63 23//59
f 24//63 34//67 33//63
f 38//66 34//66 28//62
f 29//64 35//64 39//68
f 35//65 31//65 40//69
f 37//37 36//65 26//37
f 36//65 41//69 31//65
f 32//63 33//63 42//67
f 43//67 33//63 34//67
f 38//66 44//70 34//66
f 40//68 39//68 35//64
f 45//69 40//69 31//65
f 45//69 31//65 41//69
f 43//67 42//67 33//63
f 43//67 34//67 46//71
f 47//70 34//66 44//70
f 39//68 40//68 48//72
f 40//69 45//69 49//73
f 41//69 50//73 45//69
f 42//67 43//67 51//71
f 47//71 46//71 34//67
f 46//71 51//71 43//67
f 44//70 52//74 47//70
f 49//72 48//72 40//68
f 53//73 49//73 45//69
f 53//73 45//69 50//73
f 46//71 47//71 54//75
f 51//71 46//71 55//75
f 56//74 47//70 52//74
f 49//72 57//76 48//72
f 49//73 53//73 57//76
f 53//73 50//73 58//77
f 54//75 47//71 59//75
f 54//75 55//75 46//71
f 56//75 59//75 47//71
f 52//35 60//35 56//35
f 61//78 48//72 57//76
f 58//77 57//76 53//73
f 62//77 58//77 50//73
f 59//35 63//35 54//35
f 54//35 63//35 55//35
f 59//35 56//35 63//35
f 64//35 56//35 60//35
f 57//76 65//33 61//78
f 58//77 65//33 57//76
f 58//77 62//77 65//33
f 55//35 63//35 66//35
f 63//35 56//35 64//35
f 64//18 60//18 67//18
f 68//33 61//78 65//33
f 69//33 65//33 62//77
f 64//35 66//35 63//35
f 70//18 67//18 60//18
f 64//19 67//19 66//19
f 68//18 65//18 71//18
f 69//19 72//19 65//19
f 70//35 73//35 67//35
f 74//19 66//19 67//19
f 75//18 71//18 65//18
f 75//19 65//19 72//19
f 74//35 67//35 73//35
f 75//79 76//80 71//79
f 75//81 72//81 76//82
f 77//80 71//79 76//80
f 78//82 76//82 72//81
f 76//80 79//83 77//80
f 76//82 78//82 79//84
f 80//83 77//80 79//83
f 81//84 79//84 78//82
f 80//83 79//83 82//85
f 79//84 81//84 83//86
f 83//85 82//85 79//83
f 84//86 83//86 81//84
f 82//85 83//85 85//87
f 83//86 84//86 86//88
f 86//87 85//87 83//85
f 87//88 86//88 84//86
f 85//87 86//87 88//18
f 87//88 89//19 86//88
f 90//18 88//18 86//87
f 90//19 86//88 89//19
f 90//33 89//33 88//33
f 91//33 88//33 89//33
