# SSTK version 0.8.0
# 81
mtllib original-81.mtl
o DF_21_BR2/DF_21_BR/mesh40/mesh40-geometry#mesh40-geometry
v 0.377691 -0.486409 0.505886
v 0.333928 -0.486409 0.497985
v 0.333928 -0.486409 0.505886
v 0.377691 -0.486409 0.497985
v 0.333928 -0.474095 0.505886
v 0.377691 -0.474095 0.497985
v 0.377691 -0.544226 0.497985
v 0.377691 -0.474095 0.505886
v 0.477926 -0.474095 0.497985
v 0.375257 -0.546659 0.497985
v 0.333928 -0.546659 0.497985
v 0.333928 -0.547087 0.524144
v 0.477926 -0.546659 0.497985
v 0.374829 -0.547087 0.524144
v 0.478354 -0.474095 0.524144
v 0.478354 -0.547087 0.524144
v 0.333928 -0.546342 0.526523
v 0.375575 -0.546342 0.526523
v 0.477609 -0.474095 0.526523
v 0.477609 -0.546342 0.526523
v 0.377155 -0.544761 0.528042
v 0.333928 -0.544761 0.528042
v 0.476028 -0.544761 0.528042
v 0.379456 -0.542461 0.528926
v 0.476028 -0.474095 0.528042
v 0.333928 -0.542461 0.528926
v 0.473727 -0.542461 0.528926
v 0.382842 -0.539075 0.529598
v 0.473727 -0.474095 0.528926
v 0.470341 -0.539075 0.529598
v 0.333928 -0.539075 0.529598
v 0.333928 -0.491560 0.529598
v 0.470341 -0.474095 0.529598
v 0.382842 -0.491560 0.529598
v 0.333928 -0.486409 0.514448
v 0.382842 -0.474095 0.529598
v 0.377691 -0.486409 0.514448
v 0.377691 -0.474095 0.514448
v 0.333928 -0.486409 0.513337
v 0.377691 -0.474095 0.513337
v 0.377691 -0.486409 0.513337
v 0.333928 -0.474095 0.513337
vt -0.072646 0.150956
vt -0.072646 0.172587
vt -0.06656 0.172587
vt 0.29009 0.029991
vt 0.29009 0.036077
vt -0.101223 0.150956
vt -0.06656 0.150956
vt 0.339632 0.036077
vt -0.102426 0.152159
vt 0.29009 0.001414
vt -0.102426 0.172587
vt 0.288887 0.000212
vt -0.102637 0.172587
vt 0.339632 0.000212
vt -0.102637 0.152371
vt 0.339844 0.036077
vt 0.339844 0
vt 0.288676 0
vt -0.102269 0.172587
vt 0.289044 0.000368
vt -0.102269 0.152002
vt 0.339475 0.036077
vt 0.339475 0.000368
vt -0.101488 0.151221
vt 0.289825 0.00115
vt -0.101488 0.172587
vt 0.338694 0.00115
vt -0.100351 0.150084
vt 0.338694 0.036077
vt 0.290962 0.002287
vt -0.100351 0.172587
vt 0.337557 0.002287
vt -0.098677 0.14841
vt 0.337557 0.036077
vt 0.335884 0.00396
vt -0.098677 0.172587
vt 0.292636 0.00396
vt -0.075192 0.172587
vt 0.335884 0.036077
vt -0.075192 0.14841
vt 0.292636 0.027445
vt 0.292636 0.036077
vn 0 1 0
vn 0 0 -1
vn -1 0 0
vn 0 -0.9998661989134013 -0.016358003254261712
vn 0 -0.9897122770561348 0.14307204005101998
vn 0.9897122770561347 0 0.1430720400510202
vn 0.9998661989134013 0 -0.01635800325426149
vn 0 -0.8501918909233632 0.5264729324553695
vn 0.8501918909233631 0 0.5264729324553697
vn 0 -0.5362842718894915 0.8440374279165338
vn 0.5362842718894912 0 0.844037427916534
vn 0 -0.2776680254686845 0.9606770881166689
vn 0.2776680254686843 0 0.960677088116669
vn 0 -0.09787398191890931 0.9951988161484805
vn 0.06549401933799623 -0.06549401933799645 0.9957012939942924
vn 0 0 1
vn 0.09787398191890909 0 0.9951988161484805
vn 0 0.9467726899613448 0.32190289458679855
vn 0 0.9866034141870529 0.16313706848675047
vn -0.9866034141870529 0 0.16313706848675025
vn -0.9467726899613448 0 0.3219028945867983
vn 0 -1 0
vn 1 0 0
vn 0 0.9998661989134013 0.016358003254261712
vn 0 0.9897122770561348 -0.14307204005101998
vn -0.9998661989134013 0 0.01635800325426149
vn -0.9897122770561347 0 -0.1430720400510202
vn 0 0.8501918909233632 -0.5264729324553695
vn -0.8501918909233631 0 -0.5264729324553697
vn 0 0.5362842718894915 -0.8440374279165338
vn -0.5362842718894912 0 -0.844037427916534
vn 0 0.2776680254686845 -0.9606770881166689
vn -0.2776680254686843 0 -0.960677088116669
vn 0 0.09787398191890931 -0.9951988161484805
vn -0.06549401933799623 0.06549401933799645 -0.9957012939942924
vn -0.09787398191890909 0 -0.9951988161484805
vn 0 -0.9467726899613448 -0.32190289458679855
vn 0 -0.9866034141870529 -0.16313706848675047
vn 0.9467726899613448 0 -0.3219028945867983
vn 0.9866034141870529 0 -0.16313706848675025
usemtl material_0_0
f 1/1/1 2/2/1 3/2/1
f 2/2/1 1/1/1 4/1/1
f 5/3/2 1/1/2 3/2/2
f 1/4/3 6/5/3 4/4/3
f 7/6/2 2/2/2 4/1/2
f 1/1/2 5/3/2 8/7/2
f 6/5/3 1/4/3 8/5/3
f 9/8/2 4/4/2 6/5/2
f 10/9/2 2/2/2 7/6/2
f 9/8/2 7/10/2 4/4/2
f 2/2/2 10/9/2 11/11/2
f 9/8/2 10/12/2 7/10/2
f 10/9/4 12/13/5 11/11/4
f 10/12/2 9/8/2 13/14/2
f 12/13/5 10/9/4 14/15/5
f 15/16/6 13/14/7 9/8/7
f 16/17/5 10/12/4 13/14/4
f 10/12/4 16/17/5 14/18/5
f 14/15/5 17/19/8 12/13/5
f 13/14/7 15/16/6 16/17/6
f 16/17/5 18/20/8 14/18/5
f 17/19/8 14/15/5 18/21/8
f 19/22/9 16/17/6 15/16/6
f 18/20/8 16/17/5 20/23/8
f 21/24/10 17/19/8 18/21/8
f 16/17/6 19/22/9 20/23/9
f 20/23/8 21/25/10 18/20/8
f 17/19/8 21/24/10 22/26/10
f 19/22/9 23/27/11 20/23/9
f 21/25/10 20/23/8 23/27/10
f 24/28/12 22/26/10 21/24/10
f 23/27/11 19/22/9 25/29/11
f 23/27/10 24/30/12 21/25/10
f 22/26/10 24/28/12 26/31/12
f 25/29/11 27/32/13 23/27/11
f 24/30/12 23/27/10 27/32/12
f 28/33/14 26/31/12 24/28/12
f 27/32/13 25/29/11 29/34/13
f 30/35/15 24/30/12 27/32/12
f 26/31/12 28/33/14 31/36/14
f 24/30/12 30/35/15 28/37/14
f 29/34/13 30/35/15 27/32/13
f 28/33/14 32/38/16 31/36/14
f 33/39/17 28/37/14 30/35/15
f 30/35/15 29/34/13 33/39/17
f 32/38/16 28/33/14 34/40/16
f 28/37/14 33/39/17 34/41/16
f 34/40/18 35/2/19 32/38/18
f 34/41/16 33/39/17 36/42/16
f 35/2/19 34/40/18 37/1/19
f 38/5/20 34/41/21 36/42/21
f 34/41/21 38/5/20 37/4/20
f 37/1/19 39/2/1 35/2/19
f 40/5/3 37/4/20 38/5/20
f 39/2/1 37/1/19 41/1/1
f 37/4/20 40/5/3 41/4/3
f 40/7/16 39/2/16 41/1/16
f 39/2/16 40/7/16 42/3/16
usemtl material_1_0
f 3//22 2//22 1//22
f 4//22 1//22 2//22
f 3//16 1//16 5//16
f 4//23 6//23 1//23
f 4//16 2//16 7//16
f 8//16 5//16 1//16
f 8//23 1//23 6//23
f 6//16 4//16 9//16
f 7//16 2//16 10//16
f 4//16 7//16 9//16
f 11//16 10//16 2//16
f 7//16 10//16 9//16
f 11//24 12//25 10//24
f 13//16 9//16 10//16
f 14//25 10//24 12//25
f 9//26 13//26 15//27
f 13//24 10//24 16//25
f 14//25 16//25 10//24
f 12//25 17//28 14//25
f 16//27 15//27 13//26
f 14//25 18//28 16//25
f 18//28 14//25 17//28
f 15//27 16//27 19//29
f 20//28 16//25 18//28
f 18//28 17//28 21//30
f 20//29 19//29 16//27
f 18//28 21//30 20//28
f 22//30 21//30 17//28
f 20//29 23//31 19//29
f 23//30 20//28 21//30
f 21//30 22//30 24//32
f 25//31 19//29 23//31
f 21//30 24//32 23//30
f 26//32 24//32 22//30
f 23//31 27//33 25//31
f 27//32 23//30 24//32
f 24//32 26//32 28//34
f 29//33 25//31 27//33
f 27//32 24//32 30//35
f 31//34 28//34 26//32
f 28//34 30//35 24//32
f 27//33 30//35 29//33
f 31//34 32//2 28//34
f 30//35 28//34 33//36
f 33//36 29//33 30//35
f 34//2 28//34 32//2
f 34//2 33//36 28//34
f 32//37 35//38 34//37
f 36//2 33//36 34//2
f 37//38 34//37 35//38
f 36//39 34//39 38//40
f 37//40 38//40 34//39
f 35//38 39//22 37//38
f 38//40 37//40 40//23
f 41//22 37//38 39//22
f 41//23 40//23 37//40
f 41//2 39//2 40//2
f 42//2 40//2 39//2
