# SSTK version 0.8.0
# 57
mtllib original-57.mtl
o DF_21_TL1/DF_21_TL/mesh38/mesh38-geometry#mesh38-geometry
v -0.406131 0.332598 0.529598
v -0.493631 0.315134 0.529598
v -0.406131 0.315134 0.529598
v -0.493631 0.380113 0.529598
v -0.400980 0.315134 0.514448
v -0.406131 0.380113 0.529598
v -0.497017 0.315134 0.528926
v -0.400980 0.327447 0.514448
v -0.357218 0.332598 0.529598
v -0.402745 0.383499 0.528926
v -0.497017 0.383499 0.528926
v -0.400980 0.315134 0.513337
v -0.357218 0.380113 0.529598
v -0.357218 0.383499 0.528926
v -0.499317 0.315134 0.528042
v -0.400980 0.327447 0.513337
v -0.357218 0.327447 0.514448
v -0.400445 0.385799 0.528042
v -0.357218 0.385799 0.528042
v -0.499317 0.385799 0.528042
v -0.357218 0.327447 0.513337
v -0.500898 0.315134 0.526523
v -0.357218 0.315134 0.513337
v -0.398864 0.387380 0.526523
v -0.357218 0.387380 0.526523
v -0.500898 0.387380 0.526523
v -0.501643 0.388125 0.524144
v -0.398119 0.388125 0.524144
v -0.501643 0.315134 0.524144
v -0.357218 0.388125 0.524144
v -0.501215 0.315134 0.497985
v -0.501215 0.387697 0.497985
v -0.357218 0.387697 0.497985
v -0.398547 0.387697 0.497985
v -0.400980 0.315134 0.497985
v -0.400980 0.385264 0.497985
v -0.400980 0.327447 0.497985
v -0.357218 0.327447 0.497985
v -0.400980 0.327447 0.505886
v -0.400980 0.315134 0.505886
v -0.357218 0.315134 0.505886
v -0.357218 0.327447 0.505886
vt 0.047208 0.230368
vt 0.00396 0.221736
vt 0.047208 0.221736
vt 0.00396 0.253852
vt 0.049754 0.091527
vt 0.047208 0.100159
vt 0.047208 0.091527
vt 0.047208 0.253852
vt 0.002287 0.221736
vt 0.049754 0.097613
vt 0.12773 0.369662
vt 0.151215 0.393838
vt 0.12773 0.393838
vt 0.048882 0.255526
vt 0.002287 0.255526
vt 0.125184 0.391292
vt 0.151215 0.369662
vt 0.152889 0.369662
vt 0.152889 0.392165
vt 0.00115 0.221736
vt 0.125184 0.369662
vt 0.050018 0.256663
vt 0.154026 0.369662
vt 0.00115 0.256663
vt 0.119098 0.391292
vt 0.154026 0.391028
vt 0.000368 0.221736
vt 0.119098 0.369662
vt 0.0508 0.257444
vt 0.154807 0.369662
vt 0.000368 0.257444
vt 0.154807 0.390247
vt 0 0.257812
vt 0.051168 0.257812
vt 0.155175 0.389878
vt 0 0.221736
vt 0.155175 0.369662
vt 0.000212 0.221736
vt 0.000212 0.257601
vt 0.154964 0.369662
vt 0.050957 0.257601
vt 0.154964 0.39009
vt 0.049754 0.221736
vt 0.049754 0.256398
vt 0.153761 0.391292
vt 0.049754 0.227822
vn 0 0 1
vn -0.09787398191890909 0 0.9951988161484805
vn -0.06549401933799623 0.065494019337996 0.9957012939942924
vn 0.9866034141870529 0 0.16313706848675025
vn 0.9467726899613448 0 0.3219028945867983
vn 0 0.09787398191890886 0.9951988161484805
vn -0.2776680254686843 0 0.960677088116669
vn 0 0.2776680254686841 0.960677088116669
vn 1 0 0
vn 0 -0.9866034141870529 0.16313706848675003
vn 0 -0.9467726899613448 0.3219028945867981
vn -0.5362842718894912 0 0.844037427916534
vn 0 0.536284271889491 0.844037427916534
vn 0 -1 0
vn -0.8501918909233631 0 0.5264729324553697
vn 0 0.8501918909233629 0.52647293245537
vn -0.9897122770561347 0 0.1430720400510202
vn 0 0.9897122770561347 0.14307204005102042
vn -0.9998661989134013 0 -0.01635800325426149
vn 0 0.9998661989134013 -0.016358003254261268
vn 0 0 -1
vn 0.09787398191890909 0 -0.9951988161484805
vn 0.06549401933799623 -0.065494019337996 -0.9957012939942924
vn -0.9467726899613448 0 -0.3219028945867983
vn -0.9866034141870529 0 -0.16313706848675025
vn 0 -0.09787398191890886 -0.9951988161484805
vn 0.2776680254686843 0 -0.960677088116669
vn 0 -0.2776680254686841 -0.960677088116669
vn -1 0 0
vn 0 0.9467726899613448 -0.3219028945867981
vn 0 0.9866034141870529 -0.16313706848675003
vn 0.5362842718894912 0 -0.844037427916534
vn 0 -0.536284271889491 -0.844037427916534
vn 0 1 0
vn 0.8501918909233631 0 -0.5264729324553697
vn 0 -0.8501918909233629 -0.52647293245537
vn 0.9897122770561347 0 -0.1430720400510202
vn 0 -0.9897122770561347 -0.14307204005102042
vn 0.9998661989134013 0 0.01635800325426149
vn 0 -0.9998661989134013 0.016358003254261268
usemtl material_0_0
f 1/1/1 2/2/2 3/3/1
f 2/2/2 1/1/1 4/4/3
f 5/5/4 1/6/5 3/7/5
f 4/4/3 1/1/1 6/8/6
f 4/4/3 7/9/7 2/2/2
f 1/6/5 5/5/4 8/10/4
f 9/11/1 6/12/6 1/13/1
f 10/14/8 4/4/3 6/8/6
f 7/9/7 4/4/3 11/15/7
f 12/5/9 8/10/4 5/5/4
f 8/16/10 9/11/11 1/13/11
f 6/12/6 9/11/1 13/17/6
f 4/4/3 10/14/8 11/15/8
f 6/12/6 14/18/8 10/19/8
f 11/15/7 15/20/12 7/9/7
f 8/10/4 12/5/9 16/10/9
f 9/11/11 8/16/10 17/21/10
f 14/18/8 6/12/6 13/17/6
f 18/22/13 11/15/8 10/14/8
f 19/23/13 10/19/8 14/18/8
f 15/20/12 11/15/7 20/24/12
f 12/25/1 21/21/1 16/16/1
f 21/21/14 8/16/10 16/16/14
f 8/16/10 21/21/14 17/21/10
f 11/15/8 18/22/13 20/24/13
f 10/19/8 19/23/13 18/26/13
f 20/24/12 22/27/15 15/20/12
f 21/21/1 12/25/1 23/28/1
f 24/29/16 20/24/13 18/22/13
f 25/30/16 18/26/13 19/23/13
f 22/27/15 20/24/12 26/31/15
f 20/24/13 24/29/16 26/31/16
f 18/26/13 25/30/16 24/32/16
f 27/33/17 22/27/15 26/31/15
f 28/34/18 26/31/16 24/29/16
f 25/30/16 28/35/18 24/32/16
f 22/27/15 27/33/17 29/36/17
f 26/31/16 28/34/18 27/33/18
f 28/35/18 25/30/16 30/37/18
f 27/33/17 31/38/19 29/36/17
f 28/34/18 32/39/20 27/33/18
f 33/40/20 28/35/18 30/37/18
f 31/38/19 27/33/17 32/39/19
f 32/39/20 28/34/18 34/41/20
f 28/35/18 33/40/20 34/42/20
f 32/39/21 35/43/21 31/38/21
f 36/44/21 32/39/21 34/41/21
f 33/40/21 36/45/21 34/42/21
f 35/43/21 32/39/21 37/46/21
f 37/46/21 32/39/21 36/44/21
f 38/21/21 36/45/21 33/40/21
f 39/10/9 35/5/9 37/10/9
f 36/45/21 38/21/21 37/16/21
f 35/5/9 39/10/9 40/5/9
f 38/21/14 39/16/14 37/16/14
f 39/16/21 41/28/21 40/25/21
f 39/16/14 38/21/14 42/21/14
f 41/28/21 39/16/21 42/21/21
usemtl material_1_0
f 3//21 2//22 1//21
f 4//23 1//21 2//22
f 3//24 1//24 5//25
f 6//26 1//21 4//23
f 2//22 7//27 4//23
f 8//25 5//25 1//24
f 1//21 6//26 9//21
f 6//26 4//23 10//28
f 11//27 4//23 7//27
f 5//25 8//25 12//29
f 1//30 9//30 8//31
f 13//26 9//21 6//26
f 11//28 10//28 4//23
f 10//28 14//28 6//26
f 7//27 15//32 11//27
f 16//29 12//29 8//25
f 17//31 8//31 9//30
f 13//26 6//26 14//28
f 10//28 11//28 18//33
f 14//28 10//28 19//33
f 20//32 11//27 15//32
f 16//21 21//21 12//21
f 16//34 8//31 21//34
f 17//31 21//34 8//31
f 20//33 18//33 11//28
f 18//33 19//33 10//28
f 15//32 22//35 20//32
f 23//21 12//21 21//21
f 18//33 20//33 24//36
f 19//33 18//33 25//36
f 26//35 20//32 22//35
f 26//36 24//36 20//33
f 24//36 25//36 18//33
f 26//35 22//35 27//37
f 24//36 26//36 28//38
f 24//36 28//38 25//36
f 29//37 27//37 22//35
f 27//38 28//38 26//36
f 30//38 25//36 28//38
f 29//37 31//39 27//37
f 27//38 32//40 28//38
f 30//38 28//38 33//40
f 32//39 27//37 31//39
f 34//40 28//38 32//40
f 34//40 33//40 28//38
f 31//1 35//1 32//1
f 34//1 32//1 36//1
f 34//1 36//1 33//1
f 37//1 32//1 35//1
f 36//1 32//1 37//1
f 33//1 36//1 38//1
f 37//29 35//29 39//29
f 37//1 38//1 36//1
f 40//29 39//29 35//29
f 37//34 39//34 38//34
f 40//1 41//1 39//1
f 42//34 38//34 39//34
f 42//1 39//1 41//1
