# SSTK version 0.8.0
# 60
mtllib original-60.mtl
o DF_21_BL1/DF_21_BL/mesh41/mesh41-geometry#mesh41-geometry
v -0.357218 -0.057397 0.528042
v -0.398864 -0.058978 0.526523
v -0.357218 -0.058978 0.526523
v -0.400445 -0.057397 0.528042
v -0.398119 -0.059723 0.524144
v -0.357218 -0.055097 0.528926
v -0.500898 -0.058978 0.526523
v -0.357218 -0.059723 0.524144
v -0.402745 -0.055097 0.528926
v -0.499317 -0.057397 0.528042
v -0.357218 -0.059295 0.497985
v -0.501643 -0.059723 0.524144
v -0.357218 -0.051711 0.529598
v -0.497017 -0.055097 0.528926
v -0.500898 0.013269 0.526523
v -0.398547 -0.059295 0.497985
v -0.501643 0.013269 0.524144
v -0.501215 -0.059295 0.497985
v -0.406131 -0.051711 0.529598
v -0.493631 -0.051711 0.529598
v -0.499317 0.013269 0.528042
v -0.400980 -0.056862 0.497985
v -0.501215 0.013269 0.497985
v -0.357218 -0.004196 0.529598
v -0.497017 0.013269 0.528926
v -0.357218 0.000955 0.497985
v -0.406131 -0.004196 0.529598
v -0.493631 0.013269 0.529598
v -0.400980 0.000955 0.497985
v -0.400980 0.000955 0.514448
v -0.357218 0.000955 0.505886
v -0.400980 0.013269 0.497985
v -0.357218 0.000955 0.514448
v -0.406131 0.013269 0.529598
v -0.400980 0.000955 0.505886
v -0.400980 0.000955 0.513337
v -0.400980 0.013269 0.514448
v -0.357218 0.013269 0.505886
v -0.400980 0.013269 0.505886
v -0.357218 0.000955 0.513337
v -0.400980 0.013269 0.513337
v -0.357218 0.013269 0.513337
vt -0.101488 0.369662
vt -0.102269 0.390247
vt -0.102269 0.369662
vt -0.101488 0.391028
vt -0.102637 0.389878
vt -0.100351 0.369662
vt 0.050018 0.00115
vt 0.000368 0.000368
vt 0.0508 0.000368
vt -0.102637 0.369662
vt 0.051168 0
vt -0.100351 0.392165
vt 0.00115 0.00115
vt -0.102426 0.369662
vt 0 0
vt -0.098677 0.369662
vt 0.002287 0.002287
vt 0.048882 0.002287
vt 0.000368 0.036077
vt -0.102426 0.39009
vt 0 0.036077
vt 0.000212 0.000212
vt -0.098677 0.393838
vt 0.00396 0.00396
vt 0.00115 0.036077
vt 0.050957 0.000212
vt -0.101223 0.391292
vt 0.000212 0.036077
vt -0.075192 0.369662
vt 0.047208 0.00396
vt 0.002287 0.036077
vt -0.072646 0.369662
vt 0.049754 0.001414
vt -0.075192 0.393838
vt 0.047208 0.027445
vt 0.00396 0.036077
vt -0.072646 0.391292
vt 0.049754 0.029991
vt 0.049754 0.036077
vt 0.047208 0.036077
vt -0.06656 0.369662
vt -0.06656 0.391292
vn 0 -0.5362842718894915 0.8440374279165338
vn 0 -0.8501918909233632 0.5264729324553695
vn 0 -0.9897122770561348 0.14307204005101998
vn 0 -0.2776680254686845 0.9606770881166689
vn 0 -0.9998661989134013 -0.016358003254261712
vn 0 -0.09787398191890931 0.9951988161484805
vn -0.5362842718894912 0 0.844037427916534
vn -0.8501918909233631 0 0.5264729324553697
vn -0.9897122770561347 0 0.1430720400510202
vn -0.06549401933799623 -0.06549401933799645 0.9957012939942924
vn -0.2776680254686843 0 0.960677088116669
vn 0 0 -1
vn -0.9998661989134013 0 -0.01635800325426149
vn 0 0 1
vn -0.09787398191890909 0 0.9951988161484805
vn 0 0.9467726899613448 0.32190289458679855
vn 0 0.9866034141870529 0.16313706848675047
vn 0 1 0
vn 0.9866034141870529 0 0.16313706848675025
vn 0.9467726899613448 0 0.3219028945867983
vn 1 0 0
vn 0 0.8501918909233632 -0.5264729324553695
vn 0 0.5362842718894915 -0.8440374279165338
vn 0 0.9897122770561348 -0.14307204005101998
vn 0 0.2776680254686845 -0.9606770881166689
vn 0 0.9998661989134013 0.016358003254261712
vn 0 0.09787398191890931 -0.9951988161484805
vn 0.8501918909233631 0 -0.5264729324553697
vn 0.5362842718894912 0 -0.844037427916534
vn 0.9897122770561347 0 -0.1430720400510202
vn 0.06549401933799623 0.06549401933799645 -0.9957012939942924
vn 0.2776680254686843 0 -0.960677088116669
vn 0.9998661989134013 0 0.01635800325426149
vn 0.09787398191890909 0 -0.9951988161484805
vn 0 -0.9467726899613448 -0.32190289458679855
vn 0 -0.9866034141870529 -0.16313706848675047
vn 0 -1 0
vn -0.9467726899613448 0 -0.3219028945867983
vn -0.9866034141870529 0 -0.16313706848675025
vn -1 0 0
usemtl material_0_0
f 1/1/1 2/2/2 3/3/2
f 2/2/2 1/1/1 4/4/1
f 5/5/3 3/3/2 2/2/2
f 6/6/4 4/4/1 1/1/1
f 4/7/1 7/8/2 2/9/2
f 3/3/2 5/5/3 8/10/3
f 7/8/2 5/11/3 2/9/2
f 4/4/1 6/6/4 9/12/4
f 7/8/2 4/7/1 10/13/1
f 5/5/3 11/14/5 8/10/3
f 5/11/3 7/8/2 12/15/3
f 13/16/6 9/12/4 6/6/4
f 14/17/4 4/7/1 9/18/4
f 4/7/1 14/17/4 10/13/1
f 10/13/7 15/19/8 7/8/8
f 11/14/5 5/5/3 16/20/5
f 7/8/8 17/21/9 12/15/9
f 18/22/5 5/11/3 12/15/3
f 9/12/4 13/16/6 19/23/6
f 9/18/4 20/24/10 14/17/4
f 14/17/11 21/25/7 10/13/7
f 15/19/8 10/13/7 21/25/7
f 17/21/9 7/8/8 15/19/8
f 5/11/3 18/22/5 16/26/5
f 22/27/12 11/14/12 16/20/12
f 23/28/13 12/15/9 17/21/9
f 12/15/9 23/28/13 18/22/13
f 24/29/14 19/23/6 13/16/6
f 20/24/10 9/18/4 19/30/6
f 20/24/10 25/31/11 14/17/11
f 21/25/7 14/17/11 25/31/11
f 23/28/12 16/26/12 18/22/12
f 11/14/12 22/27/12 26/32/12
f 16/26/12 23/28/12 22/33/12
f 19/23/6 24/29/14 27/34/14
f 27/35/14 20/24/10 19/30/6
f 25/31/11 20/24/10 28/36/15
f 26/32/12 22/27/12 29/37/12
f 22/33/12 23/28/12 29/38/12
f 24/29/16 30/37/17 27/34/16
f 20/24/10 27/35/14 28/36/15
f 29/37/18 31/32/18 26/32/18
f 29/38/12 23/28/12 32/39/12
f 30/37/17 24/29/16 33/32/17
f 30/38/19 34/40/20 27/35/20
f 28/36/15 27/35/14 34/40/14
f 31/32/18 29/37/18 35/37/18
f 32/39/21 35/38/21 29/38/21
f 33/32/17 36/37/18 30/37/17
f 34/40/20 30/38/19 37/39/19
f 35/37/12 38/41/12 31/32/12
f 35/38/21 32/39/21 39/39/21
f 36/37/18 33/32/17 40/32/18
f 41/39/21 30/38/19 36/38/21
f 30/38/19 41/39/21 37/39/19
f 38/41/12 35/37/12 39/42/12
f 42/41/14 36/37/14 40/32/14
f 36/37/14 42/41/14 41/42/14
usemtl material_1_0
f 3//22 2//22 1//23
f 4//23 1//23 2//22
f 2//22 3//22 5//24
f 1//23 4//23 6//25
f 2//22 7//22 4//23
f 8//24 5//24 3//22
f 2//22 5//24 7//22
f 9//25 6//25 4//23
f 10//23 4//23 7//22
f 8//24 11//26 5//24
f 12//24 7//22 5//24
f 6//25 9//25 13//27
f 9//25 4//23 14//25
f 10//23 14//25 4//23
f 7//28 15//28 10//29
f 16//26 5//24 11//26
f 12//30 17//30 7//28
f 12//24 5//24 18//26
f 19//27 13//27 9//25
f 14//25 20//31 9//25
f 10//29 21//29 14//32
f 21//29 10//29 15//28
f 15//28 7//28 17//30
f 16//26 18//26 5//24
f 16//14 11//14 22//14
f 17//30 12//30 23//33
f 18//33 23//33 12//30
f 13//27 19//27 24//12
f 19//27 9//25 20//31
f 14//32 25//32 20//31
f 25//32 14//32 21//29
f 18//14 16//14 23//14
f 26//14 22//14 11//14
f 22//14 23//14 16//14
f 27//12 24//12 19//27
f 19//27 20//31 27//12
f 28//34 20//31 25//32
f 29//14 22//14 26//14
f 29//14 23//14 22//14
f 27//35 30//36 24//35
f 28//34 27//12 20//31
f 26//37 31//37 29//37
f 32//14 23//14 29//14
f 33//36 24//35 30//36
f 27//38 34//38 30//39
f 34//12 27//12 28//34
f 35//37 29//37 31//37
f 29//40 35//40 32//40
f 30//36 36//37 33//36
f 37//39 30//39 34//38
f 31//14 38//14 35//14
f 39//40 32//40 35//40
f 40//37 33//36 36//37
f 36//40 30//39 41//40
f 37//39 41//40 30//39
f 39//14 35//14 38//14
f 40//12 36//12 42//12
f 41//12 42//12 36//12
