# SSTK version 0.8.0
# 35
mtllib original-35.mtl
o DF_11_TL1/DF_11_TL/mesh23/mesh23-geometry#mesh23-geometry
v -0.406131 0.630285 0.529598
v -0.493631 0.612821 0.529598
v -0.406131 0.612821 0.529598
v -0.493631 0.677800 0.529598
v -0.400980 0.612821 0.514448
v -0.406131 0.677800 0.529598
v -0.497017 0.612821 0.528926
v -0.400980 0.625134 0.514448
v -0.357218 0.630285 0.529598
v -0.402745 0.681186 0.528926
v -0.497017 0.681186 0.528926
v -0.400980 0.612821 0.513337
v -0.357218 0.677800 0.529598
v -0.357218 0.681186 0.528926
v -0.499317 0.612821 0.528042
v -0.400980 0.625134 0.513337
v -0.357218 0.625134 0.514448
v -0.400445 0.683486 0.528042
v -0.357218 0.683486 0.528042
v -0.499317 0.683486 0.528042
v -0.357218 0.625134 0.513337
v -0.500898 0.612821 0.526523
v -0.357218 0.612821 0.513337
v -0.398864 0.685067 0.526523
v -0.357218 0.685067 0.526523
v -0.500898 0.685067 0.526523
v -0.501643 0.685812 0.524144
v -0.398119 0.685812 0.524144
v -0.501643 0.612821 0.524144
v -0.357218 0.685812 0.524144
v -0.501215 0.612821 0.497985
v -0.501215 0.685384 0.497985
v -0.357218 0.685384 0.497985
v -0.398547 0.685384 0.497985
v -0.400980 0.612821 0.497985
v -0.400980 0.682951 0.497985
v -0.400980 0.625134 0.497985
v -0.357218 0.625134 0.497985
v -0.400980 0.625134 0.505886
v -0.400980 0.612821 0.505886
v -0.357218 0.612821 0.505886
v -0.357218 0.625134 0.505886
vt 0.047208 0.100159
vt 0.00396 0.091527
vt 0.047208 0.091527
vt 0.00396 0.123644
vt 0.049754 0.091527
vt 0.047208 0.123644
vt 0.002287 0.091527
vt 0.049754 0.097613
vt 0.12773 0.369662
vt 0.151215 0.393838
vt 0.12773 0.393838
vt 0.048882 0.125318
vt 0.002287 0.125318
vt 0.125184 0.391292
vt 0.151215 0.369662
vt 0.152889 0.369662
vt 0.152889 0.392165
vt 0.00115 0.091527
vt 0.125184 0.369662
vt 0.050018 0.126455
vt 0.154026 0.369662
vt 0.00115 0.126455
vt 0.119098 0.391292
vt 0.154026 0.391028
vt 0.000368 0.091527
vt 0.119098 0.369662
vt 0.0508 0.127236
vt 0.154807 0.369662
vt 0.000368 0.127236
vt 0.154807 0.390247
vt 0 0.127604
vt 0.051168 0.127604
vt 0.155175 0.389878
vt 0 0.091527
vt 0.155175 0.369662
vt 0.000212 0.091527
vt 0.000212 0.127393
vt 0.154964 0.369662
vt 0.050957 0.127393
vt 0.154964 0.39009
vt 0.049754 0.12619
vt 0.153761 0.391292
vn 0 0 1
vn -0.09787398191890909 0 0.9951988161484805
vn -0.06549401933799623 0.065494019337996 0.9957012939942924
vn 0.9866034141870529 0 0.16313706848675025
vn 0.9467726899613448 0 0.3219028945867983
vn 0 0.09787398191890886 0.9951988161484805
vn -0.2776680254686843 0 0.960677088116669
vn 0 0.2776680254686841 0.960677088116669
vn 1 0 0
vn 0 -0.9866034141870529 0.16313706848675003
vn 0 -0.9467726899613448 0.3219028945867981
vn -0.5362842718894912 0 0.844037427916534
vn 0 0.536284271889491 0.844037427916534
vn 0 -1 0
vn -0.8501918909233631 0 0.5264729324553697
vn 0 0.8501918909233629 0.52647293245537
vn -0.9897122770561347 0 0.1430720400510202
vn 0 0.9897122770561347 0.14307204005102042
vn -0.9998661989134013 0 -0.01635800325426149
vn 0 0.9998661989134013 -0.016358003254261268
vn 0 0 -1
vn 0.09787398191890909 0 -0.9951988161484805
vn 0.06549401933799623 -0.065494019337996 -0.9957012939942924
vn -0.9467726899613448 0 -0.3219028945867983
vn -0.9866034141870529 0 -0.16313706848675025
vn 0 -0.09787398191890886 -0.9951988161484805
vn 0.2776680254686843 0 -0.960677088116669
vn 0 -0.2776680254686841 -0.960677088116669
vn -1 0 0
vn 0 0.9467726899613448 -0.3219028945867981
vn 0 0.9866034141870529 -0.16313706848675003
vn 0.5362842718894912 0 -0.844037427916534
vn 0 -0.536284271889491 -0.844037427916534
vn 0 1 0
vn 0.8501918909233631 0 -0.5264729324553697
vn 0 -0.8501918909233629 -0.52647293245537
vn 0.9897122770561347 0 -0.1430720400510202
vn 0 -0.9897122770561347 -0.14307204005102042
vn 0.9998661989134013 0 0.01635800325426149
vn 0 -0.9998661989134013 0.016358003254261268
usemtl material_0_0
f 1/1/1 2/2/2 3/3/1
f 2/2/2 1/1/1 4/4/3
f 5/5/4 1/1/5 3/3/5
f 4/4/3 1/1/1 6/6/6
f 4/4/3 7/7/7 2/2/2
f 1/1/5 5/5/4 8/8/4
f 9/9/1 6/10/6 1/11/1
f 10/12/8 4/4/3 6/6/6
f 7/7/7 4/4/3 11/13/7
f 12/5/9 8/8/4 5/5/4
f 8/14/10 9/9/11 1/11/11
f 6/10/6 9/9/1 13/15/6
f 4/4/3 10/12/8 11/13/8
f 6/10/6 14/16/8 10/17/8
f 11/13/7 15/18/12 7/7/7
f 8/8/4 12/5/9 16/8/9
f 9/9/11 8/14/10 17/19/10
f 14/16/8 6/10/6 13/15/6
f 18/20/13 11/13/8 10/12/8
f 19/21/13 10/17/8 14/16/8
f 15/18/12 11/13/7 20/22/12
f 12/23/1 21/19/1 16/14/1
f 21/19/14 8/14/10 16/14/14
f 8/14/10 21/19/14 17/19/10
f 11/13/8 18/20/13 20/22/13
f 10/17/8 19/21/13 18/24/13
f 20/22/12 22/25/15 15/18/12
f 21/19/1 12/23/1 23/26/1
f 24/27/16 20/22/13 18/20/13
f 25/28/16 18/24/13 19/21/13
f 22/25/15 20/22/12 26/29/15
f 20/22/13 24/27/16 26/29/16
f 18/24/13 25/28/16 24/30/16
f 27/31/17 22/25/15 26/29/15
f 28/32/18 26/29/16 24/27/16
f 25/28/16 28/33/18 24/30/16
f 22/25/15 27/31/17 29/34/17
f 26/29/16 28/32/18 27/31/18
f 28/33/18 25/28/16 30/35/18
f 27/31/17 31/36/19 29/34/17
f 28/32/18 32/37/20 27/31/18
f 33/38/20 28/33/18 30/35/18
f 31/36/19 27/31/17 32/37/19
f 32/37/20 28/32/18 34/39/20
f 28/33/18 33/38/20 34/40/20
f 32/37/21 35/5/21 31/36/21
f 36/41/21 32/37/21 34/39/21
f 33/38/21 36/42/21 34/40/21
f 35/5/21 32/37/21 37/8/21
f 37/8/21 32/37/21 36/41/21
f 38/19/21 36/42/21 33/38/21
f 39/8/9 35/5/9 37/8/9
f 36/42/21 38/19/21 37/14/21
f 35/5/9 39/8/9 40/5/9
f 38/19/14 39/14/14 37/14/14
f 39/14/21 41/26/21 40/23/21
f 39/14/14 38/19/14 42/19/14
f 41/26/21 39/14/21 42/19/21
usemtl material_1_0
f 3//21 2//22 1//21
f 4//23 1//21 2//22
f 3//24 1//24 5//25
f 6//26 1//21 4//23
f 2//22 7//27 4//23
f 8//25 5//25 1//24
f 1//21 6//26 9//21
f 6//26 4//23 10//28
f 11//27 4//23 7//27
f 5//25 8//25 12//29
f 1//30 9//30 8//31
f 13//26 9//21 6//26
f 11//28 10//28 4//23
f 10//28 14//28 6//26
f 7//27 15//32 11//27
f 16//29 12//29 8//25
f 17//31 8//31 9//30
f 13//26 6//26 14//28
f 10//28 11//28 18//33
f 14//28 10//28 19//33
f 20//32 11//27 15//32
f 16//21 21//21 12//21
f 16//34 8//31 21//34
f 17//31 21//34 8//31
f 20//33 18//33 11//28
f 18//33 19//33 10//28
f 15//32 22//35 20//32
f 23//21 12//21 21//21
f 18//33 20//33 24//36
f 19//33 18//33 25//36
f 26//35 20//32 22//35
f 26//36 24//36 20//33
f 24//36 25//36 18//33
f 26//35 22//35 27//37
f 24//36 26//36 28//38
f 24//36 28//38 25//36
f 29//37 27//37 22//35
f 27//38 28//38 26//36
f 30//38 25//36 28//38
f 29//37 31//39 27//37
f 27//38 32//40 28//38
f 30//38 28//38 33//40
f 32//39 27//37 31//39
f 34//40 28//38 32//40
f 34//40 33//40 28//38
f 31//1 35//1 32//1
f 34//1 32//1 36//1
f 34//1 36//1 33//1
f 37//1 32//1 35//1
f 36//1 32//1 37//1
f 33//1 36//1 38//1
f 37//29 35//29 39//29
f 37//1 38//1 36//1
f 40//29 39//29 35//29
f 37//34 39//34 38//34
f 40//1 41//1 39//1
f 42//34 38//34 39//34
f 42//1 39//1 41//1
