# SSTK version 0.8.0
# 64
mtllib original-64.mtl
o DF_21_CR1/DF_21_CR/mesh45/mesh45-geometry#mesh45-geometry
v 0.470341 0.315134 0.529598
v 0.382842 0.013269 0.529598
v 0.470341 0.013269 0.529598
v 0.382842 0.315134 0.529598
v 0.473727 0.315134 0.528926
v 0.377691 0.315134 0.514448
v 0.473727 0.013269 0.528926
v 0.377691 0.013269 0.514448
v 0.476028 0.315134 0.528042
v 0.377691 0.315134 0.513337
v 0.476028 0.013269 0.528042
v 0.377691 0.013269 0.513337
v 0.477609 0.315134 0.526523
v 0.333928 0.013269 0.513337
v 0.477609 0.013269 0.526523
v 0.333928 0.315134 0.513337
v 0.478354 0.013269 0.524144
v 0.478354 0.315134 0.524144
v 0.477926 0.013269 0.497985
v 0.477926 0.315134 0.497985
v 0.377691 0.315134 0.497985
v 0.377691 0.013269 0.497985
v 0.377691 0.013269 0.505886
v 0.377691 0.315134 0.505886
v 0.333928 0.315134 0.505886
v 0.333928 0.013269 0.505886
vt 0.335884 0.221736
vt 0.292636 0.036077
vt 0.335884 0.036077
vt 0.292636 0.221736
vt 0.337557 0.221736
vt 0.29009 0.221736
vt 0.337557 0.036077
vt 0.29009 0.036077
vt 0.338694 0.221736
vt 0.338694 0.036077
vt 0.339475 0.221736
vt 0.119098 0.150956
vt -0.06656 0.172587
vt -0.06656 0.150956
vt 0.339475 0.036077
vt 0.119098 0.172587
vt 0.339844 0.036077
vt 0.339844 0.221736
vt 0.339632 0.036077
vt 0.339632 0.221736
vn 0.09787398191890906 0 0.9951988161484805
vn 0 0 1
vn 0.2776680254686843 0 0.9606770881166689
vn -0.9866034141870529 0 0.16313706848675025
vn -0.9467726899613448 0 0.32190289458679827
vn 0.5362842718894911 0 0.844037427916534
vn -1 0 0
vn 0.850191890923363 0 0.5264729324553696
vn 0.9897122770561348 0 0.1430720400510202
vn 0.9998661989134014 0 -0.01635800325426149
vn 0 0 -1
vn -0.09787398191890906 0 -0.9951988161484805
vn -0.2776680254686843 0 -0.9606770881166689
vn 0.9467726899613448 0 -0.32190289458679827
vn 0.9866034141870529 0 -0.16313706848675025
vn -0.5362842718894911 0 -0.844037427916534
vn 1 0 0
vn -0.850191890923363 0 -0.5264729324553696
vn -0.9897122770561348 0 -0.1430720400510202
vn -0.9998661989134014 0 0.01635800325426149
usemtl material_0_0
f 1/1/1 2/2/2 3/3/1
f 2/2/2 1/1/1 4/4/2
f 3/3/1 5/5/3 1/1/1
f 6/6/4 2/2/5 4/4/5
f 5/5/3 3/3/1 7/7/3
f 2/2/5 6/6/4 8/8/4
f 7/7/3 9/9/6 5/5/3
f 10/6/7 8/8/4 6/6/4
f 9/9/6 7/7/3 11/10/6
f 8/8/4 10/6/7 12/8/7
f 11/10/6 13/11/8 9/9/6
f 10/12/2 14/13/2 12/14/2
f 13/11/8 11/10/6 15/15/8
f 14/13/2 10/12/2 16/16/2
f 17/17/9 13/11/8 15/15/8
f 13/11/8 17/17/9 18/18/9
f 19/19/10 18/18/9 17/17/9
f 18/18/9 19/19/10 20/20/10
f 19/19/11 21/6/11 20/20/11
f 21/6/11 19/19/11 22/8/11
f 23/8/7 21/6/7 22/8/7
f 21/6/7 23/8/7 24/6/7
f 23/14/11 25/16/11 24/12/11
f 25/16/11 23/14/11 26/13/11
usemtl material_1_0
f 3//12 2//11 1//12
f 4//11 1//12 2//11
f 1//12 5//13 3//12
f 4//14 2//14 6//15
f 7//13 3//12 5//13
f 8//15 6//15 2//14
f 5//13 9//16 7//13
f 6//15 8//15 10//17
f 11//16 7//13 9//16
f 12//17 10//17 8//15
f 9//16 13//18 11//16
f 12//11 14//11 10//11
f 15//18 11//16 13//18
f 16//11 10//11 14//11
f 15//18 13//18 17//19
f 18//19 17//19 13//18
f 17//19 18//19 19//20
f 20//20 19//20 18//19
f 20//2 21//2 19//2
f 22//2 19//2 21//2
f 22//17 21//17 23//17
f 24//17 23//17 21//17
f 24//2 25//2 23//2
f 26//2 23//2 25//2
