# SSTK version 0.8.0
# 40
mtllib original-40.mtl
o RT_11_B1/RT_11_B/mesh27/mesh27-geometry#mesh27-geometry
v 0.328205 -0.407831 0.536819
v -0.286194 -0.561431 0.536819
v -0.286194 -0.407831 0.536819
v 0.328205 -0.561431 0.536819
v -0.286194 -0.407831 0.576888
v 0.328205 -0.561431 0.576888
v 0.328205 -0.407831 0.576888
v -0.286194 -0.561431 0.576888
vt 0.758824 1.444753
vt 0.81872 1.224701
vt 0.758824 1.224701
vt 0.81872 1.444753
vn 0 0 -1
vn 0 1 0
vn 0 -1 0
vn 0 0 1
usemtl material_0_0
f 1/1/1 2/2/1 3/3/1
f 2/2/1 1/1/1 4/4/1
f 5/3/2 1/1/2 3/3/2
f 6/4/3 2/2/3 4/4/3
f 1/1/2 5/3/2 7/1/2
f 2/2/3 6/4/3 8/2/3
f 5/3/4 6/4/4 7/1/4
f 6/4/4 5/3/4 8/2/4
usemtl material_1_0
f 3//4 2//4 1//4
f 4//4 1//4 2//4
f 3//3 1//3 5//3
f 4//2 2//2 6//2
f 7//3 5//3 1//3
f 8//2 6//2 2//2
f 7//1 6//1 5//1
f 8//1 5//1 6//1
