# SSTK version 0.8.0
# 41
mtllib original-41.mtl
o _3043_7_1/_3043_7/mesh28/mesh28-geometry#mesh28-geometry
v 0.053691 0.643388 0.584771
v -0.036117 0.646250 0.587625
v -0.036117 0.643388 0.584771
v 0.053691 0.646250 0.587625
v -0.036117 0.659521 0.583577
v 0.053691 0.643171 0.579059
v 0.053691 0.659521 0.583577
v -0.036117 0.651977 0.587842
v -0.036117 0.643171 0.579059
v 0.053691 0.651977 0.587842
v -0.036117 0.663692 0.576033
v 0.053691 0.647447 0.571535
v 0.053691 0.663692 0.576033
v -0.036117 0.647447 0.571535
v -0.036117 0.663043 0.570474
v -0.036117 0.655011 0.567375
v 0.053691 0.663043 0.570474
v 0.053691 0.655011 0.567375
v -0.036117 0.660585 0.568022
v 0.053691 0.660585 0.568022
v -0.036117 0.679169 0.554392
v 0.053691 0.679169 0.554392
v -0.036117 0.676221 0.552428
v 0.053691 0.676221 0.552428
v -0.036117 0.681246 0.549390
v 0.053691 0.681246 0.549390
v -0.036117 0.677770 0.548699
v 0.053691 0.677770 0.548699
v -0.036117 0.681271 0.514362
v 0.053691 0.681271 0.514362
v -0.036117 0.677792 0.517830
v 0.053691 0.677792 0.517830
v 0.053691 0.644924 0.514362
v -0.036117 0.644924 0.517830
v -0.036117 0.644924 0.514362
v 0.053691 0.644924 0.517830
vt -0.250267 0.515212
vt -0.272896 -0.000413
vt -0.250267 -0.000413
vt -0.272896 0.515212
vt -0.214478 0.711128
vt -0.191732 0.636948
vt -0.198488 0.72714
vt -0.218227 0.515212
vt -0.191732 -0.121323
vt -0.214478 -0.195503
vt -0.198488 -0.211515
vt -0.304935 -0.000413
vt -0.21567 0.679111
vt -0.166473 0.728378
vt -0.218227 -0.000413
vt -0.166473 -0.212753
vt -0.21567 -0.163486
vt -0.304935 0.515212
vt -0.35342 -0.000413
vt -0.149426 0.61366
vt -0.169743 0.515212
vt -0.149426 -0.098035
vt -0.35342 0.515212
vt -0.401712 -0.000413
vt -0.124276 0.7045
vt -0.169743 -0.000413
vt -0.124276 -0.188875
vt -0.401712 0.515212
vt -0.118269 0.617311
vt -0.12145 -0.000413
vt -0.118269 -0.101686
vt -0.18922 0
vt -0.15785 0.515625
vt -0.18922 0.515625
vt -0.100927 0.662227
vt -0.12145 0.515212
vt -0.100927 -0.146602
vt -0.15785 0
vt -0.104534 0.631065
vt -0.09008 -0.000413
vt -0.104534 -0.11544
vt -0.030352 0.515625
vt -0.02805 0.52722
vt -0.09008 0.515212
vt -0.02805 -0.011595
vt -0.030352 0
vt -0.017051 0.543707
vt 0.033552 -0.000413
vt -0.017051 -0.028082
vt 0 0.515625
vt 0.033552 0.515212
vt 0 0
vt 0.003859 0.535063
vt 0.056178 0.515212
vt 0.003859 -0.019438
vt 0.196355 0.515625
vt 0.056178 -0.000413
vt 0.196355 0
vt 0.176903 0.535063
vt 0.229221 0.515212
vt 0.176903 -0.019438
vt 0.399564 0
vt 0.176772 0.71882
vt 0.229221 -0.000413
vt 0.19621 -0.203209
vt 0.399564 0.515625
vt 0.19621 0.718834
vt 0.412979 0.515212
vt 0.412979 -0.000413
vt 0.176772 -0.203195
vt 0.196341 0.515212
vt 0.176903 -0.000413
vt 0.196341 -0.000413
vt 0.176903 0.515212
vn 0 -0.9160630683453194 0.40103423147377176
vn 0 -0.39923716975401513 0.9168476876159986
vn -1 0 0
vn 0 -0.9714615893651479 -0.23719692322654706
vn 1 0 0
vn 0 0.23600258288608034 0.9717524277670206
vn 0 0.7103067970424702 0.7038922176549951
vn 0 -0.7019907316284884 -0.7121860801136873
vn 0 0.9811458538238923 0.1932687598247207
vn 0 -0.1922762587615509 -0.9813408379949656
vn 0 0.9932509083786158 -0.11598548618277384
vn 0 0.11537518971221271 -0.9933219848563056
vn 0 0.7061608755853119 0.7080514231272936
vn 0 0.8307826917609423 0.5565969089659438
vn 0 -0.8307826917609423 -0.5565969089659438
vn 0 -0.7061608755853119 -0.7080514231272936
vn 0 0.9806152653815035 0.19594310730608397
vn 0 -0.9806152653815035 -0.19594310730608397
vn 0 0.9999997444527607 0.000714908674685261
vn 0 -0.9999997444527607 -0.000714908674685261
vn 0 0 -1
vn 0 0 1
vn 0 -1 0
vn 0 0.9160630683453194 -0.40103423147377176
vn 0 0.39923716975401513 -0.9168476876159986
vn 0 0.9714615893651479 0.23719692322654706
vn 0 -0.23600258288608034 -0.9717524277670206
vn 0 -0.7103067970424702 -0.7038922176549951
vn 0 0.7019907316284884 0.7121860801136873
vn 0 -0.9811458538238923 -0.1932687598247207
vn 0 0.1922762587615509 0.9813408379949656
vn 0 -0.9932509083786158 0.11598548618277384
vn 0 -0.11537518971221271 0.9933219848563056
vn 0 1 0
usemtl material_0_0
f 1/1/1 2/2/2 3/3/1
f 2/2/2 1/1/1 4/4/2
f 2/5/3 5/6/3 3/7/3
f 3/3/1 6/8/4 1/1/1
f 7/9/5 4/10/5 1/11/5
f 4/4/2 8/12/6 2/2/2
f 5/6/3 2/5/3 8/13/3
f 3/7/3 5/6/3 9/14/3
f 6/8/4 3/3/1 9/15/4
f 7/9/5 1/11/5 6/16/5
f 4/10/5 7/9/5 10/17/5
f 8/12/6 4/4/2 10/18/6
f 10/18/6 5/19/7 8/12/6
f 9/14/3 5/6/3 11/20/3
f 9/15/4 12/21/8 6/8/4
f 7/9/5 6/16/5 13/22/5
f 5/19/7 10/18/6 7/23/7
f 7/23/7 11/24/9 5/19/7
f 9/14/3 11/20/3 14/25/3
f 12/21/8 9/15/4 14/26/8
f 13/22/5 6/16/5 12/27/5
f 11/24/9 7/23/7 13/28/9
f 14/25/3 11/20/3 15/29/3
f 16/30/10 12/21/8 14/26/8
f 13/22/5 12/27/5 17/31/5
f 13/32/9 15/33/11 11/34/9
f 14/25/3 15/29/3 16/35/3
f 12/21/8 16/30/10 18/36/10
f 17/31/5 12/27/5 18/37/5
f 15/33/11 13/32/9 17/38/11
f 16/35/3 15/29/3 19/39/3
f 19/40/12 18/36/10 16/30/10
f 17/31/5 18/37/5 20/41/5
f 17/38/13 21/42/14 15/33/13
f 21/43/3 19/39/3 15/29/3
f 18/36/10 19/40/12 20/44/12
f 20/41/5 22/45/5 17/31/5
f 21/42/14 17/38/13 22/46/14
f 19/39/3 21/43/3 23/47/3
f 23/48/15 20/44/16 19/40/16
f 22/45/5 20/41/5 24/49/5
f 22/46/14 25/50/17 21/42/14
f 23/47/3 21/43/3 25/50/3
f 20/44/16 23/48/15 24/51/15
f 22/45/5 24/49/5 26/52/5
f 25/50/17 22/46/14 26/52/17
f 23/47/3 25/50/3 27/53/3
f 23/48/15 28/54/18 24/51/15
f 26/52/5 24/49/5 28/55/5
f 26/52/17 29/56/19 25/50/17
f 27/53/3 25/50/3 29/56/3
f 28/54/18 23/48/15 27/57/18
f 26/52/5 28/55/5 30/58/5
f 29/56/19 26/52/17 30/58/19
f 27/53/3 29/56/3 31/59/3
f 27/57/18 32/60/20 28/54/18
f 30/58/5 28/55/5 32/61/5
f 33/62/21 29/56/21 30/58/21
f 31/59/3 29/56/3 34/63/3
f 32/60/20 27/57/18 31/64/20
f 30/58/5 32/61/5 33/65/5
f 29/56/21 33/62/21 35/66/21
f 34/63/3 29/56/3 35/67/3
f 36/68/22 31/64/22 34/69/22
f 31/64/22 36/68/22 32/60/22
f 33/65/5 32/61/5 36/70/5
f 33/71/23 34/72/23 35/73/23
f 34/72/23 33/71/23 36/74/23
usemtl material_1_0
f 3//24 2//25 1//24
f 4//25 1//24 2//25
f 3//5 5//5 2//5
f 1//24 6//26 3//24
f 1//3 4//3 7//3
f 2//25 8//27 4//25
f 8//5 2//5 5//5
f 9//5 5//5 3//5
f 9//26 3//24 6//26
f 6//3 1//3 7//3
f 10//3 7//3 4//3
f 10//27 4//25 8//27
f 8//27 5//28 10//27
f 11//5 5//5 9//5
f 6//26 12//29 9//26
f 13//3 6//3 7//3
f 7//28 10//27 5//28
f 5//28 11//30 7//28
f 14//5 11//5 9//5
f 14//29 9//26 12//29
f 12//3 6//3 13//3
f 13//30 7//28 11//30
f 15//5 11//5 14//5
f 14//29 12//29 16//31
f 17//3 12//3 13//3
f 11//30 15//32 13//30
f 16//5 15//5 14//5
f 18//31 16//31 12//29
f 18//3 12//3 17//3
f 17//32 13//30 15//32
f 19//5 15//5 16//5
f 16//31 18//31 19//33
f 20//3 18//3 17//3
f 15//16 21//15 17//16
f 15//5 19//5 21//5
f 20//33 19//33 18//31
f 17//3 22//3 20//3
f 22//15 17//16 21//15
f 23//5 21//5 19//5
f 19//13 20//13 23//14
f 24//3 20//3 22//3
f 21//15 25//18 22//15
f 25//5 21//5 23//5
f 24//14 23//14 20//13
f 26//3 24//3 22//3
f 26//18 22//15 25//18
f 27//5 25//5 23//5
f 24//14 28//17 23//14
f 28//3 24//3 26//3
f 25//18 29//20 26//18
f 29//5 25//5 27//5
f 27//17 23//14 28//17
f 30//3 28//3 26//3
f 30//20 26//18 29//20
f 31//5 29//5 27//5
f 28//17 32//19 27//17
f 32//3 28//3 30//3
f 30//22 29//22 33//22
f 34//5 29//5 31//5
f 31//19 27//17 32//19
f 33//3 32//3 30//3
f 35//22 33//22 29//22
f 35//5 29//5 34//5
f 34//21 31//21 36//21
f 32//21 36//21 31//21
f 36//3 32//3 33//3
f 35//34 34//34 33//34
f 36//34 33//34 34//34
