# SSTK version 0.8.0
# 48
mtllib original-48.mtl
o DF_31_CL1/DF_31_CL/mesh27/mesh27-geometry#mesh27-geometry
v -0.260583 0.548202 0.518113
v -0.262471 -0.474147 0.513311
v -0.260583 -0.474147 0.518113
v -0.262471 0.548202 0.513311
v -0.257240 0.548202 0.521897
v -0.262459 -0.474147 0.496075
v -0.257240 -0.474147 0.521897
v -0.262459 0.548202 0.496075
v -0.255132 0.548202 0.523280
v -0.262240 -0.474147 0.495202
v -0.255132 -0.474147 0.523280
v -0.262240 0.548202 0.495202
v -0.252806 0.548202 0.524227
v -0.261876 -0.474147 0.494403
v -0.252806 -0.474147 0.524227
v -0.261876 0.548202 0.494403
v -0.250261 0.548202 0.524738
v -0.260566 -0.474147 0.493167
v -0.250261 -0.474147 0.524738
v -0.260566 0.548202 0.493167
v -0.250263 0.548202 0.528083
v -0.259766 -0.474147 0.492731
v -0.250263 -0.474147 0.528083
v -0.259766 0.548202 0.492731
v -0.250045 0.548202 0.528593
v -0.258820 -0.474147 0.492441
v -0.250045 -0.474147 0.528593
v -0.258820 0.548202 0.492441
v -0.249900 0.548202 0.528811
v -0.153980 -0.474147 0.492441
v -0.249900 -0.474147 0.528811
v -0.153980 0.548202 0.492441
v -0.249536 0.548202 0.529175
v -0.083867 -0.474147 0.492441
v -0.249536 -0.474147 0.529175
v -0.083867 0.548202 0.492441
v -0.249246 0.548202 0.529320
v -0.249246 -0.474147 0.529320
v -0.248664 0.548202 0.529394
v -0.248664 -0.474147 0.529394
v -0.163590 0.548202 0.529394
v -0.163590 -0.474147 0.529394
v -0.163587 -0.474147 0.526325
v -0.163587 0.548202 0.526325
v -0.161478 0.548202 0.525745
v -0.161478 -0.474147 0.525745
v -0.159514 0.548202 0.524728
v -0.159514 -0.474147 0.524728
v -0.156384 0.548202 0.521676
v -0.156384 -0.474147 0.521676
v -0.155013 -0.474147 0.519786
v -0.155013 0.548202 0.519786
v -0.153994 -0.474147 0.517750
v -0.153994 0.548202 0.517750
v -0.153988 -0.474147 0.509834
v -0.153988 0.548202 0.509834
v -0.127706 0.548202 0.510568
v -0.127706 -0.474147 0.510568
v -0.114764 0.548202 0.515959
v -0.114764 -0.474147 0.515959
v -0.097302 0.548202 0.518735
v -0.097302 -0.474147 0.518735
v -0.095266 0.548202 0.519464
v -0.095266 -0.474147 0.519464
v -0.094394 0.548202 0.520046
v -0.094394 -0.474147 0.520046
v -0.093667 0.548202 0.520774
v -0.093667 -0.474147 0.520774
v -0.093013 0.548202 0.521720
v -0.093013 -0.474147 0.521720
v -0.092142 0.548202 0.523684
v -0.092142 -0.474147 0.523684
v -0.092144 0.548202 0.526957
v -0.092144 -0.474147 0.526957
v -0.091345 0.548202 0.528557
v -0.091345 -0.474147 0.528557
v -0.090837 0.548202 0.528921
v -0.090837 -0.474147 0.528921
v -0.089746 0.548202 0.529431
v -0.089746 -0.474147 0.529431
v -0.083867 -0.474147 0.529431
v -0.083867 0.548202 0.529431
vt 0.000798 0.541685
vt 0 0.075523
vt 0.000798 0.075523
vt 0 0.541685
vt 0.002212 0.541685
vt 0.000005 0.075523
vt 0.002212 0.075523
vt 0.000005 0.541685
vt 0.003103 0.541685
vt 0.000098 0.075523
vt 0.003103 0.075523
vt 0.000098 0.541685
vt 0.004087 0.541685
vt 0.000252 0.075523
vt 0.004087 0.075523
vt 0.000252 0.541685
vt 0.005163 0.541685
vt 0.000805 0.075523
vt 0.005163 0.075523
vt 0.000805 0.541685
vt 0.005162 0.541685
vt 0.001144 0.075523
vt 0.005162 0.075523
vt 0.001144 0.541685
vt 0.005254 0.541685
vt 0.001544 0.075523
vt 0.005254 0.075523
vt 0.001544 0.541685
vt 0.005316 0.541685
vt 0.045874 0.075523
vt 0.005316 0.075523
vt 0.045874 0.541685
vt 0.005469 0.541685
vt 0.075521 0.075523
vt 0.005469 0.075523
vt 0.075521 0.541685
vt 0.005592 0.541685
vt 0.005592 0.075523
vt 0.005838 0.541685
vt 0.005838 0.075523
vt 0.041811 0.541685
vt 0.041811 0.075523
vt 0.041812 0.075523
vt 0.041812 0.541685
vt 0.042704 0.541685
vt 0.042704 0.075523
vt 0.043535 0.541685
vt 0.043535 0.075523
vt 0.044858 0.541685
vt 0.044858 0.075523
vt 0.045437 0.075523
vt 0.045437 0.541685
vt 0.045869 0.075523
vt 0.045869 0.541685
vt 0.045871 0.075523
vt 0.045871 0.541685
vt 0.056984 0.541685
vt 0.056984 0.075523
vt 0.062457 0.541685
vt 0.062457 0.075523
vt 0.06984 0.541685
vt 0.06984 0.075523
vt 0.070701 0.541685
vt 0.070701 0.075523
vt 0.07107 0.541685
vt 0.07107 0.075523
vt 0.071377 0.541685
vt 0.071377 0.075523
vt 0.071654 0.541685
vt 0.071654 0.075523
vt 0.072022 0.541685
vt 0.072022 0.075523
vt 0.072021 0.541685
vt 0.072021 0.075523
vt 0.072359 0.541685
vt 0.072359 0.075523
vt 0.072574 0.541685
vt 0.072574 0.075523
vt 0.073035 0.541685
vt 0.073035 0.075523
vn -0.8530121330592406 0 0.5218910814084915
vn -0.9825771759039295 0 0.18585503327232858
vn -0.6548381350260002 0 0.7557691558377265
vn -0.9924225339024156 0 -0.12287194229240718
vn -0.4650018474552389 0 0.8853097095724267
vn -0.9439172567393933 0 -0.33018208980739444
vn -0.2881870414348153 0 0.9575741376776254
vn -0.8133039925432224 0 -0.5818389946654092
vn -0.1967960882874681 0 0.980444439851005
vn -0.5870399656687297 0 -0.8095579526554332
vn -0.9999997591820871 0 -0.0006939998328723683
vn -0.9797170249411464 0 0.20038600510132681
vn -0.3877870045817035 0 -0.9217490108904648
vn -0.8796104527302961 0 0.47569470403569103
vn -0.1483530690609659 0 -0.9889344603664046
vn -0.7737819923287252 0 0.6334519937199569
vn 0 0 -1
vn -0.5852731453160241 0 0.8108362013205184
vn -0.29044793804963975 0 0.9568907959023918
vn -0.06248399786392209 0 0.9980459658808013
vn 0 0 1
vn 0.9999997500755938 0 0.0007069998233034448
vn 0.26525997945176916 0 0.9641769253105196
vn 0.3644729851431702 0 0.9312139620413916
vn 0.5853399717444695 0 0.8107879608616444
vn 0.7566069510668253 0 0.6538699577112888
vn 0.8546441946315632 0 0.5192141182427215
vn 0.9730893575593176 0 0.23042808467023923
vn 0.9999997591820871 0 0.0006939998328723683
vn -0.027921003708733204 0 0.9996101327777227
vn -0.20973696688956175 0 0.9777578456448033
vn -0.27266712317017505 0 0.9621084346070876
vn -0.24806203803039392 0 0.9687441485181767
vn -0.4495009309114875 0 0.8932798627024491
vn -0.6345251658556994 0 0.7729022020254549
vn -0.7681958691605065 0 0.6402148909582889
vn -0.8721627413056673 0 0.48921585489248376
vn -0.9783593314437387 0 0.2069130700969872
vn -0.9734080659250369 0 0.22907801551453819
vn -0.760701221438256 0 0.649102188952052
vn -0.5047842986605142 0 0.8632455107475585
vn -0.4235138305318217 0 0.9058896375101458
vn 0.8530121330592406 0 -0.5218910814084915
vn 0.9825771759039295 0 -0.18585503327232858
vn 0.6548381350260002 0 -0.7557691558377265
vn 0.9924225339024156 0 0.12287194229240718
vn 0.4650018474552389 0 -0.8853097095724267
vn 0.9439172567393933 0 0.33018208980739444
vn 0.2881870414348153 0 -0.9575741376776254
vn 0.8133039925432224 0 0.5818389946654092
vn 0.1967960882874681 0 -0.980444439851005
vn 0.5870399656687297 0 0.8095579526554332
vn 0.9797170249411464 0 -0.20038600510132681
vn 0.3877870045817035 0 0.9217490108904648
vn 0.8796104527302961 0 -0.47569470403569103
vn 0.1483530690609659 0 0.9889344603664046
vn 0.7737819923287252 0 -0.6334519937199569
vn 0.5852731453160241 0 -0.8108362013205184
vn 0.29044793804963975 0 -0.9568907959023918
vn 0.06248399786392209 0 -0.9980459658808013
vn -0.9999997500755938 0 -0.0007069998233034448
vn -0.26525997945176916 0 -0.9641769253105196
vn -0.3644729851431702 0 -0.9312139620413916
vn -0.5853399717444695 0 -0.8107879608616444
vn -0.7566069510668253 0 -0.6538699577112888
vn -0.8546441946315632 0 -0.5192141182427215
vn -0.9730893575593176 0 -0.23042808467023923
vn 0.027921003708733204 0 -0.9996101327777227
vn 0.20973696688956175 0 -0.9777578456448033
vn 0.27266712317017505 0 -0.9621084346070876
vn 0.24806203803039392 0 -0.9687441485181767
vn 0.4495009309114875 0 -0.8932798627024491
vn 0.6345251658556994 0 -0.7729022020254549
vn 0.7681958691605065 0 -0.6402148909582889
vn 0.8721627413056673 0 -0.48921585489248376
vn 0.9783593314437387 0 -0.2069130700969872
vn 0.9734080659250369 0 -0.22907801551453819
vn 0.760701221438256 0 -0.649102188952052
vn 0.5047842986605142 0 -0.8632455107475585
vn 0.4235138305318217 0 -0.9058896375101458
usemtl material_0_0
f 1/1/1 2/2/2 3/3/1
f 2/2/2 1/1/1 4/4/2
f 3/3/1 5/5/3 1/1/1
f 4/4/2 6/6/4 2/2/2
f 5/5/3 3/3/1 7/7/3
f 6/6/4 4/4/2 8/8/4
f 7/7/3 9/9/5 5/5/3
f 8/8/4 10/10/6 6/6/4
f 9/9/5 7/7/3 11/11/5
f 10/10/6 8/8/4 12/12/6
f 11/11/5 13/13/7 9/9/5
f 12/12/6 14/14/8 10/10/6
f 13/13/7 11/11/5 15/15/7
f 14/14/8 12/12/6 16/16/8
f 15/15/7 17/17/9 13/13/7
f 16/16/8 18/18/10 14/14/8
f 17/17/9 15/15/7 19/19/9
f 18/18/10 16/16/8 20/20/10
f 19/19/11 21/21/12 17/17/11
f 20/20/10 22/22/13 18/18/10
f 21/21/12 19/19/11 23/23/12
f 22/22/13 20/20/10 24/24/13
f 23/23/12 25/25/14 21/21/12
f 24/24/13 26/26/15 22/22/13
f 25/25/14 23/23/12 27/27/14
f 26/26/15 24/24/13 28/28/15
f 27/27/14 29/29/16 25/25/14
f 28/28/15 30/30/17 26/26/15
f 29/29/16 27/27/14 31/31/16
f 30/30/17 28/28/15 32/32/17
f 31/31/16 33/33/18 29/29/16
f 32/32/17 34/34/17 30/30/17
f 33/33/18 31/31/16 35/35/18
f 34/34/17 32/32/17 36/36/17
f 35/35/18 37/37/19 33/33/18
f 37/37/19 35/35/18 38/38/19
f 38/38/19 39/39/20 37/37/19
f 39/39/20 38/38/19 40/40/20
f 40/40/20 41/41/21 39/39/20
f 41/41/21 40/40/20 42/42/21
f 43/43/22 41/41/22 42/42/22
f 41/41/22 43/43/22 44/44/22
f 43/43/23 45/45/24 44/44/23
f 45/45/24 43/43/23 46/46/24
f 46/46/24 47/47/25 45/45/24
f 47/47/25 46/46/24 48/48/25
f 48/48/25 49/49/26 47/47/25
f 49/49/26 48/48/25 50/50/26
f 51/51/27 49/49/26 50/50/26
f 49/49/26 51/51/27 52/52/27
f 53/53/28 52/52/27 51/51/27
f 52/52/27 53/53/28 54/54/28
f 55/55/29 54/54/28 53/53/28
f 54/54/28 55/55/29 56/56/29
f 55/55/30 57/57/31 56/56/30
f 57/57/31 55/55/30 58/58/31
f 58/58/31 59/59/32 57/57/31
f 59/59/32 58/58/31 60/60/32
f 60/60/32 61/61/33 59/59/32
f 61/61/33 60/60/32 62/62/33
f 62/62/33 63/63/34 61/61/33
f 63/63/34 62/62/33 64/64/34
f 64/64/34 65/65/35 63/63/34
f 65/65/35 64/64/34 66/66/35
f 66/66/35 67/67/36 65/65/35
f 67/67/36 66/66/35 68/68/36
f 68/68/36 69/69/37 67/67/36
f 69/69/37 68/68/36 70/70/37
f 70/70/37 71/71/38 69/69/37
f 71/71/38 70/70/37 72/72/38
f 72/72/38 73/73/39 71/71/38
f 73/73/39 72/72/38 74/74/39
f 74/74/39 75/75/40 73/73/39
f 75/75/40 74/74/39 76/76/40
f 76/76/40 77/77/41 75/75/40
f 77/77/41 76/76/40 78/78/41
f 78/78/41 79/79/42 77/77/41
f 79/79/42 78/78/41 80/80/42
f 81/34/21 79/79/21 80/80/21
f 79/79/21 81/34/21 82/36/21
usemtl material_1_0
f 3//43 2//44 1//43
f 4//44 1//43 2//44
f 1//43 5//45 3//43
f 2//44 6//46 4//44
f 7//45 3//43 5//45
f 8//46 4//44 6//46
f 5//45 9//47 7//45
f 6//46 10//48 8//46
f 11//47 7//45 9//47
f 12//48 8//46 10//48
f 9//47 13//49 11//47
f 10//48 14//50 12//48
f 15//49 11//47 13//49
f 16//50 12//48 14//50
f 13//49 17//51 15//49
f 14//50 18//52 16//50
f 19//51 15//49 17//51
f 20//52 16//50 18//52
f 17//29 21//53 19//29
f 18//52 22//54 20//52
f 23//53 19//29 21//53
f 24//54 20//52 22//54
f 21//53 25//55 23//53
f 22//54 26//56 24//54
f 27//55 23//53 25//55
f 28//56 24//54 26//56
f 25//55 29//57 27//55
f 26//56 30//21 28//56
f 31//57 27//55 29//57
f 32//21 28//56 30//21
f 29//57 33//58 31//57
f 30//21 34//21 32//21
f 35//58 31//57 33//58
f 36//21 32//21 34//21
f 33//58 37//59 35//58
f 38//59 35//58 37//59
f 37//59 39//60 38//59
f 40//60 38//59 39//60
f 39//60 41//17 40//60
f 42//17 40//60 41//17
f 42//61 41//61 43//61
f 44//61 43//61 41//61
f 44//62 45//63 43//62
f 46//63 43//62 45//63
f 45//63 47//64 46//63
f 48//64 46//63 47//64
f 47//64 49//65 48//64
f 50//65 48//64 49//65
f 50//65 49//65 51//66
f 52//66 51//66 49//65
f 51//66 52//66 53//67
f 54//67 53//67 52//66
f 53//67 54//67 55//11
f 56//11 55//11 54//67
f 56//68 57//69 55//68
f 58//69 55//68 57//69
f 57//69 59//70 58//69
f 60//70 58//69 59//70
f 59//70 61//71 60//70
f 62//71 60//70 61//71
f 61//71 63//72 62//71
f 64//72 62//71 63//72
f 63//72 65//73 64//72
f 66//73 64//72 65//73
f 65//73 67//74 66//73
f 68//74 66//73 67//74
f 67//74 69//75 68//74
f 70//75 68//74 69//75
f 69//75 71//76 70//75
f 72//76 70//75 71//76
f 71//76 73//77 72//76
f 74//77 72//76 73//77
f 73//77 75//78 74//77
f 76//78 74//77 75//78
f 75//78 77//79 76//78
f 78//79 76//78 77//79
f 77//79 79//80 78//79
f 80//80 78//79 79//80
f 80//17 79//17 81//17
f 82//17 81//17 79//17
