# SSTK version 0.8.0
# 56
mtllib original-56.mtl
o mesh33/mesh33-geometry#mesh33-geometry
v 0.080462 0.669316 0.547845
v 0.080462 0.671615 0.547845
v 0.076173 0.670465 0.549201
v 0.083286 0.672371 0.544239
v 0.079313 0.673605 0.547845
v 0.079313 0.667326 0.547845
v 0.083286 0.668560 0.544239
v 0.077322 0.674754 0.547845
v 0.077322 0.666177 0.547845
v 0.083683 0.672478 0.539615
v 0.081380 0.675673 0.544239
v 0.075024 0.674754 0.547845
v 0.075024 0.666177 0.547845
v 0.078079 0.663352 0.544239
v 0.081380 0.665258 0.544239
v 0.083683 0.668453 0.539615
v 0.078079 0.677579 0.544239
v 0.073034 0.673605 0.547845
v 0.073034 0.667326 0.547845
v 0.074267 0.663352 0.544239
v 0.085908 0.667857 0.539615
v 0.081670 0.675963 0.539615
v 0.074267 0.677579 0.544239
v 0.071885 0.671615 0.547845
v 0.071885 0.669316 0.547845
v 0.070966 0.665258 0.544239
v 0.078185 0.662956 0.539615
v 0.074161 0.662956 0.539615
v 0.081670 0.664968 0.539615
v 0.083300 0.663339 0.539615
v 0.085908 0.673074 0.539615
v 0.083300 0.677592 0.539615
v 0.078185 0.677975 0.539615
v 0.070966 0.675673 0.544239
v 0.069060 0.672371 0.544239
v 0.069060 0.668560 0.544239
v 0.070676 0.664968 0.539615
v 0.084133 0.662506 0.538699
v 0.087046 0.667552 0.538699
v 0.078782 0.680200 0.539615
v 0.074161 0.677975 0.539615
v 0.068664 0.668453 0.539615
v 0.078782 0.660731 0.539615
v 0.073565 0.660731 0.539615
v 0.079087 0.659593 0.538699
v 0.084133 0.678425 0.538699
v 0.087046 0.673379 0.538699
v 0.079087 0.681338 0.538699
v 0.070676 0.675963 0.539615
v 0.068664 0.672478 0.539615
v 0.069047 0.663339 0.539615
v 0.087409 0.667455 0.537770
v 0.079184 0.659230 0.537770
v 0.087409 0.673476 0.537770
v 0.073565 0.680200 0.539615
v 0.066439 0.673074 0.539615
v 0.073260 0.659593 0.538699
v 0.084398 0.662241 0.537770
v 0.073163 0.659230 0.537770
v 0.084398 0.678690 0.537770
v 0.073260 0.681338 0.538699
v 0.069047 0.677592 0.539615
v 0.066439 0.667857 0.539615
v 0.068214 0.662506 0.538699
v 0.085112 0.661526 0.537107
v 0.088384 0.667194 0.537107
v 0.079445 0.658254 0.537107
v 0.079184 0.681701 0.537770
v 0.068214 0.678425 0.538699
v 0.065301 0.673379 0.538699
v 0.067949 0.662241 0.537770
v 0.088384 0.673737 0.537107
v 0.072901 0.658254 0.537107
v 0.085112 0.679405 0.537107
v 0.079445 0.682677 0.537107
v 0.073163 0.681701 0.537770
v 0.065301 0.667552 0.538699
v 0.064938 0.667455 0.537770
v 0.064938 0.673476 0.537770
v 0.067234 0.661526 0.537107
v 0.072901 0.682677 0.537107
v 0.067949 0.678690 0.537770
v 0.063962 0.667194 0.537107
v 0.067234 0.679405 0.537107
v 0.063962 0.673737 0.537107
vt 0.943435 0.440141
vt 0.943471 0.502861
vt 0.923777 0.471909
vt 0.956442 0.523246
vt 0.938231 0.557288
vt 0.938131 0.385933
vt 0.956381 0.419218
vt 0.929118 0.588837
vt 0.928981 0.354762
vt 0.958261 0.526105
vt 0.947751 0.613518
vt 0.918574 0.589056
vt 0.918436 0.354981
vt 0.932408 0.277609
vt 0.947584 0.329308
vt 0.958197 0.416283
vt 0.932635 0.665847
vt 0.909424 0.557886
vt 0.909323 0.386531
vt 0.914919 0.277972
vt 0.968398 0.399797
vt 0.949086 0.621404
vt 0.915147 0.66621
vt 0.90412 0.503678
vt 0.904083 0.440958
vt 0.899804 0.3303
vt 0.932888 0.266788
vt 0.914426 0.267172
vt 0.94891 0.321367
vt 0.956358 0.276751
vt 0.968481 0.542166
vt 0.956586 0.66571
vt 0.933129 0.676647
vt 0.89997 0.61451
vt 0.891173 0.524601
vt 0.891112 0.420573
vt 0.898469 0.322414
vt 0.960166 0.253944
vt 0.973612 0.39137
vt 0.9359 0.737325
vt 0.914666 0.67703
vt 0.889293 0.417714
vt 0.935589 0.205997
vt 0.911654 0.206494
vt 0.936969 0.174921
vt 0.960421 0.688359
vt 0.973706 0.550377
vt 0.937317 0.768343
vt 0.898645 0.622452
vt 0.889358 0.527535
vt 0.890968 0.278109
vt 0.975275 0.388682
vt 0.937409 0.16501
vt 0.975372 0.552996
vt 0.911966 0.737822
vt 0.879157 0.544021
vt 0.910237 0.175476
vt 0.96138 0.24667
vt 0.909785 0.165584
vt 0.961644 0.695582
vt 0.910586 0.768898
vt 0.891196 0.667068
vt 0.879073 0.401652
vt 0.887134 0.25546
vt 0.964646 0.227107
vt 0.979748 0.381454
vt 0.938593 0.138354
vt 0.937769 0.778235
vt 0.887389 0.689875
vt 0.873942 0.552448
vt 0.885911 0.248237
vt 0.979853 0.560038
vt 0.90857 0.138978
vt 0.964932 0.715009
vt 0.938984 0.804841
vt 0.910145 0.778809
vt 0.873849 0.393442
vt 0.872183 0.390823
vt 0.872279 0.555136
vt 0.882622 0.22881
vt 0.908961 0.805464
vt 0.886174 0.697149
vt 0.867701 0.38378
vt 0.882908 0.716712
vt 0.867806 0.562365
vn 0.5375370186627481 -0.14403300500068197 0.8308480288462131
vn 0.5375370186627481 0.14403300500068197 0.8308480288462131
vn 0 0 1
vn 0.8945141085188802 0.23968402907750946 0.3773540457790862
vn 0.3935048486671149 0.3935048486671149 0.830847680475153
vn 0.3935048486671149 -0.3935048486671149 0.830847680475153
vn 0.8945141085188802 -0.23968402907750946 0.3773540457790862
vn 0.14403300500068197 0.5375370186627481 0.8308480288462131
vn 0.14403300500068197 -0.5375370186627481 0.8308480288462131
vn 0.9621499307377156 0.2578069814412495 0.08833499364102905
vn 0.6548297710990549 0.6548297710990549 0.37735386809295973
vn -0.14403300500068197 0.5375370186627481 0.8308480288462131
vn -0.14403300500068197 -0.5375370186627481 0.8308480288462131
vn 0.23968402907750946 -0.8945141085188802 0.3773540457790862
vn 0.6548297710990549 -0.6548297710990549 0.37735386809295973
vn 0.9621499307377156 -0.2578069814412495 0.08833499364102905
vn 0.23968402907750946 0.8945141085188802 0.3773540457790862
vn -0.3935048486671149 0.3935048486671149 0.830847680475153
vn -0.3935048486671149 -0.3935048486671149 0.830847680475153
vn -0.23968402907750946 -0.8945141085188802 0.3773540457790862
vn 0.4133701601509987 -0.11076204291226968 0.9038013501575652
vn 0.7043425789712493 0.7043425789712493 0.08833494719678524
vn -0.23968402907750946 0.8945141085188802 0.3773540457790862
vn -0.5375370186627481 0.14403300500068197 0.8308480288462131
vn -0.5375370186627481 -0.14403300500068197 0.8308480288462131
vn -0.6548297710990549 -0.6548297710990549 0.37735386809295973
vn 0.2578069814412495 -0.9621499307377156 0.08833499364102905
vn -0.2578069814412495 -0.9621499307377156 0.08833499364102905
vn 0.7043425789712493 -0.7043425789712493 0.08833494719678524
vn 0.30260808307667275 -0.30260808307667275 0.9038012481255614
vn 0.4133701601509987 0.11076204291226968 0.9038013501575652
vn 0.30260808307667275 0.30260808307667275 0.9038012481255614
vn 0.2578069814412495 0.9621499307377156 0.08833499364102905
vn -0.6548297710990549 0.6548297710990549 0.37735386809295973
vn -0.8945141085188802 0.23968402907750946 0.3773540457790862
vn -0.8945141085188802 -0.23968402907750946 0.3773540457790862
vn -0.7043425789712493 -0.7043425789712493 0.08833494719678524
vn 0.5632493040538846 -0.5632493040538846 0.604566326357687
vn 0.7694129969912106 -0.2061639991937957 0.6045659976358447
vn 0.11076204291226968 0.4133701601509987 0.9038013501575652
vn -0.2578069814412495 0.9621499307377156 0.08833499364102905
vn -0.9621499307377156 -0.2578069814412495 0.08833499364102905
vn 0.11076204291226968 -0.4133701601509987 0.9038013501575652
vn -0.11076204291226968 -0.4133701601509987 0.9038013501575652
vn 0.2061639991937957 -0.7694129969912106 0.6045659976358447
vn 0.5632493040538846 0.5632493040538846 0.604566326357687
vn 0.7694129969912106 0.2061639991937957 0.6045659976358447
vn 0.2061639991937957 0.7694129969912106 0.6045659976358447
vn -0.7043425789712493 0.7043425789712493 0.08833494719678524
vn -0.9621499307377156 0.2578069814412495 0.08833499364102905
vn -0.30260808307667275 -0.30260808307667275 0.9038012481255614
vn 0.7447991195276067 -0.19956803202727905 0.6367471021870934
vn 0.19956803202727905 -0.7447991195276067 0.6367471021870934
vn 0.7447991195276067 0.19956803202727905 0.6367471021870934
vn -0.11076204291226968 0.4133701601509987 0.9038013501575652
vn -0.4133701601509987 0.11076204291226968 0.9038013501575652
vn -0.2061639991937957 -0.7694129969912106 0.6045659976358447
vn 0.5452308831213216 -0.5452308831213216 0.6367468635034548
vn -0.19956803202727905 -0.7447991195276067 0.6367471021870934
vn 0.5452308831213216 0.5452308831213216 0.6367468635034548
vn -0.2061639991937957 0.7694129969912106 0.6045659976358447
vn -0.30260808307667275 0.30260808307667275 0.9038012481255614
vn -0.4133701601509987 -0.11076204291226968 0.9038013501575652
vn -0.5632493040538846 -0.5632493040538846 0.604566326357687
vn 0.38767194848537956 -0.38767194848537956 0.8363138888689452
vn 0.5295698586313451 -0.14189796212034406 0.8363137767460671
vn 0.14189796212034406 -0.5295698586313451 0.8363137767460671
vn 0.19956803202727905 0.7447991195276067 0.6367471021870934
vn -0.5632493040538846 0.5632493040538846 0.604566326357687
vn -0.7694129969912106 0.2061639991937957 0.6045659976358447
vn -0.5452308831213216 -0.5452308831213216 0.6367468635034548
vn 0.5295698586313451 0.14189796212034406 0.8363137767460671
vn -0.14189796212034406 -0.5295698586313451 0.8363137767460671
vn 0.38767194848537956 0.38767194848537956 0.8363138888689452
vn 0.14189796212034406 0.5295698586313451 0.8363137767460671
vn -0.19956803202727905 0.7447991195276067 0.6367471021870934
vn -0.7694129969912106 -0.2061639991937957 0.6045659976358447
vn -0.7447991195276067 -0.19956803202727905 0.6367471021870934
vn -0.7447991195276067 0.19956803202727905 0.6367471021870934
vn -0.38767194848537956 -0.38767194848537956 0.8363138888689452
vn -0.14189796212034406 0.5295698586313451 0.8363137767460671
vn -0.5452308831213216 0.5452308831213216 0.6367468635034548
vn -0.5295698586313451 -0.14189796212034406 0.8363137767460671
vn -0.38767194848537956 0.38767194848537956 0.8363138888689452
vn -0.5295698586313451 0.14189796212034406 0.8363137767460671
vn 0 0 -1
vn -0.5375370186627481 -0.14403300500068197 -0.8308480288462131
vn -0.5375370186627481 0.14403300500068197 -0.8308480288462131
vn -0.8945141085188802 -0.23968402907750946 -0.3773540457790862
vn -0.3935048486671149 -0.3935048486671149 -0.830847680475153
vn -0.3935048486671149 0.3935048486671149 -0.830847680475153
vn -0.8945141085188802 0.23968402907750946 -0.3773540457790862
vn -0.14403300500068197 -0.5375370186627481 -0.8308480288462131
vn -0.14403300500068197 0.5375370186627481 -0.8308480288462131
vn -0.9621499307377156 -0.2578069814412495 -0.08833499364102905
vn -0.6548297710990549 -0.6548297710990549 -0.37735386809295973
vn 0.14403300500068197 -0.5375370186627481 -0.8308480288462131
vn 0.14403300500068197 0.5375370186627481 -0.8308480288462131
vn -0.23968402907750946 0.8945141085188802 -0.3773540457790862
vn -0.6548297710990549 0.6548297710990549 -0.37735386809295973
vn -0.9621499307377156 0.2578069814412495 -0.08833499364102905
vn -0.23968402907750946 -0.8945141085188802 -0.3773540457790862
vn 0.3935048486671149 -0.3935048486671149 -0.830847680475153
vn 0.3935048486671149 0.3935048486671149 -0.830847680475153
vn 0.23968402907750946 0.8945141085188802 -0.3773540457790862
vn -0.4133701601509987 0.11076204291226968 -0.9038013501575652
vn -0.7043425789712493 -0.7043425789712493 -0.08833494719678524
vn 0.23968402907750946 -0.8945141085188802 -0.3773540457790862
vn 0.5375370186627481 -0.14403300500068197 -0.8308480288462131
vn 0.5375370186627481 0.14403300500068197 -0.8308480288462131
vn 0.6548297710990549 0.6548297710990549 -0.37735386809295973
vn -0.2578069814412495 0.9621499307377156 -0.08833499364102905
vn 0.2578069814412495 0.9621499307377156 -0.08833499364102905
vn -0.7043425789712493 0.7043425789712493 -0.08833494719678524
vn -0.30260808307667275 0.30260808307667275 -0.9038012481255614
vn -0.4133701601509987 -0.11076204291226968 -0.9038013501575652
vn -0.30260808307667275 -0.30260808307667275 -0.9038012481255614
vn -0.2578069814412495 -0.9621499307377156 -0.08833499364102905
vn 0.6548297710990549 -0.6548297710990549 -0.37735386809295973
vn 0.8945141085188802 -0.23968402907750946 -0.3773540457790862
vn 0.8945141085188802 0.23968402907750946 -0.3773540457790862
vn 0.7043425789712493 0.7043425789712493 -0.08833494719678524
vn -0.5632493040538846 0.5632493040538846 -0.604566326357687
vn -0.7694129969912106 0.2061639991937957 -0.6045659976358447
vn -0.11076204291226968 -0.4133701601509987 -0.9038013501575652
vn 0.2578069814412495 -0.9621499307377156 -0.08833499364102905
vn 0.9621499307377156 0.2578069814412495 -0.08833499364102905
vn -0.11076204291226968 0.4133701601509987 -0.9038013501575652
vn 0.11076204291226968 0.4133701601509987 -0.9038013501575652
vn -0.2061639991937957 0.7694129969912106 -0.6045659976358447
vn -0.5632493040538846 -0.5632493040538846 -0.604566326357687
vn -0.7694129969912106 -0.2061639991937957 -0.6045659976358447
vn -0.2061639991937957 -0.7694129969912106 -0.6045659976358447
vn 0.7043425789712493 -0.7043425789712493 -0.08833494719678524
vn 0.9621499307377156 -0.2578069814412495 -0.08833499364102905
vn 0.30260808307667275 0.30260808307667275 -0.9038012481255614
vn -0.7447991195276067 0.19956803202727905 -0.6367471021870934
vn -0.19956803202727905 0.7447991195276067 -0.6367471021870934
vn -0.7447991195276067 -0.19956803202727905 -0.6367471021870934
vn 0.11076204291226968 -0.4133701601509987 -0.9038013501575652
vn 0.4133701601509987 -0.11076204291226968 -0.9038013501575652
vn 0.2061639991937957 0.7694129969912106 -0.6045659976358447
vn -0.5452308831213216 0.5452308831213216 -0.6367468635034548
vn 0.19956803202727905 0.7447991195276067 -0.6367471021870934
vn -0.5452308831213216 -0.5452308831213216 -0.6367468635034548
vn 0.2061639991937957 -0.7694129969912106 -0.6045659976358447
vn 0.30260808307667275 -0.30260808307667275 -0.9038012481255614
vn 0.4133701601509987 0.11076204291226968 -0.9038013501575652
vn 0.5632493040538846 0.5632493040538846 -0.604566326357687
vn -0.38767194848537956 0.38767194848537956 -0.8363138888689452
vn -0.5295698586313451 0.14189796212034406 -0.8363137767460671
vn -0.14189796212034406 0.5295698586313451 -0.8363137767460671
vn -0.19956803202727905 -0.7447991195276067 -0.6367471021870934
vn 0.5632493040538846 -0.5632493040538846 -0.604566326357687
vn 0.7694129969912106 -0.2061639991937957 -0.6045659976358447
vn 0.5452308831213216 0.5452308831213216 -0.6367468635034548
vn -0.5295698586313451 -0.14189796212034406 -0.8363137767460671
vn 0.14189796212034406 0.5295698586313451 -0.8363137767460671
vn -0.38767194848537956 -0.38767194848537956 -0.8363138888689452
vn -0.14189796212034406 -0.5295698586313451 -0.8363137767460671
vn 0.19956803202727905 -0.7447991195276067 -0.6367471021870934
vn 0.7694129969912106 0.2061639991937957 -0.6045659976358447
vn 0.7447991195276067 0.19956803202727905 -0.6367471021870934
vn 0.7447991195276067 -0.19956803202727905 -0.6367471021870934
vn 0.38767194848537956 0.38767194848537956 -0.8363138888689452
vn 0.14189796212034406 -0.5295698586313451 -0.8363137767460671
vn 0.5452308831213216 -0.5452308831213216 -0.6367468635034548
vn 0.5295698586313451 0.14189796212034406 -0.8363137767460671
vn 0.38767194848537956 -0.38767194848537956 -0.8363138888689452
vn 0.5295698586313451 -0.14189796212034406 -0.8363137767460671
usemtl material_0_0
f 1/1/1 2/2/2 3/3/3
f 1/1/1 4/4/4 2/2/2
f 2/2/2 5/5/5 3/3/3
f 1/1/1 3/3/3 6/6/6
f 4/4/4 1/1/1 7/7/7
f 4/4/4 5/5/5 2/2/2
f 5/5/5 8/8/8 3/3/3
f 6/6/6 3/3/3 9/9/9
f 6/6/6 7/7/7 1/1/1
f 7/7/7 10/10/10 4/4/4
f 5/5/5 4/4/4 11/11/11
f 11/11/11 8/8/8 5/5/5
f 8/8/8 12/12/12 3/3/3
f 9/9/9 3/3/3 13/13/13
f 14/14/14 6/6/6 9/9/9
f 7/7/7 6/6/6 15/15/15
f 10/10/10 7/7/7 16/16/16
f 10/10/10 11/11/11 4/4/4
f 8/8/8 11/11/11 17/17/17
f 17/17/17 12/12/12 8/8/8
f 3/3/3 12/12/12 18/18/18
f 3/3/3 19/19/19 13/13/13
f 20/20/20 9/9/9 13/13/13
f 6/6/6 14/14/14 15/15/15
f 9/9/9 20/20/20 14/14/14
f 15/15/15 16/16/16 7/7/7
f 16/16/3 21/21/21 10/10/3
f 11/11/11 10/10/10 22/22/22
f 22/22/22 17/17/17 11/11/11
f 12/12/12 17/17/17 23/23/23
f 23/23/23 18/18/18 12/12/12
f 3/3/3 18/18/18 24/24/24
f 3/3/3 25/25/25 19/19/19
f 26/26/26 13/13/13 19/19/19
f 13/13/13 26/26/26 20/20/20
f 27/27/27 15/15/15 14/14/14
f 28/28/28 14/14/14 20/20/20
f 16/16/16 15/15/15 29/29/29
f 16/16/3 30/30/30 21/21/21
f 31/31/31 10/10/3 21/21/21
f 32/32/32 22/22/3 10/10/3
f 17/17/17 22/22/22 33/33/33
f 33/33/33 23/23/23 17/17/17
f 18/18/18 23/23/23 34/34/34
f 18/18/18 35/35/35 24/24/24
f 3/3/3 24/24/24 25/25/25
f 36/36/36 19/19/19 25/25/25
f 19/19/19 36/36/36 26/26/26
f 37/37/37 20/20/20 26/26/26
f 15/15/15 27/27/27 29/29/29
f 14/14/14 28/28/28 27/27/27
f 20/20/20 37/37/37 28/28/28
f 29/29/3 30/30/30 16/16/3
f 38/38/38 21/21/21 30/30/30
f 32/32/32 10/10/3 31/31/31
f 39/39/39 31/31/31 21/21/21
f 40/40/40 22/22/3 32/32/32
f 40/40/40 33/33/3 22/22/3
f 23/23/23 33/33/33 41/41/41
f 41/41/41 34/34/34 23/23/23
f 35/35/35 18/18/18 34/34/34
f 35/35/35 25/25/25 24/24/24
f 25/25/25 35/35/35 36/36/36
f 42/42/42 26/26/26 36/36/36
f 26/26/26 42/42/42 37/37/37
f 27/27/3 43/43/43 29/29/3
f 28/28/3 43/43/43 27/27/3
f 37/37/3 44/44/44 28/28/3
f 29/29/3 43/43/43 30/30/30
f 21/21/21 38/38/38 39/39/39
f 30/30/30 45/45/45 38/38/38
f 31/31/31 46/46/46 32/32/32
f 31/31/31 39/39/39 47/47/47
f 32/32/32 48/48/48 40/40/40
f 40/40/40 41/41/3 33/33/3
f 34/34/34 41/41/41 49/49/49
f 34/34/34 50/50/50 35/35/35
f 50/50/50 36/36/36 35/35/35
f 36/36/36 50/50/50 42/42/42
f 42/42/3 51/51/51 37/37/3
f 28/28/3 44/44/44 43/43/43
f 37/37/3 51/51/51 44/44/44
f 45/45/45 30/30/30 43/43/43
f 38/38/38 52/52/52 39/39/39
f 53/53/53 38/38/38 45/45/45
f 46/46/46 31/31/31 47/47/47
f 48/48/48 32/32/32 46/46/46
f 39/39/39 54/54/54 47/47/47
f 48/48/48 55/55/55 40/40/40
f 55/55/55 41/41/3 40/40/40
f 55/55/55 49/49/3 41/41/3
f 50/50/50 34/34/34 49/49/49
f 50/50/3 56/56/56 42/42/3
f 56/56/56 51/51/51 42/42/3
f 44/44/44 45/45/45 43/43/43
f 51/51/51 57/57/57 44/44/44
f 52/52/52 38/38/38 58/58/58
f 54/54/54 39/39/39 52/52/52
f 38/38/38 53/53/53 58/58/58
f 45/45/45 59/59/59 53/53/53
f 54/54/54 46/46/46 47/47/47
f 60/60/60 48/48/48 46/46/46
f 55/55/55 48/48/48 61/61/61
f 62/62/62 49/49/3 55/55/55
f 62/62/62 50/50/3 49/49/3
f 56/56/56 50/50/3 62/62/62
f 51/51/51 56/56/56 63/63/63
f 45/45/45 44/44/44 57/57/57
f 57/57/57 51/51/51 64/64/64
f 65/65/65 52/52/52 58/58/58
f 66/66/66 54/54/54 52/52/52
f 67/67/67 58/58/58 53/53/53
f 59/59/59 45/45/45 57/57/57
f 59/59/59 67/67/67 53/53/53
f 46/46/46 54/54/54 60/60/60
f 48/48/48 60/60/60 68/68/68
f 68/68/68 61/61/61 48/48/48
f 61/61/61 62/62/62 55/55/55
f 69/69/69 56/56/56 62/62/62
f 70/70/70 63/63/63 56/56/56
f 63/63/63 64/64/64 51/51/51
f 71/71/71 57/57/57 64/64/64
f 52/52/52 65/65/65 66/66/66
f 58/58/58 67/67/67 65/65/65
f 54/54/54 66/66/66 72/72/72
f 57/57/57 71/71/71 59/59/59
f 67/67/67 59/59/59 73/73/73
f 54/54/54 74/74/74 60/60/60
f 60/60/60 75/75/75 68/68/68
f 61/61/61 68/68/68 76/76/76
f 62/62/62 61/61/61 69/69/69
f 56/56/56 69/69/69 70/70/70
f 63/63/63 70/70/70 77/77/77
f 64/64/64 63/63/63 77/77/77
f 64/64/64 78/78/78 71/71/71
f 74/74/74 54/54/54 72/72/72
f 71/71/71 73/73/73 59/59/59
f 75/75/75 60/60/60 74/74/74
f 75/75/75 76/76/76 68/68/68
f 76/76/76 69/69/69 61/61/61
f 69/69/69 79/79/79 70/70/70
f 79/79/79 77/77/77 70/70/70
f 78/78/78 64/64/64 77/77/77
f 78/78/78 80/80/80 71/71/71
f 73/73/73 71/71/71 80/80/80
f 76/76/76 75/75/75 81/81/81
f 69/69/69 76/76/76 82/82/82
f 79/79/79 69/69/69 82/82/82
f 77/77/77 79/79/79 78/78/78
f 80/80/80 78/78/78 83/83/83
f 81/81/81 82/82/82 76/76/76
f 84/84/84 79/79/79 82/82/82
f 85/85/85 78/78/78 79/79/79
f 78/78/78 85/85/85 83/83/83
f 82/82/82 81/81/81 84/84/84
f 79/79/79 84/84/84 85/85/85
usemtl material_1_0
f 3//86 2//87 1//88
f 2//87 4//89 1//88
f 3//86 5//90 2//87
f 6//91 3//86 1//88
f 7//92 1//88 4//89
f 2//87 5//90 4//89
f 3//86 8//93 5//90
f 9//94 3//86 6//91
f 1//88 7//92 6//91
f 4//89 10//95 7//92
f 11//96 4//89 5//90
f 5//90 8//93 11//96
f 3//86 12//97 8//93
f 13//98 3//86 9//94
f 9//94 6//91 14//99
f 15//100 6//91 7//92
f 16//101 7//92 10//95
f 4//89 11//96 10//95
f 17//102 11//96 8//93
f 8//93 12//97 17//102
f 18//103 12//97 3//86
f 13//98 19//104 3//86
f 13//98 9//94 20//105
f 15//100 14//99 6//91
f 14//99 20//105 9//94
f 7//92 16//101 15//100
f 10//86 21//106 16//86
f 22//107 10//95 11//96
f 11//96 17//102 22//107
f 23//108 17//102 12//97
f 12//97 18//103 23//108
f 24//109 18//103 3//86
f 19//104 25//110 3//86
f 19//104 13//98 26//111
f 20//105 26//111 13//98
f 14//99 15//100 27//112
f 20//105 14//99 28//113
f 29//114 15//100 16//101
f 21//106 30//115 16//86
f 21//106 10//86 31//116
f 10//86 22//86 32//117
f 33//118 22//107 17//102
f 17//102 23//108 33//118
f 34//119 23//108 18//103
f 24//109 35//120 18//103
f 25//110 24//109 3//86
f 25//110 19//104 36//121
f 26//111 36//121 19//104
f 26//111 20//105 37//122
f 29//114 27//112 15//100
f 27//112 28//113 14//99
f 28//113 37//122 20//105
f 16//86 30//115 29//86
f 30//115 21//106 38//123
f 31//116 10//86 32//117
f 21//106 31//116 39//124
f 32//117 22//86 40//125
f 22//86 33//86 40//125
f 41//126 33//118 23//108
f 23//108 34//119 41//126
f 34//119 18//103 35//120
f 24//109 25//110 35//120
f 36//121 35//120 25//110
f 36//121 26//111 42//127
f 37//122 42//127 26//111
f 29//86 43//128 27//86
f 27//86 43//128 28//86
f 28//86 44//129 37//86
f 30//115 43//128 29//86
f 39//124 38//123 21//106
f 38//123 45//130 30//115
f 32//117 46//131 31//116
f 47//132 39//124 31//116
f 40//125 48//133 32//117
f 33//86 41//86 40//125
f 49//134 41//126 34//119
f 35//120 50//135 34//119
f 35//120 36//121 50//135
f 42//127 50//135 36//121
f 37//86 51//136 42//86
f 43//128 44//129 28//86
f 44//129 51//136 37//86
f 43//128 30//115 45//130
f 39//124 52//137 38//123
f 45//130 38//123 53//138
f 47//132 31//116 46//131
f 46//131 32//117 48//133
f 47//132 54//139 39//124
f 40//125 55//140 48//133
f 40//125 41//86 55//140
f 41//86 49//86 55//140
f 49//134 34//119 50//135
f 42//86 56//141 50//86
f 42//86 51//136 56//141
f 43//128 45//130 44//129
f 44//129 57//142 51//136
f 58//143 38//123 52//137
f 52//137 39//124 54//139
f 58//143 53//138 38//123
f 53//138 59//144 45//130
f 47//132 46//131 54//139
f 46//131 48//133 60//145
f 61//146 48//133 55//140
f 55//140 49//86 62//147
f 49//86 50//86 62//147
f 62//147 50//86 56//141
f 63//148 56//141 51//136
f 57//142 44//129 45//130
f 64//149 51//136 57//142
f 58//143 52//137 65//150
f 52//137 54//139 66//151
f 53//138 58//143 67//152
f 57//142 45//130 59//144
f 53//138 67//152 59//144
f 60//145 54//139 46//131
f 68//153 60//145 48//133
f 48//133 61//146 68//153
f 55//140 62//147 61//146
f 62//147 56//141 69//154
f 56//141 63//148 70//155
f 51//136 64//149 63//148
f 64//149 57//142 71//156
f 66//151 65//150 52//137
f 65//150 67//152 58//143
f 72//157 66//151 54//139
f 59//144 71//156 57//142
f 73//158 59//144 67//152
f 60//145 74//159 54//139
f 68//153 75//160 60//145
f 76//161 68//153 61//146
f 69//154 61//146 62//147
f 70//155 69//154 56//141
f 77//162 70//155 63//148
f 77//162 63//148 64//149
f 71//156 78//163 64//149
f 72//157 54//139 74//159
f 59//144 73//158 71//156
f 74//159 60//145 75//160
f 68//153 76//161 75//160
f 61//146 69//154 76//161
f 70//155 79//164 69//154
f 70//155 77//162 79//164
f 77//162 64//149 78//163
f 71//156 80//165 78//163
f 80//165 71//156 73//158
f 81//166 75//160 76//161
f 82//167 76//161 69//154
f 82//167 69//154 79//164
f 78//163 79//164 77//162
f 83//168 78//163 80//165
f 76//161 82//167 81//166
f 82//167 79//164 84//169
f 79//164 78//163 85//170
f 83//168 85//170 78//163
f 84//169 81//166 82//167
f 85//170 84//169 79//164
