# SSTK version 0.8.0
# 40
mtllib original-40.mtl
o LT_11_BL1/LT_11_BL/mesh31/mesh31-geometry#mesh31-geometry
v -0.693184 -0.421141 0.331819
v -0.693470 -0.279911 0.332951
v -0.693470 -0.421428 0.332951
v -0.693184 -0.279911 0.331819
v -0.694310 -0.279911 0.333761
v -0.574246 -0.421428 0.332951
v -0.693161 -0.421119 0.330338
v -0.694310 -0.422268 0.333761
v -0.574246 -0.421141 0.331819
v -0.693161 -0.279911 0.330338
v -0.695451 -0.279911 0.334008
v -0.574246 -0.422268 0.333761
v -0.691025 -0.418983 0.330338
v -0.574246 -0.421119 0.330338
v -0.695451 -0.423409 0.334008
v -0.691025 -0.279911 0.330338
v -0.696551 -0.279911 0.333617
v -0.574246 -0.423409 0.334008
v -0.690594 -0.279911 0.331375
v -0.574246 -0.418983 0.330338
v -0.696551 -0.424508 0.333617
v -0.690594 -0.418552 0.331375
v -0.697739 -0.279911 0.332733
v -0.574246 -0.424508 0.333617
v -0.689886 -0.279911 0.332235
v -0.574246 -0.418552 0.331375
v -0.697739 -0.425697 0.332733
v -0.689886 -0.417844 0.332235
v -0.702215 -0.279911 0.330564
v -0.574246 -0.425697 0.332733
v -0.688476 -0.416434 0.333060
v -0.574246 -0.417844 0.332235
v -0.702215 -0.430172 0.330564
v -0.688476 -0.279911 0.333060
v -0.707173 -0.279911 0.329387
v -0.574246 -0.430172 0.330564
v -0.687023 -0.414981 0.333213
v -0.574246 -0.416434 0.333060
v -0.707173 -0.435131 0.329387
v -0.574246 -0.435131 0.329387
v -0.687023 -0.279911 0.333213
v -0.710185 -0.279911 0.329323
v -0.687000 -0.279911 0.334354
v -0.574246 -0.414981 0.333213
v -0.710185 -0.438143 0.329323
v -0.687000 -0.414958 0.334354
v -0.711608 -0.439566 0.327887
v -0.574246 -0.438143 0.329323
v -0.685947 -0.279911 0.335463
v -0.574246 -0.414958 0.334354
v -0.711608 -0.279911 0.327887
v -0.574246 -0.439566 0.327887
v -0.685947 -0.413905 0.335463
v -0.711608 -0.439566 0.311533
v -0.574246 -0.439566 0.311533
v -0.627704 -0.355662 0.335463
v -0.574246 -0.413905 0.335463
v -0.711608 -0.279911 0.311533
v -0.627704 -0.279911 0.335463
v -0.574246 -0.355662 0.335463
v -0.708983 -0.436941 0.308194
v -0.626685 -0.354643 0.334396
v -0.708983 -0.279911 0.308194
v -0.574246 -0.436941 0.308194
v -0.626685 -0.279911 0.334396
v -0.574246 -0.354643 0.334396
v -0.607449 -0.335406 0.308194
v -0.574246 -0.335406 0.308194
v -0.626611 -0.354569 0.330384
v -0.607449 -0.279911 0.308194
v -0.626611 -0.279911 0.330384
v -0.574246 -0.354569 0.330384
v -0.607449 -0.279911 0.313522
v -0.574246 -0.335406 0.313522
v -0.625609 -0.353567 0.329514
v -0.574246 -0.353567 0.329514
v -0.607449 -0.335406 0.313522
v -0.625609 -0.279911 0.329514
v -0.621991 -0.349949 0.329514
v -0.574246 -0.349949 0.329514
v -0.574246 -0.279911 0.313522
v -0.621991 -0.279911 0.329514
v -0.621497 -0.279911 0.331742
v -0.621497 -0.349455 0.331742
v -0.574246 -0.349455 0.331742
v -0.619926 -0.279911 0.333397
v -0.619926 -0.347884 0.333397
v -0.574246 -0.347884 0.333397
v -0.617728 -0.345686 0.334006
v -0.574246 -0.345686 0.334006
v -0.617728 -0.279911 0.334006
v -0.615529 -0.343487 0.333397
v -0.574246 -0.343487 0.333397
v -0.615529 -0.279911 0.333397
v -0.613958 -0.341916 0.331742
v -0.613958 -0.279911 0.331742
v -0.574246 -0.341916 0.331742
v -0.613464 -0.341422 0.329514
v -0.613464 -0.279911 0.329514
v -0.574246 -0.341422 0.329514
v -0.611856 -0.339814 0.329514
v -0.574246 -0.339814 0.329514
v -0.611856 -0.279911 0.329514
v -0.610511 -0.338469 0.329129
v -0.574246 -0.338469 0.329129
v -0.610511 -0.279911 0.329129
v -0.609555 -0.337512 0.328116
v -0.609555 -0.279911 0.328116
v -0.574246 -0.337512 0.328116
v -0.609190 -0.337148 0.326695
v -0.609190 -0.279911 0.326695
v -0.574246 -0.337148 0.326695
v -0.609190 -0.337148 0.320843
v -0.609190 -0.279911 0.320843
v -0.574246 -0.337148 0.320843
v -0.574246 -0.279911 0.320843
vt 0.010557 0.010557
vt 0.010393 0.091481
vt 0.010393 0.010393
vt 0.010557 0.091481
vt 0.009912 0.091481
vt 0.034931 0.882317
vt 0.035095 0.950467
vt 0.034931 0.950631
vt 0.01057 0.01057
vt 0.009912 0.009912
vt 0.035095 0.882317
vt 0.03445 0.951112
vt 0.01057 0.091481
vt 0.035108 0.950454
vt 0.009258 0.091481
vt 0.03445 0.882317
vt 0.011794 0.011794
vt 0.035108 0.882317
vt 0.009258 0.009258
vt 0.033796 0.951766
vt 0.011794 0.091481
vt 0.036332 0.94923
vt 0.008628 0.091481
vt 0.033796 0.882317
vt 0.012041 0.091481
vt 0.036332 0.882317
vt 0.008628 0.008628
vt 0.033166 0.952396
vt 0.012041 0.012041
vt 0.036579 0.948983
vt 0.007947 0.091481
vt 0.033166 0.882317
vt 0.012447 0.091481
vt 0.036579 0.882317
vt 0.007947 0.007947
vt 0.032485 0.953077
vt 0.012447 0.012447
vt 0.036985 0.948577
vt 0.005382 0.091481
vt 0.032485 0.882317
vt 0.013255 0.013255
vt 0.036985 0.882317
vt 0.005382 0.005382
vt 0.029921 0.955642
vt 0.013255 0.091481
vt 0.037793 0.94777
vt 0.002541 0.091481
vt 0.029921 0.882317
vt 0.014087 0.014087
vt 0.037793 0.882317
vt 0.002541 0.002541
vt 0.02708 0.882317
vt 0.014087 0.091481
vt 0.038625 0.946937
vt 0.000815 0.091481
vt 0.02708 0.958483
vt 0.0141 0.091481
vt 0.038625 0.882317
vt 0.000815 0.000815
vt 0.025354 0.960209
vt 0.0141 0.0141
vt 0.038638 0.946924
vt 0 0
vt 0.025354 0.882317
vt 0.014703 0.091481
vt 0.038638 0.882317
vt 0 0.091481
vt 0.024538 0.882317
vt 0.024538 0.961024
vt 0.014703 0.014703
vt 0.039242 0.946321
vt 0.048076 0.048076
vt 0.039242 0.882317
vt 0.048076 0.091481
vt 0.072615 0.882317
vt 0.072614 0.912948
vt 0.001504 0.001504
vt 0.026042 0.95952
vt 0.04866 0.04866
vt 0.073198 0.912364
vt 0.001504 0.091481
vt 0.026042 0.882317
vt 0.04866 0.091481
vt 0.073198 0.882317
vt 0.059682 0.059682
vt 0.084221 0.882317
vt 0.048702 0.048702
vt 0.073241 0.912322
vt 0.059682 0.091481
vt 0.084221 0.901342
vt 0.048702 0.091481
vt 0.073241 0.882317
vt 0.049276 0.049276
vt 0.073815 0.882317
vt 0.049276 0.091481
vt 0.073815 0.911748
vt 0.078707 0.059682
vt 0.05135 0.05135
vt 0.075888 0.882317
vt 0.078707 0.091481
vt 0.05135 0.091481
vt 0.075888 0.909674
vt 0.051633 0.091481
vt 0.076171 0.909391
vt 0.051633 0.051633
vt 0.076171 0.882317
vt 0.052533 0.091481
vt 0.077071 0.908491
vt 0.052533 0.052533
vt 0.077071 0.882317
vt 0.053793 0.053793
vt 0.078331 0.882317
vt 0.053793 0.091481
vt 0.078331 0.907231
vt 0.055052 0.055052
vt 0.079591 0.882317
vt 0.055052 0.091481
vt 0.079591 0.905972
vt 0.055952 0.055952
vt 0.080491 0.905072
vt 0.055952 0.091481
vt 0.080491 0.882317
vt 0.056236 0.056236
vt 0.080774 0.904789
vt 0.056236 0.091481
vt 0.080774 0.882317
vt 0.057157 0.057157
vt 0.081695 0.882317
vt 0.057157 0.091481
vt 0.081695 0.903867
vt 0.057928 0.057928
vt 0.082466 0.882317
vt 0.057928 0.091481
vt 0.082466 0.903097
vt 0.058476 0.058476
vt 0.083014 0.902548
vt 0.058476 0.091481
vt 0.083014 0.882317
vt 0.058684 0.058684
vt 0.083223 0.90234
vt 0.058684 0.091481
vt 0.083223 0.882317
vt 0.078707 0.058684
vn 0.9913292929170315 0 0.13140103882625329
vn 0.8650370308675495 0 0.5017080179026985
vn 0.47094918221003834 0 0.882160341307461
vn 0 0.8650370308675492 0.5017080179026986
vn 0 0.9913292929170315 0.1314010388262535
vn 0.9998810892883854 0 0.015421001377080064
vn 0 0.4709491822100382 0.8821603413074612
vn 0 0.9998810892883854 0.015421001377080286
vn -0.06444700844094749 0 0.9979211307027286
vn 0 0 1
vn 0 -0.06444700844094771 0.9979211307027286
vn -0.4712621119971037 0 0.8819932096087981
vn -0.9233742208355901 0 0.3839010918143719
vn -0.8569058686513363 0 0.515472920987028
vn 0 -0.4712621119971039 0.881993209608798
vn 0 -0.9233742208355903 0.38390109181437176
vn 0 -0.8569058686513363 0.5154729209870278
vn -0.5187288783160752 0 0.854938799447625
vn -0.6485230293281576 0 0.7611950344235239
vn 0 -0.5187288783160754 0.8549387994476249
vn 0 -0.6485230293281579 0.7611950344235237
vn -0.3355149569785974 0 0.9420348792075853
vn -0.31213702994361886 0 0.9500370911380126
vn 0 -0.3355149569785976 0.9420348792075853
vn 0 -0.3121370299436191 0.9500370911380126
vn -0.12685097270896756 0 0.99192178659549
vn -0.10509798638728929 0 0.9944618711933289
vn 0 -0.12685097270896778 0.99192178659549
vn 0 -0.10509798638728951 0.9944618711933289
vn -0.39455801380854433 0 0.9188710321581894
vn -0.9997994393469632 0 0.020027008800570546
vn -0.925002578416296 0 0.37996082682719323
vn 0 -0.39455801380854455 0.9188710321581894
vn 0 -0.9997994393469632 0.020027008800570324
vn 0 -0.9250025784162961 0.37996082682719307
vn -0.9247352064258889 0 0.38061108496268015
vn -0.39462388950039357 0 0.9188427427125826
vn 0 -0.924735206425889 0.38061108496268
vn 0 -0.3946238895003938 0.9188427427125826
vn -0.9450278200270289 0 -0.32698993772738816
vn 0 -0.9450278200270289 -0.3269899377273884
vn 0.3934158431496589 0 0.9193606334615612
vn 0 0.39341584314965866 0.9193606334615612
vn -0.43701910779842407 0 -0.8994522218656583
vn 0 -0.43701910779842384 -0.8994522218656583
vn 0.9247981708250347 0 0.38045807027669937
vn 0 0.9247981708250346 0.38045807027669953
vn 0 0 -1
vn 0.9059915435253356 0 0.42329578672670454
vn 0 0.9059915435253356 0.42329578672670476
vn 1 0 0
vn 0 1 0
vn 0.3499859772122388 0 0.9367549390074196
vn 0 0.34998597721223856 0.9367549390074196
vn -0.9762715506789322 0 0.21654990033466368
vn -0.8829048588548676 0 0.46955192493532233
vn 0 -0.9762715506789325 0.21654990033466348
vn 0 -0.8829048588548676 0.4695519249353221
vn -0.5149989020261032 0 0.8571908369271736
vn 0 -0.5149989020261033 0.8571908369271733
vn 0.5149989020261032 0 0.8571908369271736
vn 0 0.5149989020261029 0.8571908369271737
vn 0.8829048588548676 0 0.46955192493532233
vn 0 0.8829048588548674 0.4695519249353225
vn 0.9762715506789322 0 0.21654990033466368
vn 0 0.9762715506789322 0.2165499003346639
vn 0.1391790330320597 0 0.990267235025102
vn 0 0.1391790330320595 0.9902672350251023
vn 0.5196688573548158 0 0.8543677654824884
vn 0 0.5196688573548155 0.8543677654824883
vn 0.8756788571430765 0 0.4828939212214165
vn 0 0.8756788571430764 0.48289392122141667
vn 0.992149053614744 0 0.12506100675817194
vn 0 0.992149053614744 0.12506100675817217
vn -0.8650370308675495 0 -0.5017080179026985
vn -0.9913292929170315 0 -0.13140103882625329
vn -0.47094918221003834 0 -0.882160341307461
vn 0 -0.8650370308675492 -0.5017080179026986
vn 0 -0.9913292929170315 -0.1314010388262535
vn -0.9998810892883854 0 -0.015421001377080064
vn 0 -0.4709491822100382 -0.8821603413074612
vn 0 -0.9998810892883854 -0.015421001377080286
vn 0.06444700844094749 0 -0.9979211307027286
vn 0 0.06444700844094771 -0.9979211307027286
vn 0.4712621119971037 0 -0.8819932096087981
vn 0.9233742208355901 0 -0.3839010918143719
vn 0.8569058686513363 0 -0.515472920987028
vn 0 0.4712621119971039 -0.881993209608798
vn 0 0.9233742208355903 -0.38390109181437176
vn 0 0.8569058686513363 -0.5154729209870278
vn 0.5187288783160752 0 -0.854938799447625
vn 0.6485230293281576 0 -0.7611950344235239
vn 0 0.5187288783160754 -0.8549387994476249
vn 0 0.6485230293281579 -0.7611950344235237
vn 0.3355149569785974 0 -0.9420348792075853
vn 0.31213702994361886 0 -0.9500370911380126
vn 0 0.3355149569785976 -0.9420348792075853
vn 0 0.3121370299436191 -0.9500370911380126
vn 0.12685097270896756 0 -0.99192178659549
vn 0.10509798638728929 0 -0.9944618711933289
vn 0 0.12685097270896778 -0.99192178659549
vn 0 0.10509798638728951 -0.9944618711933289
vn 0.39455801380854433 0 -0.9188710321581894
vn 0.9997994393469632 0 -0.020027008800570546
vn 0.925002578416296 0 -0.37996082682719323
vn 0 0.39455801380854455 -0.9188710321581894
vn 0 0.9997994393469632 -0.020027008800570324
vn 0 0.9250025784162961 -0.37996082682719307
vn 0.9247352064258889 0 -0.38061108496268015
vn 0.39462388950039357 0 -0.9188427427125826
vn 0 0.924735206425889 -0.38061108496268
vn 0 0.3946238895003938 -0.9188427427125826
vn 0.9450278200270289 0 0.32698993772738816
vn 0 0.9450278200270289 0.3269899377273884
vn -0.3934158431496589 0 -0.9193606334615612
vn 0 -0.39341584314965866 -0.9193606334615612
vn 0.43701910779842407 0 0.8994522218656583
vn 0 0.43701910779842384 0.8994522218656583
vn -0.9247981708250347 0 -0.38045807027669937
vn 0 -0.9247981708250346 -0.38045807027669953
vn -0.9059915435253356 0 -0.42329578672670454
vn 0 -0.9059915435253356 -0.42329578672670476
vn -1 0 0
vn 0 -1 0
vn -0.3499859772122388 0 -0.9367549390074196
vn 0 -0.34998597721223856 -0.9367549390074196
vn 0.9762715506789322 0 -0.21654990033466368
vn 0.8829048588548676 0 -0.46955192493532233
vn 0 0.9762715506789325 -0.21654990033466348
vn 0 0.8829048588548676 -0.4695519249353221
vn 0.5149989020261032 0 -0.8571908369271736
vn 0 0.5149989020261033 -0.8571908369271733
vn -0.5149989020261032 0 -0.8571908369271736
vn 0 -0.5149989020261029 -0.8571908369271737
vn -0.8829048588548676 0 -0.46955192493532233
vn 0 -0.8829048588548674 -0.4695519249353225
vn -0.9762715506789322 0 -0.21654990033466368
vn 0 -0.9762715506789322 -0.2165499003346639
vn -0.1391790330320597 0 -0.990267235025102
vn 0 -0.1391790330320595 -0.9902672350251023
vn -0.5196688573548158 0 -0.8543677654824884
vn 0 -0.5196688573548155 -0.8543677654824883
vn -0.8756788571430765 0 -0.4828939212214165
vn 0 -0.8756788571430764 -0.48289392122141667
vn -0.992149053614744 0 -0.12506100675817194
vn 0 -0.992149053614744 -0.12506100675817217
usemtl material_0_0
f 1/1/1 2/2/2 3/3/2
f 2/2/2 1/1/1 4/4/1
f 5/5/3 3/3/2 2/2/2
f 6/6/4 1/7/5 3/8/4
f 7/9/6 4/4/1 1/1/1
f 3/3/2 5/5/3 8/10/3
f 1/7/5 6/6/4 9/11/5
f 8/12/7 6/6/4 3/8/4
f 4/4/1 7/9/6 10/13/6
f 9/11/5 7/14/8 1/7/5
f 11/15/9 8/10/3 5/5/3
f 6/6/4 8/12/7 12/16/7
f 13/17/10 10/13/10 7/9/10
f 7/14/8 9/11/5 14/18/8
f 8/10/3 11/15/9 15/19/9
f 15/20/11 12/16/7 8/12/7
f 10/13/10 13/17/10 16/21/10
f 14/18/10 13/22/10 7/14/10
f 17/23/12 15/19/9 11/15/9
f 12/16/7 15/20/11 18/24/11
f 13/17/13 19/25/14 16/21/13
f 13/22/10 14/18/10 20/26/10
f 15/19/9 17/23/12 21/27/12
f 21/28/15 18/24/11 15/20/11
f 19/25/14 13/17/13 22/29/14
f 20/26/16 22/30/17 13/22/16
f 23/31/18 21/27/12 17/23/12
f 18/24/11 21/28/15 24/32/15
f 22/29/14 25/33/19 19/25/14
f 22/30/17 20/26/16 26/34/17
f 21/27/12 23/31/18 27/35/18
f 27/36/20 24/32/15 21/28/15
f 25/33/19 22/29/14 28/37/19
f 26/34/17 28/38/21 22/30/17
f 29/39/22 27/35/18 23/31/18
f 24/32/15 27/36/20 30/40/20
f 31/41/23 25/33/19 28/37/19
f 28/38/21 26/34/17 32/42/21
f 27/35/18 29/39/22 33/43/22
f 33/44/24 30/40/20 27/36/20
f 25/33/19 31/41/23 34/45/23
f 32/42/21 31/46/25 28/38/21
f 35/47/26 33/43/22 29/39/22
f 30/40/20 33/44/24 36/48/24
f 37/49/27 34/45/23 31/41/23
f 31/46/25 32/42/21 38/50/25
f 33/43/22 35/47/26 39/51/26
f 33/44/24 40/52/28 36/48/24
f 34/45/23 37/49/27 41/53/27
f 38/50/25 37/54/29 31/46/25
f 42/55/30 39/51/26 35/47/26
f 40/52/28 33/44/24 39/56/28
f 37/49/31 43/57/32 41/53/31
f 37/54/29 38/50/25 44/58/29
f 39/51/26 42/55/30 45/59/30
f 45/60/33 40/52/28 39/56/28
f 43/57/32 37/49/31 46/61/32
f 44/58/34 46/62/35 37/54/34
f 42/55/30 47/63/36 45/59/30
f 40/52/28 45/60/33 48/64/33
f 46/61/32 49/65/37 43/57/32
f 46/62/35 44/58/34 50/66/35
f 47/63/36 42/55/30 51/67/36
f 52/68/38 45/60/33 47/69/38
f 45/60/33 52/68/38 48/64/33
f 49/65/37 46/61/32 53/70/37
f 50/66/35 53/71/39 46/62/35
f 51/67/36 54/63/40 47/63/36
f 47/69/38 55/68/41 52/68/38
f 56/72/42 49/65/37 53/70/37
f 53/71/39 50/66/35 57/73/39
f 54/63/40 51/67/36 58/67/40
f 55/68/41 47/69/38 54/69/41
f 49/65/37 56/72/42 59/74/42
f 53/71/39 60/75/43 56/76/43
f 60/75/43 53/71/39 57/73/39
f 58/67/40 61/77/44 54/63/40
f 61/78/45 55/68/41 54/69/41
f 62/79/46 59/74/42 56/72/42
f 60/75/43 62/80/47 56/76/43
f 61/77/44 58/67/40 63/81/44
f 55/68/41 61/78/45 64/82/45
f 59/74/42 62/79/46 65/83/46
f 62/80/47 60/75/43 66/84/47
f 63/81/44 67/85/48 61/77/44
f 61/78/45 68/86/48 64/82/45
f 69/87/49 65/83/46 62/79/46
f 66/84/47 69/88/50 62/80/47
f 67/85/48 63/81/44 70/89/48
f 68/86/48 61/78/45 67/90/48
f 65/83/46 69/87/49 71/91/49
f 69/88/50 66/84/47 72/92/50
f 73/89/51 67/85/51 70/89/51
f 67/90/52 74/86/52 68/86/52
f 75/93/53 71/91/49 69/87/49
f 76/94/54 69/88/50 72/92/50
f 67/85/51 73/89/51 77/85/51
f 74/86/52 67/90/52 77/90/52
f 71/91/49 75/93/53 78/95/53
f 69/88/50 76/94/54 75/96/54
f 73/89/48 74/97/48 77/85/48
f 79/98/10 78/95/53 75/93/53
f 80/99/10 75/96/54 76/94/54
f 74/97/48 73/89/48 81/100/48
f 78/95/53 79/98/10 82/101/10
f 75/96/54 80/99/10 79/102/10
f 79/98/55 83/103/56 82/101/55
f 80/99/57 84/104/58 79/102/57
f 83/103/56 79/98/55 84/105/56
f 84/104/58 80/99/57 85/106/58
f 84/105/56 86/107/59 83/103/56
f 85/106/58 87/108/60 84/104/58
f 86/107/59 84/105/56 87/109/59
f 87/108/60 85/106/58 88/110/60
f 89/111/10 86/107/59 87/109/59
f 90/112/10 87/108/60 88/110/60
f 86/107/59 89/111/10 91/113/10
f 87/108/60 90/112/10 89/114/10
f 92/115/61 91/113/10 89/111/10
f 93/116/62 89/114/10 90/112/10
f 91/113/10 92/115/61 94/117/61
f 89/114/10 93/116/62 92/118/62
f 95/119/63 94/117/61 92/115/61
f 93/116/62 95/120/64 92/118/62
f 94/117/61 95/119/63 96/121/63
f 95/120/64 93/116/62 97/122/64
f 98/123/65 96/121/63 95/119/63
f 97/122/64 98/124/66 95/120/64
f 96/121/63 98/123/65 99/125/65
f 98/124/66 97/122/64 100/126/66
f 101/127/67 99/125/10 98/123/10
f 102/128/68 98/124/10 100/126/10
f 99/125/10 101/127/67 103/129/67
f 98/124/10 102/128/68 101/130/68
f 104/131/69 103/129/67 101/127/67
f 105/132/70 101/130/68 102/128/68
f 103/129/67 104/131/69 106/133/69
f 101/130/68 105/132/70 104/134/70
f 107/135/71 106/133/69 104/131/69
f 105/132/70 107/136/72 104/134/70
f 106/133/69 107/135/71 108/137/71
f 107/136/72 105/132/70 109/138/72
f 110/139/73 108/137/71 107/135/71
f 109/138/72 110/140/74 107/136/72
f 108/137/71 110/139/73 111/141/73
f 110/140/74 109/138/72 112/142/74
f 113/139/51 111/141/73 110/139/73
f 112/142/74 113/140/52 110/140/74
f 111/141/73 113/139/51 114/141/51
f 113/140/52 112/142/74 115/142/52
f 113/139/10 116/100/10 114/141/10
f 116/100/10 113/139/10 115/143/10
usemtl material_1_0
f 3//75 2//75 1//76
f 4//76 1//76 2//75
f 2//75 3//75 5//77
f 3//78 1//79 6//78
f 1//76 4//76 7//80
f 8//77 5//77 3//75
f 9//79 6//78 1//79
f 3//78 6//78 8//81
f 10//80 7//80 4//76
f 1//79 7//82 9//79
f 5//77 8//77 11//83
f 12//81 8//81 6//78
f 7//48 10//48 13//48
f 14//82 9//79 7//82
f 15//83 11//83 8//77
f 8//81 12//81 15//84
f 16//48 13//48 10//48
f 7//48 13//48 14//48
f 11//83 15//83 17//85
f 18//84 15//84 12//81
f 16//86 19//87 13//86
f 20//48 14//48 13//48
f 21//85 17//85 15//83
f 15//84 18//84 21//88
f 22//87 13//86 19//87
f 13//89 22//90 20//89
f 17//85 21//85 23//91
f 24//88 21//88 18//84
f 19//87 25//92 22//87
f 26//90 20//89 22//90
f 27//91 23//91 21//85
f 21//88 24//88 27//93
f 28//92 22//87 25//92
f 22//90 28//94 26//90
f 23//91 27//91 29//95
f 30//93 27//93 24//88
f 28//92 25//92 31//96
f 32//94 26//90 28//94
f 33//95 29//95 27//91
f 27//93 30//93 33//97
f 34//96 31//96 25//92
f 28//94 31//98 32//94
f 29//95 33//95 35//99
f 36//97 33//97 30//93
f 31//96 34//96 37//100
f 38//98 32//94 31//98
f 39//99 35//99 33//95
f 36//97 40//101 33//97
f 41//100 37//100 34//96
f 31//98 37//102 38//98
f 35//99 39//99 42//103
f 39//101 33//97 40//101
f 41//104 43//105 37//104
f 44//102 38//98 37//102
f 45//103 42//103 39//99
f 39//101 40//101 45//106
f 46//105 37//104 43//105
f 37//107 46//108 44//107
f 45//103 47//109 42//103
f 48//106 45//106 40//101
f 43//105 49//110 46//105
f 50//108 44//107 46//108
f 51//109 42//103 47//109
f 47//111 45//106 52//111
f 48//106 52//111 45//106
f 53//110 46//105 49//110
f 46//108 53//112 50//108
f 47//109 54//113 51//109
f 52//111 55//114 47//111
f 53//110 49//110 56//115
f 57//112 50//108 53//112
f 58//113 51//109 54//113
f 54//114 47//111 55//114
f 59//115 56//115 49//110
f 56//116 60//116 53//112
f 57//112 53//112 60//116
f 54//113 61//117 58//113
f 54//114 55//114 61//118
f 56//115 59//115 62//119
f 56//116 62//120 60//116
f 63//117 58//113 61//117
f 64//118 61//118 55//114
f 65//119 62//119 59//115
f 66//120 60//116 62//120
f 61//117 67//10 63//117
f 64//118 68//10 61//118
f 62//119 65//119 69//121
f 62//120 69//122 66//120
f 70//10 63//117 67//10
f 67//10 61//118 68//10
f 71//121 69//121 65//119
f 72//122 66//120 69//122
f 70//123 67//123 73//123
f 68//124 74//124 67//124
f 69//121 71//121 75//125
f 72//122 69//122 76//126
f 77//123 73//123 67//123
f 77//124 67//124 74//124
f 78//125 75//125 71//121
f 75//126 76//126 69//122
f 77//10 74//10 73//10
f 75//125 78//125 79//48
f 76//126 75//126 80//48
f 81//10 73//10 74//10
f 82//48 79//48 78//125
f 79//48 80//48 75//126
f 82//127 83//128 79//127
f 79//129 84//130 80//129
f 84//128 79//127 83//128
f 85//130 80//129 84//130
f 83//128 86//131 84//128
f 84//130 87//132 85//130
f 87//131 84//128 86//131
f 88//132 85//130 87//132
f 87//131 86//131 89//48
f 88//132 87//132 90//48
f 91//48 89//48 86//131
f 89//48 90//48 87//132
f 89//48 91//48 92//133
f 90//48 89//48 93//134
f 94//133 92//133 91//48
f 92//134 93//134 89//48
f 92//133 94//133 95//135
f 92//134 95//136 93//134
f 96//135 95//135 94//133
f 97//136 93//134 95//136
f 95//135 96//135 98//137
f 95//136 98//138 97//136
f 99//137 98//137 96//135
f 100//138 97//136 98//138
f 98//48 99//48 101//139
f 100//48 98//48 102//140
f 103//139 101//139 99//48
f 101//140 102//140 98//48
f 101//139 103//139 104//141
f 102//140 101//140 105//142
f 106//141 104//141 103//139
f 104//142 105//142 101//140
f 104//141 106//141 107//143
f 104//142 107//144 105//142
f 108//143 107//143 106//141
f 109//144 105//142 107//144
f 107//143 108//143 110//145
f 107//144 110//146 109//144
f 111//145 110//145 108//143
f 112//146 109//144 110//146
f 110//145 111//145 113//123
f 110//146 113//124 112//146
f 114//123 113//123 111//145
f 115//124 112//146 113//124
f 114//48 116//48 113//48
f 115//48 113//48 116//48
