# SSTK version 0.8.0
# 51
mtllib original-51.mtl
o RT_11_TR1/RT_11_TR/mesh40/mesh40-geometry#mesh40-geometry
v 0.555396 0.371342 0.308194
v 0.588599 0.269807 0.308194
v 0.555396 0.269807 0.308194
v 0.690133 0.371342 0.308194
v 0.555396 0.269807 0.313522
v 0.692758 0.373967 0.311533
v 0.690133 0.214312 0.308194
v 0.588599 0.269807 0.313522
v 0.555396 0.373967 0.311533
v 0.588599 0.214312 0.308194
v 0.588599 0.214312 0.313522
v 0.692758 0.373967 0.327887
v 0.692758 0.214312 0.311533
v 0.555396 0.214312 0.313522
v 0.555396 0.373967 0.327887
v 0.691335 0.372544 0.329323
v 0.692758 0.214312 0.327887
v 0.555396 0.372544 0.329323
v 0.555396 0.369531 0.329387
v 0.691335 0.214312 0.329323
v 0.688323 0.369531 0.329387
v 0.688323 0.214312 0.329387
v 0.555396 0.364573 0.330564
v 0.683364 0.364573 0.330564
v 0.683364 0.214312 0.330564
v 0.555396 0.360097 0.332733
v 0.678889 0.360097 0.332733
v 0.678889 0.214312 0.332733
v 0.677701 0.358909 0.333617
v 0.555396 0.358909 0.333617
v 0.677701 0.214312 0.333617
v 0.555396 0.357809 0.334008
v 0.676601 0.214312 0.334008
v 0.676601 0.357809 0.334008
v 0.555396 0.356668 0.333761
v 0.675460 0.214312 0.333761
v 0.675460 0.356668 0.333761
v 0.555396 0.355829 0.332951
v 0.674620 0.214312 0.332951
v 0.674620 0.355829 0.332951
v 0.674334 0.355542 0.331819
v 0.674334 0.214312 0.331819
v 0.555396 0.355542 0.331819
v 0.674311 0.355519 0.330338
v 0.674311 0.214312 0.330338
v 0.555396 0.355519 0.330338
v 0.672175 0.353383 0.330338
v 0.672175 0.214312 0.330338
v 0.555396 0.353383 0.330338
v 0.671744 0.352952 0.331375
v 0.555396 0.352952 0.331375
v 0.671744 0.214312 0.331375
v 0.671036 0.352244 0.332235
v 0.555396 0.352244 0.332235
v 0.671036 0.214312 0.332235
v 0.555396 0.350834 0.333060
v 0.669626 0.214312 0.333060
v 0.669626 0.350834 0.333060
v 0.555396 0.349381 0.333213
v 0.668173 0.214312 0.333213
v 0.668173 0.349381 0.333213
v 0.668150 0.349359 0.334354
v 0.555396 0.349359 0.334354
v 0.668150 0.214312 0.334354
v 0.667097 0.348306 0.335463
v 0.555396 0.348306 0.335463
v 0.667097 0.214312 0.335463
v 0.555396 0.290062 0.335463
v 0.608854 0.214312 0.335463
v 0.608854 0.290062 0.335463
v 0.607835 0.289044 0.334396
v 0.607835 0.214312 0.334396
v 0.555396 0.289044 0.334396
v 0.607761 0.288970 0.330384
v 0.607761 0.214312 0.330384
v 0.555396 0.288970 0.330384
v 0.606759 0.287968 0.329514
v 0.606759 0.214312 0.329514
v 0.555396 0.287968 0.329514
v 0.603141 0.284350 0.329514
v 0.603141 0.214312 0.329514
v 0.555396 0.284350 0.329514
v 0.602647 0.283856 0.331742
v 0.555396 0.283856 0.331742
v 0.602647 0.214312 0.331742
v 0.601076 0.282285 0.333397
v 0.555396 0.282285 0.333397
v 0.601076 0.214312 0.333397
v 0.555396 0.280086 0.334006
v 0.598878 0.214312 0.334006
v 0.598878 0.280086 0.334006
v 0.555396 0.277887 0.333397
v 0.596679 0.214312 0.333397
v 0.596679 0.277887 0.333397
v 0.595108 0.276317 0.331742
v 0.595108 0.214312 0.331742
v 0.555396 0.276317 0.331742
v 0.594614 0.275823 0.329514
v 0.594614 0.214312 0.329514
v 0.555396 0.275823 0.329514
v 0.593006 0.274214 0.329514
v 0.593006 0.214312 0.329514
v 0.555396 0.274214 0.329514
v 0.591661 0.272870 0.329129
v 0.591661 0.214312 0.329129
v 0.555396 0.272870 0.329129
v 0.590705 0.271913 0.328116
v 0.590705 0.214312 0.328116
v 0.555396 0.271913 0.328116
v 0.590340 0.271549 0.326695
v 0.590340 0.214312 0.326695
v 0.555396 0.271549 0.326695
v 0.590340 0.271549 0.320843
v 0.590340 0.214312 0.320843
v 0.555396 0.271549 0.320843
v 0.555396 0.214312 0.320843
vt 0.504805 0.699887
vt 0.446627 0.680863
vt 0.446627 0.699887
vt 0.504805 0.622684
vt 0.506309 0.62118
vt 0.33834 0.39029
vt 0.280161 0.422088
vt 0.33834 0.480267
vt 0.506309 0.699887
vt 0.339844 0.481771
vt 0.280161 0.39029
vt 0.261137 0.422088
vt 0.339844 0.39029
vt 0.261137 0.39029
vt 0.505494 0.621996
vt 0.505494 0.699887
vt 0.339028 0.480955
vt 0.503768 0.699887
vt 0.339028 0.39029
vt 0.503768 0.623722
vt 0.337302 0.39029
vt 0.500927 0.699887
vt 0.337302 0.479229
vt 0.500927 0.626563
vt 0.334461 0.39029
vt 0.498362 0.699887
vt 0.334461 0.476388
vt 0.498362 0.629127
vt 0.331897 0.39029
vt 0.497681 0.629808
vt 0.331897 0.473824
vt 0.497681 0.699887
vt 0.331216 0.39029
vt 0.331216 0.473143
vt 0.497051 0.699887
vt 0.330586 0.39029
vt 0.497051 0.630438
vt 0.330586 0.472513
vt 0.496397 0.699887
vt 0.329932 0.39029
vt 0.496397 0.631092
vt 0.329932 0.471859
vt 0.495916 0.699887
vt 0.329451 0.39029
vt 0.495916 0.631573
vt 0.329451 0.471378
vt 0.495752 0.631737
vt 0.329287 0.39029
vt 0.495752 0.699887
vt 0.329287 0.471214
vt 0.495739 0.631751
vt 0.329274 0.39029
vt 0.495739 0.699887
vt 0.329274 0.471201
vt 0.494515 0.632974
vt 0.32805 0.39029
vt 0.494515 0.699887
vt 0.32805 0.469977
vt 0.494268 0.633221
vt 0.327803 0.46973
vt 0.494268 0.699887
vt 0.327803 0.39029
vt 0.493862 0.633627
vt 0.327397 0.469324
vt 0.493862 0.699887
vt 0.327397 0.39029
vt 0.493055 0.699887
vt 0.326589 0.39029
vt 0.493055 0.634435
vt 0.326589 0.468516
vt 0.492222 0.699887
vt 0.325757 0.39029
vt 0.492222 0.635267
vt 0.325757 0.467684
vt 0.492209 0.63528
vt 0.325744 0.467671
vt 0.492209 0.699887
vt 0.325744 0.39029
vt 0.491606 0.635884
vt 0.32514 0.467067
vt 0.491606 0.699887
vt 0.32514 0.39029
vt 0.458233 0.699887
vt 0.291768 0.39029
vt 0.458233 0.669257
vt 0.291768 0.433695
vt 0.457649 0.66984
vt 0.291184 0.39029
vt 0.457649 0.699887
vt 0.291184 0.433111
vt 0.457607 0.669883
vt 0.291141 0.39029
vt 0.457607 0.699887
vt 0.291141 0.433068
vt 0.457033 0.670457
vt 0.290567 0.39029
vt 0.457033 0.699887
vt 0.290567 0.432494
vt 0.454959 0.67253
vt 0.288494 0.39029
vt 0.454959 0.699887
vt 0.288494 0.430421
vt 0.454676 0.672813
vt 0.288211 0.430138
vt 0.454676 0.699887
vt 0.288211 0.39029
vt 0.453776 0.673713
vt 0.287311 0.429238
vt 0.453776 0.699887
vt 0.287311 0.39029
vt 0.452517 0.699887
vt 0.286051 0.39029
vt 0.452517 0.674973
vt 0.286051 0.427978
vt 0.451257 0.699887
vt 0.284791 0.39029
vt 0.451257 0.676233
vt 0.284791 0.426718
vt 0.450357 0.677133
vt 0.283891 0.39029
vt 0.450357 0.699887
vt 0.283891 0.425818
vt 0.450074 0.677416
vt 0.283608 0.39029
vt 0.450074 0.699887
vt 0.283608 0.425535
vt 0.449152 0.678337
vt 0.282687 0.39029
vt 0.449152 0.699887
vt 0.282687 0.424614
vt 0.448382 0.679108
vt 0.281916 0.39029
vt 0.448382 0.699887
vt 0.281916 0.423843
vt 0.447833 0.679656
vt 0.281368 0.39029
vt 0.447833 0.699887
vt 0.281368 0.423295
vt 0.447625 0.679865
vt 0.281159 0.39029
vt 0.447625 0.699887
vt 0.281159 0.423086
vt 0.261137 0.423086
vn 0 0.4370191077984243 -0.8994522218656582
vn 0 0 -1
vn 0 -1 0
vn 0 0.9450278200270291 -0.326989937727388
vn 0.43701910779842407 0 -0.8994522218656583
vn 0.9450278200270291 0 -0.32698993772738827
vn -1 0 0
vn 0 0.9247352064258889 0.38061108496268037
vn 0.9247352064258888 0 0.3806110849626801
vn 0 0.3945580138085442 0.9188710321581898
vn 0.39455801380854444 0 0.9188710321581897
vn 0 0.12685097270896734 0.9919217865954901
vn 0.12685097270896753 0 0.9919217865954899
vn 0 0.3355149569785972 0.9420348792075854
vn 0.3355149569785974 0 0.9420348792075853
vn 0 0.5187288783160751 0.8549387994476252
vn 0.5187288783160753 0 0.8549387994476251
vn 0 0.4712621119971034 0.8819932096087981
vn 0.4712621119971036 0 0.881993209608798
vn 0 0.06444700844094726 0.9979211307027286
vn 0.06444700844094749 0 0.9979211307027286
vn 0 -0.47094918221003856 0.8821603413074609
vn -0.47094918221003834 0 0.882160341307461
vn 0 -0.8650370308675495 0.5017080179026983
vn -0.8650370308675494 0 0.5017080179026985
vn 0 -0.9913292929170314 0.13140103882625306
vn -0.9913292929170314 0 0.13140103882625329
vn 0 -0.9998810892883854 0.015421001377079841
vn -0.9998810892883854 0 0.015421001377080064
vn 0 0 1
vn 0 0.9233742208355901 0.3839010918143722
vn 0 0.8569058686513361 0.5154729209870282
vn 0.8569058686513362 0 0.515472920987028
vn 0.9233742208355902 0 0.383901091814372
vn 0 0.6485230293281574 0.7611950344235239
vn 0.6485230293281576 0 0.7611950344235238
vn 0 0.3121370299436186 0.9500370911380125
vn 0.31213702994361886 0 0.9500370911380126
vn 0 0.10509798638728908 0.994461871193329
vn 0.1050979863872893 0 0.994461871193329
vn 0 0.9997994393469632 0.02002700880057077
vn 0 0.925002578416296 0.37996082682719345
vn 0.9250025784162961 0 0.37996082682719323
vn 0.9997994393469632 0 0.020027008800570546
vn 0 0.39462388950039334 0.9188427427125826
vn 0.39462388950039357 0 0.9188427427125825
vn 0 -0.3934158431496591 0.919360633461561
vn -0.3934158431496589 0 0.9193606334615612
vn 0 -0.9247981708250348 0.3804580702766992
vn -0.9247981708250347 0 0.3804580702766994
vn 0 -0.9059915435253358 0.4232957867267043
vn -0.905991543525336 0 0.42329578672670465
vn 0 -0.349985977212239 0.9367549390074194
vn -0.3499859772122388 0 0.9367549390074195
vn 0 0.9762715506789323 0.2165499003346639
vn 0 0.8829048588548674 0.46955192493532255
vn 0.8829048588548675 0 0.46955192493532233
vn 0.9762715506789323 0 0.21654990033466368
vn 0 0.5149989020261029 0.8571908369271735
vn 0.5149989020261031 0 0.8571908369271733
vn 0 -0.5149989020261033 0.8571908369271732
vn -0.5149989020261031 0 0.8571908369271733
vn 0 -0.8829048588548676 0.4695519249353221
vn -0.8829048588548675 0 0.46955192493532233
vn 0 -0.9762715506789323 0.21654990033466345
vn -0.9762715506789323 0 0.21654990033466368
vn 0 -0.13917903303205995 0.990267235025102
vn -0.13917903303205972 0 0.990267235025102
vn 0 -0.519668857354816 0.8543677654824883
vn -0.5196688573548158 0 0.8543677654824884
vn 0 -0.8756788571430765 0.4828939212214162
vn -0.8756788571430764 0 0.48289392122141644
vn 0 -0.9921490536147441 0.12506100675817172
vn -0.9921490536147441 0 0.12506100675817194
vn 0 -0.4370191077984243 0.8994522218656582
vn 0 1 0
vn 0 -0.9450278200270291 0.326989937727388
vn -0.43701910779842407 0 0.8994522218656583
vn -0.9450278200270291 0 0.32698993772738827
vn 1 0 0
vn 0 -0.9247352064258889 -0.38061108496268037
vn -0.9247352064258888 0 -0.3806110849626801
vn 0 -0.3945580138085442 -0.9188710321581898
vn -0.39455801380854444 0 -0.9188710321581897
vn 0 -0.12685097270896734 -0.9919217865954901
vn -0.12685097270896753 0 -0.9919217865954899
vn 0 -0.3355149569785972 -0.9420348792075854
vn -0.3355149569785974 0 -0.9420348792075853
vn 0 -0.5187288783160751 -0.8549387994476252
vn -0.5187288783160753 0 -0.8549387994476251
vn 0 -0.4712621119971034 -0.8819932096087981
vn -0.4712621119971036 0 -0.881993209608798
vn 0 -0.06444700844094726 -0.9979211307027286
vn -0.06444700844094749 0 -0.9979211307027286
vn 0 0.47094918221003856 -0.8821603413074609
vn 0.47094918221003834 0 -0.882160341307461
vn 0 0.8650370308675495 -0.5017080179026983
vn 0.8650370308675494 0 -0.5017080179026985
vn 0 0.9913292929170314 -0.13140103882625306
vn 0.9913292929170314 0 -0.13140103882625329
vn 0 0.9998810892883854 -0.015421001377079841
vn 0.9998810892883854 0 -0.015421001377080064
vn 0 -0.9233742208355901 -0.3839010918143722
vn 0 -0.8569058686513361 -0.5154729209870282
vn -0.9233742208355902 0 -0.383901091814372
vn -0.8569058686513362 0 -0.515472920987028
vn 0 -0.6485230293281574 -0.7611950344235239
vn -0.6485230293281576 0 -0.7611950344235238
vn 0 -0.3121370299436186 -0.9500370911380125
vn -0.31213702994361886 0 -0.9500370911380126
vn 0 -0.10509798638728908 -0.994461871193329
vn -0.1050979863872893 0 -0.994461871193329
vn 0 -0.9997994393469632 -0.02002700880057077
vn 0 -0.925002578416296 -0.37996082682719345
vn -0.9997994393469632 0 -0.020027008800570546
vn -0.9250025784162961 0 -0.37996082682719323
vn 0 -0.39462388950039334 -0.9188427427125826
vn -0.39462388950039357 0 -0.9188427427125825
vn 0 0.3934158431496591 -0.919360633461561
vn 0.3934158431496589 0 -0.9193606334615612
vn 0 0.9247981708250348 -0.3804580702766992
vn 0.9247981708250347 0 -0.3804580702766994
vn 0 0.9059915435253358 -0.4232957867267043
vn 0.905991543525336 0 -0.42329578672670465
vn 0 0.349985977212239 -0.9367549390074194
vn 0.3499859772122388 0 -0.9367549390074195
vn 0 -0.9762715506789323 -0.2165499003346639
vn 0 -0.8829048588548674 -0.46955192493532255
vn -0.9762715506789323 0 -0.21654990033466368
vn -0.8829048588548675 0 -0.46955192493532233
vn 0 -0.5149989020261029 -0.8571908369271735
vn -0.5149989020261031 0 -0.8571908369271733
vn 0 0.5149989020261033 -0.8571908369271732
vn 0.5149989020261031 0 -0.8571908369271733
vn 0 0.8829048588548676 -0.4695519249353221
vn 0.8829048588548675 0 -0.46955192493532233
vn 0 0.9762715506789323 -0.21654990033466345
vn 0.9762715506789323 0 -0.21654990033466368
vn 0 0.13917903303205995 -0.990267235025102
vn 0.13917903303205972 0 -0.990267235025102
vn 0 0.519668857354816 -0.8543677654824883
vn 0.5196688573548158 0 -0.8543677654824884
vn 0 0.8756788571430765 -0.4828939212214162
vn 0.8756788571430764 0 -0.48289392122141644
vn 0 0.9921490536147441 -0.12506100675817172
vn 0.9921490536147441 0 -0.12506100675817194
usemtl material_0_0
f 1/1/1 2/2/2 3/3/2
f 2/2/2 1/1/1 4/4/1
f 2/2/3 5/3/3 3/3/3
f 1/1/1 6/5/4 4/4/1
f 7/6/5 2/7/2 4/8/5
f 5/3/3 2/2/3 8/2/3
f 6/5/4 1/1/1 9/9/4
f 6/10/6 7/6/5 4/8/5
f 2/7/2 7/6/5 10/11/2
f 10/11/7 8/7/7 2/7/7
f 11/11/2 5/12/2 8/7/2
f 9/9/4 12/5/8 6/5/4
f 7/6/5 6/10/6 13/13/6
f 8/7/7 10/11/7 11/11/7
f 5/12/2 11/11/2 14/14/2
f 12/5/8 9/9/4 15/9/8
f 12/10/9 13/13/6 6/10/6
f 15/9/8 16/15/10 12/5/8
f 13/13/6 12/10/9 17/13/9
f 16/15/10 15/9/8 18/16/10
f 16/17/11 17/13/9 12/10/9
f 19/18/12 16/15/10 18/16/10
f 17/13/9 16/17/11 20/19/11
f 16/15/10 19/18/12 21/20/12
f 16/17/11 22/21/13 20/19/11
f 23/22/14 21/20/12 19/18/12
f 22/21/13 16/17/11 21/23/13
f 21/20/12 23/22/14 24/24/14
f 21/23/13 25/25/15 22/21/13
f 26/26/16 24/24/14 23/22/14
f 25/25/15 21/23/13 24/27/15
f 24/24/14 26/26/16 27/28/16
f 24/27/15 28/29/17 25/25/15
f 26/26/16 29/30/18 27/28/16
f 28/29/17 24/27/15 27/31/17
f 29/30/18 26/26/16 30/32/18
f 31/33/19 27/31/17 29/34/19
f 27/31/17 31/33/19 28/29/17
f 32/35/20 29/30/18 30/32/18
f 29/34/19 33/36/21 31/33/19
f 29/30/18 32/35/20 34/37/20
f 33/36/21 29/34/19 34/38/21
f 35/39/22 34/37/20 32/35/20
f 34/38/21 36/40/23 33/36/21
f 34/37/20 35/39/22 37/41/22
f 36/40/23 34/38/21 37/42/23
f 38/43/24 37/41/22 35/39/22
f 37/42/23 39/44/25 36/40/23
f 37/41/22 38/43/24 40/45/24
f 39/44/25 37/42/23 40/46/25
f 38/43/24 41/47/26 40/45/24
f 40/46/25 42/48/27 39/44/25
f 41/47/26 38/43/24 43/49/26
f 42/48/27 40/46/25 41/50/27
f 43/49/26 44/51/28 41/47/26
f 41/50/27 45/52/29 42/48/27
f 44/51/28 43/49/26 46/53/28
f 45/52/29 41/50/27 44/54/29
f 46/53/30 47/55/30 44/51/30
f 44/54/30 48/56/30 45/52/30
f 47/55/30 46/53/30 49/57/30
f 48/56/30 44/54/30 47/58/30
f 49/57/31 50/59/32 47/55/31
f 50/60/33 48/56/34 47/58/34
f 50/59/32 49/57/31 51/61/32
f 48/56/34 50/60/33 52/62/33
f 51/61/32 53/63/35 50/59/32
f 53/64/36 52/62/33 50/60/33
f 53/63/35 51/61/32 54/65/35
f 52/62/33 53/64/36 55/66/36
f 56/67/37 53/63/35 54/65/35
f 53/64/36 57/68/38 55/66/36
f 53/63/35 56/67/37 58/69/37
f 57/68/38 53/64/36 58/70/38
f 59/71/39 58/69/37 56/67/37
f 58/70/38 60/72/40 57/68/38
f 58/69/37 59/71/39 61/73/39
f 60/72/40 58/70/38 61/74/40
f 59/71/41 62/75/42 61/73/41
f 62/76/43 60/72/44 61/74/44
f 62/75/42 59/71/41 63/77/42
f 60/72/44 62/76/43 64/78/43
f 63/77/42 65/79/45 62/75/42
f 65/80/46 64/78/43 62/76/43
f 65/79/45 63/77/42 66/81/45
f 64/78/43 65/80/46 67/82/46
f 68/83/47 65/79/45 66/81/45
f 65/80/46 69/84/48 67/82/46
f 65/79/45 68/83/47 70/85/47
f 69/84/48 65/80/46 70/86/48
f 68/83/47 71/87/49 70/85/47
f 70/86/48 72/88/50 69/84/48
f 71/87/49 68/83/47 73/89/49
f 72/88/50 70/86/48 71/90/50
f 73/89/49 74/91/51 71/87/49
f 71/90/50 75/92/52 72/88/50
f 74/91/51 73/89/49 76/93/51
f 75/92/52 71/90/50 74/94/52
f 76/93/51 77/95/53 74/91/51
f 74/94/52 78/96/54 75/92/52
f 77/95/53 76/93/51 79/97/53
f 78/96/54 74/94/52 77/98/54
f 79/97/53 80/99/30 77/95/53
f 77/98/54 81/100/30 78/96/54
f 80/99/30 79/97/53 82/101/30
f 81/100/30 77/98/54 80/102/30
f 82/101/55 83/103/56 80/99/55
f 83/104/57 81/100/58 80/102/58
f 83/103/56 82/101/55 84/105/56
f 81/100/58 83/104/57 85/106/57
f 84/105/56 86/107/59 83/103/56
f 86/108/60 85/106/57 83/104/57
f 86/107/59 84/105/56 87/109/59
f 85/106/57 86/108/60 88/110/60
f 89/111/30 86/107/59 87/109/59
f 86/108/60 90/112/30 88/110/60
f 86/107/59 89/111/30 91/113/30
f 90/112/30 86/108/60 91/114/30
f 92/115/61 91/113/30 89/111/30
f 91/114/30 93/116/62 90/112/30
f 91/113/30 92/115/61 94/117/61
f 93/116/62 91/114/30 94/118/62
f 92/115/61 95/119/63 94/117/61
f 94/118/62 96/120/64 93/116/62
f 95/119/63 92/115/61 97/121/63
f 96/120/64 94/118/62 95/122/64
f 97/121/63 98/123/65 95/119/63
f 95/122/64 99/124/66 96/120/64
f 98/123/65 97/121/63 100/125/65
f 99/124/66 95/122/64 98/126/66
f 100/125/30 101/127/67 98/123/30
f 98/126/30 102/128/68 99/124/30
f 101/127/67 100/125/30 103/129/67
f 102/128/68 98/126/30 101/130/68
f 103/129/67 104/131/69 101/127/67
f 101/130/68 105/132/70 102/128/68
f 104/131/69 103/129/67 106/133/69
f 105/132/70 101/130/68 104/134/70
f 106/133/69 107/135/71 104/131/69
f 104/134/70 108/136/72 105/132/70
f 107/135/71 106/133/69 109/137/71
f 108/136/72 104/134/70 107/138/72
f 109/137/71 110/139/73 107/135/71
f 107/138/72 111/140/74 108/136/72
f 110/139/73 109/137/71 112/141/73
f 111/140/74 107/138/72 110/142/74
f 112/141/73 113/139/3 110/139/73
f 110/142/74 114/140/7 111/140/74
f 113/139/3 112/141/73 115/141/3
f 114/140/7 110/142/74 113/142/7
f 116/14/30 113/142/30 115/143/30
f 113/142/30 116/14/30 114/140/30
usemtl material_1_0
f 3//30 2//30 1//75
f 4//75 1//75 2//30
f 3//76 5//76 2//76
f 4//75 6//77 1//75
f 4//78 2//30 7//78
f 8//76 2//76 5//76
f 9//77 1//75 6//77
f 4//78 7//78 6//79
f 10//30 7//78 2//30
f 2//80 8//80 10//80
f 8//30 5//30 11//30
f 6//77 12//81 9//77
f 13//79 6//79 7//78
f 11//80 10//80 8//80
f 14//30 11//30 5//30
f 15//81 9//77 12//81
f 6//79 13//79 12//82
f 12//81 16//83 15//81
f 17//82 12//82 13//79
f 18//83 15//81 16//83
f 12//82 17//82 16//84
f 18//83 16//83 19//85
f 20//84 16//84 17//82
f 21//85 19//85 16//83
f 20//84 22//86 16//84
f 19//85 21//85 23//87
f 21//86 16//84 22//86
f 24//87 23//87 21//85
f 22//86 25//88 21//86
f 23//87 24//87 26//89
f 24//88 21//86 25//88
f 27//89 26//89 24//87
f 25//88 28//90 24//88
f 27//89 29//91 26//89
f 27//90 24//88 28//90
f 30//91 26//89 29//91
f 29//92 27//90 31//92
f 28//90 31//92 27//90
f 30//91 29//91 32//93
f 31//92 33//94 29//92
f 34//93 32//93 29//91
f 34//94 29//92 33//94
f 32//93 34//93 35//95
f 33//94 36//96 34//94
f 37//95 35//95 34//93
f 37//96 34//94 36//96
f 35//95 37//95 38//97
f 36//96 39//98 37//96
f 40//97 38//97 37//95
f 40//98 37//96 39//98
f 40//97 41//99 38//97
f 39//98 42//100 40//98
f 43//99 38//97 41//99
f 41//100 40//98 42//100
f 41//99 44//101 43//99
f 42//100 45//102 41//100
f 46//101 43//99 44//101
f 44//102 41//100 45//102
f 44//2 47//2 46//2
f 45//2 48//2 44//2
f 49//2 46//2 47//2
f 47//2 44//2 48//2
f 47//103 50//104 49//103
f 47//105 48//105 50//106
f 51//104 49//103 50//104
f 52//106 50//106 48//105
f 50//104 53//107 51//104
f 50//106 52//106 53//108
f 54//107 51//104 53//107
f 55//108 53//108 52//106
f 54//107 53//107 56//109
f 55//108 57//110 53//108
f 58//109 56//109 53//107
f 58//110 53//108 57//110
f 56//109 58//109 59//111
f 57//110 60//112 58//110
f 61//111 59//111 58//109
f 61//112 58//110 60//112
f 61//113 62//114 59//113
f 61//115 60//115 62//116
f 63//114 59//113 62//114
f 64//116 62//116 60//115
f 62//114 65//117 63//114
f 62//116 64//116 65//118
f 66//117 63//114 65//117
f 67//118 65//118 64//116
f 66//117 65//117 68//119
f 67//118 69//120 65//118
f 70//119 68//119 65//117
f 70//120 65//118 69//120
f 70//119 71//121 68//119
f 69//120 72//122 70//120
f 73//121 68//119 71//121
f 71//122 70//120 72//122
f 71//121 74//123 73//121
f 72//122 75//124 71//122
f 76//123 73//121 74//123
f 74//124 71//122 75//124
f 74//123 77//125 76//123
f 75//124 78//126 74//124
f 79//125 76//123 77//125
f 77//126 74//124 78//126
f 77//125 80//2 79//125
f 78//126 81//2 77//126
f 82//2 79//125 80//2
f 80//2 77//126 81//2
f 80//127 83//128 82//127
f 80//129 81//129 83//130
f 84//128 82//127 83//128
f 85//130 83//130 81//129
f 83//128 86//131 84//128
f 83//130 85//130 86//132
f 87//131 84//128 86//131
f 88//132 86//132 85//130
f 87//131 86//131 89//2
f 88//132 90//2 86//132
f 91//2 89//2 86//131
f 91//2 86//132 90//2
f 89//2 91//2 92//133
f 90//2 93//134 91//2
f 94//133 92//133 91//2
f 94//134 91//2 93//134
f 94//133 95//135 92//133
f 93//134 96//136 94//134
f 97//135 92//133 95//135
f 95//136 94//134 96//136
f 95//135 98//137 97//135
f 96//136 99//138 95//136
f 100//137 97//135 98//137
f 98//138 95//136 99//138
f 98//2 101//139 100//2
f 99//2 102//140 98//2
f 103//139 100//2 101//139
f 101//140 98//2 102//140
f 101//139 104//141 103//139
f 102//140 105//142 101//140
f 106//141 103//139 104//141
f 104//142 101//140 105//142
f 104//141 107//143 106//141
f 105//142 108//144 104//142
f 109//143 106//141 107//143
f 107//144 104//142 108//144
f 107//143 110//145 109//143
f 108//144 111//146 107//144
f 112//145 109//143 110//145
f 110//146 107//144 111//146
f 110//145 113//76 112//145
f 111//146 114//80 110//146
f 115//76 112//145 113//76
f 113//80 110//146 114//80
f 115//2 113//2 116//2
f 114//2 116//2 113//2
