# SSTK version 0.8.0
# 49
mtllib original-49.mtl
o RT_21_TC1/RT_21_TC/mesh37/mesh37-geometry#mesh37-geometry
v 0.494798 0.508764 0.445484
v 0.147168 0.506409 0.443187
v 0.494798 0.506409 0.443187
v 0.147168 0.508764 0.445484
v 0.494798 0.505377 0.441764
v 0.494798 0.510242 0.446249
v 0.147168 0.505377 0.441764
v 0.147168 0.510242 0.446249
v 0.494798 0.504610 0.440232
v 0.494798 0.511830 0.446686
v 0.147168 0.504610 0.440232
v 0.147168 0.511830 0.446686
v 0.494798 0.504606 0.434275
v 0.147168 0.511832 0.448995
v 0.147168 0.504606 0.434275
v 0.494798 0.511832 0.448995
v 0.147168 0.484826 0.434827
v 0.147168 0.575856 0.448995
v 0.494798 0.484826 0.434827
v 0.494798 0.575856 0.448995
v 0.494798 0.475087 0.438884
v 0.494798 0.576294 0.448940
v 0.147168 0.475087 0.438884
v 0.147168 0.576294 0.448940
v 0.147168 0.461945 0.440973
v 0.494798 0.576513 0.448830
v 0.494798 0.461945 0.440973
v 0.147168 0.576513 0.448830
v 0.147168 0.460413 0.441522
v 0.147168 0.576786 0.448556
v 0.494798 0.460413 0.441522
v 0.494798 0.576786 0.448556
v 0.147168 0.459757 0.441960
v 0.147168 0.576896 0.448392
v 0.494798 0.459757 0.441960
v 0.494798 0.576896 0.448392
v 0.494798 0.459210 0.442508
v 0.147168 0.577060 0.448009
v 0.147168 0.459210 0.442508
v 0.494798 0.577060 0.448009
v 0.494798 0.458718 0.443220
v 0.147168 0.577058 0.445491
v 0.147168 0.458718 0.443220
v 0.494798 0.577058 0.445491
v 0.494798 0.458062 0.444698
v 0.494798 0.578973 0.445107
v 0.147168 0.458062 0.444698
v 0.147168 0.578973 0.445107
v 0.494798 0.458064 0.447161
v 0.147168 0.580724 0.444394
v 0.147168 0.458064 0.447161
v 0.494798 0.580724 0.444394
v 0.494798 0.457462 0.448365
v 0.147168 0.582311 0.443353
v 0.147168 0.457462 0.448365
v 0.494798 0.582311 0.443353
v 0.147168 0.457079 0.448639
v 0.147168 0.584827 0.440505
v 0.494798 0.457079 0.448639
v 0.494798 0.584827 0.440505
v 0.147168 0.456259 0.449023
v 0.147168 0.586247 0.436891
v 0.494798 0.456259 0.449023
v 0.494798 0.586247 0.436891
v 0.147168 0.451830 0.449023
v 0.147168 0.586238 0.423919
v 0.494798 0.451830 0.449023
v 0.494798 0.586238 0.423919
v 0.147168 0.586073 0.423263
v 0.494798 0.586073 0.423263
v 0.147168 0.585799 0.422661
v 0.494798 0.585799 0.422661
v 0.147168 0.584814 0.421731
v 0.494798 0.584814 0.421731
v 0.147168 0.584211 0.421403
v 0.494798 0.584211 0.421403
v 0.494798 0.583500 0.421184
v 0.147168 0.583500 0.421184
v 0.494798 0.504597 0.421184
v 0.147168 0.504597 0.421184
v 0.147168 0.504600 0.425727
v 0.494798 0.504600 0.425727
v 0.494798 0.451830 0.425727
v 0.147168 0.451830 0.425727
vt 0.786643 -0.393576
vt 0.787966 -0.582384
vt 0.787966 -0.393576
vt 0.786643 -0.582384
vt 0.788546 -0.393576
vt 0.785812 -0.393576
vt 0.788546 -0.582384
vt 0.785812 -0.582384
vt 0.788977 -0.393576
vt 0.78492 -0.393576
vt 0.788977 -0.582384
vt 0.78492 -0.582384
vt 0.788979 -0.393576
vt 0.784919 -0.582384
vt 0.788979 -0.582384
vt 0.784919 -0.393576
vt 0.506185 0.560254
vt 0.694993 0.571368
vt 0.506185 0.571368
vt 0.748945 -0.582384
vt 0.694993 0.560254
vt 0.748945 -0.393576
vt 0.694993 0.554782
vt 0.748699 -0.393576
vt 0.506185 0.554782
vt 0.748699 -0.582384
vt 0.506185 0.547398
vt 0.748576 -0.393576
vt 0.694993 0.547398
vt 0.748576 -0.582384
vt 0.506185 0.546537
vt 0.748422 -0.582384
vt 0.694993 0.546537
vt 0.748422 -0.393576
vt 0.506185 0.546168
vt 0.74836 -0.582384
vt 0.694993 0.546168
vt 0.74836 -0.393576
vt 0.694993 0.545861
vt 0.748268 -0.582384
vt 0.506185 0.545861
vt 0.748268 -0.393576
vt 0.694993 0.545584
vt 0.748269 -0.582384
vt 0.506185 0.545584
vt 0.748269 -0.393576
vt 0.694993 0.545216
vt 0.747193 -0.393576
vt 0.506185 0.545216
vt 0.747193 -0.582384
vt 0.694993 0.545217
vt 0.746209 -0.582384
vt 0.506185 0.545217
vt 0.746209 -0.393576
vt 0.694993 0.544879
vt 0.745318 -0.582384
vt 0.506185 0.544879
vt 0.745318 -0.393576
vt 0.506185 0.544664
vt 0.743904 -0.582384
vt 0.694993 0.544664
vt 0.743904 -0.393576
vt 0.506185 0.544202
vt 0.743106 -0.582384
vt 0.694993 0.544202
vt 0.743106 -0.393576
vt 0.506185 0.541714
vt 0.743111 -0.582384
vt 0.694993 0.541714
vt 0.743111 -0.393576
vt 0.743204 -0.582384
vt 0.743204 -0.393576
vt 0.743358 -0.582384
vt 0.743358 -0.393576
vt 0.743912 -0.582384
vt 0.743912 -0.393576
vt 0.74425 -0.582384
vt 0.74425 -0.393576
vt 0.74465 -0.393576
vt 0.74465 -0.582384
vt 0.788984 -0.393576
vt 0.788984 -0.582384
vt 0.788985 -0.376542
vt 0.788983 -0.564269
vt 0.788985 -0.564269
vt 0.788983 -0.376542
vt 0.506185 0.571365
vt 0.694993 0.571365
vn 0 -0.5853538243945873 0.8107779599043322
vn 0 -0.7566185965578511 0.6538564822213111
vn 0 -0.854652488923909 0.5192004653081195
vn 0 -0.3644843634940384 0.9312095085255229
vn 0 -0.9730912175872722 0.23042022969895729
vn 0 -0.26526885717669835 0.9641744828671667
vn 0 -0.9999997591994255 0.0006939748488901954
vn 0 -0.999999750093588 0.0007069743713223053
vn 0 0.20974418551829815 0.9777562971626752
vn 0 0.027922008117380846 0.9996101047221827
vn 0 0 1
vn 0 0.0624862385857252 0.9980458255949012
vn 0 0.2726762096823346 0.9621058593903664
vn 0 0.29045751239765066 0.9568878897194637
vn 0 0.2480704190177305 0.9687420023971126
vn 0 0.5852869980329639 0.8108262020516861
vn 0 0.4495138436715105 0.8932733648484459
vn 0 0.7737931699689519 0.633438339626992
vn 0 0.634538811895499 0.7728909989113916
vn 0 0.8796176182386151 0.47568145400491074
vn 0 0.76820720432445 0.640201289614456
vn 0 0.979718441162227 0.20037908086089193
vn 0 0.87217025578463 0.4892024580115817
vn 0 0.9999997591994255 -0.0006939748488901954
vn 0 0.9783608393346664 0.2069059401186124
vn 0 0.2881965548281342 0.9575712745196538
vn 0 0.19680289879793875 0.9804430728118426
vn 0 0.9734099048232001 0.22907020144944246
vn 0 0.4650149681912485 0.8853028178866776
vn 0 0.7607127598179287 0.6490886665550326
vn 0 0.6548516004604211 0.7557574884673157
vn 0 0.504797840780406 0.8632375918270935
vn 0 0.8530204970978706 0.5218774104432014
vn 0 0.4235263426866581 0.9058837878284739
vn 0 0.982578397734028 0.18584857359267112
vn 0 0.9924230732852252 -0.12286758568112487
vn 0 0.9439209613126734 -0.33017149906458976
vn 0 0.8133139045405272 -0.5818251392652626
vn 0 0.5870538164288966 -0.8095479087838269
vn 0 0.3877988659071029 -0.9217440206484472
vn 0 0.1483582924115475 -0.9889336767815776
vn 0 0 -1
vn 0 0.7566185965578511 -0.6538564822213111
vn 0 0.5853538243945873 -0.8107779599043322
vn 0 0.854652488923909 -0.5192004653081195
vn 0 0.3644843634940384 -0.9312095085255229
vn 0 0.9730912175872722 -0.23042022969895729
vn 0 0.26526885717669835 -0.9641744828671667
vn 0 0.999999750093588 -0.0007069743713223053
vn 0 -0.027922008117380846 -0.9996101047221827
vn 0 -0.20974418551829815 -0.9777562971626752
vn 0 -0.0624862385857252 -0.9980458255949012
vn 0 -0.2726762096823346 -0.9621058593903664
vn 0 -0.29045751239765066 -0.9568878897194637
vn 0 -0.2480704190177305 -0.9687420023971126
vn 0 -0.5852869980329639 -0.8108262020516861
vn 0 -0.4495138436715105 -0.8932733648484459
vn 0 -0.7737931699689519 -0.633438339626992
vn 0 -0.634538811895499 -0.7728909989113916
vn 0 -0.8796176182386151 -0.47568145400491074
vn 0 -0.76820720432445 -0.640201289614456
vn 0 -0.979718441162227 -0.20037908086089193
vn 0 -0.87217025578463 -0.4892024580115817
vn 0 -0.9783608393346664 -0.2069059401186124
vn 0 -0.19680289879793875 -0.9804430728118426
vn 0 -0.2881965548281342 -0.9575712745196538
vn 0 -0.9734099048232001 -0.22907020144944246
vn 0 -0.4650149681912485 -0.8853028178866776
vn 0 -0.7607127598179287 -0.6490886665550326
vn 0 -0.6548516004604211 -0.7557574884673157
vn 0 -0.504797840780406 -0.8632375918270935
vn 0 -0.8530204970978706 -0.5218774104432014
vn 0 -0.4235263426866581 -0.9058837878284739
vn 0 -0.982578397734028 -0.18584857359267112
vn 0 -0.9924230732852252 0.12286758568112487
vn 0 -0.9439209613126734 0.33017149906458976
vn 0 -0.8133139045405272 0.5818251392652626
vn 0 -0.5870538164288966 0.8095479087838269
vn 0 -0.3877988659071029 0.9217440206484472
vn 0 -0.1483582924115475 0.9889336767815776
usemtl material_0_0
f 1/1/1 2/2/2 3/3/2
f 2/2/2 1/1/1 4/4/1
f 2/2/2 5/5/3 3/3/2
f 6/6/4 4/4/1 1/1/1
f 5/5/3 2/2/2 7/7/3
f 4/4/1 6/6/4 8/8/4
f 7/7/3 9/9/5 5/5/3
f 10/10/6 8/8/4 6/6/4
f 9/9/5 7/7/3 11/11/5
f 8/8/4 10/10/6 12/12/6
f 11/11/5 13/13/7 9/9/5
f 10/10/8 14/14/8 12/12/8
f 13/13/7 11/11/5 15/15/7
f 14/14/8 10/10/8 16/16/8
f 17/17/9 13/18/10 15/19/10
f 16/16/11 18/20/12 14/14/11
f 13/18/10 17/17/9 19/21/9
f 18/20/12 16/16/11 20/22/12
f 17/17/9 21/23/13 19/21/9
f 22/24/14 18/20/12 20/22/12
f 21/23/13 17/17/9 23/25/13
f 18/20/12 22/24/14 24/26/14
f 25/27/15 21/23/13 23/25/13
f 26/28/16 24/26/14 22/24/14
f 21/23/13 25/27/15 27/29/15
f 24/26/14 26/28/16 28/30/16
f 29/31/17 27/29/15 25/27/15
f 26/28/16 30/32/18 28/30/16
f 27/29/15 29/31/17 31/33/17
f 30/32/18 26/28/16 32/34/18
f 33/35/19 31/33/17 29/31/17
f 32/34/18 34/36/20 30/32/18
f 31/33/17 33/35/19 35/37/19
f 34/36/20 32/34/18 36/38/20
f 33/35/19 37/39/21 35/37/19
f 36/38/20 38/40/22 34/36/20
f 37/39/21 33/35/19 39/41/21
f 38/40/22 36/38/20 40/42/22
f 39/41/21 41/43/23 37/39/21
f 40/42/22 42/44/24 38/40/22
f 41/43/23 39/41/21 43/45/23
f 42/44/24 40/42/22 44/46/24
f 43/45/23 45/47/25 41/43/23
f 46/48/26 42/44/27 44/46/27
f 45/47/25 43/45/23 47/49/25
f 42/44/27 46/48/26 48/50/26
f 47/49/25 49/51/28 45/47/25
f 46/48/26 50/52/29 48/50/26
f 49/51/28 47/49/25 51/53/28
f 50/52/29 46/48/26 52/54/29
f 51/53/28 53/55/30 49/51/28
f 52/54/29 54/56/31 50/52/29
f 53/55/30 51/53/28 55/57/30
f 54/56/31 52/54/29 56/58/31
f 57/59/32 53/55/30 55/57/30
f 56/58/31 58/60/33 54/56/31
f 53/55/30 57/59/32 59/61/32
f 58/60/33 56/58/31 60/62/33
f 61/63/34 59/61/32 57/59/32
f 60/62/33 62/64/35 58/60/33
f 59/61/32 61/63/34 63/65/34
f 62/64/35 60/62/33 64/66/35
f 65/67/11 63/65/11 61/63/11
f 64/66/35 66/68/36 62/64/35
f 63/65/11 65/67/11 67/69/11
f 66/68/36 64/66/35 68/70/36
f 68/70/36 69/71/37 66/68/36
f 69/71/37 68/70/36 70/72/37
f 70/72/37 71/73/38 69/71/37
f 71/73/38 70/72/37 72/74/38
f 72/74/38 73/75/39 71/73/38
f 73/75/39 72/74/38 74/76/39
f 74/76/39 75/77/40 73/75/39
f 75/77/40 74/76/39 76/78/40
f 77/79/41 75/77/40 76/78/40
f 75/77/40 77/79/41 78/80/41
f 79/81/42 78/80/41 77/79/41
f 78/80/41 79/81/42 80/82/42
f 79/83/7 81/84/7 80/85/7
f 81/84/7 79/83/7 82/86/7
f 83/69/42 81/87/42 82/88/42
f 81/87/42 83/69/42 84/67/42
usemtl material_1_0
f 3//43 2//43 1//44
f 4//44 1//44 2//43
f 3//43 5//45 2//43
f 1//44 4//44 6//46
f 7//45 2//43 5//45
f 8//46 6//46 4//44
f 5//45 9//47 7//45
f 6//46 8//46 10//48
f 11//47 7//45 9//47
f 12//48 10//48 8//46
f 9//47 13//24 11//47
f 12//49 14//49 10//49
f 15//24 11//47 13//24
f 16//49 10//49 14//49
f 15//50 13//50 17//51
f 14//42 18//52 16//42
f 19//51 17//51 13//50
f 20//52 16//42 18//52
f 19//51 21//53 17//51
f 20//52 18//52 22//54
f 23//53 17//51 21//53
f 24//54 22//54 18//52
f 23//53 21//53 25//55
f 22//54 24//54 26//56
f 27//55 25//55 21//53
f 28//56 26//56 24//54
f 25//55 27//55 29//57
f 28//56 30//58 26//56
f 31//57 29//57 27//55
f 32//58 26//56 30//58
f 29//57 31//57 33//59
f 30//58 34//60 32//58
f 35//59 33//59 31//57
f 36//60 32//58 34//60
f 35//59 37//61 33//59
f 34//60 38//62 36//60
f 39//61 33//59 37//61
f 40//62 36//60 38//62
f 37//61 41//63 39//61
f 38//62 42//7 40//62
f 43//63 39//61 41//63
f 44//7 40//62 42//7
f 41//63 45//64 43//63
f 44//65 42//65 46//66
f 47//64 43//63 45//64
f 48//66 46//66 42//65
f 45//64 49//67 47//64
f 48//66 50//68 46//66
f 51//67 47//64 49//67
f 52//68 46//66 50//68
f 49//67 53//69 51//67
f 50//68 54//70 52//68
f 55//69 51//67 53//69
f 56//70 52//68 54//70
f 55//69 53//69 57//71
f 54//70 58//72 56//70
f 59//71 57//71 53//69
f 60//72 56//70 58//72
f 57//71 59//71 61//73
f 58//72 62//74 60//72
f 63//73 61//73 59//71
f 64//74 60//72 62//74
f 61//42 63//42 65//42
f 62//74 66//75 64//74
f 67//42 65//42 63//42
f 68//75 64//74 66//75
f 66//75 69//76 68//75
f 70//76 68//75 69//76
f 69//76 71//77 70//76
f 72//77 70//76 71//77
f 71//77 73//78 72//77
f 74//78 72//77 73//78
f 73//78 75//79 74//78
f 76//79 74//78 75//79
f 76//79 75//79 77//80
f 78//80 77//80 75//79
f 77//80 78//80 79//11
f 80//11 79//11 78//80
f 80//24 81//24 79//24
f 82//24 79//24 81//24
f 82//11 81//11 83//11
f 84//11 83//11 81//11
