# SSTK version 0.8.0
# 58
mtllib original-58.mtl
o DF_21_B2/DF_21_B/mesh23/mesh23-geometry#mesh23-geometry
v 0.457373 0.033485 0.360074
v -0.460332 0.033485 0.393445
v 0.457373 0.033485 0.393445
v -0.460332 0.033485 0.360074
v 0.457373 -0.077752 0.393445
v -0.460332 -0.077752 0.360074
v -0.460332 -0.077752 0.393445
v 0.457373 -0.077752 0.360074
vt -2.71481 -1.876448
vt -2.441373 -1.860823
vt -2.71481 -1.860823
vt -2.441373 -1.876448
vt -2.441373 0.474247
vt -2.71481 0.526331
vt -2.71481 0.474247
vt -2.441373 -1.928531
vt -2.441373 0.526331
vt -2.71481 -1.928531
vt 2.465338 -1.876448
vt 2.738775 -1.860823
vt 2.465338 -1.860823
vt 2.738775 -1.876448
vn 0 1 0
vn 0 0 1
vn 0 0 -1
vn 0 -1 0
usemtl material_0_0
f 1/1/1 2/2/1 3/3/1
f 2/2/1 1/1/1 4/4/1
f 2/5/2 5/6/2 3/7/2
f 1/1/3 6/8/3 4/4/3
f 5/6/2 2/5/2 7/9/2
f 6/8/3 1/1/3 8/10/3
f 6/11/4 5/12/4 7/13/4
f 5/12/4 6/11/4 8/14/4
usemtl material_1_0
f 3//4 2//4 1//4
f 4//4 1//4 2//4
f 3//3 5//3 2//3
f 4//2 6//2 1//2
f 7//3 2//3 5//3
f 8//2 1//2 6//2
f 7//1 5//1 6//1
f 8//1 6//1 5//1
