# SSTK version 0.8.0
# 34
mtllib original-34.mtl
o DF_21_T1/DF_21_T/mesh21/mesh21-geometry#mesh21-geometry
v 0.457373 -0.094438 0.360074
v -0.460332 -0.094438 0.393445
v 0.457373 -0.094438 0.393445
v -0.460332 -0.094438 0.360074
v 0.457373 -0.205675 0.393445
v -0.460332 -0.205675 0.360074
v -0.460332 -0.205675 0.393445
v 0.457373 -0.205675 0.360074
vt -2.71481 0.252893
vt -2.441373 0.268518
vt -2.71481 0.268518
vt -2.441373 0.252893
vt -2.71481 0.320602
vt -2.441373 0.20081
vt -2.441373 0.320602
vt -2.71481 0.20081
vt 2.465338 -1.876448
vt 2.738775 -1.860823
vt 2.465338 -1.860823
vt 2.738775 -1.876448
vn 0 1 0
vn 0 0 1
vn 0 0 -1
vn 0 -1 0
usemtl material_0_0
f 1/1/1 2/2/1 3/3/1
f 2/2/1 1/1/1 4/4/1
f 2/2/2 5/5/2 3/3/2
f 1/1/3 6/6/3 4/4/3
f 5/5/2 2/2/2 7/7/2
f 6/6/3 1/1/3 8/8/3
f 6/9/4 5/10/4 7/11/4
f 5/10/4 6/9/4 8/12/4
usemtl material_1_0
f 3//4 2//4 1//4
f 4//4 1//4 2//4
f 3//3 5//3 2//3
f 4//2 6//2 1//2
f 7//3 2//3 5//3
f 8//2 1//2 6//2
f 7//1 5//1 6//1
f 8//1 6//1 5//1
